# flattened material 0.752941_0.752941_0.752941_0.000000_0.000000 for MuJoCo from ti_presser.obj
v -0.0294599 0.0518728 0.01808 
v -0.0287338 0.049799 0.01808 
v -0.0291778 0.0496563 0.01808 
v -0.0287896 0.0520303 0.01808 
v -0.0282769 0.0498928 0.01808 
v -0.0278619 0.0391366 0.01808 
v -0.0279337 0.0413355 0.01808 
v -0.0274674 0.0413289 0.01808 
v -0.0285479 0.0391965 0.01808 
v -0.0283966 0.0413924 0.01808 
v -0.0304409 0.0397672 0.01808 
v -0.0310456 0.0400964 0.01808 
v -0.029711 0.041856 0.01808 
v -0.0313193 0.0509912 0.01808 
v -0.0300068 0.0492316 0.01808 
v -0.030382 0.0489546 0.01808 
v -0.0307319 0.0513503 0.01808 
v -0.0296038 0.0494664 0.01808 
v -0.0301097 0.0516453 0.01808 
v -0.0217921 0.0427951 0.01808 
v -0.0221251 0.0421925 0.01808 
v -0.0239809 0.0433604 0.01808 
v -0.0225199 0.0416284 0.01808 
v -0.024248 0.0429781 0.01808 
v -0.0234456 0.0406672 0.01808 
v -0.024898 0.042311 0.01808 
v -0.0245549 0.0426269 0.01808 
v -0.0239607 0.0402744 0.01808 
v -0.0252732 0.042034 0.01808 
v -0.0245481 0.0399153 0.01808 
v -0.0256762 0.0417992 0.01808 
v -0.0251703 0.0396203 0.01808 
v -0.0261022 0.0416093 0.01808 
v -0.0292236 0.0393287 0.01808 
v -0.0288507 0.0414991 0.01808 
v -0.0292905 0.0416542 0.01808 
v -0.0298432 0.0395176 0.01808 
v -0.0316121 0.0404877 0.01808 
v -0.0301072 0.0421021 0.01808 
v -0.0339578 0.0471609 0.01808 
v -0.0337621 0.0478167 0.01808 
v -0.0317021 0.0470655 0.01808 
v -0.0334985 0.0484484 0.01808 
v -0.0315234 0.0474963 0.01808 
v -0.03317 0.0490488 0.01808 
v -0.0312991 0.0479052 0.01808 
v -0.0327801 0.0496114 0.01808 
v -0.031032 0.0482875 0.01808 
v -0.0323333 0.0501298 0.01808 
v -0.0307251 0.0486387 0.01808 
v -0.0318344 0.0505984 0.01808 
v -0.0212425 0.0467824 0.01808 
v -0.0211598 0.04614 0.01808 
v -0.0233518 0.0460382 0.01808 
v -0.0211425 0.0454517 0.01808 
v -0.0233331 0.0455722 0.01808 
v -0.0211981 0.0447654 0.01808 
v -0.0233649 0.0451069 0.01808 
v -0.021326 0.0440889 0.01808 
v -0.0234468 0.0446477 0.01808 
v -0.0215248 0.0434296 0.01808 
v -0.0235779 0.0442001 0.01808 
v -0.0237566 0.0437693 0.01808 
v -0.0229722 0.0411093 0.01808 
v -0.0321341 0.0409367 0.01808 
v -0.0304745 0.0423895 0.01808 
v -0.0338913 0.0438522 0.01808 
v -0.0340375 0.0444832 0.01808 
v -0.0318593 0.0447662 0.01808 
v -0.0341199 0.0451215 0.01808 
v -0.0319282 0.0452274 0.01808 
v -0.0248391 0.0514984 0.01808 
v -0.0242344 0.0511692 0.01808 
v -0.025569 0.0494096 0.01808 
v -0.0213887 0.0474135 0.01808 
v -0.0234207 0.0464994 0.01808 
v -0.0258201 0.0393928 0.01808 
v -0.0265462 0.0414667 0.01808 
v -0.0264904 0.0392353 0.01808 
v -0.0270031 0.0413728 0.01808 
v -0.0326056 0.0414384 0.01808 
v -0.0308085 0.042715 0.01808 
v -0.0330214 0.0419872 0.01808 
v -0.0311054 0.0430747 0.01808 
v -0.0336679 0.0432009 0.01808 
v -0.0317408 0.0443151 0.01808 
v -0.0341377 0.0458058 0.01808 
v -0.0340835 0.0464881 0.01808 
v -0.0319151 0.0461588 0.01808 
v -0.0318332 0.0466179 0.01808 
v -0.0267321 0.0520691 0.01808 
v -0.0268834 0.0498732 0.01808 
v -0.0273463 0.0499301 0.01808 
v -0.0260564 0.051937 0.01808 
v -0.0264293 0.0497665 0.01808 
v -0.0259895 0.0496114 0.01808 
v -0.0254368 0.051748 0.01808 
v -0.0236679 0.0507779 0.01808 
v -0.0251728 0.0491635 0.01808 
v -0.0216121 0.0480647 0.01808 
v -0.0235392 0.0469505 0.01808 
v -0.0271735 0.0391496 0.01808 
v -0.0319469 0.0456935 0.01808 
v -0.0281065 0.052116 0.01808 
v -0.0278126 0.0499367 0.01808 
v -0.0274181 0.052129 0.01808 
v -0.0231459 0.0503289 0.01808 
v -0.0248055 0.0488761 0.01808 
v -0.0226744 0.0498272 0.01808 
v -0.0244715 0.0485506 0.01808 
v -0.0222586 0.0492784 0.01808 
v -0.0241746 0.0481909 0.01808 
v -0.0219031 0.0486887 0.01808 
v -0.0239183 0.0478013 0.01808 
v -0.0333769 0.0425769 0.01808 
v -0.0313617 0.0434643 0.01808 
v -0.0315743 0.0438794 0.01808 
v -0.0243495 0.0484123 0.01808 
v -0.0237057 0.0473862 0.01808 
v -0.021127 0.0461399 0.018114 
v -0.0210335 0.0456194 0.0181415 
v -0.0210021 0.0454447 0.0181688 
v -0.0208708 0.0447141 0.0182832 
v -0.0208124 0.044389 0.018334 
v -0.0207299 0.0439302 0.0184493 
v -0.0205787 0.0430888 0.0186606 
v -0.0212236 0.0425441 0.0184626 
v -0.021845 0.0420192 0.0182718 
v -0.0218673 0.0420004 0.018265 
v -0.0224053 0.0415459 0.018176 
v -0.0227881 0.0412226 0.0181128 
v -0.0229481 0.0410874 0.0181048 
v -0.0248227 0.0515268 0.018114 
v -0.0243251 0.0513475 0.0181415 
v -0.0241581 0.0512874 0.0181688 
v -0.0234597 0.0510357 0.0182832 
v -0.023149 0.0509238 0.018334 
v -0.0227104 0.0507658 0.0184493 
v -0.0219062 0.050476 0.0186606 
v -0.0217569 0.0496452 0.0184626 
v -0.021613 0.0488446 0.0182718 
v -0.0216079 0.0488159 0.018265 
v -0.0214833 0.0481227 0.018176 
v -0.0213947 0.0476296 0.0181128 
v -0.0213576 0.0474234 0.0181048 
v -0.0289675 0.05302 0.0186606 
v -0.0281733 0.0527339 0.0184626 
v -0.027408 0.0524582 0.0182718 
v -0.0273806 0.0524483 0.018265 
v -0.026718 0.0522096 0.018176 
v -0.0262466 0.0520398 0.0181128 
v -0.0313369 0.0510186 0.0181048 
v -0.0311768 0.0511538 0.0181128 
v -0.0307941 0.0514771 0.018176 
v -0.030256 0.0519316 0.018265 
v -0.0302338 0.0519504 0.0182718 
v -0.0296124 0.0524753 0.0184626 
v -0.0260495 0.0519688 0.0181048 
v -0.0341523 0.0451216 0.0181138 
v -0.0342465 0.0456462 0.0181415 
v -0.0342764 0.0458124 0.0181675 
v -0.0344068 0.0465384 0.0182811 
v -0.0344676 0.0468766 0.018334 
v -0.0345466 0.0473159 0.0184443 
v -0.0346967 0.0481515 0.0186542 
v -0.034071 0.0487091 0.0184566 
v -0.0336921 0.0490292 0.018334 
v -0.0334636 0.0492222 0.018288 
v -0.0328992 0.049699 0.0181742 
v -0.0327371 0.0498359 0.0181415 
v -0.0323615 0.0501531 0.0181159 
v -0.0347013 0.0481768 0.0186606 
v -0.0304573 0.0397388 0.018114 
v -0.0309549 0.0399181 0.0181415 
v -0.0311219 0.0399783 0.0181688 
v -0.0318203 0.0402299 0.0182832 
v -0.032131 0.0403418 0.018334 
v -0.0325696 0.0404998 0.0184493 
v -0.0333738 0.0407896 0.0186606 
v -0.0335231 0.0416204 0.0184626 
v -0.033667 0.042421 0.0182718 
v -0.0336721 0.0424497 0.018265 
v -0.0337967 0.0431429 0.018176 
v -0.0338853 0.043636 0.0181128 
v -0.0339224 0.0438422 0.0181048 
v -0.0263125 0.0382456 0.0186606 
v -0.0271067 0.0385317 0.0184626 
v -0.027872 0.0388074 0.0182718 
v -0.0278994 0.0388173 0.018265 
v -0.028562 0.039056 0.018176 
v -0.0290334 0.0392258 0.0181128 
v -0.0239443 0.0402459 0.018114 
v -0.0243484 0.0399047 0.0181415 
v -0.024484 0.0397901 0.0181688 
v -0.025051 0.0393111 0.0182832 
v -0.0253034 0.039098 0.018334 
v -0.0256595 0.0387972 0.0184493 
v -0.0292305 0.0392968 0.0181048 
v -0.0229481 0.0410874 0.0230552 
v -0.0234456 0.0406672 0.02308 
v -0.0239728 0.0402219 0.0230441 
v -0.0245105 0.0397677 0.0229858 
v -0.0250749 0.039291 0.022872 
v -0.0256823 0.0387779 0.0227034 
v -0.0263125 0.0382456 0.0224994 
v -0.0253034 0.039098 0.022826 
v -0.0227881 0.0412226 0.0230472 
v -0.0212236 0.0425441 0.0226974 
v -0.021845 0.0420192 0.0228882 
v -0.0218673 0.0420004 0.022895 
v -0.0205787 0.0430888 0.0224994 
v -0.0243484 0.0399047 0.0230185 
v -0.0224053 0.0415459 0.022984 
v -0.021613 0.0488446 0.0228882 
v -0.0216079 0.0488159 0.022895 
v -0.0212425 0.0467824 0.02308 
v -0.021127 0.0461399 0.023046 
v -0.0210021 0.0454447 0.0229912 
v -0.0208708 0.0447141 0.0228768 
v -0.0214833 0.0481227 0.022984 
v -0.0213947 0.0476296 0.0230472 
v -0.0217569 0.0496452 0.0226974 
v -0.0213576 0.0474234 0.0230552 
v -0.0210335 0.0456194 0.0230185 
v -0.0208124 0.044389 0.022826 
v -0.0207299 0.0439302 0.0227107 
v -0.0219062 0.050476 0.0224994 
v -0.0243251 0.0513475 0.0230185 
v -0.0241581 0.0512874 0.0229912 
v -0.0248227 0.0515268 0.023046 
v -0.0234597 0.0510357 0.0228768 
v -0.0227104 0.0507658 0.0227107 
v -0.023149 0.0509238 0.022826 
v -0.0254368 0.051748 0.02308 
v -0.0273806 0.0524483 0.022895 
v -0.026718 0.0522096 0.022984 
v -0.0260495 0.0519688 0.0230552 
v -0.0262466 0.0520398 0.0230472 
v -0.0281733 0.0527339 0.0226974 
v -0.027408 0.0524582 0.0228882 
v -0.0289675 0.05302 0.0224994 
v -0.0323331 0.0501772 0.023046 
v -0.0318344 0.0505984 0.02308 
v -0.0313369 0.0510186 0.0230552 
v -0.0311768 0.0511538 0.0230472 
v -0.0328727 0.0497214 0.0229912 
v -0.0327371 0.0498359 0.0230185 
v -0.0336921 0.0490292 0.022826 
v -0.0340482 0.0487284 0.0227107 
v -0.0307941 0.0514771 0.022984 
v -0.030256 0.0519316 0.022895 
v -0.0296124 0.0524753 0.0226974 
v -0.0302338 0.0519504 0.0228882 
v -0.0334398 0.0492423 0.0228768 
v -0.0347013 0.0481768 0.0224994 
v -0.0345501 0.0473354 0.0227107 
v -0.0342779 0.0458209 0.0229912 
v -0.0344092 0.0465515 0.0228768 
v -0.0344676 0.0468766 0.022826 
v -0.0340375 0.0444832 0.02308 
v -0.034153 0.0451257 0.023046 
v -0.0337967 0.0431429 0.022984 
v -0.0342465 0.0456462 0.0230185 
v -0.0338853 0.043636 0.0230472 
v -0.033667 0.042421 0.0228882 
v -0.0336721 0.0424497 0.022895 
v -0.0335231 0.0416204 0.0226974 
v -0.0339224 0.0438422 0.0230552 
v -0.0333738 0.0407896 0.0224994 
v -0.0325696 0.0404998 0.0227107 
v -0.032131 0.0403418 0.022826 
v -0.0318203 0.0402299 0.0228768 
v -0.0298432 0.0395176 0.02308 
v -0.0304573 0.0397388 0.023046 
v -0.0292344 0.0392982 0.0230554 
v -0.0285701 0.0390589 0.022985 
v -0.0309549 0.0399181 0.0230185 
v -0.0290334 0.0392258 0.0230472 
v -0.0278853 0.0388122 0.0228915 
v -0.0278994 0.0388173 0.022895 
v -0.0271252 0.0385384 0.022702 
v -0.0311219 0.0399783 0.0229912 
v -0.0263364 0.0382542 0.0225054 
v -0.0338913 0.0438522 0.02308 
v -0.0336679 0.0432009 0.02308 
v -0.0333769 0.0425769 0.02308 
v -0.0330214 0.0419872 0.02308 
v -0.0326056 0.0414384 0.02308 
v -0.0321341 0.0409367 0.02308 
v -0.0316121 0.0404877 0.02308 
v -0.0304409 0.0397672 0.02308 
v -0.0310456 0.0400964 0.02308 
v -0.0258436 0.039386 0.02308 
v -0.0251967 0.0396095 0.02308 
v -0.023991 0.0402537 0.02308 
v -0.0245769 0.0398998 0.02308 
v -0.0292275 0.0393297 0.02308 
v -0.0285559 0.0391977 0.02308 
v -0.0278742 0.039137 0.02308 
v -0.0271898 0.0391484 0.02308 
v -0.0277102 0.0391332 0.02308 
v -0.0265105 0.0392317 0.02308 
v -0.0323078 0.0501563 0.02308 
v -0.0327601 0.0496372 0.02308 
v -0.0331549 0.0490731 0.02308 
v -0.0334879 0.0484705 0.02308 
v -0.0337552 0.047836 0.02308 
v -0.033954 0.0471767 0.02308 
v -0.0340599 0.0466504 0.02308 
v -0.0340819 0.0465002 0.02308 
v -0.0341202 0.0451256 0.02308 
v -0.0341375 0.0458139 0.02308 
v -0.0287896 0.0520303 0.02308 
v -0.0294599 0.0518728 0.02308 
v -0.0301097 0.0516453 0.02308 
v -0.0313193 0.0509912 0.02308 
v -0.0307319 0.0513503 0.02308 
v -0.0260564 0.051937 0.02308 
v -0.0267321 0.0520691 0.02308 
v -0.0274181 0.052129 0.02308 
v -0.0281065 0.052116 0.02308 
v -0.0275698 0.0521324 0.02308 
v -0.0229722 0.0411093 0.02308 
v -0.0225199 0.0416284 0.02308 
v -0.0221251 0.0421925 0.02308 
v -0.0217921 0.0427951 0.02308 
v -0.0215248 0.0434296 0.02308 
v -0.021326 0.0440889 0.02308 
v -0.0212201 0.0446153 0.02308 
v -0.0211981 0.0447654 0.02308 
v -0.0211598 0.04614 0.02308 
v -0.0211425 0.0454517 0.02308 
v -0.0213887 0.0474135 0.02308 
v -0.0216121 0.0480647 0.02308 
v -0.0219031 0.0486887 0.02308 
v -0.0222586 0.0492784 0.02308 
v -0.0226744 0.0498272 0.02308 
v -0.0231459 0.0503289 0.02308 
v -0.0236679 0.0507779 0.02308 
v -0.0248391 0.0514984 0.02308 
v -0.0242344 0.0511692 0.02308 
v -0.0281065 0.052116 0.03962 
v -0.0307319 0.0513503 0.03962 
v -0.0301097 0.0516453 0.03962 
v -0.03317 0.0490488 0.03962 
v -0.0327801 0.0496114 0.03962 
v -0.0294599 0.0518728 0.03962 
v -0.0323333 0.0501298 0.03962 
v -0.0337621 0.0478167 0.03962 
v -0.0334985 0.0484484 0.03962 
v -0.0313193 0.0509912 0.03962 
v -0.0318344 0.0505984 0.03962 
v -0.0339578 0.0471609 0.03962 
v -0.0287896 0.0520303 0.03962 
v -0.0275698 0.0521324 0.03962 
v -0.0340599 0.0466504 0.03962 
v -0.0271735 0.0391496 0.03962 
v -0.0221251 0.0421925 0.03962 
v -0.0225199 0.0416284 0.03962 
v -0.0239607 0.0402744 0.03962 
v -0.0258201 0.0393928 0.03962 
v -0.0264904 0.0392353 0.03962 
v -0.0245481 0.0399153 0.03962 
v -0.0251703 0.0396203 0.03962 
v -0.0217921 0.0427951 0.03962 
v -0.021326 0.0440889 0.03962 
v -0.0215248 0.0434296 0.03962 
v -0.0234456 0.0406672 0.03962 
v -0.0229722 0.0411093 0.03962 
v -0.0212201 0.0446153 0.03962 
v -0.0277102 0.0391332 0.03962 
v -0.0263125 0.0382456 0.0402006 
v -0.0271067 0.0385317 0.0400026 
v -0.027872 0.0388074 0.0398118 
v -0.0278619 0.0391366 0.03962 
v -0.0278994 0.0388173 0.039805 
v -0.028562 0.039056 0.039716 
v -0.0292236 0.0393287 0.03962 
v -0.0285479 0.0391965 0.03962 
v -0.0290334 0.0392258 0.0396528 
v -0.0239443 0.0402459 0.039654 
v -0.0243484 0.0399047 0.0396815 
v -0.024484 0.0397901 0.0397088 
v -0.025051 0.0393111 0.0398232 
v -0.0253034 0.039098 0.039874 
v -0.0256595 0.0387972 0.0399893 
v -0.0298432 0.0395176 0.03962 
v -0.0292305 0.0392968 0.0396448 
v -0.0211598 0.04614 0.03962 
v -0.021127 0.0461399 0.039654 
v -0.0210335 0.0456194 0.0396815 
v -0.0211425 0.0454517 0.03962 
v -0.0211981 0.0447654 0.03962 
v -0.0210021 0.0454447 0.0397088 
v -0.0208708 0.0447141 0.0398232 
v -0.0208124 0.044389 0.039874 
v -0.0207299 0.0439302 0.0399893 
v -0.0205787 0.0430888 0.0402006 
v -0.0212236 0.0425441 0.0400026 
v -0.021845 0.0420192 0.0398118 
v -0.0218673 0.0420004 0.039805 
v -0.0224053 0.0415459 0.039716 
v -0.0227881 0.0412226 0.0396528 
v -0.0229481 0.0410874 0.0396448 
v -0.0212425 0.0467824 0.03962 
v -0.0304409 0.0397672 0.03962 
v -0.0304573 0.0397388 0.039654 
v -0.0309549 0.0399181 0.0396815 
v -0.0310456 0.0400964 0.03962 
v -0.0316121 0.0404877 0.03962 
v -0.0311219 0.0399783 0.0397088 
v -0.0321341 0.0409367 0.03962 
v -0.0318203 0.0402299 0.0398232 
v -0.032131 0.0403418 0.039874 
v -0.0326056 0.0414384 0.03962 
v -0.0325696 0.0404998 0.0399893 
v -0.0333738 0.0407896 0.0402006 
v -0.0335231 0.0416204 0.0400026 
v -0.0330214 0.0419872 0.03962 
v -0.033667 0.042421 0.0398118 
v -0.0333769 0.0425769 0.03962 
v -0.0336721 0.0424497 0.039805 
v -0.0337967 0.0431429 0.039716 
v -0.0338913 0.0438522 0.03962 
v -0.0336679 0.0432009 0.03962 
v -0.0338853 0.043636 0.0396528 
v -0.0340375 0.0444832 0.03962 
v -0.0339224 0.0438422 0.0396448 
v -0.0341199 0.0451215 0.03962 
v -0.0341523 0.0451216 0.0396538 
v -0.0342465 0.0456462 0.0396815 
v -0.0341377 0.0458058 0.03962 
v -0.0340835 0.0464881 0.03962 
v -0.0342764 0.0458124 0.0397075 
v -0.0344068 0.0465384 0.0398211 
v -0.0344676 0.0468766 0.039874 
v -0.0345466 0.0473159 0.0399843 
v -0.0346967 0.0481515 0.0401942 
v -0.034071 0.0487091 0.0399966 
v -0.0336921 0.0490292 0.039874 
v -0.0334636 0.0492222 0.039828 
v -0.0328992 0.049699 0.0397142 
v -0.0327371 0.0498359 0.0396815 
v -0.0323615 0.0501531 0.0396559 
v -0.0347013 0.0481768 0.0402006 
v -0.0289675 0.05302 0.0402006 
v -0.0281733 0.0527339 0.0400026 
v -0.027408 0.0524582 0.0398118 
v -0.0274181 0.052129 0.03962 
v -0.0273806 0.0524483 0.039805 
v -0.026718 0.0522096 0.039716 
v -0.0260564 0.051937 0.03962 
v -0.0267321 0.0520691 0.03962 
v -0.0262466 0.0520398 0.0396528 
v -0.0313369 0.0510186 0.0396448 
v -0.0311768 0.0511538 0.0396528 
v -0.0307941 0.0514771 0.039716 
v -0.030256 0.0519316 0.039805 
v -0.0302338 0.0519504 0.0398118 
v -0.0296124 0.0524753 0.0400026 
v -0.0254368 0.051748 0.03962 
v -0.0260495 0.0519688 0.0396448 
v -0.0248391 0.0514984 0.03962 
v -0.0248227 0.0515268 0.039654 
v -0.0243251 0.0513475 0.0396815 
v -0.0242344 0.0511692 0.03962 
v -0.0236679 0.0507779 0.03962 
v -0.0241581 0.0512874 0.0397088 
v -0.0231459 0.0503289 0.03962 
v -0.0234597 0.0510357 0.0398232 
v -0.023149 0.0509238 0.039874 
v -0.0226744 0.0498272 0.03962 
v -0.0227104 0.0507658 0.0399893 
v -0.0219062 0.050476 0.0402006 
v -0.0217569 0.0496452 0.0400026 
v -0.0222586 0.0492784 0.03962 
v -0.021613 0.0488446 0.0398118 
v -0.0219031 0.0486887 0.03962 
v -0.0216079 0.0488159 0.039805 
v -0.0214833 0.0481227 0.039716 
v -0.0213887 0.0474135 0.03962 
v -0.0216121 0.0480647 0.03962 
v -0.0213947 0.0476296 0.0396528 
v -0.0213576 0.0474234 0.0396448 
v -0.0325696 0.0404998 0.0442507 
v -0.0333738 0.0407896 0.0440394 
v -0.032131 0.0403418 0.044366 
v -0.0298432 0.0395176 0.04462 
v -0.0304573 0.0397388 0.044586 
v -0.0292344 0.0392982 0.0445954 
v -0.0285701 0.0390589 0.044525 
v -0.0318203 0.0402299 0.0444168 
v -0.0311219 0.0399783 0.0445312 
v -0.0309549 0.0399181 0.0445585 
v -0.0290334 0.0392258 0.0445872 
v -0.0278853 0.0388122 0.0444315 
v -0.0278994 0.0388173 0.044435 
v -0.0263125 0.0382456 0.0440394 
v -0.0263364 0.0382542 0.0440454 
v -0.0271252 0.0385384 0.044242 
v -0.0344676 0.0468766 0.044366 
v -0.0345501 0.0473354 0.0442507 
v -0.0344092 0.0465515 0.0444168 
v -0.0342779 0.0458209 0.0445312 
v -0.0347013 0.0481768 0.0440394 
v -0.0340375 0.0444832 0.04462 
v -0.034153 0.0451257 0.044586 
v -0.0342465 0.0456462 0.0445585 
v -0.0339224 0.0438422 0.0445952 
v -0.0337967 0.0431429 0.044524 
v -0.033667 0.042421 0.0444282 
v -0.0338853 0.043636 0.0445872 
v -0.0336721 0.0424497 0.044435 
v -0.0335231 0.0416204 0.0442374 
v -0.0323331 0.0501772 0.044586 
v -0.0318344 0.0505984 0.04462 
v -0.0313369 0.0510186 0.0445952 
v -0.0307941 0.0514771 0.044524 
v -0.030256 0.0519316 0.044435 
v -0.0328727 0.0497214 0.0445312 
v -0.0327371 0.0498359 0.0445585 
v -0.0296124 0.0524753 0.0442374 
v -0.0289675 0.05302 0.0440394 
v -0.0311768 0.0511538 0.0445872 
v -0.0336921 0.0490292 0.044366 
v -0.0340482 0.0487284 0.0442507 
v -0.0302338 0.0519504 0.0444282 
v -0.0334398 0.0492423 0.0444168 
v -0.023149 0.0509238 0.044366 
v -0.0227104 0.0507658 0.0442507 
v -0.0241581 0.0512874 0.0445312 
v -0.0234597 0.0510357 0.0444168 
v -0.0219062 0.050476 0.0440394 
v -0.0254368 0.051748 0.04462 
v -0.0248227 0.0515268 0.044586 
v -0.0243251 0.0513475 0.0445585 
v -0.0260495 0.0519688 0.0445952 
v -0.026718 0.0522096 0.044524 
v -0.027408 0.0524582 0.0444282 
v -0.0262466 0.0520398 0.0445872 
v -0.0273806 0.0524483 0.044435 
v -0.0281733 0.0527339 0.0442374 
v -0.0210335 0.0456194 0.0445585 
v -0.0210021 0.0454447 0.0445312 
v -0.0212425 0.0467824 0.04462 
v -0.021127 0.0461399 0.044586 
v -0.0213576 0.0474234 0.0445952 
v -0.0214833 0.0481227 0.044524 
v -0.0213947 0.0476296 0.0445872 
v -0.0207299 0.0439302 0.0442507 
v -0.0205787 0.0430888 0.0440394 
v -0.0208708 0.0447141 0.0444168 
v -0.0208124 0.044389 0.044366 
v -0.021613 0.0488446 0.0444282 
v -0.0216079 0.0488159 0.044435 
v -0.0217569 0.0496452 0.0442374 
v -0.0256823 0.0387779 0.0442434 
v -0.0253034 0.039098 0.044366 
v -0.0250749 0.039291 0.044412 
v -0.0245105 0.0397677 0.0445258 
v -0.0234456 0.0406672 0.04462 
v -0.0239728 0.0402219 0.0445841 
v -0.0243484 0.0399047 0.0445585 
v -0.0229481 0.0410874 0.0445952 
v -0.0224053 0.0415459 0.044524 
v -0.021845 0.0420192 0.0444282 
v -0.0227881 0.0412226 0.0445872 
v -0.0218673 0.0420004 0.044435 
v -0.0212236 0.0425441 0.0442374 
v -0.0229722 0.0411093 0.04462 
v -0.0225199 0.0416284 0.04462 
v -0.0221251 0.0421925 0.04462 
v -0.0217921 0.0427951 0.04462 
v -0.0215248 0.0434296 0.04462 
v -0.021326 0.0440889 0.04462 
v -0.0211981 0.0447654 0.04462 
v -0.0211598 0.04614 0.04462 
v -0.0211425 0.0454517 0.04462 
v -0.0213887 0.0474135 0.04462 
v -0.0216121 0.0480647 0.04462 
v -0.0219031 0.0486887 0.04462 
v -0.0222586 0.0492784 0.04462 
v -0.0226744 0.0498272 0.04462 
v -0.0231459 0.0503289 0.04462 
v -0.0236679 0.0507779 0.04462 
v -0.0248391 0.0514984 0.04462 
v -0.0242344 0.0511692 0.04462 
v -0.0287896 0.0520303 0.04462 
v -0.0294599 0.0518728 0.04462 
v -0.0301097 0.0516453 0.04462 
v -0.0313193 0.0509912 0.04462 
v -0.0307319 0.0513503 0.04462 
v -0.0260564 0.051937 0.04462 
v -0.0267321 0.0520691 0.04462 
v -0.0274181 0.052129 0.04462 
v -0.0281065 0.052116 0.04462 
v -0.0323078 0.0501563 0.04462 
v -0.0327601 0.0496372 0.04462 
v -0.0331549 0.0490731 0.04462 
v -0.0334879 0.0484705 0.04462 
v -0.0337552 0.047836 0.04462 
v -0.033954 0.0471767 0.04462 
v -0.0340819 0.0465002 0.04462 
v -0.0341202 0.0451256 0.04462 
v -0.0341375 0.0458139 0.04462 
v -0.0338913 0.0438522 0.04462 
v -0.0336679 0.0432009 0.04462 
v -0.0333769 0.0425769 0.04462 
v -0.0330214 0.0419872 0.04462 
v -0.0326056 0.0414384 0.04462 
v -0.0321341 0.0409367 0.04462 
v -0.0316121 0.0404877 0.04462 
v -0.0304409 0.0397672 0.04462 
v -0.0310456 0.0400964 0.04462 
v -0.0258436 0.039386 0.04462 
v -0.0251967 0.0396095 0.04462 
v -0.023991 0.0402537 0.04462 
v -0.0245769 0.0398998 0.04462 
v -0.0292275 0.0393297 0.04462 
v -0.0285559 0.0391977 0.04462 
v -0.0278742 0.039137 0.04462 
v -0.0271898 0.0391484 0.04462 
v -0.0265105 0.0392317 0.04462 
v -0.0282263 0.0495542 0.04462 
v -0.0286468 0.0494678 0.04462 
v -0.0290556 0.0493365 0.04462 
v -0.0294477 0.0491617 0.04462 
v -0.0301641 0.0486906 0.04462 
v -0.0304799 0.0483998 0.04462 
v -0.0298187 0.0489456 0.04462 
v -0.0273696 0.0495886 0.04462 
v -0.0277989 0.0495946 0.04462 
v -0.0307624 0.0480765 0.04462 
v -0.0310083 0.0477246 0.04462 
v -0.0312147 0.0473482 0.04462 
v -0.0313792 0.0469516 0.04462 
v -0.0315753 0.046117 0.04462 
v -0.0314999 0.0465396 0.04462 
v -0.0316046 0.0456886 0.04462 
v -0.0248001 0.0428658 0.04462 
v -0.0245176 0.0431891 0.04462 
v -0.0242717 0.043541 0.04462 
v -0.0240653 0.0439174 0.04462 
v -0.0237801 0.044726 0.04462 
v -0.0239008 0.044314 0.04462 
v -0.0237047 0.0451487 0.04462 
v -0.0261207 0.0492952 0.04462 
v -0.0257336 0.0491094 0.04462 
v -0.0253689 0.0488829 0.04462 
v -0.0315874 0.0452597 0.04462 
v -0.0315239 0.0448351 0.04462 
v -0.0314149 0.0444198 0.04462 
v -0.0312616 0.0440188 0.04462 
v -0.0236926 0.046006 0.04462 
v -0.0236754 0.045577 0.04462 
v -0.0237561 0.0464306 0.04462 
v -0.0238651 0.0468458 0.04462 
v -0.0240184 0.0472468 0.04462 
v -0.024611 0.0481914 0.04462 
v -0.02445 0.0479876 0.04462 
v -0.0265256 0.049438 0.04462 
v -0.0269435 0.0495362 0.04462 
v -0.0247233 0.0483187 0.04462 
v -0.0250308 0.0486183 0.04462 
v -0.0310659 0.0436367 0.04462 
v -0.0242141 0.0476289 0.04462 
v -0.03083 0.043278 0.04462 
v -0.0305567 0.0429469 0.04462 
v -0.0266332 0.0417978 0.04462 
v -0.0262244 0.0419291 0.04462 
v -0.0302492 0.0426473 0.04462 
v -0.0299111 0.0423827 0.04462 
v -0.0291593 0.0419704 0.04462 
v -0.0295464 0.0421562 0.04462 
v -0.0274811 0.041671 0.04462 
v -0.0270537 0.0417114 0.04462 
v -0.0258323 0.0421039 0.04462 
v -0.0254613 0.04232 0.04462 
v -0.0251159 0.042575 0.04462 
v -0.0287544 0.0418276 0.04462 
v -0.0283365 0.0417295 0.04462 
v -0.0279104 0.041677 0.04462 
v -0.02764 0.0456328 0.0635 
v -0.0304799 0.0483998 0.0635 
v -0.0307624 0.0480765 0.0635 
v -0.0310083 0.0477246 0.0635 
v -0.0312147 0.0473482 0.0635 
v -0.0313792 0.0469516 0.0635 
v -0.0314999 0.0465396 0.0635 
v -0.0315753 0.046117 0.0635 
v -0.0316046 0.0456886 0.0635 
v -0.0315874 0.0452597 0.0635 
v -0.0315239 0.0448351 0.0635 
v -0.0314149 0.0444198 0.0635 
v -0.0312616 0.0440188 0.0635 
v -0.0310659 0.0436367 0.0635 
v -0.03083 0.043278 0.0635 
v -0.0305567 0.0429469 0.0635 
v -0.0302492 0.0426473 0.0635 
v -0.0299111 0.0423827 0.0635 
v -0.0295464 0.0421562 0.0635 
v -0.0291593 0.0419704 0.0635 
v -0.0287544 0.0418276 0.0635 
v -0.0283365 0.0417295 0.0635 
v -0.0279104 0.041677 0.0635 
v -0.0274811 0.041671 0.0635 
v -0.0270537 0.0417114 0.0635 
v -0.0266332 0.0417978 0.0635 
v -0.0262244 0.0419291 0.0635 
v -0.0258323 0.0421039 0.0635 
v -0.0254613 0.04232 0.0635 
v -0.0251159 0.042575 0.0635 
v -0.0248001 0.0428658 0.0635 
v -0.0245176 0.0431891 0.0635 
v -0.0242717 0.043541 0.0635 
v -0.0240653 0.0439174 0.0635 
v -0.0239008 0.044314 0.0635 
v -0.0237801 0.044726 0.0635 
v -0.0237047 0.0451487 0.0635 
v -0.0236754 0.045577 0.0635 
v -0.0236926 0.046006 0.0635 
v -0.0237561 0.0464306 0.0635 
v -0.0238651 0.0468458 0.0635 
v -0.0240184 0.0472468 0.0635 
v -0.0242141 0.0476289 0.0635 
v -0.02445 0.0479876 0.0635 
v -0.0247233 0.0483187 0.0635 
v -0.0250308 0.0486183 0.0635 
v -0.0253689 0.0488829 0.0635 
v -0.0257336 0.0491094 0.0635 
v -0.0261207 0.0492952 0.0635 
v -0.0265256 0.049438 0.0635 
v -0.0269435 0.0495362 0.0635 
v -0.0273696 0.0495886 0.0635 
v -0.0277989 0.0495946 0.0635 
v -0.0282263 0.0495542 0.0635 
v -0.0286468 0.0494678 0.0635 
v -0.0290556 0.0493365 0.0635 
v -0.0294477 0.0491617 0.0635 
v -0.0298187 0.0489456 0.0635 
v -0.0301641 0.0486906 0.0635 
v -0.0301986 0.0486618 0.0635 
vn -8.08315e-17 -1.19369e-16 -1 
vn 0.498476 0.0390142 -0.866025 
vn 0.498491 0.0388125 -0.866025 
vn 0.499999 -0.00101605 -0.866025 
vn 0.499806 -0.0139325 -0.866025 
vn 0.495528 -0.0667229 -0.866025 
vn 0.499799 -0.0141642 -0.866025 
vn 0.48569 -0.118765 -0.866025 
vn 0.495457 -0.0672454 -0.866025 
vn 0.491904 -0.0896115 -0.866025 
vn 0.470403 -0.169474 -0.866025 
vn 0.48548 -0.119622 -0.866025 
vn 0.470403 -0.169474 -0.866025 
vn 0.450519 -0.216871 -0.866025 
vn 0.449837 -0.218281 -0.866025 
vn 0.42427 -0.264566 -0.866025 
vn 0.424224 -0.26464 -0.866025 
vn 0.423191 -0.266288 -0.866025 
vn 0.394111 -0.307695 -0.866025 
vn 0.359059 -0.347961 -0.866025 
vn 0.393851 -0.308028 -0.866025 
vn 0.369995 -0.336309 -0.866025 
vn 0.322644 -0.38197 -0.866025 
vn 0.359114 -0.347904 -0.866025 
vn 0.492118 0.0884328 -0.866025 
vn 0.215451 0.4512 -0.866025 
vn 0.215633 0.451112 -0.866025 
vn 0.250879 0.432504 -0.866025 
vn 0.261969 0.425878 -0.866025 
vn 0.305548 0.395778 -0.866025 
vn 0.262166 0.425757 -0.866025 
vn 0.345698 0.361238 -0.866025 
vn 0.305965 0.395456 -0.866025 
vn 0.323558 0.381196 -0.866025 
vn 0.38197 0.322644 -0.866025 
vn 0.346335 0.360627 -0.866025 
vn 0.413075 0.281725 -0.866025 
vn 0.413956 0.28043 -0.866025 
vn 0.441255 0.235146 -0.866025 
vn 0.441296 0.235069 -0.866025 
vn 0.442208 0.23335 -0.866025 
vn 0.463528 0.187462 -0.866025 
vn 0.480872 0.136973 -0.866025 
vn 0.463686 0.187071 -0.866025 
vn 0.47625 0.152271 -0.866025 
vn 0.492118 0.0884328 -0.866025 
vn 0.480851 0.13705 -0.866025 
vn 0.169474 0.470403 -0.866025 
vn -0.0884328 0.492118 -0.866025 
vn -0.0884328 0.492118 -0.866025 
vn -0.0374438 0.498596 -0.866025 
vn -0.0358814 0.498711 -0.866025 
vn 0.0169854 0.499711 -0.866025 
vn 0.0170726 0.499708 -0.866025 
vn 0.0190166 0.499638 -0.866025 
vn 0.0694166 0.495158 -0.866025 
vn 0.121814 0.484934 -0.866025 
vn 0.069835 0.495099 -0.866025 
vn 0.106254 0.48858 -0.866025 
vn -0.283025 0.412185 -0.866025 
vn -0.282959 0.412231 -0.866025 
vn -0.269708 0.42102 -0.866025 
vn -0.237837 0.439811 -0.866025 
vn -0.18998 0.462501 -0.866025 
vn -0.237465 0.440012 -0.866025 
vn -0.191778 0.461759 -0.866025 
vn -0.139992 0.480002 -0.866025 
vn -0.1899 0.462534 -0.866025 
vn -0.138487 0.480439 -0.866025 
vn -0.322644 0.38197 -0.866025 
vn 0.169474 0.470403 -0.866025 
vn 0.121736 0.484954 -0.866025 
vn -0.498451 -0.0393274 -0.866025 
vn -0.498467 -0.0391267 -0.866025 
vn -0.499999 0.00101605 -0.866025 
vn -0.499823 0.0133044 -0.866025 
vn -0.495653 0.0657887 -0.866025 
vn -0.499817 0.0135254 -0.866025 
vn -0.485987 0.117544 -0.866025 
vn -0.495582 0.0663219 -0.866025 
vn -0.491904 0.0896115 -0.866025 
vn -0.470933 0.167995 -0.866025 
vn -0.485784 0.118381 -0.866025 
vn -0.470905 0.168074 -0.866025 
vn -0.451051 0.215762 -0.866025 
vn -0.450657 0.216584 -0.866025 
vn -0.43603 0.244699 -0.866025 
vn -0.425646 0.262346 -0.866025 
vn -0.425384 0.262771 -0.866025 
vn -0.395562 0.305828 -0.866025 
vn -0.36102 0.345925 -0.866025 
vn -0.395394 0.306045 -0.866025 
vn -0.385762 0.3181 -0.866025 
vn -0.322644 0.38197 -0.866025 
vn -0.361166 0.345774 -0.866025 
vn -0.470403 0.169474 -0.866025 
vn -0.492118 -0.0884328 -0.866025 
vn -0.215451 -0.4512 -0.866025 
vn -0.215633 -0.451112 -0.866025 
vn -0.250879 -0.432504 -0.866025 
vn -0.261969 -0.425878 -0.866025 
vn -0.305548 -0.395778 -0.866025 
vn -0.262166 -0.425757 -0.866025 
vn -0.345698 -0.361238 -0.866025 
vn -0.305965 -0.395456 -0.866025 
vn -0.323558 -0.381196 -0.866025 
vn -0.38197 -0.322644 -0.866025 
vn -0.346335 -0.360627 -0.866025 
vn -0.413075 -0.281725 -0.866025 
vn -0.413956 -0.28043 -0.866025 
vn -0.441255 -0.235146 -0.866025 
vn -0.441296 -0.235069 -0.866025 
vn -0.442208 -0.23335 -0.866025 
vn -0.463528 -0.187462 -0.866025 
vn -0.480872 -0.136973 -0.866025 
vn -0.463686 -0.187071 -0.866025 
vn -0.47625 -0.152271 -0.866025 
vn -0.492118 -0.0884328 -0.866025 
vn -0.480851 -0.13705 -0.866025 
vn -0.169474 -0.470403 -0.866025 
vn 0.0884328 -0.492118 -0.866025 
vn 0.0884328 -0.492118 -0.866025 
vn 0.0374438 -0.498596 -0.866025 
vn 0.0358814 -0.498711 -0.866025 
vn -0.0169854 -0.499711 -0.866025 
vn -0.0170726 -0.499708 -0.866025 
vn -0.0190166 -0.499638 -0.866025 
vn -0.0694166 -0.495158 -0.866025 
vn -0.121814 -0.484934 -0.866025 
vn -0.069835 -0.495099 -0.866025 
vn -0.106254 -0.48858 -0.866025 
vn 0.283025 -0.412185 -0.866025 
vn 0.282858 -0.4123 -0.866025 
vn 0.24912 -0.43352 -0.866025 
vn 0.237837 -0.439811 -0.866025 
vn 0.18998 -0.462501 -0.866025 
vn 0.237633 -0.439921 -0.866025 
vn 0.139992 -0.480002 -0.866025 
vn 0.189493 -0.462701 -0.866025 
vn 0.168346 -0.470807 -0.866025 
vn 0.139144 -0.480249 -0.866025 
vn 0.322644 -0.38197 -0.866025 
vn -0.169474 -0.470403 -0.866025 
vn -0.121736 -0.484954 -0.866025 
vn 0.645288 -0.76394 5.55112e-17 
vn 0.984235 0.176866 -8.54278e-17 
vn 0.338947 0.940805 -1.24459e-16 
vn -0.645288 0.76394 -5.55112e-17 
vn -0.984235 -0.176866 8.54278e-17 
vn -0.338947 -0.940805 1.24459e-16 
vn -0.480872 -0.136973 0.866025 
vn -0.480851 -0.13705 0.866025 
vn -0.47625 -0.152271 0.866025 
vn -0.463686 -0.187071 0.866025 
vn -0.441296 -0.235069 0.866025 
vn -0.463528 -0.187462 0.866025 
vn -0.442208 -0.23335 0.866025 
vn -0.413956 -0.28043 0.866025 
vn -0.441255 -0.235146 0.866025 
vn -0.38197 -0.322644 0.866025 
vn -0.413075 -0.281725 0.866025 
vn -0.346335 -0.360627 0.866025 
vn -0.345698 -0.361238 0.866025 
vn -0.323558 -0.381196 0.866025 
vn -0.305965 -0.395456 0.866025 
vn -0.305548 -0.395778 0.866025 
vn -0.262166 -0.425757 0.866025 
vn -0.215451 -0.4512 0.866025 
vn -0.261969 -0.425878 0.866025 
vn -0.250879 -0.432504 0.866025 
vn -0.169474 -0.470403 0.866025 
vn -0.215633 -0.451112 0.866025 
vn -0.492118 -0.0884328 0.866025 
vn 0.138181 -0.480527 0.866025 
vn 0.168346 -0.470807 0.866025 
vn 0.187482 -0.46352 0.866025 
vn 0.137305 -0.480778 0.866025 
vn 0.187944 -0.463332 0.866025 
vn 0.235382 -0.44113 0.866025 
vn 0.28069 -0.413779 0.866025 
vn 0.235623 -0.441001 0.866025 
vn 0.24912 -0.43352 0.866025 
vn -0.122119 -0.484858 0.866025 
vn -0.122041 -0.484877 0.866025 
vn -0.106254 -0.48858 0.866025 
vn -0.0704571 -0.495011 0.866025 
vn -0.0180145 -0.499675 0.866025 
vn -0.0700432 -0.49507 0.866025 
vn -0.0190166 -0.499638 0.866025 
vn 0.0361837 -0.498689 0.866025 
vn 0.0346279 -0.498799 0.866025 
vn -0.00540226 -0.499971 0.866025 
vn -0.0179694 -0.499677 0.866025 
vn 0.0868864 -0.492393 0.866025 
vn 0.0869904 -0.492375 0.866025 
vn 0.0884328 -0.492118 0.866025 
vn -0.169474 -0.470403 0.866025 
vn 0.322644 -0.38197 0.866025 
vn 0.280516 -0.413897 0.866025 
vn -0.359059 0.347961 0.866025 
vn -0.359199 0.347816 0.866025 
vn -0.385762 0.3181 0.866025 
vn -0.393851 0.308028 0.866025 
vn -0.424224 0.26464 0.866025 
vn -0.393994 0.307846 0.866025 
vn -0.449837 0.218281 0.866025 
vn -0.424503 0.264192 0.866025 
vn -0.43603 0.244699 0.866025 
vn -0.470403 0.169474 0.866025 
vn -0.450222 0.217487 0.866025 
vn -0.470403 0.169474 0.866025 
vn -0.48548 0.119622 0.866025 
vn -0.48569 0.118765 0.866025 
vn -0.491904 0.0896115 0.866025 
vn -0.493835 0.0782728 0.866025 
vn -0.495457 0.0672454 0.866025 
vn -0.495528 0.0667229 0.866025 
vn -0.499799 0.0141642 0.866025 
vn -0.498476 -0.0390142 0.866025 
vn -0.499806 0.0139325 0.866025 
vn -0.499999 0.00101605 0.866025 
vn -0.492118 -0.0884328 0.866025 
vn -0.498491 -0.0388125 0.866025 
vn -0.322644 0.38197 0.866025 
vn -0.0884328 0.492118 0.866025 
vn -0.0884328 0.492118 0.866025 
vn -0.138487 0.480439 0.866025 
vn -0.139992 0.480002 0.866025 
vn -0.1899 0.462534 0.866025 
vn -0.18998 0.462501 0.866025 
vn -0.191778 0.461759 0.866025 
vn -0.237465 0.440012 0.866025 
vn -0.283025 0.412185 0.866025 
vn -0.237837 0.439811 0.866025 
vn -0.269708 0.42102 0.866025 
vn 0.121814 0.484934 0.866025 
vn 0.121736 0.484954 0.866025 
vn 0.106254 0.48858 0.866025 
vn 0.069835 0.495099 0.866025 
vn 0.0170726 0.499708 0.866025 
vn 0.0694166 0.495158 0.866025 
vn 0.0190166 0.499638 0.866025 
vn -0.0374438 0.498596 0.866025 
vn -0.0358814 0.498711 0.866025 
vn 0.00540226 0.499971 0.866025 
vn 0.0169854 0.499711 0.866025 
vn 0.169474 0.470403 0.866025 
vn -0.322644 0.38197 0.866025 
vn -0.282959 0.412231 0.866025 
vn 0.359059 -0.347961 0.866025 
vn 0.359114 -0.347904 0.866025 
vn 0.369995 -0.336309 0.866025 
vn 0.393851 -0.308028 0.866025 
vn 0.424224 -0.26464 0.866025 
vn 0.394111 -0.307695 0.866025 
vn 0.423191 -0.266288 0.866025 
vn 0.449837 -0.218281 0.866025 
vn 0.42427 -0.264566 0.866025 
vn 0.470403 -0.169474 0.866025 
vn 0.450519 -0.216871 0.866025 
vn 0.470403 -0.169474 0.866025 
vn 0.48548 -0.119622 0.866025 
vn 0.48569 -0.118765 0.866025 
vn 0.491904 -0.0896115 0.866025 
vn 0.493835 -0.0782728 0.866025 
vn 0.495457 -0.0672454 0.866025 
vn 0.495528 -0.0667229 0.866025 
vn 0.499799 -0.0141642 0.866025 
vn 0.498476 0.0390142 0.866025 
vn 0.499806 -0.0139325 0.866025 
vn 0.499999 -0.00101605 0.866025 
vn 0.492118 0.0884328 0.866025 
vn 0.498491 0.0388125 0.866025 
vn 0.322644 -0.38197 0.866025 
vn 0.480872 0.136973 0.866025 
vn 0.480851 0.13705 0.866025 
vn 0.47625 0.152271 0.866025 
vn 0.463686 0.187071 0.866025 
vn 0.441296 0.235069 0.866025 
vn 0.463528 0.187462 0.866025 
vn 0.442208 0.23335 0.866025 
vn 0.413956 0.28043 0.866025 
vn 0.441255 0.235146 0.866025 
vn 0.38197 0.322644 0.866025 
vn 0.413075 0.281725 0.866025 
vn 0.346335 0.360627 0.866025 
vn 0.345698 0.361238 0.866025 
vn 0.323558 0.381196 0.866025 
vn 0.305965 0.395456 0.866025 
vn 0.305548 0.395778 0.866025 
vn 0.262166 0.425757 0.866025 
vn 0.215451 0.4512 0.866025 
vn 0.261969 0.425878 0.866025 
vn 0.250879 0.432504 0.866025 
vn 0.169474 0.470403 0.866025 
vn 0.215633 0.451112 0.866025 
vn 0.492118 0.0884328 0.866025 
vn 2.77901e-17 9.61382e-17 1 
vn -2.77901e-17 -9.61382e-17 -1 
vn 0.0884328 -0.492118 -0.866025 
vn 0.0374438 -0.498596 -0.866025 
vn -0.0169854 -0.499711 -0.866025 
vn -0.00540226 -0.499971 -0.866025 
vn -0.0170726 -0.499708 -0.866025 
vn -0.0190166 -0.499638 -0.866025 
vn -0.0694166 -0.495158 -0.866025 
vn -0.121814 -0.484934 -0.866025 
vn -0.069835 -0.495099 -0.866025 
vn -0.106254 -0.48858 -0.866025 
vn 0.283025 -0.412185 -0.866025 
vn 0.282858 -0.4123 -0.866025 
vn 0.24912 -0.43352 -0.866025 
vn 0.237837 -0.439811 -0.866025 
vn 0.18998 -0.462501 -0.866025 
vn 0.237633 -0.439921 -0.866025 
vn 0.139992 -0.480002 -0.866025 
vn 0.189493 -0.462701 -0.866025 
vn 0.168346 -0.470807 -0.866025 
vn 0.139144 -0.480249 -0.866025 
vn 0.322644 -0.38197 -0.866025 
vn -0.169474 -0.470403 -0.866025 
vn -0.121736 -0.484954 -0.866025 
vn 0.0358814 -0.498711 -0.866025 
vn 0.498476 0.0390142 -0.866025 
vn 0.498491 0.0388125 -0.866025 
vn 0.499999 -0.00101605 -0.866025 
vn 0.499806 -0.0139325 -0.866025 
vn 0.495528 -0.0667229 -0.866025 
vn 0.499799 -0.0141642 -0.866025 
vn 0.493835 -0.0782728 -0.866025 
vn 0.495457 -0.0672454 -0.866025 
vn 0.48569 -0.118765 -0.866025 
vn 0.491904 -0.0896115 -0.866025 
vn 0.48548 -0.119622 -0.866025 
vn 0.470403 -0.169474 -0.866025 
vn 0.450519 -0.216871 -0.866025 
vn 0.449837 -0.218281 -0.866025 
vn 0.42427 -0.264566 -0.866025 
vn 0.424224 -0.26464 -0.866025 
vn 0.423191 -0.266288 -0.866025 
vn 0.394111 -0.307695 -0.866025 
vn 0.359059 -0.347961 -0.866025 
vn 0.393851 -0.308028 -0.866025 
vn 0.369995 -0.336309 -0.866025 
vn 0.322644 -0.38197 -0.866025 
vn 0.359114 -0.347904 -0.866025 
vn 0.492118 0.0884328 -0.866025 
vn -0.215451 -0.4512 -0.866025 
vn -0.215633 -0.451112 -0.866025 
vn -0.250879 -0.432504 -0.866025 
vn -0.261969 -0.425878 -0.866025 
vn -0.305548 -0.395778 -0.866025 
vn -0.262166 -0.425757 -0.866025 
vn -0.345698 -0.361238 -0.866025 
vn -0.305965 -0.395456 -0.866025 
vn -0.323558 -0.381196 -0.866025 
vn -0.38197 -0.322644 -0.866025 
vn -0.346335 -0.360627 -0.866025 
vn -0.413075 -0.281725 -0.866025 
vn -0.413956 -0.28043 -0.866025 
vn -0.441255 -0.235146 -0.866025 
vn -0.441296 -0.235069 -0.866025 
vn -0.442208 -0.23335 -0.866025 
vn -0.463528 -0.187462 -0.866025 
vn -0.480872 -0.136973 -0.866025 
vn -0.463686 -0.187071 -0.866025 
vn -0.47625 -0.152271 -0.866025 
vn -0.492118 -0.0884328 -0.866025 
vn -0.480851 -0.13705 -0.866025 
vn -0.169474 -0.470403 -0.866025 
vn -0.498451 -0.0393274 -0.866025 
vn -0.498467 -0.0391267 -0.866025 
vn -0.499999 0.00101605 -0.866025 
vn -0.499823 0.0133044 -0.866025 
vn -0.495653 0.0657887 -0.866025 
vn -0.499817 0.0135254 -0.866025 
vn -0.493835 0.0782728 -0.866025 
vn -0.495582 0.0663219 -0.866025 
vn -0.485987 0.117544 -0.866025 
vn -0.491904 0.0896115 -0.866025 
vn -0.485784 0.118381 -0.866025 
vn -0.470933 0.167995 -0.866025 
vn -0.470905 0.168074 -0.866025 
vn -0.451051 0.215762 -0.866025 
vn -0.450657 0.216584 -0.866025 
vn -0.43603 0.244699 -0.866025 
vn -0.425646 0.262346 -0.866025 
vn -0.425384 0.262771 -0.866025 
vn -0.395562 0.305828 -0.866025 
vn -0.36102 0.345925 -0.866025 
vn -0.395394 0.306045 -0.866025 
vn -0.385762 0.3181 -0.866025 
vn -0.322644 0.38197 -0.866025 
vn -0.361166 0.345774 -0.866025 
vn -0.470403 0.169474 -0.866025 
vn -0.492118 -0.0884328 -0.866025 
vn -0.0884328 0.492118 -0.866025 
vn -0.0374438 0.498596 -0.866025 
vn 0.0169854 0.499711 -0.866025 
vn 0.00540226 0.499971 -0.866025 
vn 0.0170726 0.499708 -0.866025 
vn 0.0190166 0.499638 -0.866025 
vn 0.0694166 0.495158 -0.866025 
vn 0.121814 0.484934 -0.866025 
vn 0.069835 0.495099 -0.866025 
vn 0.106254 0.48858 -0.866025 
vn -0.283025 0.412185 -0.866025 
vn -0.282959 0.412231 -0.866025 
vn -0.269708 0.42102 -0.866025 
vn -0.237837 0.439811 -0.866025 
vn -0.18998 0.462501 -0.866025 
vn -0.237465 0.440012 -0.866025 
vn -0.191778 0.461759 -0.866025 
vn -0.139992 0.480002 -0.866025 
vn -0.1899 0.462534 -0.866025 
vn -0.138487 0.480439 -0.866025 
vn -0.322644 0.38197 -0.866025 
vn 0.169474 0.470403 -0.866025 
vn 0.121736 0.484954 -0.866025 
vn -0.0358814 0.498711 -0.866025 
vn 0.215451 0.4512 -0.866025 
vn 0.215633 0.451112 -0.866025 
vn 0.250879 0.432504 -0.866025 
vn 0.261969 0.425878 -0.866025 
vn 0.305548 0.395778 -0.866025 
vn 0.262166 0.425757 -0.866025 
vn 0.345698 0.361238 -0.866025 
vn 0.305965 0.395456 -0.866025 
vn 0.323558 0.381196 -0.866025 
vn 0.38197 0.322644 -0.866025 
vn 0.346335 0.360627 -0.866025 
vn 0.413075 0.281725 -0.866025 
vn 0.413956 0.28043 -0.866025 
vn 0.441255 0.235146 -0.866025 
vn 0.441296 0.235069 -0.866025 
vn 0.442208 0.23335 -0.866025 
vn 0.463528 0.187462 -0.866025 
vn 0.480872 0.136973 -0.866025 
vn 0.463686 0.187071 -0.866025 
vn 0.47625 0.152271 -0.866025 
vn 0.492118 0.0884328 -0.866025 
vn 0.480851 0.13705 -0.866025 
vn 0.169474 0.470403 -0.866025 
vn -0.338947 -0.940805 1.24459e-16 
vn -0.984235 -0.176866 8.54278e-17 
vn -0.645288 0.76394 -5.55112e-17 
vn 0.338947 0.940805 -1.24459e-16 
vn 0.984235 0.176866 -8.54278e-17 
vn 0.645288 -0.76394 5.55112e-17 
vn 0.359059 -0.347961 0.866025 
vn 0.359114 -0.347904 0.866025 
vn 0.369995 -0.336309 0.866025 
vn 0.393851 -0.308028 0.866025 
vn 0.424224 -0.26464 0.866025 
vn 0.394111 -0.307695 0.866025 
vn 0.423191 -0.266288 0.866025 
vn 0.449837 -0.218281 0.866025 
vn 0.42427 -0.264566 0.866025 
vn 0.470403 -0.169474 0.866025 
vn 0.450519 -0.216871 0.866025 
vn 0.470403 -0.169474 0.866025 
vn 0.48548 -0.119622 0.866025 
vn 0.48569 -0.118765 0.866025 
vn 0.491904 -0.0896115 0.866025 
vn 0.495457 -0.0672454 0.866025 
vn 0.495528 -0.0667229 0.866025 
vn 0.499799 -0.0141642 0.866025 
vn 0.498476 0.0390142 0.866025 
vn 0.499806 -0.0139325 0.866025 
vn 0.499999 -0.00101605 0.866025 
vn 0.492118 0.0884328 0.866025 
vn 0.498491 0.0388125 0.866025 
vn 0.322644 -0.38197 0.866025 
vn 0.480872 0.136973 0.866025 
vn 0.480851 0.13705 0.866025 
vn 0.47625 0.152271 0.866025 
vn 0.463686 0.187071 0.866025 
vn 0.441296 0.235069 0.866025 
vn 0.463528 0.187462 0.866025 
vn 0.442208 0.23335 0.866025 
vn 0.413956 0.28043 0.866025 
vn 0.441255 0.235146 0.866025 
vn 0.38197 0.322644 0.866025 
vn 0.413075 0.281725 0.866025 
vn 0.38197 0.322644 0.866025 
vn 0.346335 0.360627 0.866025 
vn 0.345698 0.361238 0.866025 
vn 0.323558 0.381196 0.866025 
vn 0.305965 0.395456 0.866025 
vn 0.305548 0.395778 0.866025 
vn 0.262166 0.425757 0.866025 
vn 0.215451 0.4512 0.866025 
vn 0.261969 0.425878 0.866025 
vn 0.250879 0.432504 0.866025 
vn 0.169474 0.470403 0.866025 
vn 0.215633 0.451112 0.866025 
vn 0.492118 0.0884328 0.866025 
vn -0.0884328 0.492118 0.866025 
vn -0.0884328 0.492118 0.866025 
vn -0.138487 0.480439 0.866025 
vn -0.139992 0.480002 0.866025 
vn -0.1899 0.462534 0.866025 
vn -0.18998 0.462501 0.866025 
vn -0.191778 0.461759 0.866025 
vn -0.237465 0.440012 0.866025 
vn -0.283025 0.412185 0.866025 
vn -0.237837 0.439811 0.866025 
vn -0.269708 0.42102 0.866025 
vn 0.121814 0.484934 0.866025 
vn 0.121736 0.484954 0.866025 
vn 0.106254 0.48858 0.866025 
vn 0.069835 0.495099 0.866025 
vn 0.0170726 0.499708 0.866025 
vn 0.0694166 0.495158 0.866025 
vn 0.0190166 0.499638 0.866025 
vn -0.0358814 0.498711 0.866025 
vn 0.0169854 0.499711 0.866025 
vn -0.0374438 0.498596 0.866025 
vn 0.169474 0.470403 0.866025 
vn -0.322644 0.38197 0.866025 
vn -0.282959 0.412231 0.866025 
vn -0.359059 0.347961 0.866025 
vn -0.359199 0.347816 0.866025 
vn -0.385762 0.3181 0.866025 
vn -0.393851 0.308028 0.866025 
vn -0.424224 0.26464 0.866025 
vn -0.393994 0.307846 0.866025 
vn -0.449837 0.218281 0.866025 
vn -0.424503 0.264192 0.866025 
vn -0.43603 0.244699 0.866025 
vn -0.470403 0.169474 0.866025 
vn -0.450222 0.217487 0.866025 
vn -0.470403 0.169474 0.866025 
vn -0.48548 0.119622 0.866025 
vn -0.48569 0.118765 0.866025 
vn -0.491904 0.0896115 0.866025 
vn -0.495457 0.0672454 0.866025 
vn -0.495528 0.0667229 0.866025 
vn -0.499799 0.0141642 0.866025 
vn -0.498476 -0.0390142 0.866025 
vn -0.499806 0.0139325 0.866025 
vn -0.499999 0.00101605 0.866025 
vn -0.492118 -0.0884328 0.866025 
vn -0.498491 -0.0388125 0.866025 
vn -0.322644 0.38197 0.866025 
vn -0.480872 -0.136973 0.866025 
vn -0.480851 -0.13705 0.866025 
vn -0.47625 -0.152271 0.866025 
vn -0.463686 -0.187071 0.866025 
vn -0.441296 -0.235069 0.866025 
vn -0.463528 -0.187462 0.866025 
vn -0.442208 -0.23335 0.866025 
vn -0.413956 -0.28043 0.866025 
vn -0.441255 -0.235146 0.866025 
vn -0.38197 -0.322644 0.866025 
vn -0.413075 -0.281725 0.866025 
vn -0.38197 -0.322644 0.866025 
vn -0.346335 -0.360627 0.866025 
vn -0.345698 -0.361238 0.866025 
vn -0.323558 -0.381196 0.866025 
vn -0.305965 -0.395456 0.866025 
vn -0.305548 -0.395778 0.866025 
vn -0.262166 -0.425757 0.866025 
vn -0.215451 -0.4512 0.866025 
vn -0.261969 -0.425878 0.866025 
vn -0.250879 -0.432504 0.866025 
vn -0.169474 -0.470403 0.866025 
vn -0.215633 -0.451112 0.866025 
vn -0.492118 -0.0884328 0.866025 
vn 0.138181 -0.480527 0.866025 
vn 0.168346 -0.470807 0.866025 
vn 0.187482 -0.46352 0.866025 
vn 0.137305 -0.480778 0.866025 
vn 0.187944 -0.463332 0.866025 
vn 0.235382 -0.44113 0.866025 
vn 0.28069 -0.413779 0.866025 
vn 0.235623 -0.441001 0.866025 
vn 0.24912 -0.43352 0.866025 
vn -0.122119 -0.484858 0.866025 
vn -0.122041 -0.484877 0.866025 
vn -0.106254 -0.48858 0.866025 
vn -0.0704571 -0.495011 0.866025 
vn -0.0180145 -0.499675 0.866025 
vn -0.0700432 -0.49507 0.866025 
vn -0.0190166 -0.499638 0.866025 
vn 0.0346279 -0.498799 0.866025 
vn -0.0179694 -0.499677 0.866025 
vn 0.0868864 -0.492393 0.866025 
vn 0.0361837 -0.498689 0.866025 
vn 0.0869904 -0.492375 0.866025 
vn 0.0884328 -0.492118 0.866025 
vn -0.169474 -0.470403 0.866025 
vn 0.322644 -0.38197 0.866025 
vn 0.280516 -0.413897 0.866025 
vn 2.77901e-17 9.61382e-17 1 
vn 2.77901e-17 9.61382e-17 1 
f 1//1 2//1 3//1 
f 4//1 5//1 2//1 
f 6//1 7//1 8//1 
f 9//1 10//1 7//1 
f 11//1 12//1 13//1 
f 14//1 15//1 16//1 
f 17//1 18//1 15//1 
f 19//1 3//1 18//1 
f 2//1 1//1 4//1 
f 20//1 21//1 22//1 
f 21//1 23//1 24//1 
f 25//1 26//1 27//1 
f 28//1 29//1 26//1 
f 30//1 31//1 29//1 
f 32//1 33//1 31//1 
f 7//1 6//1 9//1 
f 34//1 35//1 10//1 
f 36//1 37//1 11//1 
f 12//1 38//1 39//1 
f 40//1 41//1 42//1 
f 41//1 43//1 44//1 
f 45//1 46//1 44//1 
f 47//1 48//1 46//1 
f 49//1 50//1 48//1 
f 51//1 16//1 50//1 
f 15//1 14//1 17//1 
f 3//1 19//1 1//1 
f 52//1 53//1 54//1 
f 53//1 55//1 56//1 
f 55//1 57//1 58//1 
f 57//1 59//1 60//1 
f 59//1 61//1 62//1 
f 61//1 20//1 63//1 
f 24//1 22//1 21//1 
f 64//1 27//1 24//1 
f 26//1 25//1 28//1 
f 31//1 30//1 32//1 
f 10//1 9//1 34//1 
f 37//1 36//1 35//1 
f 39//1 13//1 12//1 
f 38//1 65//1 66//1 
f 67//1 68//1 69//1 
f 68//1 70//1 71//1 
f 44//1 42//1 41//1 
f 46//1 45//1 47//1 
f 50//1 49//1 51//1 
f 18//1 17//1 19//1 
f 72//1 73//1 74//1 
f 75//1 52//1 76//1 
f 56//1 54//1 53//1 
f 60//1 58//1 57//1 
f 63//1 62//1 61//1 
f 24//1 23//1 64//1 
f 29//1 28//1 30//1 
f 77//1 78//1 33//1 
f 79//1 80//1 78//1 
f 35//1 34//1 37//1 
f 66//1 39//1 38//1 
f 65//1 81//1 82//1 
f 81//1 83//1 84//1 
f 85//1 67//1 86//1 
f 71//1 69//1 68//1 
f 87//1 88//1 89//1 
f 88//1 40//1 90//1 
f 44//1 43//1 45//1 
f 16//1 51//1 14//1 
f 91//1 92//1 93//1 
f 94//1 95//1 92//1 
f 96//1 97//1 72//1 
f 73//1 98//1 99//1 
f 100//1 75//1 101//1 
f 54//1 76//1 52//1 
f 62//1 60//1 59//1 
f 27//1 64//1 25//1 
f 78//1 77//1 79//1 
f 102//1 8//1 80//1 
f 13//1 36//1 11//1 
f 84//1 82//1 81//1 
f 69//1 86//1 67//1 
f 70//1 87//1 103//1 
f 90//1 89//1 88//1 
f 48//1 47//1 49//1 
f 104//1 105//1 5//1 
f 106//1 93//1 105//1 
f 92//1 91//1 94//1 
f 97//1 96//1 95//1 
f 99//1 74//1 73//1 
f 98//1 107//1 108//1 
f 107//1 109//1 110//1 
f 109//1 111//1 112//1 
f 111//1 113//1 114//1 
f 76//1 101//1 75//1 
f 22//1 63//1 20//1 
f 80//1 79//1 102//1 
f 82//1 66//1 65//1 
f 83//1 115//1 116//1 
f 115//1 85//1 117//1 
f 103//1 71//1 70//1 
f 42//1 90//1 40//1 
f 105//1 104//1 106//1 
f 95//1 94//1 97//1 
f 108//1 99//1 98//1 
f 109//1 118//1 110//1 
f 114//1 112//1 111//1 
f 113//1 100//1 119//1 
f 58//1 56//1 55//1 
f 8//1 102//1 6//1 
f 117//1 116//1 115//1 
f 89//1 103//1 87//1 
f 93//1 106//1 91//1 
f 110//1 108//1 107//1 
f 119//1 114//1 113//1 
f 33//1 32//1 77//1 
f 86//1 117//1 85//1 
f 74//1 96//1 72//1 
f 101//1 119//1 100//1 
f 5//1 4//1 104//1 
f 116//1 84//1 83//1 
f 112//1 118//1 109//1 
f 53//2 120//3 121//4 
f 121//4 55//5 53//2 
f 57//6 55//5 122//7 
f 59//8 57//6 123//9 
f 123//9 124//10 59//8 
f 61//11 59//8 125//12 
f 61//11 126//13 127//14 
f 20//15 127//14 128//16 
f 21//17 129//18 130//19 
f 21//17 128//16 129//18 
f 64//20 23//21 131//22 
f 23//21 130//19 131//22 
f 25//23 64//20 132//24 
f 131//22 132//24 64//20 
f 130//19 23//21 21//17 
f 128//16 21//17 20//15 
f 127//14 20//15 61//11 
f 125//12 126//13 61//11 
f 124//10 125//12 59//8 
f 122//7 123//9 57//6 
f 121//4 122//7 55//5 
f 120//3 53//2 52//25 
f 72//26 133//27 134//28 
f 134//28 73//29 72//26 
f 98//30 73//29 135//31 
f 107//32 98//30 136//33 
f 136//33 137//34 107//32 
f 109//35 107//32 138//36 
f 109//35 139//35 140//37 
f 111//38 140//37 141//39 
f 113//40 142//41 143//42 
f 113//40 141//39 142//41 
f 75//43 100//44 144//45 
f 100//44 143//42 144//45 
f 52//46 75//43 145//47 
f 144//45 145//47 75//43 
f 143//42 100//44 113//40 
f 141//39 113//40 111//38 
f 140//37 111//38 109//35 
f 138//36 139//35 109//35 
f 137//34 138//36 107//32 
f 135//31 136//33 98//30 
f 134//28 135//31 73//29 
f 133//27 72//26 97//48 
f 4//49 146//50 147//51 
f 104//52 147//51 148//53 
f 106//54 149//55 150//56 
f 106//54 148//53 149//55 
f 94//57 91//58 151//59 
f 91//58 150//56 151//59 
f 14//60 152//61 153//62 
f 153//62 17//63 14//60 
f 19//64 17//63 154//65 
f 154//65 155//66 19//64 
f 1//67 19//64 156//68 
f 4//49 1//67 157//69 
f 157//69 146//50 4//49 
f 156//68 157//69 1//67 
f 155//66 156//68 19//64 
f 153//62 154//65 17//63 
f 152//61 14//60 51//70 
f 97//71 94//57 158//72 
f 151//59 158//72 94//57 
f 150//56 91//58 106//54 
f 148//53 106//54 104//52 
f 147//51 104//52 4//49 
f 70//73 159//74 160//75 
f 160//75 87//76 70//73 
f 88//77 87//76 161//78 
f 40//79 88//77 162//80 
f 162//80 163//81 40//79 
f 41//82 40//79 164//83 
f 41//82 165//84 166//85 
f 166//85 43//86 41//82 
f 43//86 167//87 168//88 
f 43//86 166//85 167//87 
f 45//89 168//88 169//90 
f 49//91 47//92 170//93 
f 47//92 169//90 170//93 
f 51//94 49//91 171//95 
f 170//93 171//95 49//91 
f 169//90 47//92 45//89 
f 168//88 45//89 43//86 
f 165//84 172//96 166//85 
f 164//83 165//84 41//82 
f 163//81 164//83 40//79 
f 161//78 162//80 88//77 
f 160//75 161//78 87//76 
f 159//74 70//73 68//97 
f 11//98 173//99 174//100 
f 174//100 12//101 11//98 
f 38//102 12//101 175//103 
f 65//104 38//102 176//105 
f 176//105 177//106 65//104 
f 81//107 65//104 178//108 
f 81//107 179//107 180//109 
f 83//110 180//109 181//111 
f 115//112 182//113 183//114 
f 115//112 181//111 182//113 
f 67//115 85//116 184//117 
f 85//116 183//114 184//117 
f 68//118 67//115 185//119 
f 184//117 185//119 67//115 
f 183//114 85//116 115//112 
f 181//111 115//112 83//110 
f 180//109 83//110 81//107 
f 178//108 179//107 81//107 
f 177//106 178//108 65//104 
f 175//103 176//105 38//102 
f 174//100 175//103 12//101 
f 173//99 11//98 37//120 
f 79//121 186//122 187//123 
f 102//124 187//123 188//125 
f 6//126 189//127 190//128 
f 6//126 188//125 189//127 
f 34//129 9//130 191//131 
f 9//130 190//128 191//131 
f 28//132 192//133 193//134 
f 193//134 30//135 28//132 
f 32//136 30//135 194//137 
f 77//138 32//136 195//139 
f 195//139 196//140 77//138 
f 79//121 77//138 197//141 
f 197//141 186//122 79//121 
f 196//140 197//141 77//138 
f 194//137 195//139 32//136 
f 193//134 194//137 30//135 
f 192//133 28//132 25//142 
f 37//143 34//129 198//144 
f 191//131 198//144 34//129 
f 190//128 9//130 6//126 
f 188//125 6//126 102//124 
f 187//123 102//124 79//121 
f 25//145 132//145 199//145 
f 200//145 201//145 192//145 
f 196//145 202//145 203//145 
f 204//145 205//145 186//145 
f 197//145 203//145 206//145 
f 130//145 129//145 207//145 
f 199//145 132//145 131//145 
f 192//145 25//145 200//145 
f 208//145 127//145 126//145 
f 202//145 194//145 193//145 
f 203//145 197//145 196//145 
f 206//145 204//145 197//145 
f 207//145 199//145 130//145 
f 199//145 200//145 25//145 
f 128//145 209//145 210//145 
f 126//145 211//145 208//145 
f 202//145 195//145 194//145 
f 186//145 197//145 204//145 
f 192//145 201//145 212//145 
f 131//145 130//145 199//145 
f 210//145 213//145 128//145 
f 209//145 128//145 127//145 
f 196//145 195//145 202//145 
f 129//145 128//145 207//145 
f 208//145 209//145 127//145 
f 212//145 202//145 192//145 
f 193//145 192//145 202//145 
f 213//145 207//145 128//145 
f 143//146 214//146 215//146 
f 214//146 143//146 142//146 
f 52//146 216//146 217//146 
f 216//146 52//146 145//146 
f 218//146 219//146 122//146 
f 143//146 220//146 221//146 
f 142//146 222//146 214//146 
f 223//146 145//146 144//146 
f 145//146 223//146 216//146 
f 122//146 121//146 218//146 
f 120//146 217//146 224//146 
f 215//146 220//146 143//146 
f 217//146 120//146 52//146 
f 224//146 218//146 120//146 
f 144//146 143//146 223//146 
f 222//146 140//146 139//146 
f 222//146 142//146 141//146 
f 225//146 226//146 123//146 
f 221//146 223//146 143//146 
f 141//146 140//146 222//146 
f 226//146 125//146 124//146 
f 125//146 226//146 211//146 
f 122//146 219//146 225//146 
f 139//146 227//146 222//146 
f 211//146 126//146 125//146 
f 121//146 120//146 218//146 
f 123//146 122//146 225//146 
f 124//146 123//146 226//146 
f 135//147 228//147 229//147 
f 230//147 135//147 134//147 
f 135//147 230//147 228//147 
f 137//147 229//147 231//147 
f 229//147 136//147 135//147 
f 231//147 138//147 137//147 
f 232//147 227//147 139//147 
f 138//147 231//147 233//147 
f 137//147 136//147 229//147 
f 233//147 232//147 138//147 
f 234//147 230//147 133//147 
f 234//147 97//147 158//147 
f 148//147 147//147 235//147 
f 236//147 150//147 149//147 
f 139//147 138//147 232//147 
f 158//147 237//147 234//147 
f 150//147 236//147 238//147 
f 149//147 148//147 236//147 
f 237//147 158//147 151//147 
f 133//147 97//147 234//147 
f 147//147 239//147 240//147 
f 147//147 146//147 241//147 
f 235//147 236//147 148//147 
f 134//147 133//147 230//147 
f 241//147 239//147 147//147 
f 151//147 150//147 237//147 
f 238//147 237//147 150//147 
f 240//147 235//147 147//147 
f 51//148 171//148 242//148 
f 51//148 243//148 244//148 
f 244//148 152//148 51//148 
f 244//148 154//148 153//148 
f 154//148 244//148 245//148 
f 153//148 152//148 244//148 
f 245//148 156//148 155//148 
f 245//148 155//148 154//148 
f 171//148 246//148 247//148 
f 246//148 170//148 169//148 
f 248//148 169//148 168//148 
f 249//148 166//148 172//148 
f 249//148 168//148 167//148 
f 247//148 242//148 171//148 
f 246//148 171//148 170//148 
f 168//148 249//148 248//148 
f 167//148 166//148 249//148 
f 156//148 250//148 251//148 
f 252//148 241//148 146//148 
f 157//148 251//148 253//148 
f 169//148 254//148 246//148 
f 172//148 255//148 249//148 
f 156//148 245//148 250//148 
f 253//148 252//148 157//148 
f 248//148 254//148 169//148 
f 146//148 157//148 252//148 
f 251//148 157//148 156//148 
f 242//148 243//148 51//148 
f 165//149 256//149 255//149 
f 163//149 257//149 258//149 
f 255//149 172//149 165//149 
f 164//149 258//149 259//149 
f 258//149 164//149 163//149 
f 259//149 256//149 164//149 
f 260//149 68//149 185//149 
f 260//149 261//149 159//149 
f 262//149 185//149 184//149 
f 165//149 164//149 256//149 
f 159//149 261//149 263//149 
f 159//149 68//149 260//149 
f 185//149 262//149 264//149 
f 184//149 265//149 266//149 
f 267//149 180//149 179//149 
f 257//149 161//149 160//149 
f 163//149 162//149 257//149 
f 185//149 268//149 260//149 
f 184//149 266//149 262//149 
f 267//149 181//149 180//149 
f 265//149 183//149 182//149 
f 162//149 161//149 257//149 
f 264//149 268//149 185//149 
f 179//149 269//149 267//149 
f 265//149 184//149 183//149 
f 263//149 257//149 159//149 
f 182//149 181//149 265//149 
f 267//149 265//149 181//149 
f 160//149 159//149 257//149 
f 270//150 178//150 177//150 
f 270//150 269//150 179//150 
f 271//150 270//150 176//150 
f 179//150 178//150 270//150 
f 175//150 272//150 271//150 
f 273//150 274//150 173//150 
f 37//150 198//150 275//150 
f 276//150 198//150 191//150 
f 176//150 175//150 271//150 
f 173//150 274//150 277//150 
f 275//150 273//150 37//150 
f 198//150 276//150 278//150 
f 191//150 279//150 280//150 
f 281//150 188//150 187//150 
f 282//150 175//150 174//150 
f 175//150 282//150 272//150 
f 173//150 37//150 273//150 
f 191//150 280//150 276//150 
f 187//150 283//150 281//150 
f 187//150 186//150 205//150 
f 279//150 190//150 189//150 
f 177//150 176//150 270//150 
f 278//150 275//150 198//150 
f 205//150 283//150 187//150 
f 279//150 191//150 190//150 
f 277//150 282//150 173//150 
f 189//150 188//150 279//150 
f 281//150 279//150 188//150 
f 174//150 173//150 282//150 
f 284//151 268//152 264//153 
f 264//153 285//154 284//151 
f 286//155 285//154 262//156 
f 262//156 266//157 286//155 
f 287//158 286//155 265//159 
f 288//160 287//158 267//161 
f 288//160 269//160 270//162 
f 289//163 271//164 272//165 
f 289//163 270//162 271//164 
f 290//166 272//165 282//167 
f 291//168 292//169 277//170 
f 292//169 282//167 277//170 
f 273//171 291//168 274//172 
f 277//170 274//172 291//168 
f 282//167 292//169 290//166 
f 272//165 290//166 289//163 
f 270//162 289//163 288//160 
f 267//161 269//160 288//160 
f 265//159 267//161 287//158 
f 266//157 265//159 286//155 
f 264//153 262//156 285//154 
f 268//152 284//151 260//173 
f 293//174 206//175 203//176 
f 293//174 204//177 206//175 
f 294//178 203//176 202//179 
f 295//180 296//181 212//182 
f 296//181 202//179 212//182 
f 297//183 275//184 278//185 
f 278//185 298//186 297//183 
f 299//187 298//186 276//188 
f 276//188 280//189 299//187 
f 281//190 300//191 301//192 
f 301//192 279//193 281//190 
f 302//194 300//191 281//190 
f 302//194 283//195 204//177 
f 204//177 293//174 302//194 
f 283//195 205//196 204//177 
f 281//190 283//195 302//194 
f 301//192 299//187 279//193 
f 280//189 279//193 299//187 
f 278//185 276//188 298//186 
f 275//184 297//183 273//197 
f 200//198 295//180 201//199 
f 212//182 201//199 295//180 
f 202//179 296//181 294//178 
f 203//176 294//178 293//174 
f 303//200 242//201 247//202 
f 247//202 304//203 303//200 
f 305//204 304//203 246//205 
f 306//206 305//204 254//207 
f 254//207 248//208 306//206 
f 307//209 306//206 249//210 
f 307//209 255//211 256//212 
f 308//213 256//212 259//214 
f 309//215 259//214 258//216 
f 258//216 310//217 309//215 
f 310//217 258//216 257//218 
f 311//219 312//220 263//221 
f 312//220 257//218 263//221 
f 260//222 311//219 261//223 
f 263//221 261//223 311//219 
f 257//218 312//220 310//217 
f 259//214 309//215 308//213 
f 256//212 308//213 307//209 
f 249//210 255//211 307//209 
f 248//208 249//210 306//206 
f 246//205 254//207 305//204 
f 247//202 246//205 304//203 
f 242//201 303//200 243//224 
f 313//225 241//226 252//227 
f 314//228 252//227 253//229 
f 315//230 251//231 250//232 
f 315//230 253//229 251//231 
f 316//233 317//234 245//235 
f 317//234 250//232 245//235 
f 318//236 237//237 238//238 
f 238//238 319//239 318//236 
f 320//240 319//239 236//241 
f 236//241 235//242 320//240 
f 239//243 321//244 322//245 
f 322//245 240//246 239//243 
f 313//225 321//244 239//243 
f 239//243 241//226 313//225 
f 322//245 320//240 240//246 
f 235//242 240//246 320//240 
f 238//238 236//241 319//239 
f 237//237 318//236 234//247 
f 243//248 316//233 244//249 
f 245//235 244//249 316//233 
f 250//232 317//234 315//230 
f 253//229 315//230 314//228 
f 252//227 314//228 313//225 
f 323//250 199//251 207//252 
f 207//252 324//253 323//250 
f 325//254 324//253 213//255 
f 213//255 210//256 325//254 
f 326//257 325//254 209//258 
f 327//259 326//257 208//260 
f 327//259 211//261 226//262 
f 328//263 226//262 225//264 
f 329//265 225//264 219//266 
f 219//266 330//267 329//265 
f 330//267 219//266 218//268 
f 331//269 332//270 224//271 
f 332//270 218//268 224//271 
f 216//272 331//269 217//273 
f 224//271 217//273 331//269 
f 218//268 332//270 330//267 
f 225//264 329//265 328//263 
f 226//262 328//263 327//259 
f 208//260 211//261 327//259 
f 209//258 208//260 326//257 
f 210//256 209//258 325//254 
f 207//252 213//255 324//253 
f 199//251 323//250 200//274 
f 333//275 223//276 221//277 
f 221//277 334//278 333//275 
f 335//279 334//278 220//280 
f 220//280 215//281 335//279 
f 336//282 335//279 214//283 
f 337//284 336//282 222//285 
f 337//284 227//284 232//286 
f 338//287 233//288 231//289 
f 338//287 232//286 233//288 
f 339//290 231//289 229//291 
f 340//292 341//293 228//294 
f 341//293 229//291 228//294 
f 234//295 340//292 230//296 
f 228//294 230//296 340//292 
f 229//291 341//293 339//290 
f 231//289 339//290 338//287 
f 232//286 338//287 337//284 
f 222//285 227//284 337//284 
f 214//283 222//285 336//282 
f 215//281 214//283 335//279 
f 221//277 220//280 334//278 
f 223//276 333//275 216//297 
f 307//298 303//298 304//298 
f 308//298 314//298 315//298 
f 308//298 321//298 313//298 
f 304//298 305//298 307//298 
f 313//298 314//298 308//298 
f 305//298 306//298 307//298 
f 315//298 317//298 308//298 
f 308//298 243//298 303//298 
f 317//298 316//298 308//298 
f 316//298 243//298 308//298 
f 308//298 322//298 321//298 
f 307//298 308//298 303//298 
f 308//298 309//298 322//298 
f 328//298 293//298 294//298 
f 325//298 326//298 327//298 
f 328//298 323//298 324//298 
f 294//298 296//298 328//298 
f 324//298 325//298 328//298 
f 296//298 295//298 328//298 
f 328//298 300//298 302//298 
f 328//298 200//298 323//298 
f 302//298 293//298 328//298 
f 295//298 200//298 328//298 
f 327//298 328//298 325//298 
f 329//298 301//298 300//298 
f 328//298 329//298 300//298 
f 342//299 343//299 344//299 
f 342//299 345//299 346//299 
f 344//299 347//299 342//299 
f 346//299 348//299 342//299 
f 342//299 349//299 350//299 
f 342//299 351//299 343//299 
f 350//299 345//299 342//299 
f 342//299 352//299 351//299 
f 342//299 353//299 349//299 
f 348//299 352//299 342//299 
f 347//299 354//299 342//299 
f 355//299 356//299 353//299 
f 342//299 355//299 353//299 
f 357//299 358//299 359//299 
f 360//299 361//299 362//299 
f 360//299 363//299 364//299 
f 357//299 365//299 358//299 
f 357//299 366//299 367//299 
f 364//299 361//299 360//299 
f 367//299 365//299 357//299 
f 357//299 368//299 360//299 
f 359//299 369//299 357//299 
f 369//299 368//299 357//299 
f 357//299 370//299 366//299 
f 362//299 357//299 360//299 
f 357//299 371//299 370//299 
f 362//300 372//300 373//301 
f 373//301 374//302 371//303 
f 374//302 375//304 371//303 
f 375//304 376//305 377//306 
f 375//304 374//302 376//305 
f 378//307 379//308 380//309 
f 379//308 377//306 380//309 
f 360//310 381//311 382//312 
f 382//312 363//313 360//310 
f 364//314 363//313 383//315 
f 361//316 364//314 384//317 
f 384//317 385//318 361//316 
f 362//300 361//316 386//319 
f 386//319 372//300 362//300 
f 385//318 386//319 361//316 
f 383//315 384//317 364//314 
f 382//312 383//315 363//313 
f 381//311 360//310 368//320 
f 387//321 378//307 388//322 
f 380//309 388//322 378//307 
f 377//306 379//308 375//304 
f 371//303 357//323 373//301 
f 373//301 357//323 362//300 
f 389//324 390//325 391//326 
f 391//326 392//327 389//324 
f 393//328 392//327 394//329 
f 370//330 393//328 395//331 
f 366//332 370//330 396//333 
f 396//333 397//334 366//332 
f 367//335 366//332 397//334 
f 367//335 398//335 399//336 
f 365//337 399//336 400//338 
f 358//339 401//340 402//341 
f 358//339 400//338 401//340 
f 369//342 359//343 403//344 
f 359//343 402//341 403//344 
f 368//345 369//342 404//346 
f 403//344 404//346 369//342 
f 402//341 359//343 358//339 
f 400//338 358//339 365//337 
f 399//336 365//337 367//335 
f 397//334 398//335 367//335 
f 395//331 396//333 370//330 
f 394//329 395//331 393//328 
f 391//326 394//329 392//327 
f 390//325 389//324 405//347 
f 406//348 407//349 408//350 
f 408//350 409//351 406//348 
f 410//352 409//351 411//353 
f 412//354 410//352 413//355 
f 413//355 414//356 412//354 
f 415//357 412//354 416//358 
f 415//357 417//357 418//359 
f 419//360 418//359 420//361 
f 421//362 422//363 423//364 
f 421//362 420//361 422//363 
f 424//365 425//366 426//367 
f 425//366 423//364 426//367 
f 427//368 424//365 428//369 
f 426//367 428//369 424//365 
f 423//364 425//366 421//362 
f 420//361 421//362 419//360 
f 418//359 419//360 415//357 
f 416//358 417//357 415//357 
f 414//356 416//358 412//354 
f 411//353 413//355 410//352 
f 408//350 411//353 409//351 
f 407//349 406//348 387//370 
f 429//371 430//372 431//373 
f 431//373 432//374 429//371 
f 433//375 432//374 434//376 
f 356//377 433//375 435//378 
f 353//379 356//377 436//380 
f 436//380 437//381 353//379 
f 349//382 353//379 437//381 
f 349//382 438//383 439//384 
f 439//384 350//385 349//382 
f 350//385 440//386 441//387 
f 350//385 439//384 440//386 
f 345//388 441//387 442//389 
f 348//390 346//391 443//392 
f 346//391 442//389 443//392 
f 352//393 348//390 444//394 
f 443//392 444//394 348//390 
f 442//389 346//391 345//388 
f 441//387 345//388 350//385 
f 438//383 445//395 439//384 
f 437//381 438//383 349//382 
f 435//378 436//380 356//377 
f 434//376 435//378 433//375 
f 431//373 434//376 432//374 
f 430//372 429//371 427//396 
f 354//397 446//397 447//398 
f 447//398 448//399 355//400 
f 448//399 449//401 355//400 
f 449//401 450//402 451//403 
f 449//401 448//399 450//402 
f 452//404 453//405 454//406 
f 453//405 451//403 454//406 
f 351//407 455//408 456//409 
f 456//409 343//410 351//407 
f 344//411 343//410 457//412 
f 457//412 458//413 344//411 
f 347//414 344//411 459//415 
f 354//397 347//414 460//416 
f 460//416 446//397 354//397 
f 459//415 460//416 347//414 
f 458//413 459//415 344//411 
f 456//409 457//412 343//410 
f 455//408 351//407 352//417 
f 461//418 452//404 462//419 
f 454//406 462//419 452//404 
f 451//403 453//405 449//401 
f 355//400 342//420 447//398 
f 447//398 342//420 354//397 
f 463//421 464//422 465//423 
f 465//423 466//424 463//421 
f 467//425 466//424 468//426 
f 469//427 467//425 470//428 
f 470//428 471//429 469//427 
f 472//430 469//427 473//431 
f 472//430 474//430 475//432 
f 476//433 475//432 477//434 
f 478//435 479//436 480//437 
f 478//435 477//434 479//436 
f 481//438 482//439 483//440 
f 482//439 480//437 483//440 
f 405//441 481//438 484//442 
f 483//440 484//442 481//438 
f 480//437 482//439 478//435 
f 477//434 478//435 476//433 
f 475//432 476//433 472//430 
f 473//431 474//430 472//430 
f 471//429 473//431 469//427 
f 468//426 470//428 467//425 
f 465//423 468//426 466//424 
f 464//422 463//421 461//443 
f 485//444 416//444 414//444 
f 485//444 486//444 417//444 
f 487//444 485//444 413//444 
f 387//444 488//444 489//444 
f 387//444 388//444 490//444 
f 491//444 388//444 380//444 
f 417//444 416//444 485//444 
f 411//444 492//444 487//444 
f 493//444 492//444 411//444 
f 407//444 489//444 494//444 
f 490//444 488//444 387//444 
f 388//444 491//444 495//444 
f 380//444 496//444 497//444 
f 373//444 372//444 498//444 
f 496//444 377//444 376//444 
f 413//444 411//444 487//444 
f 411//444 408//444 493//444 
f 489//444 407//444 387//444 
f 380//444 497//444 491//444 
f 498//444 499//444 373//444 
f 376//444 374//444 496//444 
f 408//444 407//444 493//444 
f 495//444 490//444 388//444 
f 499//444 500//444 373//444 
f 496//444 380//444 377//444 
f 494//444 493//444 407//444 
f 374//444 373//444 496//444 
f 500//444 496//444 373//444 
f 414//444 413//444 485//444 
f 437//445 501//445 502//445 
f 503//445 437//445 436//445 
f 437//445 503//445 501//445 
f 502//445 438//445 437//445 
f 436//445 435//445 503//445 
f 434//445 504//445 503//445 
f 502//445 505//445 445//445 
f 506//445 507//445 430//445 
f 506//445 427//445 428//445 
f 504//445 434//445 431//445 
f 445//445 438//445 502//445 
f 430//445 507//445 508//445 
f 428//445 509//445 506//445 
f 510//445 428//445 426//445 
f 418//445 417//445 486//445 
f 511//445 423//445 422//445 
f 435//445 434//445 503//445 
f 430//445 427//445 506//445 
f 428//445 510//445 512//445 
f 426//445 511//445 513//445 
f 486//445 514//445 418//445 
f 422//445 420//445 511//445 
f 508//445 504//445 430//445 
f 426//445 513//445 510//445 
f 420//445 418//445 511//445 
f 512//445 509//445 428//445 
f 511//445 426//445 423//445 
f 514//445 511//445 418//445 
f 431//445 430//445 504//445 
f 352//446 444//446 515//446 
f 352//446 516//446 517//446 
f 518//446 519//446 456//446 
f 517//446 455//446 352//446 
f 444//446 520//446 521//446 
f 520//446 443//446 442//446 
f 522//446 523//446 446//446 
f 456//446 455//446 518//446 
f 455//446 517//446 524//446 
f 521//446 515//446 444//446 
f 520//446 444//446 443//446 
f 525//446 442//446 441//446 
f 439//446 445//446 505//446 
f 526//446 441//446 440//446 
f 527//446 459//446 458//446 
f 446//446 460//446 522//446 
f 524//446 518//446 455//446 
f 442//446 528//446 520//446 
f 441//446 526//446 525//446 
f 440//446 439//446 526//446 
f 458//446 457//446 527//446 
f 459//446 527//446 522//446 
f 515//446 516//446 352//446 
f 505//446 526//446 439//446 
f 460//446 459//446 522//446 
f 525//446 528//446 442//446 
f 519//446 527//446 456//446 
f 457//446 456//446 527//446 
f 529//447 530//447 470//447 
f 531//447 532//447 468//447 
f 530//447 473//447 471//447 
f 530//447 533//447 474//447 
f 468//447 532//447 529//447 
f 468//447 465//447 531//447 
f 461//447 534//447 535//447 
f 534//447 461//447 462//447 
f 474//447 473//447 530//447 
f 465//447 464//447 531//447 
f 464//447 535//447 536//447 
f 462//447 537//447 534//447 
f 538//447 462//447 454//447 
f 539//447 451//447 450//447 
f 470//447 468//447 529//447 
f 535//447 464//447 461//447 
f 462//447 538//447 540//447 
f 454//447 539//447 541//447 
f 447//447 446//447 523//447 
f 450//447 448//447 539//447 
f 536//447 531//447 464//447 
f 454//447 541//447 538//447 
f 523//447 542//447 447//447 
f 539//447 454//447 451//447 
f 540//447 537//447 462//447 
f 448//447 447//447 539//447 
f 542//447 539//447 447//447 
f 471//447 470//447 530//447 
f 394//448 543//448 544//448 
f 545//448 546//448 390//448 
f 545//448 405//448 484//448 
f 546//448 394//448 391//448 
f 394//448 546//448 543//448 
f 484//448 547//448 545//448 
f 484//448 548//448 549//448 
f 550//448 397//448 396//448 
f 550//448 551//448 398//448 
f 544//448 395//448 394//448 
f 549//448 547//448 484//448 
f 548//448 484//448 483//448 
f 398//448 397//448 550//448 
f 395//448 552//448 553//448 
f 554//448 480//448 479//448 
f 390//448 405//448 545//448 
f 483//448 554//448 555//448 
f 553//448 550//448 395//448 
f 475//448 474//448 533//448 
f 479//448 477//448 554//448 
f 483//448 555//448 548//448 
f 395//448 544//448 552//448 
f 533//448 556//448 475//448 
f 554//448 483//448 480//448 
f 396//448 395//448 550//448 
f 477//448 475//448 554//448 
f 556//448 554//448 475//448 
f 391//448 390//448 546//448 
f 557//449 386//449 385//449 
f 557//449 498//449 372//449 
f 558//449 557//449 384//449 
f 372//449 386//449 557//449 
f 383//449 559//449 558//449 
f 560//449 559//449 383//449 
f 561//449 562//449 381//449 
f 561//449 368//449 404//449 
f 384//449 383//449 558//449 
f 383//449 382//449 560//449 
f 381//449 562//449 563//449 
f 404//449 564//449 561//449 
f 565//449 404//449 403//449 
f 566//449 402//449 401//449 
f 382//449 381//449 560//449 
f 381//449 368//449 561//449 
f 404//449 565//449 567//449 
f 403//449 566//449 568//449 
f 399//449 398//449 551//449 
f 401//449 400//449 566//449 
f 563//449 560//449 381//449 
f 403//449 568//449 565//449 
f 551//449 569//449 399//449 
f 566//449 403//449 402//449 
f 567//449 564//449 404//449 
f 400//449 399//449 566//449 
f 569//449 566//449 399//449 
f 385//449 384//449 557//449 
f 570//450 564//451 567//452 
f 567//452 571//453 570//450 
f 572//454 571//453 565//455 
f 565//455 568//456 572//454 
f 573//457 572//454 566//458 
f 574//459 573//457 569//460 
f 574//459 551//461 550//462 
f 575//463 553//464 552//465 
f 575//463 550//462 553//464 
f 576//466 552//465 544//467 
f 577//468 578//469 543//470 
f 578//469 544//467 543//470 
f 545//471 577//468 546//472 
f 543//470 546//472 577//468 
f 544//467 578//469 576//466 
f 552//465 576//466 575//463 
f 550//462 575//463 574//459 
f 569//460 551//461 574//459 
f 566//458 569//460 573//457 
f 568//456 566//458 572//454 
f 567//452 565//455 571//453 
f 564//451 570//450 561//473 
f 579//474 547//475 549//476 
f 549//476 580//477 579//474 
f 581//478 580//477 548//479 
f 548//479 555//480 581//478 
f 582//481 581//478 554//482 
f 583//483 582//481 556//484 
f 583//483 533//485 530//486 
f 584//487 529//488 532//489 
f 584//487 530//486 529//488 
f 585//490 532//489 531//491 
f 586//492 587//493 536//494 
f 587//493 531//491 536//494 
f 534//495 586//492 535//496 
f 536//494 535//496 586//492 
f 531//491 587//493 585//490 
f 532//489 585//490 584//487 
f 530//486 584//487 583//483 
f 556//484 533//485 583//483 
f 554//482 556//484 582//481 
f 555//480 554//482 581//478 
f 549//476 548//479 580//477 
f 547//475 579//474 545//497 
f 588//498 523//499 522//500 
f 589//501 522//500 527//502 
f 590//503 519//504 518//505 
f 590//503 527//502 519//504 
f 591//506 592//507 524//508 
f 592//507 518//505 524//508 
f 593//509 537//510 540//511 
f 540//511 594//512 593//509 
f 595//513 594//512 538//514 
f 538//514 541//515 595//513 
f 596//516 595//513 539//517 
f 588//498 596//516 542//518 
f 542//518 523//499 588//498 
f 539//517 542//518 596//516 
f 541//515 539//517 595//513 
f 540//511 538//514 594//512 
f 537//510 593//509 534//519 
f 516//520 591//506 517//521 
f 524//508 517//521 591//506 
f 518//505 592//507 590//503 
f 527//502 590//503 589//501 
f 522//500 589//501 588//498 
f 597//522 515//523 521//524 
f 521//524 598//525 597//522 
f 599//526 598//525 520//527 
f 600//528 599//526 528//529 
f 528//529 525//530 600//528 
f 601//531 600//528 526//532 
f 601//531 505//533 502//534 
f 602//535 501//536 503//537 
f 602//535 502//534 501//536 
f 603//538 503//537 504//539 
f 604//540 605//541 508//542 
f 605//541 504//539 508//542 
f 506//543 604//540 507//544 
f 508//542 507//544 604//540 
f 504//539 605//541 603//538 
f 503//537 603//538 602//535 
f 502//534 602//535 601//531 
f 526//532 505//533 601//531 
f 525//530 526//532 600//528 
f 520//527 528//529 599//526 
f 521//524 520//527 598//525 
f 515//523 597//522 516//545 
f 606//546 509//547 512//548 
f 512//548 607//549 606//546 
f 608//550 607//549 510//551 
f 510//551 513//552 608//550 
f 609//553 608//550 511//554 
f 610//555 609//553 514//556 
f 610//555 486//557 485//558 
f 611//559 487//560 492//561 
f 611//559 485//558 487//560 
f 612//562 492//561 493//563 
f 613//564 614//565 494//566 
f 614//565 493//563 494//566 
f 488//567 613//564 489//568 
f 494//566 489//568 613//564 
f 493//563 614//565 612//562 
f 492//561 612//562 611//559 
f 485//558 611//559 610//555 
f 514//556 486//557 610//555 
f 511//554 514//556 609//553 
f 513//552 511//554 608//550 
f 512//548 510//551 607//549 
f 509//547 606//546 506//569 
f 615//570 558//571 559//572 
f 615//570 557//573 558//571 
f 616//574 559//572 560//575 
f 617//576 618//577 563//578 
f 618//577 560//575 563//578 
f 619//579 490//580 495//581 
f 495//581 620//582 619//579 
f 621//583 620//582 491//584 
f 491//584 497//585 621//583 
f 622//586 621//583 496//587 
f 623//588 622//586 500//589 
f 623//588 499//590 557//573 
f 557//573 615//570 623//588 
f 499//590 498//591 557//573 
f 500//589 499//590 623//588 
f 496//587 500//589 622//586 
f 497//585 496//587 621//583 
f 495//581 491//584 620//582 
f 490//580 619//579 488//592 
f 561//593 617//576 562//594 
f 563//578 562//594 617//576 
f 560//575 618//577 616//574 
f 559//572 616//574 615//570 
f 596//595 588//595 624//595 
f 588//595 589//595 625//595 
f 589//595 590//595 626//595 
f 590//595 592//595 627//595 
f 591//595 516//595 628//595 
f 516//595 597//595 629//595 
f 625//595 624//595 588//595 
f 627//595 626//595 590//595 
f 592//595 591//595 630//595 
f 629//595 628//595 516//595 
f 594//595 595//595 631//595 
f 595//595 596//595 632//595 
f 626//595 625//595 589//595 
f 628//595 630//595 591//595 
f 597//595 598//595 633//595 
f 599//595 634//595 633//595 
f 600//595 635//595 634//595 
f 601//595 636//595 635//595 
f 632//595 631//595 595//595 
f 630//595 627//595 592//595 
f 633//595 598//595 599//595 
f 635//595 600//595 601//595 
f 603//595 637//595 638//595 
f 605//595 639//595 637//595 
f 561//595 570//595 640//595 
f 570//595 571//595 641//595 
f 572//595 642//595 641//595 
f 573//595 643//595 642//595 
f 575//595 644//595 645//595 
f 576//595 646//595 644//595 
f 586//595 647//595 648//595 
f 624//595 632//595 596//595 
f 634//595 599//595 600//595 
f 602//595 638//595 636//595 
f 637//595 603//595 605//595 
f 641//595 640//595 570//595 
f 642//595 572//595 573//595 
f 574//595 645//595 643//595 
f 644//595 575//595 576//595 
f 587//595 648//595 649//595 
f 648//595 587//595 586//595 
f 633//595 629//595 597//595 
f 638//595 602//595 603//595 
f 604//595 650//595 639//595 
f 506//595 651//595 650//595 
f 606//595 652//595 651//595 
f 607//595 653//595 652//595 
f 641//595 571//595 572//595 
f 645//595 574//595 575//595 
f 577//595 654//595 655//595 
f 545//595 656//595 654//595 
f 579//595 657//595 656//595 
f 580//595 658//595 657//595 
f 583//595 659//595 660//595 
f 586//595 534//595 647//595 
f 534//595 593//595 661//595 
f 593//595 594//595 662//595 
f 636//595 601//595 602//595 
f 650//595 604//595 506//595 
f 652//595 606//595 607//595 
f 643//595 573//595 574//595 
f 578//595 655//595 646//595 
f 654//595 577//595 545//595 
f 657//595 579//595 580//595 
f 583//595 663//595 659//595 
f 584//595 664//595 663//595 
f 661//595 647//595 534//595 
f 631//595 662//595 594//595 
f 651//595 506//595 606//595 
f 608//595 665//595 653//595 
f 646//595 576//595 578//595 
f 656//595 545//595 579//595 
f 582//595 660//595 666//595 
f 663//595 583//595 584//595 
f 662//595 661//595 593//595 
f 653//595 607//595 608//595 
f 609//595 667//595 665//595 
f 610//595 668//595 667//595 
f 623//595 615//595 669//595 
f 615//595 616//595 670//595 
f 655//595 578//595 577//595 
f 581//595 666//595 658//595 
f 660//595 582//595 583//595 
f 585//595 649//595 664//595 
f 639//595 605//595 604//595 
f 667//595 609//595 610//595 
f 611//595 671//595 668//595 
f 612//595 672//595 671//595 
f 613//595 673//595 674//595 
f 621//595 622//595 675//595 
f 622//595 623//595 676//595 
f 670//595 669//595 615//595 
f 616//595 618//595 677//595 
f 658//595 580//595 581//595 
f 664//595 584//595 585//595 
f 665//595 608//595 609//595 
f 671//595 611//595 612//595 
f 614//595 674//595 672//595 
f 674//595 614//595 613//595 
f 676//595 675//595 622//595 
f 677//595 670//595 616//595 
f 618//595 617//595 678//595 
f 617//595 561//595 679//595 
f 666//595 581//595 582//595 
f 668//595 610//595 611//595 
f 613//595 488//595 673//595 
f 488//595 619//595 680//595 
f 619//595 620//595 681//595 
f 620//595 621//595 682//595 
f 669//595 676//595 623//595 
f 679//595 678//595 617//595 
f 649//595 585//595 587//595 
f 680//595 673//595 488//595 
f 682//595 681//595 620//595 
f 678//595 677//595 618//595 
f 672//595 612//595 614//595 
f 675//595 682//595 621//595 
f 681//595 680//595 619//595 
f 640//595 679//595 561//595 
f 683//596 684//596 685//596 
f 685//596 686//596 683//596 
f 686//596 687//596 683//596 
f 687//596 688//596 683//596 
f 688//596 689//596 683//596 
f 689//596 690//596 683//596 
f 690//596 691//596 683//596 
f 691//596 692//596 683//596 
f 692//596 693//596 683//596 
f 693//596 694//596 683//596 
f 694//596 695//596 683//596 
f 695//596 696//596 683//596 
f 696//596 697//596 683//596 
f 697//596 698//596 683//596 
f 698//596 699//596 683//596 
f 699//596 700//596 683//596 
f 700//596 701//596 683//596 
f 701//596 702//596 683//596 
f 702//596 703//596 683//596 
f 703//596 704//596 683//596 
f 704//596 705//596 683//596 
f 705//596 706//596 683//596 
f 706//596 707//596 683//596 
f 707//596 708//596 683//596 
f 708//596 709//596 683//596 
f 709//596 710//596 683//596 
f 710//596 711//596 683//596 
f 711//596 712//596 683//596 
f 712//596 713//596 683//596 
f 713//596 714//596 683//596 
f 714//596 715//596 683//596 
f 715//596 716//596 683//596 
f 716//596 717//596 683//596 
f 717//596 718//596 683//596 
f 718//596 719//596 683//596 
f 719//596 720//596 683//596 
f 720//596 721//596 683//596 
f 721//596 722//596 683//596 
f 722//596 723//596 683//596 
f 723//596 724//596 683//596 
f 724//596 725//596 683//596 
f 725//596 726//596 683//596 
f 726//596 727//596 683//596 
f 727//596 728//596 683//596 
f 728//596 729//596 683//596 
f 729//596 730//596 683//596 
f 730//596 731//596 683//596 
f 731//596 732//596 683//596 
f 732//596 733//596 683//596 
f 733//596 734//596 683//596 
f 734//596 735//596 683//596 
f 735//596 736//596 683//596 
f 736//596 737//596 683//596 
f 737//596 738//596 683//596 
f 738//596 739//596 683//596 
f 739//596 740//596 683//596 
f 740//596 741//596 683//596 
f 741//596 742//596 683//596 
f 742//596 684//596 683//596 
