# flattened material 0.250980_0.250980_0.250980_0.000000_0.000000 for MuJoCo from ti_presser.obj
v -0.02764 0.0456328 4.64039e-17 
v -0.028542 0.0516657 4.64039e-17 
v -0.0278844 0.0517279 4.64039e-17 
v -0.027224 0.0517186 4.64039e-17 
v -0.0265685 0.051638 4.64039e-17 
v -0.0259255 0.0514869 4.64039e-17 
v -0.0253026 0.0512672 4.64039e-17 
v -0.0247071 0.0509815 4.64039e-17 
v -0.024146 0.050633 4.64039e-17 
v -0.0236259 0.0502259 4.59702e-17 
v -0.0231528 0.049765 4.64039e-17 
v -0.0227323 0.0492556 4.64039e-17 
v -0.0223694 0.0487038 4.64039e-17 
v -0.0220683 0.0481159 4.68375e-17 
v -0.0218325 0.047499 4.68375e-17 
v -0.0216647 0.0468601 4.68375e-17 
v -0.0215671 0.0462069 4.68375e-17 
v -0.0215406 0.0455469 4.68375e-17 
v -0.0215856 0.044888 4.68375e-17 
v -0.0217017 0.0442377 4.68375e-17 
v -0.0218873 0.0436039 4.68375e-17 
v -0.0221404 0.0429938 4.68375e-17 
v -0.022458 0.0424146 4.68375e-17 
v -0.0228363 0.0418732 4.68375e-17 
v -0.0232709 0.0413759 4.72712e-17 
v -0.0237568 0.0409285 4.72712e-17 
v -0.0242882 0.0405362 4.72712e-17 
v -0.0248589 0.0402037 4.72712e-17 
v -0.0254622 0.0399348 4.72712e-17 
v -0.026091 0.0397328 4.72712e-17 
v -0.026738 0.0395999 4.72712e-17 
v -0.0273956 0.0395377 4.72712e-17 
v -0.028056 0.039547 4.72712e-17 
v -0.0287115 0.0396277 4.77049e-17 
v -0.0293545 0.0397787 4.77049e-17 
v -0.0299774 0.0399984 4.77049e-17 
v -0.0305729 0.0402842 4.77049e-17 
v -0.031134 0.0406326 4.77049e-17 
v -0.0316541 0.0410397 4.77049e-17 
v -0.0321272 0.0415006 4.77049e-17 
v -0.0325477 0.04201 4.77049e-17 
v -0.0329106 0.0425618 4.72712e-17 
v -0.0332117 0.0431497 4.72712e-17 
v -0.0334475 0.0437667 4.72712e-17 
v -0.0336153 0.0444055 4.72712e-17 
v -0.0337129 0.0450587 4.72712e-17 
v -0.0337394 0.0457187 4.72712e-17 
v -0.0336944 0.0463777 4.68375e-17 
v -0.0335783 0.0470279 4.68375e-17 
v -0.0333927 0.0476617 4.68375e-17 
v -0.0331396 0.0482718 4.68375e-17 
v -0.032822 0.048851 4.68375e-17 
v -0.0324437 0.0493924 4.68375e-17 
v -0.0320091 0.0498897 4.68375e-17 
v -0.0315232 0.0503371 4.68375e-17 
v -0.0309918 0.0507294 4.68375e-17 
v -0.0304211 0.0510619 4.64039e-17 
v -0.0298178 0.0513308 4.64039e-17 
v -0.029189 0.0515329 4.64039e-17 
v -0.0253292 0.0368311 0.015 
v -0.0243911 0.0371325 0.015 
v -0.0234911 0.0375336 0.015 
v -0.0226398 0.0380297 0.015 
v -0.021847 0.0386149 0.015 
v -0.0211222 0.0392823 0.015 
v -0.0204738 0.0400243 0.015 
v -0.0199094 0.0408319 0.015 
v -0.0194357 0.0416959 0.015 
v -0.0190581 0.042606 0.015 
v -0.0187812 0.0435516 0.015 
v -0.0186081 0.0445216 0.015 
v -0.0185409 0.0455047 0.015 
v -0.0185804 0.0464892 0.015 
v -0.0187261 0.0474637 0.015 
v -0.0189763 0.0484167 0.015 
v -0.0193281 0.0493371 0.015 
v -0.0197773 0.0502141 0.015 
v -0.0203187 0.0510373 0.015 
v -0.020946 0.0517972 0.015 
v -0.0216517 0.0524848 0.015 
v -0.0224276 0.0530921 0.015 
v -0.0232647 0.0536119 0.015 
v -0.024153 0.0540382 0.015 
v -0.0250823 0.054366 0.015 
v -0.0260415 0.0545913 0.015 
v -0.0270194 0.0547116 0.015 
v -0.0280047 0.0547255 0.015 
v -0.0289856 0.0546328 0.015 
v -0.0299508 0.0544345 0.015 
v -0.0308889 0.0541331 0.015 
v -0.0317889 0.053732 0.015 
v -0.0326402 0.0532359 0.015 
v -0.033433 0.0526507 0.015 
v -0.0341578 0.0519833 0.015 
v -0.0348062 0.0512414 0.015 
v -0.0353706 0.0504337 0.015 
v -0.0358443 0.0495697 0.015 
v -0.0362219 0.0486596 0.015 
v -0.0364988 0.047714 0.015 
v -0.0366719 0.046744 0.015 
v -0.0367391 0.0457609 0.015 
v -0.0366996 0.0447764 0.015 
v -0.0365539 0.0438019 0.015 
v -0.0363037 0.0428489 0.015 
v -0.0359519 0.0419285 0.015 
v -0.0355027 0.0410515 0.015 
v -0.0349613 0.0402283 0.015 
v -0.034334 0.0394684 0.015 
v -0.0336283 0.0387808 0.015 
v -0.0328524 0.0381735 0.015 
v -0.0320153 0.0376537 0.015 
v -0.031127 0.0372274 0.015 
v -0.0301977 0.0368997 0.015 
v -0.0292385 0.0366743 0.015 
v -0.0282606 0.036554 0.015 
v -0.0272753 0.0365401 0.015 
v -0.0262944 0.0366328 0.015 
v -0.0287338 0.049799 0.01808 
v -0.0282769 0.0498928 0.01808 
v -0.0278126 0.0499367 0.01808 
v -0.0273463 0.0499301 0.01808 
v -0.0268834 0.0498732 0.01808 
v -0.0264293 0.0497665 0.01808 
v -0.0259895 0.0496114 0.01808 
v -0.025569 0.0494096 0.01808 
v -0.0251728 0.0491635 0.01808 
v -0.0248055 0.0488761 0.01808 
v -0.0244715 0.0485506 0.01808 
v -0.0243495 0.0484123 0.01808 
v -0.0241746 0.0481909 0.01808 
v -0.0239183 0.0478013 0.01808 
v -0.0237057 0.0473862 0.01808 
v -0.0235392 0.0469505 0.01808 
v -0.0234207 0.0464994 0.01808 
v -0.0233518 0.0460382 0.01808 
v -0.0233331 0.0455722 0.01808 
v -0.0233649 0.0451069 0.01808 
v -0.0234468 0.0446477 0.01808 
v -0.0235779 0.0442001 0.01808 
v -0.0237566 0.0437693 0.01808 
v -0.0239809 0.0433604 0.01808 
v -0.024248 0.0429781 0.01808 
v -0.0245549 0.0426269 0.01808 
v -0.024898 0.042311 0.01808 
v -0.0252732 0.042034 0.01808 
v -0.0256762 0.0417992 0.01808 
v -0.0261022 0.0416093 0.01808 
v -0.0265462 0.0414667 0.01808 
v -0.0270031 0.0413728 0.01808 
v -0.0274674 0.0413289 0.01808 
v -0.0279337 0.0413355 0.01808 
v -0.0283966 0.0413924 0.01808 
v -0.0288507 0.0414991 0.01808 
v -0.0292905 0.0416542 0.01808 
v -0.029711 0.041856 0.01808 
v -0.0301072 0.0421021 0.01808 
v -0.0304745 0.0423895 0.01808 
v -0.0308085 0.042715 0.01808 
v -0.0311054 0.0430747 0.01808 
v -0.0313617 0.0434643 0.01808 
v -0.0315743 0.0438794 0.01808 
v -0.0317408 0.0443151 0.01808 
v -0.0318593 0.0447662 0.01808 
v -0.0319282 0.0452274 0.01808 
v -0.0319469 0.0456935 0.01808 
v -0.0319151 0.0461588 0.01808 
v -0.0318332 0.0466179 0.01808 
v -0.0317021 0.0470655 0.01808 
v -0.0315234 0.0474963 0.01808 
v -0.0312991 0.0479052 0.01808 
v -0.031032 0.0482875 0.01808 
v -0.0307251 0.0486387 0.01808 
v -0.030382 0.0489546 0.01808 
v -0.0300068 0.0492316 0.01808 
v -0.0296038 0.0494664 0.01808 
v -0.0291778 0.0496563 0.01808 
vn -2.77901e-17 -9.61382e-17 -1 
vn 0.249003 -0.948439 -0.196116 
vn 0.350087 -0.915957 -0.196116 
vn 0.447068 -0.872737 -0.196116 
vn 0.538806 -0.819284 -0.196116 
vn 0.624228 -0.756226 -0.196116 
vn 0.702331 -0.684302 -0.196116 
vn 0.7722 -0.604355 -0.196116 
vn 0.833016 -0.517323 -0.196116 
vn 0.884065 -0.424226 -0.196116 
vn 0.924749 -0.326155 -0.196116 
vn 0.954592 -0.22426 -0.196116 
vn 0.973243 -0.119736 -0.196116 
vn 0.980483 -0.0138076 -0.196116 
vn 0.976229 0.0922822 -0.196116 
vn 0.960529 0.19729 -0.196116 
vn 0.933567 0.299985 -0.196116 
vn 0.89566 0.399163 -0.196116 
vn 0.847253 0.493661 -0.196116 
vn 0.788912 0.582371 -0.196116 
vn 0.721322 0.664254 -0.196116 
vn 0.645275 0.738348 -0.196116 
vn 0.561663 0.803787 -0.196116 
vn 0.471466 0.859801 -0.196116 
vn 0.375741 0.905736 -0.196116 
vn 0.275611 0.941051 -0.196116 
vn 0.17225 0.965333 -0.196116 
vn 0.0668697 0.978298 -0.196116 
vn -0.0392949 0.979793 -0.196116 
vn -0.144999 0.969801 -0.196116 
vn -0.249003 0.948439 -0.196116 
vn -0.350087 0.915957 -0.196116 
vn -0.447068 0.872737 -0.196116 
vn -0.538806 0.819284 -0.196116 
vn -0.624228 0.756226 -0.196116 
vn -0.702331 0.684302 -0.196116 
vn -0.7722 0.604355 -0.196116 
vn -0.833016 0.517323 -0.196116 
vn -0.884065 0.424226 -0.196116 
vn -0.924749 0.326155 -0.196116 
vn -0.954592 0.22426 -0.196116 
vn -0.973243 0.119736 -0.196116 
vn -0.980483 0.0138076 -0.196116 
vn -0.976229 -0.0922822 -0.196116 
vn -0.960529 -0.19729 -0.196116 
vn -0.933567 -0.299985 -0.196116 
vn -0.89566 -0.399163 -0.196116 
vn -0.847253 -0.493661 -0.196116 
vn -0.788912 -0.582371 -0.196116 
vn -0.721322 -0.664254 -0.196116 
vn -0.645275 -0.738348 -0.196116 
vn -0.561663 -0.803787 -0.196116 
vn -0.471466 -0.859801 -0.196116 
vn -0.375741 -0.905736 -0.196116 
vn -0.275611 -0.941051 -0.196116 
vn -0.17225 -0.965333 -0.196116 
vn -0.0668697 -0.978298 -0.196116 
vn 0.0392949 -0.979793 -0.196116 
vn 0.144999 -0.969801 -0.196116 
vn -0.137285 0.522912 0.841258 
vn -0.0799437 0.53469 0.841258 
vn -0.0216649 0.540199 0.841258 
vn 0.0368679 0.539375 0.841258 
vn 0.0949685 0.532227 0.841258 
vn 0.151956 0.518839 0.841258 
vn 0.207161 0.499368 0.841258 
vn 0.259938 0.474043 0.841258 
vn 0.309667 0.44316 0.841258 
vn 0.355766 0.407081 0.841258 
vn 0.397694 0.36623 0.841258 
vn 0.434959 0.321085 0.841258 
vn 0.413011 0.348864 0.841258 
vn 0.467124 0.272175 0.841258 
vn 0.493813 0.220074 0.841258 
vn 0.514713 0.165394 0.841258 
vn 0.529578 0.108774 0.841258 
vn 0.538234 0.0508789 0.841258 
vn 0.54058 -0.00761271 0.841258 
vn 0.536588 -0.066015 0.841258 
vn 0.526305 -0.123643 0.841258 
vn 0.509851 -0.179822 0.841258 
vn 0.48742 -0.233893 0.841258 
vn 0.459275 -0.285221 0.841258 
vn 0.425745 -0.333205 0.841258 
vn 0.387223 -0.377283 0.841258 
vn 0.344162 -0.416938 0.841258 
vn 0.297065 -0.451704 0.841258 
vn 0.246486 -0.481175 0.841258 
vn 0.193017 -0.505004 0.841258 
vn 0.137285 -0.522912 0.841258 
vn 0.0799437 -0.53469 0.841258 
vn 0.0216649 -0.540199 0.841258 
vn -0.0368679 -0.539375 0.841258 
vn -0.0949685 -0.532227 0.841258 
vn -0.151956 -0.518839 0.841258 
vn -0.207161 -0.499368 0.841258 
vn -0.259938 -0.474043 0.841258 
vn -0.309667 -0.44316 0.841258 
vn -0.355766 -0.407081 0.841258 
vn -0.397694 -0.36623 0.841258 
vn -0.434959 -0.321085 0.841258 
vn -0.467124 -0.272175 0.841258 
vn -0.493813 -0.220074 0.841258 
vn -0.514713 -0.165394 0.841258 
vn -0.529578 -0.108774 0.841258 
vn -0.538234 -0.0508789 0.841258 
vn -0.54058 0.00761271 0.841258 
vn -0.536588 0.066015 0.841258 
vn -0.526305 0.123643 0.841258 
vn -0.509851 0.179822 0.841258 
vn -0.48742 0.233893 0.841258 
vn -0.459275 0.285221 0.841258 
vn -0.425745 0.333205 0.841258 
vn -0.387223 0.377283 0.841258 
vn -0.344162 0.416938 0.841258 
vn -0.297065 0.451704 0.841258 
vn -0.246486 0.481175 0.841258 
vn -0.193017 0.505004 0.841258 
f 1//1 2//1 3//1 
f 3//1 4//1 1//1 
f 4//1 5//1 1//1 
f 5//1 6//1 1//1 
f 6//1 7//1 1//1 
f 7//1 8//1 1//1 
f 8//1 9//1 1//1 
f 9//1 10//1 1//1 
f 10//1 11//1 1//1 
f 11//1 12//1 1//1 
f 12//1 13//1 1//1 
f 13//1 14//1 1//1 
f 14//1 15//1 1//1 
f 15//1 16//1 1//1 
f 16//1 17//1 1//1 
f 17//1 18//1 1//1 
f 18//1 19//1 1//1 
f 19//1 20//1 1//1 
f 20//1 21//1 1//1 
f 21//1 22//1 1//1 
f 22//1 23//1 1//1 
f 23//1 24//1 1//1 
f 24//1 25//1 1//1 
f 25//1 26//1 1//1 
f 26//1 27//1 1//1 
f 27//1 28//1 1//1 
f 28//1 29//1 1//1 
f 29//1 30//1 1//1 
f 30//1 31//1 1//1 
f 31//1 32//1 1//1 
f 32//1 33//1 1//1 
f 33//1 34//1 1//1 
f 34//1 35//1 1//1 
f 35//1 36//1 1//1 
f 36//1 37//1 1//1 
f 37//1 38//1 1//1 
f 38//1 39//1 1//1 
f 39//1 40//1 1//1 
f 40//1 41//1 1//1 
f 41//1 42//1 1//1 
f 42//1 43//1 1//1 
f 43//1 44//1 1//1 
f 44//1 45//1 1//1 
f 45//1 46//1 1//1 
f 46//1 47//1 1//1 
f 47//1 48//1 1//1 
f 48//1 49//1 1//1 
f 49//1 50//1 1//1 
f 50//1 51//1 1//1 
f 51//1 52//1 1//1 
f 52//1 53//1 1//1 
f 53//1 54//1 1//1 
f 54//1 55//1 1//1 
f 55//1 56//1 1//1 
f 56//1 57//1 1//1 
f 57//1 58//1 1//1 
f 58//1 59//1 1//1 
f 59//1 2//1 1//1 
f 60//2 30//2 29//3 
f 61//3 29//3 28//4 
f 62//4 28//4 27//5 
f 63//5 27//5 26//6 
f 64//6 26//6 25//7 
f 65//7 25//7 24//8 
f 66//8 24//8 23//9 
f 67//9 23//9 22//10 
f 68//10 22//10 21//11 
f 69//11 21//11 20//12 
f 70//12 20//12 19//13 
f 71//13 19//13 18//14 
f 72//14 18//14 17//15 
f 73//15 17//15 16//16 
f 74//16 16//16 15//17 
f 75//17 15//17 14//18 
f 76//18 14//18 13//19 
f 77//19 13//19 12//20 
f 78//20 12//20 11//21 
f 79//21 11//21 10//22 
f 80//22 10//22 9//23 
f 81//23 9//23 8//24 
f 82//24 8//24 7//25 
f 83//25 7//25 6//26 
f 84//26 6//26 5//27 
f 85//27 5//27 4//28 
f 86//28 4//28 3//29 
f 87//29 3//29 2//30 
f 88//30 2//30 59//31 
f 89//31 59//31 58//32 
f 90//32 58//32 57//33 
f 91//33 57//33 56//34 
f 92//34 56//34 55//35 
f 93//35 55//35 54//36 
f 94//36 54//36 53//37 
f 95//37 53//37 52//38 
f 96//38 52//38 51//39 
f 97//39 51//39 50//40 
f 98//40 50//40 49//41 
f 99//41 49//41 48//42 
f 100//42 48//42 47//43 
f 101//43 47//43 46//44 
f 102//44 46//44 45//45 
f 103//45 45//45 44//46 
f 104//46 44//46 43//47 
f 105//47 43//47 42//48 
f 106//48 42//48 41//49 
f 107//49 41//49 40//50 
f 108//50 40//50 39//51 
f 109//51 39//51 38//52 
f 110//52 38//52 37//53 
f 111//53 37//53 36//54 
f 112//54 36//54 35//55 
f 113//55 35//55 34//56 
f 114//56 34//56 33//57 
f 115//57 33//57 32//58 
f 116//58 32//58 31//59 
f 117//59 31//59 30//2 
f 30//2 60//2 117//59 
f 31//59 117//59 116//58 
f 32//58 116//58 115//57 
f 33//57 115//57 114//56 
f 34//56 114//56 113//55 
f 35//55 113//55 112//54 
f 36//54 112//54 111//53 
f 37//53 111//53 110//52 
f 38//52 110//52 109//51 
f 39//51 109//51 108//50 
f 40//50 108//50 107//49 
f 41//49 107//49 106//48 
f 42//48 106//48 105//47 
f 43//47 105//47 104//46 
f 44//46 104//46 103//45 
f 45//45 103//45 102//44 
f 46//44 102//44 101//43 
f 47//43 101//43 100//42 
f 48//42 100//42 99//41 
f 49//41 99//41 98//40 
f 50//40 98//40 97//39 
f 51//39 97//39 96//38 
f 52//38 96//38 95//37 
f 53//37 95//37 94//36 
f 54//36 94//36 93//35 
f 55//35 93//35 92//34 
f 56//34 92//34 91//33 
f 57//33 91//33 90//32 
f 58//32 90//32 89//31 
f 59//31 89//31 88//30 
f 2//30 88//30 87//29 
f 3//29 87//29 86//28 
f 4//28 86//28 85//27 
f 5//27 85//27 84//26 
f 6//26 84//26 83//25 
f 7//25 83//25 82//24 
f 8//24 82//24 81//23 
f 9//23 81//23 80//22 
f 10//22 80//22 79//21 
f 11//21 79//21 78//20 
f 12//20 78//20 77//19 
f 13//19 77//19 76//18 
f 14//18 76//18 75//17 
f 15//17 75//17 74//16 
f 16//16 74//16 73//15 
f 17//15 73//15 72//14 
f 18//14 72//14 71//13 
f 19//13 71//13 70//12 
f 20//12 70//12 69//11 
f 21//11 69//11 68//10 
f 22//10 68//10 67//9 
f 23//9 67//9 66//8 
f 24//8 66//8 65//7 
f 25//7 65//7 64//6 
f 26//6 64//6 63//5 
f 27//5 63//5 62//4 
f 28//4 62//4 61//3 
f 29//3 61//3 60//2 
f 89//60 118//60 119//61 
f 88//61 119//61 120//62 
f 87//62 120//62 121//63 
f 86//63 121//63 122//64 
f 85//64 122//64 123//65 
f 84//65 123//65 124//66 
f 83//66 124//66 125//67 
f 82//67 125//67 126//68 
f 81//68 126//68 127//69 
f 80//69 127//69 128//70 
f 78//71 79//70 129//72 
f 79//70 128//70 129//72 
f 78//71 130//71 131//73 
f 77//73 131//73 132//74 
f 76//74 132//74 133//75 
f 75//75 133//75 134//76 
f 74//76 134//76 135//77 
f 73//77 135//77 136//78 
f 72//78 136//78 137//79 
f 71//79 137//79 138//80 
f 70//80 138//80 139//81 
f 69//81 139//81 140//82 
f 68//82 140//82 141//83 
f 67//83 141//83 142//84 
f 66//84 142//84 143//85 
f 65//85 143//85 144//86 
f 64//86 144//86 145//87 
f 63//87 145//87 146//88 
f 62//88 146//88 147//89 
f 61//89 147//89 148//90 
f 60//90 148//90 149//91 
f 117//91 149//91 150//92 
f 116//92 150//92 151//93 
f 115//93 151//93 152//94 
f 114//94 152//94 153//95 
f 113//95 153//95 154//96 
f 112//96 154//96 155//97 
f 111//97 155//97 156//98 
f 110//98 156//98 157//99 
f 109//99 157//99 158//100 
f 108//100 158//100 159//101 
f 107//101 159//101 160//102 
f 106//102 160//102 161//103 
f 105//103 161//103 162//104 
f 104//104 162//104 163//105 
f 103//105 163//105 164//106 
f 102//106 164//106 165//107 
f 101//107 165//107 166//108 
f 100//108 166//108 167//109 
f 99//109 167//109 168//110 
f 98//110 168//110 169//111 
f 97//111 169//111 170//112 
f 96//112 170//112 171//113 
f 95//113 171//113 172//114 
f 94//114 172//114 173//115 
f 93//115 173//115 174//116 
f 92//116 174//116 175//117 
f 91//117 175//117 176//118 
f 90//118 176//118 118//60 
f 118//60 89//60 90//118 
f 176//118 90//118 91//117 
f 175//117 91//117 92//116 
f 174//116 92//116 93//115 
f 173//115 93//115 94//114 
f 172//114 94//114 95//113 
f 171//113 95//113 96//112 
f 170//112 96//112 97//111 
f 169//111 97//111 98//110 
f 168//110 98//110 99//109 
f 167//109 99//109 100//108 
f 166//108 100//108 101//107 
f 165//107 101//107 102//106 
f 164//106 102//106 103//105 
f 163//105 103//105 104//104 
f 162//104 104//104 105//103 
f 161//103 105//103 106//102 
f 160//102 106//102 107//101 
f 159//101 107//101 108//100 
f 158//100 108//100 109//99 
f 157//99 109//99 110//98 
f 156//98 110//98 111//97 
f 155//97 111//97 112//96 
f 154//96 112//96 113//95 
f 153//95 113//95 114//94 
f 152//94 114//94 115//93 
f 151//93 115//93 116//92 
f 150//92 116//92 117//91 
f 149//91 117//91 60//90 
f 148//90 60//90 61//89 
f 147//89 61//89 62//88 
f 146//88 62//88 63//87 
f 145//87 63//87 64//86 
f 144//86 64//86 65//85 
f 143//85 65//85 66//84 
f 142//84 66//84 67//83 
f 141//83 67//83 68//82 
f 140//82 68//82 69//81 
f 139//81 69//81 70//80 
f 138//80 70//80 71//79 
f 137//79 71//79 72//78 
f 136//78 72//78 73//77 
f 135//77 73//77 74//76 
f 134//76 74//76 75//75 
f 133//75 75//75 76//74 
f 132//74 76//74 77//73 
f 131//73 77//73 78//71 
f 129//72 130//71 78//71 
f 128//70 79//70 80//69 
f 127//69 80//69 81//68 
f 126//68 81//68 82//67 
f 125//67 82//67 83//66 
f 124//66 83//66 84//65 
f 123//65 84//65 85//64 
f 122//64 85//64 86//63 
f 121//63 86//63 87//62 
f 120//62 87//62 88//61 
f 119//61 88//61 89//60 
