# flattened material 0.752941_0.000000_0.000000_0.000000_0.000000 for MuJoCo from ti_presser.obj
v -0.02462 0.0066875 0.0631642 
v -0.02464 0.0066875 0.0631642 
v -0.02464 0.0169173 0.064365 
v -0.02462 0.0169173 0.064365 
v -0.03066 0.0169173 0.064365 
v -0.03064 0.0169173 0.064365 
v -0.03064 0.0066875 0.0631642 
v -0.03066 0.0066875 0.0631642 
v -0.02864 -0.000140276 0.0488228 
v -0.02864 0.000250175 0.0478548 
v -0.02815 5.98028e-05 0.0483267 
v -0.0276753 -0.00012462 0.048784 
v -0.0276677 -0.000127595 0.0487914 
v -0.0277212 -0.000106773 0.0487397 
v -0.0276906 -0.000118671 0.0487692 
v -0.027905 -3.53834e-05 0.0485627 
v -0.0277825 -8.29764e-05 0.0486807 
v -0.0276638 -0.000129082 0.048795 
v -0.02766 -0.00013057 0.0487987 
v -0.02766 -0.000140276 0.0488228 
v -0.02664 -0.000140276 0.0488228 
v -0.0274975 -8.29764e-05 0.0486807 
v -0.027375 -3.53834e-05 0.0485627 
v -0.02713 5.98028e-05 0.0483267 
v -0.0275894 -0.000118671 0.0487692 
v -0.0275587 -0.000106773 0.0487397 
v -0.0276047 -0.00012462 0.048784 
v -0.0276162 -0.000129082 0.048795 
v -0.0276123 -0.000127595 0.0487914 
v -0.02762 -0.000140276 0.0488228 
v -0.02762 -0.00013057 0.0487987 
v -0.02664 0.000250175 0.0478548 
v -0.0276047 -0.000118683 0.0487949 
v -0.0277212 -9.05928e-05 0.0487585 
v -0.0277825 -5.31392e-05 0.04871 
v -0.027905 2.17678e-05 0.0486131 
v -0.02815 0.000171582 0.0484193 
v -0.0276753 -0.000118683 0.0487949 
v -0.0276906 -0.00010932 0.0487827 
v -0.0276638 -0.000125705 0.0488039 
v -0.0276677 -0.000123365 0.0488009 
v -0.0276162 -0.000125705 0.0488039 
v -0.02762 -0.000128046 0.048807 
v -0.0276123 -0.000123365 0.0488009 
v -0.02864 0.00047121 0.0480315 
v -0.027375 2.17678e-05 0.0486131 
v -0.0274975 -5.31392e-05 0.04871 
v -0.02664 0.00047121 0.0480315 
v -0.02713 0.000171582 0.0484193 
v -0.0275587 -9.05928e-05 0.0487585 
v -0.0275894 -0.00010932 0.0487827 
v -0.02766 -0.000128046 0.048807 
v -0.02664 0.0108838 0.0518378 
v -0.02664 0.0118844 0.0523385 
v -0.02664 0.0118745 0.0523559 
v -0.02664 0.0128262 0.0529426 
v -0.02664 0.0128145 0.0529588 
v -0.02664 0.0151961 0.0553019 
v -0.02664 0.0158045 0.056241 
v -0.02664 0.0157871 0.056251 
v -0.02664 0.0163096 0.0572394 
v -0.02664 0.0162913 0.0572475 
v -0.02664 0.00480278 0.0507462 
v -0.02664 0.00764455 0.0510069 
v -0.02664 0.00764272 0.0510268 
v -0.02664 0.00480096 0.0507661 
v -0.02664 0.00380111 0.0506205 
v -0.02664 0.00391671 0.0506225 
v -0.02664 0.00983559 0.0514463 
v -0.02664 0.0108758 0.0518562 
v -0.02664 0.0136985 0.0536433 
v -0.02664 0.0136852 0.0536582 
v -0.02664 0.0144915 0.0544328 
v -0.02664 0.0144767 0.0544462 
v -0.02664 0.01518 0.0553137 
v -0.02664 0.00875177 0.0511683 
v -0.02664 0.00874784 0.0511879 
v -0.02664 0.00187588 0.0500158 
v -0.02664 0.000972266 0.0495637 
v -0.02664 0.00138292 0.0497617 
v -0.02664 0.0098296 0.0514654 
v -0.02664 0.0028224 0.0503694 
v -0.02664 0.00304624 0.0504159 
v -0.02664 0.00219913 0.0501281 
v -0.02664 0.000604888 0.04932 
v -0.02664 0.0167059 0.0582858 
v -0.02664 0.0169888 0.0593684 
v -0.02664 0.0169692 0.0593724 
v -0.02664 0.0171551 0.0604748 
v -0.02664 0.0171352 0.0604768 
v -0.02664 -0.000128046 0.048807 
v -0.02664 0.000121783 0.0490182 
v -0.02664 0.0166868 0.0582919 
v -0.02664 0.0172029 0.0615927 
v -0.02664 0.0171829 0.0615925 
v -0.02664 0.0171317 0.0627094 
v -0.02664 0.0171119 0.062707 
v -0.02664 0.0169371 0.0643674 
v -0.02664 0.0169173 0.064365 
v -0.024375 2.17678e-05 0.0486131 
v -0.0244975 -5.31392e-05 0.04871 
v -0.02364 0.00047121 0.0480315 
v -0.02413 0.000171582 0.0484193 
v -0.0246162 -0.000125705 0.0488039 
v -0.02462 -0.000128046 0.048807 
v -0.0246047 -0.000118683 0.0487949 
v -0.0246123 -0.000123365 0.0488009 
v -0.0245587 -9.05928e-05 0.0487585 
v -0.0245894 -0.00010932 0.0487827 
v -0.02864 0.0144915 0.0544328 
v -0.02864 0.0144767 0.0544462 
v -0.02864 0.01518 0.0553137 
v -0.02864 0.0136985 0.0536433 
v -0.02864 0.0136852 0.0536582 
v -0.02864 0.0128262 0.0529426 
v -0.02864 0.0128145 0.0529588 
v -0.02864 0.0118844 0.0523385 
v -0.02864 0.0118745 0.0523559 
v -0.02864 0.00480096 0.0507661 
v -0.02864 0.00480278 0.0507462 
v -0.02864 0.00391671 0.0506225 
v -0.02864 0.00764272 0.0510268 
v -0.02864 0.0167059 0.0582858 
v -0.02864 0.0166868 0.0582919 
v -0.02864 0.0169692 0.0593724 
v -0.02864 0.0163096 0.0572394 
v -0.02864 0.0162913 0.0572475 
v -0.02864 0.00187588 0.0500158 
v -0.02864 0.00219913 0.0501281 
v -0.02864 0.00138292 0.0497617 
v -0.02864 0.00764455 0.0510069 
v -0.02864 0.00874784 0.0511879 
v -0.02864 0.0171317 0.0627094 
v -0.02864 0.0171119 0.062707 
v -0.02864 0.0169173 0.064365 
v -0.02864 0.0172029 0.0615927 
v -0.02864 0.0171829 0.0615925 
v -0.02864 0.0158045 0.056241 
v -0.02864 0.0157871 0.056251 
v -0.02864 0.0151961 0.0553019 
v -0.02864 0.000972266 0.0495637 
v -0.02864 0.0028224 0.0503694 
v -0.02864 0.00304624 0.0504159 
v -0.02864 0.00380111 0.0506205 
v -0.02864 0.0171551 0.0604748 
v -0.02864 0.0171352 0.0604768 
v -0.02864 0.0108838 0.0518378 
v -0.02864 0.0108758 0.0518562 
v -0.02864 0.00983559 0.0514463 
v -0.02864 0.0098296 0.0514654 
v -0.02864 -0.000128046 0.048807 
v -0.02864 0.000121783 0.0490182 
v -0.02864 0.00875177 0.0511683 
v -0.02864 0.0169888 0.0593684 
v -0.02864 0.000604888 0.04932 
v -0.02864 0.0169371 0.0643674 
v -0.030905 2.17678e-05 0.0486131 
v -0.03115 0.000171582 0.0484193 
v -0.0307212 -9.05928e-05 0.0487585 
v -0.0307825 -5.31392e-05 0.04871 
v -0.03066 -0.000128046 0.048807 
v -0.0306753 -0.000118683 0.0487949 
v -0.0306906 -0.00010932 0.0487827 
v -0.0306638 -0.000125705 0.0488039 
v -0.0306677 -0.000123365 0.0488009 
v -0.03164 0.00047121 0.0480315 
v -0.02413 5.98028e-05 0.0483267 
v -0.024375 -3.53834e-05 0.0485627 
v -0.02364 0.000250175 0.0478548 
v -0.0244975 -8.29764e-05 0.0486807 
v -0.0245587 -0.000106773 0.0487397 
v -0.0245588 -9.87331e-05 0.0487492 
v -0.0245894 -0.000118671 0.0487692 
v -0.0245894 -0.00011402 0.048776 
v -0.0246047 -0.00012462 0.048784 
v -0.0246047 -0.000121664 0.0487894 
v -0.0246123 -0.000127595 0.0487914 
v -0.0246123 -0.000125486 0.0487961 
v -0.0246162 -0.000129082 0.048795 
v -0.0246162 -0.000127397 0.0487995 
v -0.02462 -0.00013057 0.0487987 
v -0.02462 -0.000129308 0.0488028 
v -0.0236402 -0.00460117 0.0598825 
v -0.0246199 -0.00423433 0.0589712 
v -0.03164 0.00112838 0.0484916 
v -0.02364 0.00112838 0.0484916 
v -0.02364 0.00182598 0.0488876 
v -0.02364 0.00255781 0.0492161 
v -0.03164 0.00182598 0.0488876 
v -0.02364 0.00331735 0.0494741 
v -0.03164 0.00255781 0.0492161 
v -0.02364 0.00409784 0.0496594 
v -0.03164 0.00331735 0.0494741 
v -0.02364 0.00489231 0.0497703 
v -0.03164 0.00409784 0.0496594 
v -0.03164 0.00489231 0.0497703 
v -0.03164 0.00773408 0.050031 
v -0.02364 0.00773408 0.050031 
v -0.03164 0.00894444 0.0502074 
v -0.02364 0.00894444 0.0502074 
v -0.03164 0.0101292 0.0505113 
v -0.02364 0.0101292 0.0505113 
v -0.03164 0.011275 0.0509393 
v -0.02364 0.011275 0.0509393 
v -0.03164 0.0123689 0.0514866 
v -0.02364 0.0123689 0.0514866 
v -0.03164 0.0133985 0.052147 
v -0.02364 0.0133985 0.052147 
v -0.03164 0.014352 0.052913 
v -0.02364 0.014352 0.052913 
v -0.03164 0.0152189 0.053776 
v -0.02364 0.0152189 0.053776 
v -0.03164 0.0159891 0.0547261 
v -0.02364 0.0159891 0.0547261 
v -0.03164 0.0166542 0.0557527 
v -0.02364 0.0166542 0.0557527 
v -0.03164 0.0172064 0.0568441 
v -0.02364 0.0172064 0.0568441 
v -0.03164 0.0176395 0.057988 
v -0.02364 0.0176395 0.057988 
v -0.03164 0.0179488 0.0591714 
v -0.02364 0.0179488 0.0591714 
v -0.03164 0.0181306 0.0603809 
v -0.02364 0.0181306 0.0603809 
v -0.03164 0.0181829 0.061603 
v -0.02364 0.0181829 0.061603 
v -0.03164 0.0181051 0.0628236 
v -0.02364 0.0181051 0.0628236 
v -0.0316398 -0.00460117 0.0598825 
v -0.0307212 -0.000106773 0.0487397 
v -0.0306906 -0.000118671 0.0487692 
v -0.03115 5.98028e-05 0.0483267 
v -0.030905 -3.53834e-05 0.0485627 
v -0.0307825 -8.29764e-05 0.0486807 
v -0.03164 0.000250175 0.0478548 
v -0.0306677 -0.000127595 0.0487914 
v -0.0306638 -0.000129082 0.048795 
v -0.0306601 -0.00423433 0.0589712 
v -0.0306753 -0.00012462 0.048784 
v -0.03066 -0.00013057 0.0487987 
v -0.0236396 -0.0046619 0.0598531 
v -0.0316404 -0.0046619 0.0598531 
v -0.02766 -0.00423437 0.0589713 
v -0.02762 -0.00423437 0.0589713 
v -0.02364 0.0057155 0.0628672 
v -0.03164 0.0057155 0.0628672 
v -0.03164 0.00303519 0.0624439 
v -0.02364 0.00303519 0.0624439 
v -0.03164 0.00039986 0.0617972 
v -0.02364 0.00039986 0.0617972 
v -0.03164 -0.00217189 0.0609316 
v -0.02364 -0.00217189 0.0609316 
v -0.02664 0.0068274 0.0619724 
v -0.02664 0.00680512 0.0619906 
v -0.02664 0.00395253 0.0616201 
v -0.02664 0.00388181 0.0615872 
v -0.02664 0.00114596 0.0609894 
v -0.02664 -0.0015909 0.0601039 
v -0.02664 -0.00183392 0.0599902 
v -0.02664 0.000986008 0.0609244 
v -0.02664 -0.00423377 0.0589716 
v -0.02664 -0.00422627 0.058953 
v -0.02664 0.0066875 0.0631642 
v -0.02664 0.00666764 0.0631619 
v -0.02762 -0.00422627 0.058953 
v -0.02864 -0.00423377 0.0589716 
v -0.02864 -0.0015909 0.0601039 
v -0.02864 -0.00183392 0.0599902 
v -0.02864 0.00114596 0.0609894 
v -0.02864 0.000986008 0.0609244 
v -0.02864 0.00388181 0.0615872 
v -0.02864 0.0068274 0.0619724 
v -0.02864 0.00395253 0.0616201 
v -0.02864 0.00680512 0.0619906 
v -0.02864 0.0066875 0.0631642 
v -0.02864 -0.00422627 0.058953 
v -0.02864 0.00666764 0.0631619 
v -0.02766 -0.00422627 0.058953 
v -0.04649 0.0174441 0.0684543 
v -0.02364 0.0179104 0.0644816 
v -0.03164 0.0179104 0.0644816 
v -0.00879 0.0174441 0.0684543 
v -0.00879 0.0179104 0.0644816 
v -0.04649 0.0179104 0.0644816 
v -0.00879 0.00522799 0.0670204 
v -0.03164 0.00569432 0.0630476 
v -0.02364 0.00569432 0.0630476 
v -0.04649 0.00522799 0.0670204 
v -0.04649 0.00569432 0.0630476 
v -0.00879 0.00569432 0.0630476 
v -0.0033564 0.00847499 0.0674015 
v -0.00506818 0.00647347 0.0671666 
v -0.00456065 0.00690163 0.0672168 
v -0.00620768 0.0168796 0.0683881 
v -0.0068263 0.0171244 0.0684168 
v -0.00620768 0.00579253 0.0670866 
v -0.00307679 0.00907523 0.067472 
v -0.00286417 0.00970198 0.0675455 
v -0.0041027 0.00738178 0.0672732 
v -0.00561934 0.00610232 0.067123 
v -0.0502118 0.00647347 0.0671666 
v -0.0519236 0.0141971 0.0680732 
v -0.0522032 0.0135969 0.0680027 
v -0.0502118 0.0161986 0.0683081 
v -0.0507194 0.0157705 0.0682579 
v -0.00561934 0.0165698 0.0683517 
v -0.0041027 0.0152903 0.0682015 
v -0.00456065 0.0157705 0.0682579 
v -0.00264902 0.0110054 0.0676985 
v -0.00264902 0.0116667 0.0677762 
v -0.00272102 0.0103479 0.0676214 
v -0.00746793 0.00537079 0.0670371 
v -0.0068263 0.00554773 0.0670579 
v -0.00812507 0.0052638 0.0670246 
v -0.052631 0.0116667 0.0677762 
v -0.0511773 0.00738178 0.0672732 
v -0.0507194 0.00690163 0.0672168 
v -0.0519236 0.00847499 0.0674015 
v -0.0515803 0.00790829 0.067335 
v -0.0524158 0.00970198 0.0675455 
v -0.0522032 0.00907523 0.067472 
v -0.052631 0.0110054 0.0676985 
v -0.0515803 0.0147638 0.0681397 
v -0.0511773 0.0152903 0.0682015 
v -0.00746793 0.0173013 0.0684376 
v -0.00506818 0.0161986 0.0683081 
v -0.00307679 0.0135969 0.0680027 
v -0.0033564 0.0141971 0.0680732 
v -0.00272102 0.0123242 0.0678533 
v -0.00286417 0.0129701 0.0679292 
v -0.00369971 0.00790829 0.067335 
v -0.052559 0.0103479 0.0676214 
v -0.0524158 0.0129701 0.0679292 
v -0.052559 0.0123242 0.0678533 
v -0.0490723 0.0168796 0.0683881 
v -0.0496607 0.0165698 0.0683517 
v -0.00369971 0.0147638 0.0681397 
v -0.0471549 0.0174083 0.0684501 
v -0.0478121 0.00537079 0.0670371 
v -0.0471549 0.0052638 0.0670246 
v -0.0496607 0.00610232 0.067123 
v -0.0490723 0.00579253 0.0670866 
v -0.0484537 0.0171244 0.0684168 
v -0.0478121 0.0173013 0.0684376 
v -0.0484537 0.00554773 0.0670579 
v -0.00812507 0.0174083 0.0684501 
v -0.0471549 0.00573013 0.0630518 
v -0.0478121 0.00583712 0.0630644 
v -0.0484537 0.00601406 0.0630852 
v -0.0490723 0.00625885 0.0631139 
v -0.0496607 0.00656864 0.0631503 
v -0.0502118 0.0069398 0.0631938 
v -0.0507194 0.00736796 0.0632441 
v -0.0511773 0.00784811 0.0633005 
v -0.0515803 0.00837462 0.0633623 
v -0.0519236 0.00894131 0.0634288 
v -0.0522032 0.00954156 0.0634992 
v -0.0524158 0.0101683 0.0635728 
v -0.052559 0.0108142 0.0636486 
v -0.052631 0.0114717 0.0637258 
v -0.052631 0.0121331 0.0638034 
v -0.052559 0.0127906 0.0638806 
v -0.0524158 0.0134365 0.0639564 
v -0.0522032 0.0140632 0.06403 
v -0.0519236 0.0146635 0.0641005 
v -0.0515803 0.0152301 0.064167 
v -0.0511773 0.0157567 0.0642288 
v -0.0507194 0.0162368 0.0642851 
v -0.0502118 0.016665 0.0643354 
v -0.0496607 0.0170361 0.064379 
v -0.0490723 0.0173459 0.0644153 
v -0.0484537 0.0175907 0.0644441 
v -0.0478121 0.0177676 0.0644648 
v -0.0471549 0.0178746 0.0644774 
v -0.00812507 0.0178746 0.0644774 
v -0.00746793 0.0177676 0.0644648 
v -0.0068263 0.0175907 0.0644441 
v -0.00620768 0.0173459 0.0644153 
v -0.00561934 0.0170361 0.064379 
v -0.00506818 0.016665 0.0643354 
v -0.00456065 0.0162368 0.0642851 
v -0.0041027 0.0157567 0.0642288 
v -0.00369971 0.0152301 0.064167 
v -0.0033564 0.0146635 0.0641005 
v -0.00307679 0.0140632 0.06403 
v -0.00286417 0.0134365 0.0639564 
v -0.00272102 0.0127906 0.0638806 
v -0.00264902 0.0121331 0.0638034 
v -0.00264902 0.0114717 0.0637258 
v -0.00272102 0.0108142 0.0636486 
v -0.00286417 0.0101683 0.0635728 
v -0.00307679 0.00954156 0.0634992 
v -0.0033564 0.00894131 0.0634288 
v -0.00369971 0.00837462 0.0633623 
v -0.0041027 0.00784811 0.0633005 
v -0.00456065 0.00736796 0.0632441 
v -0.00506818 0.0069398 0.0631938 
v -0.00561934 0.00656864 0.0631503 
v -0.00620768 0.00625885 0.0631139 
v -0.0068263 0.00601406 0.0630852 
v -0.00746793 0.00583712 0.0630644 
v -0.00812507 0.00573013 0.0630518 
v -0.0510578 0.0142075 0.0640469 
v -0.0507692 0.0146839 0.0641029 
v -0.04649 0.00666764 0.0631619 
v -0.047049 0.00669774 0.0631654 
v -0.0500454 0.00807458 0.063327 
v -0.0496188 0.00771465 0.0632848 
v -0.0504304 0.00847822 0.0633744 
v -0.0515919 0.0109717 0.0636671 
v -0.0516524 0.0115244 0.063732 
v -0.0504304 0.0151265 0.0641548 
v -0.0476014 0.00678768 0.063176 
v -0.0507692 0.00892083 0.0634264 
v -0.0510578 0.00939722 0.0634823 
v -0.0512928 0.00990182 0.0635415 
v -0.0516524 0.0120804 0.0637973 
v -0.0515919 0.0126331 0.0638621 
v -0.0514716 0.0131761 0.0639259 
v -0.0512928 0.0137029 0.0639877 
v -0.0481408 0.00693642 0.0631934 
v -0.0514716 0.0104287 0.0636034 
v -0.0500454 0.0155302 0.0642022 
v -0.0496188 0.0158901 0.0642445 
v -0.0486608 0.00714221 0.0632176 
v -0.0491554 0.00740264 0.0632482 
v -0.0481408 0.0166683 0.0643358 
v -0.0476014 0.0168171 0.0643533 
v -0.0491554 0.0162021 0.0642811 
v -0.0486608 0.0164626 0.0643116 
v -0.047049 0.016907 0.0643638 
v -0.04649 0.0169371 0.0643674 
v -0.03164 0.0169371 0.0643674 
v -0.03164 0.00666764 0.0631619 
v -0.03164 0.0066875 0.0631642 
v -0.03164 0.00657092 0.0641574 
v -0.03164 0.0169173 0.064365 
v -0.03164 0.0168007 0.0653582 
v -0.03164 0.0168205 0.0653605 
v -0.03164 0.00655106 0.0641551 
v -0.031232 0.00639482 0.0656576 
v -0.031232 0.00637496 0.0656553 
v -0.0310585 0.00634411 0.0659181 
v -0.0313767 0.00642763 0.0653781 
v -0.0313767 0.00640777 0.0653758 
v -0.0314909 0.00646203 0.065085 
v -0.0314909 0.00644217 0.0650827 
v -0.0315734 0.00649765 0.0647816 
v -0.0315734 0.00647778 0.0647793 
v -0.0316233 0.00653408 0.0644713 
v -0.0316233 0.00651421 0.0644689 
v -0.0316233 0.0167638 0.065672 
v -0.0316233 0.0167837 0.0656744 
v -0.0315734 0.0167274 0.0659824 
v -0.0315734 0.0167473 0.0659847 
v -0.0314909 0.0166918 0.0662858 
v -0.0314909 0.0167117 0.0662881 
v -0.0313767 0.0166574 0.0665789 
v -0.0313767 0.0166773 0.0665812 
v -0.031232 0.0166246 0.0668584 
v -0.031232 0.0166444 0.0668607 
v -0.0310585 0.0165937 0.0671212 
v -0.030858 0.00631556 0.0661613 
v -0.0308761 0.00633775 0.0661438 
v -0.030858 0.0165851 0.0673668 
v -0.0308761 0.0165675 0.0673446 
v -0.0310585 0.0166136 0.0671236 
v -0.0310585 0.00636397 0.0659204 
v -0.0515722 0.0109749 0.0636675 
v -0.0515722 0.0126299 0.0638618 
v -0.0514523 0.0131708 0.0639252 
v -0.0516324 0.0115255 0.0637321 
v -0.0516324 0.0120793 0.0637971 
v -0.0512742 0.0136956 0.0639869 
v -0.0512742 0.00990917 0.0635424 
v -0.0514523 0.010434 0.063604 
v -0.0470468 0.00671748 0.0631677 
v -0.0475971 0.0167977 0.064351 
v -0.0470468 0.0168873 0.0643615 
v -0.0510401 0.0141982 0.0640459 
v -0.0507526 0.0146728 0.0641016 
v -0.0475971 0.00680708 0.0631783 
v -0.0481344 0.0166495 0.0643336 
v -0.0496066 0.0158743 0.0642426 
v -0.0491451 0.0161851 0.0642791 
v -0.0486524 0.00716024 0.0632197 
v -0.0491451 0.00741966 0.0632502 
v -0.0481344 0.00695525 0.0631957 
v -0.0486524 0.0164445 0.0643095 
v -0.0500317 0.0155158 0.0642005 
v -0.0510401 0.00940653 0.0634834 
v -0.0504151 0.00849108 0.0633759 
v -0.0507526 0.00893198 0.0634277 
v -0.0496066 0.00773046 0.0632867 
v -0.0500317 0.008089 0.0633287 
v -0.0504151 0.0151137 0.0641533 
v -0.04649 0.0066875 0.0631642 
v -0.04649 0.0169173 0.064365 
v -0.00879 0.00666764 0.0631619 
v -0.02364 0.00666764 0.0631619 
v -0.00823102 0.00669774 0.0631654 
v -0.0076786 0.00678768 0.063176 
v -0.00661917 0.00714221 0.0632176 
v -0.00612459 0.00740264 0.0632482 
v -0.00713921 0.00693642 0.0631934 
v -0.00368811 0.0109717 0.0636671 
v -0.00362758 0.0115244 0.063732 
v -0.00380845 0.0104287 0.0636034 
v -0.00422224 0.00939722 0.0634823 
v -0.00398719 0.00990182 0.0635415 
v -0.00451085 0.00892083 0.0634264 
v -0.00484962 0.00847822 0.0633744 
v -0.00523459 0.00807458 0.063327 
v -0.00566125 0.00771465 0.0632848 
v -0.00451085 0.0146839 0.0641029 
v -0.00484962 0.0151265 0.0641548 
v -0.00422224 0.0142075 0.0640469 
v -0.00362758 0.0120804 0.0637973 
v -0.0076786 0.0168171 0.0643533 
v -0.00823102 0.016907 0.0643638 
v -0.00713921 0.0166683 0.0643358 
v -0.00661917 0.0164626 0.0643116 
v -0.00612459 0.0162021 0.0642811 
v -0.00566125 0.0158901 0.0642445 
v -0.00523459 0.0155302 0.0642022 
v -0.00398719 0.0137029 0.0639877 
v -0.00380845 0.0131761 0.0639259 
v -0.00368811 0.0126331 0.0638621 
v -0.00879 0.0169371 0.0643674 
v -0.02364 0.0169371 0.0643674 
v -0.02364 0.0066875 0.0631642 
v -0.02364 0.0169173 0.064365 
v -0.02364 0.00657092 0.0641574 
v -0.02364 0.00655106 0.0641551 
v -0.02364 0.0168007 0.0653582 
v -0.02364 0.0168205 0.0653605 
v -0.0236567 0.00653408 0.0644713 
v -0.0236567 0.00651421 0.0644689 
v -0.0237066 0.00649765 0.0647816 
v -0.0237066 0.00647778 0.0647793 
v -0.0237891 0.00646203 0.065085 
v -0.0237891 0.00644217 0.0650827 
v -0.0239033 0.00642763 0.0653781 
v -0.0239033 0.00640777 0.0653758 
v -0.024048 0.00639482 0.0656576 
v -0.024048 0.00637496 0.0656553 
v -0.0242215 0.00636397 0.0659204 
v -0.0242215 0.00634411 0.0659181 
v -0.0242215 0.0166136 0.0671236 
v -0.024422 0.0165851 0.0673668 
v -0.0244039 0.0165675 0.0673446 
v -0.024422 0.00631556 0.0661613 
v -0.0244039 0.00633775 0.0661438 
v -0.0242215 0.0165937 0.0671212 
v -0.024048 0.0166246 0.0668584 
v -0.024048 0.0166444 0.0668607 
v -0.0239033 0.0166574 0.0665789 
v -0.0239033 0.0166773 0.0665812 
v -0.0237891 0.0166918 0.0662858 
v -0.0237891 0.0167117 0.0662881 
v -0.0237066 0.0167274 0.0659824 
v -0.0237066 0.0167473 0.0659847 
v -0.0236567 0.0167638 0.065672 
v -0.0236567 0.0167837 0.0656744 
v -0.0045274 0.00893198 0.0634277 
v -0.00486487 0.00849108 0.0633759 
v -0.00524835 0.008089 0.0633287 
v -0.00567335 0.00773046 0.0632867 
v -0.00400577 0.00990917 0.0635424 
v -0.00423991 0.00940653 0.0634834 
v -0.00370784 0.0109749 0.0636675 
v -0.0061349 0.00741966 0.0632502 
v -0.00382772 0.010434 0.063604 
v -0.00823319 0.00671748 0.0631677 
v -0.00879 0.0169173 0.064365 
v -0.00823319 0.0168873 0.0643615 
v -0.00662757 0.00716024 0.0632197 
v -0.0071456 0.00695525 0.0631957 
v -0.00364755 0.0120793 0.0637971 
v -0.00364755 0.0115255 0.0637321 
v -0.00382772 0.0131708 0.0639252 
v -0.00370784 0.0126299 0.0638618 
v -0.00423991 0.0141982 0.0640459 
v -0.00400577 0.0136956 0.0639869 
v -0.0071456 0.0166495 0.0643336 
v -0.00662757 0.0164445 0.0643095 
v -0.0076829 0.0167977 0.064351 
v -0.0045274 0.0146728 0.0641016 
v -0.00524835 0.0155158 0.0642005 
v -0.00486487 0.0151137 0.0641533 
v -0.0061349 0.0161851 0.0642791 
v -0.00567335 0.0158743 0.0642426 
v -0.0076829 0.00680708 0.0631783 
v -0.00879 0.0066875 0.0631642 
vn -1.46505e-16 0.116582 -0.993181 
vn -2.42356e-16 -0.927402 -0.374065 
vn -2.42356e-16 -0.927402 -0.374065 
vn -2.55041e-16 -0.791255 -0.611486 
vn 1 -1.88347e-16 -1.80937e-16 
vn -2.55041e-16 -0.791255 -0.611486 
vn -1 1.91001e-16 1.69931e-16 
vn -2.55041e-16 -0.791255 -0.611486 
vn -0.707055 0.441955 -0.552041 
vn -0.701573 0.46318 -0.541534 
vn -0.69775 0.481902 -0.530014 
vn -0.707107 0.432386 -0.559502 
vn -0.703473 0.453078 -0.547582 
vn -0.706681 0.45958 -0.537948 
vn -0.690181 0.51426 -0.509105 
vn -0.705171 0.48971 -0.512755 
vn -0.676065 0.563726 -0.474498 
vn -0.688853 0.549099 -0.473256 
vn -0.653258 0.626171 -0.425633 
vn -0.672758 0.608287 -0.421169 
vn -0.624215 0.687731 -0.370651 
vn -0.700669 0.534976 -0.472084 
vn -0.651235 0.666043 -0.363703 
vn -0.596337 0.735048 -0.322624 
vn -0.690921 0.590814 -0.416612 
vn -0.629999 0.71013 -0.314351 
vn -0.5755 0.765082 -0.288877 
vn -0.676292 0.644582 -0.356571 
vn -0.613894 0.738031 -0.280077 
vn -0.54706 0.800406 -0.245103 
vn -0.661013 0.685205 -0.305869 
vn -0.649108 0.710759 -0.271074 
vn -0.591688 0.770835 -0.236048 
vn -0.632396 0.740695 -0.226818 
vn -2.42356e-16 -0.927402 -0.374065 
vn -4.16284e-17 0.534173 -0.845375 
vn -1.76647e-17 0.611486 -0.791255 
vn -6.52214e-17 0.452101 -0.891967 
vn -8.82335e-17 0.366003 -0.930614 
vn -1.1046e-16 0.276646 -0.960972 
vn -1.31702e-16 0.184824 -0.982772 
vn -1.51772e-16 0.0913565 -0.995818 
vn -1.76647e-17 0.611486 -0.791255 
vn -1.29063e-16 0.196606 -0.980483 
vn -1.04894e-16 0.299631 -0.954055 
vn -7.9539e-17 0.399266 -0.916835 
vn -5.32839e-17 0.494385 -0.869243 
vn -2.6426e-17 0.58391 -0.811818 
vn 7.30815e-19 0.666831 -0.745209 
vn 2.78794e-17 0.742208 -0.67017 
vn 5.47125e-17 0.809188 -0.587549 
vn 8.09268e-17 0.867015 -0.498282 
vn 1.06225e-16 0.915033 -0.403378 
vn 1.30323e-16 0.9527 -0.303911 
vn 1.52945e-16 0.97959 -0.201006 
vn 1.73838e-16 0.995398 -0.0958264 
vn 1.92764e-16 0.999946 0.0104368 
vn 2.09509e-16 0.993181 0.116582 
vn -2.42356e-16 -0.927402 -0.374065 
vn -2.45952e-16 -0.900127 -0.435628 
vn 1.46977e-16 -0.114347 0.993441 
vn 1.289e-16 -0.197328 0.980337 
vn 1.09914e-16 -0.278918 0.960315 
vn 9.01524e-17 -0.358538 0.933515 
vn 7.02678e-17 -0.433748 0.901034 
vn 6.97544e-17 -0.435628 0.900127 
vn 1 -1.88347e-16 -1.80937e-16 
vn -2.42356e-16 -0.927402 -0.374065 
vn -1 1.91001e-16 1.69931e-16 
vn -2.42356e-16 -0.927402 -0.374065 
vn 2.09509e-16 0.993181 0.116582 
vn -2.09509e-16 -0.993181 -0.116582 
vn 1.46505e-16 -0.116582 0.993181 
vn -0.108119 -0.987359 -0.115899 
vn -0.21497 -0.969961 -0.113856 
vn -0.319302 -0.941191 -0.110479 
vn -0.419889 -0.901387 -0.105807 
vn -0.515554 -0.851014 -0.099894 
vn -0.605174 -0.790665 -0.09281 
vn -0.687699 -0.721045 -0.0846379 
vn -0.762162 -0.642972 -0.0754735 
vn -0.827689 -0.55736 -0.0654243 
vn -0.883512 -0.465214 -0.054608 
vn -0.928977 -0.367614 -0.0431514 
vn -0.96355 -0.265704 -0.031189 
vn -0.986827 -0.160679 -0.0188609 
vn -0.998533 -0.0537697 -0.00631162 
vn -0.998533 0.0537697 0.00631162 
vn -0.986827 0.160679 0.0188609 
vn -0.96355 0.265704 0.031189 
vn -0.928977 0.367614 0.0431514 
vn -0.883512 0.465214 0.054608 
vn -0.827689 0.55736 0.0654243 
vn -0.762162 0.642972 0.0754735 
vn -0.687699 0.721045 0.0846379 
vn -0.605174 0.790665 0.09281 
vn -0.515554 0.851014 0.099894 
vn -0.419889 0.901387 0.105807 
vn -0.319302 0.941191 0.110479 
vn -0.21497 0.969961 0.113856 
vn -0.108119 0.987359 0.115899 
vn -1.61505e-14 0.993181 0.116582 
vn 0.108119 0.987359 0.115899 
vn 0.21497 0.969961 0.113856 
vn 0.319302 0.941191 0.110479 
vn 0.419889 0.901387 0.105807 
vn 0.515554 0.851014 0.099894 
vn 0.605174 0.790665 0.09281 
vn 0.687699 0.721045 0.0846379 
vn 0.762162 0.642972 0.0754735 
vn 0.827689 0.55736 0.0654243 
vn 0.883512 0.465214 0.054608 
vn 0.928977 0.367614 0.0431514 
vn 0.96355 0.265704 0.031189 
vn 0.986827 0.160679 0.0188609 
vn 0.998533 0.0537697 0.00631162 
vn 0.998533 -0.0537697 -0.00631162 
vn 0.986827 -0.160679 -0.0188609 
vn 0.96355 -0.265704 -0.031189 
vn 0.928977 -0.367614 -0.0431514 
vn 0.883512 -0.465214 -0.054608 
vn 0.827689 -0.55736 -0.0654243 
vn 0.762162 -0.642972 -0.0754735 
vn 0.687699 -0.721045 -0.0846379 
vn 0.605174 -0.790665 -0.09281 
vn 0.515554 -0.851014 -0.099894 
vn 0.419889 -0.901387 -0.105807 
vn 0.319302 -0.941191 -0.110479 
vn 0.21497 -0.969961 -0.113856 
vn 0.108119 -0.987359 -0.115899 
vn -2.11337e-16 -0.993181 -0.116582 
vn -1.46505e-16 0.116582 -0.993181 
vn -1 1.88347e-16 1.80937e-16 
vn -0.863993 -0.0586994 0.50007 
vn -0.806151 -0.0689827 0.587675 
vn -0.912223 -0.0477629 0.406901 
vn -0.950303 -0.0362951 0.309204 
vn -0.97781 -0.0244234 0.208067 
vn -0.994437 -0.01228 0.104616 
vn -1 1.89658e-16 1.69774e-16 
vn -0.97781 -0.0244234 0.208067 
vn -0.950303 -0.0362951 0.309204 
vn -0.912223 -0.0477629 0.406901 
vn -0.863993 -0.0586994 0.50007 
vn -0.806151 -0.0689827 0.587675 
vn -0.739339 -0.0784985 0.668742 
vn -0.745356 -0.0777213 0.662121 
vn -0.806151 -0.0689827 0.587675 
vn -1.46505e-16 0.116582 -0.993181 
vn 1 -1.91001e-16 -1.69931e-16 
vn 0.994437 -0.01228 0.104616 
vn 0.97781 -0.0244234 0.208067 
vn 0.950303 -0.0362951 0.309204 
vn 0.912223 -0.0477629 0.406901 
vn 0.863993 -0.0586994 0.50007 
vn 0.806151 -0.0689827 0.587675 
vn 0.739339 -0.0784985 0.668742 
vn 0.745356 -0.0777213 0.662121 
vn 0.806151 -0.0689827 0.587675 
vn 0.863993 -0.0586994 0.50007 
vn 0.912223 -0.0477629 0.406901 
vn 0.950303 -0.0362951 0.309204 
vn 0.97781 -0.0244234 0.208067 
vn 0.994437 -0.01228 0.104616 
vn 1 9.62347e-16 -1.48951e-14 
vn -1.46505e-16 0.116582 -0.993181 
f 1//1 2//1 3//1 
f 3//1 4//1 1//1 
f 5//1 6//1 7//1 
f 7//1 8//1 5//1 
f 9//2 10//2 11//2 
f 9//2 12//2 13//2 
f 9//2 14//2 15//2 
f 11//2 16//2 9//2 
f 15//2 12//2 9//2 
f 16//2 17//2 9//2 
f 9//2 18//2 19//2 
f 17//2 14//2 9//2 
f 13//2 18//2 9//2 
f 19//2 20//2 9//2 
f 21//3 22//3 23//3 
f 23//3 24//3 21//3 
f 21//3 25//3 26//3 
f 26//3 22//3 21//3 
f 21//3 27//3 25//3 
f 21//3 28//3 29//3 
f 29//3 27//3 21//3 
f 21//3 30//3 31//3 
f 31//3 28//3 21//3 
f 24//3 32//3 21//3 
f 33//4 34//4 35//4 
f 35//4 36//4 33//4 
f 36//4 37//4 33//4 
f 33//4 38//4 39//4 
f 39//4 34//4 33//4 
f 33//4 40//4 41//4 
f 40//4 42//4 43//4 
f 40//4 33//4 44//4 
f 45//4 46//4 47//4 
f 45//4 48//4 49//4 
f 41//4 38//4 33//4 
f 44//4 42//4 40//4 
f 45//4 50//4 51//4 
f 49//4 46//4 45//4 
f 43//4 52//4 40//4 
f 47//4 50//4 45//4 
f 51//4 33//4 45//4 
f 37//4 45//4 33//4 
f 53//5 54//5 55//5 
f 54//5 56//5 57//5 
f 58//5 59//5 60//5 
f 59//5 61//5 62//5 
f 63//5 64//5 65//5 
f 66//5 67//5 68//5 
f 69//5 53//5 70//5 
f 57//5 55//5 54//5 
f 56//5 71//5 72//5 
f 71//5 73//5 74//5 
f 73//5 58//5 75//5 
f 62//5 60//5 59//5 
f 68//5 63//5 66//5 
f 64//5 76//5 77//5 
f 78//5 79//5 80//5 
f 76//5 69//5 81//5 
f 55//5 70//5 53//5 
f 74//5 72//5 71//5 
f 60//5 75//5 58//5 
f 77//5 65//5 64//5 
f 67//5 82//5 83//5 
f 82//5 78//5 84//5 
f 79//5 85//5 80//5 
f 70//5 81//5 69//5 
f 75//5 74//5 73//5 
f 86//5 87//5 88//5 
f 87//5 89//5 90//5 
f 83//5 68//5 67//5 
f 80//5 84//5 78//5 
f 91//5 85//5 92//5 
f 72//5 57//5 56//5 
f 61//5 86//5 93//5 
f 90//5 88//5 87//5 
f 89//5 94//5 95//5 
f 84//5 83//5 82//5 
f 92//5 21//5 91//5 
f 93//5 62//5 61//5 
f 95//5 90//5 89//5 
f 85//5 79//5 92//5 
f 88//5 93//5 86//5 
f 94//5 96//5 97//5 
f 96//5 98//5 99//5 
f 81//5 77//5 76//5 
f 99//5 97//5 96//5 
f 97//5 95//5 94//5 
f 32//5 48//5 91//5 
f 91//5 21//5 32//5 
f 65//5 66//5 63//5 
f 48//6 100//6 101//6 
f 48//6 102//6 103//6 
f 48//6 104//6 105//6 
f 48//6 106//6 107//6 
f 48//6 108//6 109//6 
f 103//6 100//6 48//6 
f 107//6 104//6 48//6 
f 101//6 108//6 48//6 
f 109//6 106//6 48//6 
f 105//6 91//6 48//6 
f 110//7 111//7 112//7 
f 113//7 114//7 111//7 
f 115//7 116//7 114//7 
f 117//7 118//7 116//7 
f 119//7 120//7 121//7 
f 120//7 119//7 122//7 
f 123//7 124//7 125//7 
f 126//7 127//7 124//7 
f 111//7 110//7 113//7 
f 116//7 115//7 117//7 
f 128//7 129//7 130//7 
f 131//7 122//7 132//7 
f 122//7 131//7 120//7 
f 133//7 134//7 135//7 
f 136//7 137//7 134//7 
f 124//7 123//7 126//7 
f 138//7 139//7 127//7 
f 140//7 112//7 139//7 
f 114//7 113//7 115//7 
f 130//7 141//7 128//7 
f 142//7 143//7 129//7 
f 144//7 121//7 143//7 
f 121//7 144//7 119//7 
f 134//7 133//7 136//7 
f 145//7 146//7 137//7 
f 127//7 126//7 138//7 
f 112//7 140//7 110//7 
f 147//7 148//7 118//7 
f 149//7 150//7 148//7 
f 151//7 9//7 152//7 
f 129//7 128//7 142//7 
f 132//7 153//7 131//7 
f 137//7 136//7 145//7 
f 154//7 125//7 146//7 
f 139//7 138//7 140//7 
f 148//7 147//7 149//7 
f 152//7 141//7 155//7 
f 143//7 142//7 144//7 
f 146//7 145//7 154//7 
f 118//7 117//7 147//7 
f 153//7 132//7 150//7 
f 130//7 155//7 141//7 
f 125//7 154//7 123//7 
f 152//7 155//7 151//7 
f 10//7 9//7 151//7 
f 150//7 149//7 153//7 
f 135//7 156//7 133//7 
f 151//7 45//7 10//7 
f 45//8 157//8 158//8 
f 45//8 159//8 160//8 
f 45//8 151//8 161//8 
f 160//8 157//8 45//8 
f 45//8 162//8 163//8 
f 161//8 164//8 45//8 
f 163//8 159//8 45//8 
f 164//8 165//8 45//8 
f 165//8 162//8 45//8 
f 158//8 166//8 45//8 
f 103//9 167//10 168//11 
f 102//12 169//13 167//10 
f 100//14 168//11 170//15 
f 101//16 170//15 171//17 
f 171//17 172//18 101//16 
f 172//18 171//17 173//19 
f 174//20 173//19 175//21 
f 108//22 172//18 174//20 
f 176//23 175//21 177//24 
f 109//25 174//20 176//23 
f 178//26 177//24 179//27 
f 106//28 176//23 178//26 
f 180//29 179//27 181//30 
f 107//31 178//26 180//29 
f 104//32 180//29 182//33 
f 182//33 105//34 104//32 
f 180//29 104//32 107//31 
f 181//30 182//33 180//29 
f 178//26 107//31 106//28 
f 179//27 180//29 178//26 
f 176//23 106//28 109//25 
f 177//24 178//26 176//23 
f 174//20 109//25 108//22 
f 175//21 176//23 174//20 
f 173//19 174//20 172//18 
f 172//18 108//22 101//16 
f 170//15 101//16 100//14 
f 167//10 103//9 102//12 
f 168//11 100//14 103//9 
f 183//35 170//35 168//35 
f 183//35 179//35 177//35 
f 168//35 167//35 183//35 
f 177//35 175//35 183//35 
f 183//35 171//35 170//35 
f 175//35 173//35 183//35 
f 173//35 171//35 183//35 
f 183//35 184//35 181//35 
f 181//35 179//35 183//35 
f 167//35 169//35 183//35 
f 185//36 186//36 48//37 
f 48//37 45//37 185//36 
f 186//36 102//37 48//37 
f 187//38 186//36 185//36 
f 188//39 187//38 189//38 
f 190//40 188//39 191//39 
f 192//41 190//40 193//40 
f 194//42 192//41 195//41 
f 195//41 196//42 194//42 
f 193//40 195//41 192//41 
f 191//39 193//40 190//40 
f 189//38 191//39 188//39 
f 185//36 189//38 187//38 
f 45//37 166//43 185//36 
f 194//42 196//42 197//42 
f 197//42 198//42 194//42 
f 198//42 197//42 199//44 
f 200//44 199//44 201//45 
f 202//45 201//45 203//46 
f 204//46 203//46 205//47 
f 206//47 205//47 207//48 
f 208//48 207//48 209//49 
f 210//49 209//49 211//50 
f 212//50 211//50 213//51 
f 214//51 213//51 215//52 
f 216//52 215//52 217//53 
f 218//53 217//53 219//54 
f 220//54 219//54 221//55 
f 222//55 221//55 223//56 
f 224//56 223//56 225//57 
f 226//57 225//57 227//58 
f 227//58 228//58 226//57 
f 225//57 226//57 224//56 
f 223//56 224//56 222//55 
f 221//55 222//55 220//54 
f 219//54 220//54 218//53 
f 217//53 218//53 216//52 
f 215//52 216//52 214//51 
f 213//51 214//51 212//50 
f 211//50 212//50 210//49 
f 209//49 210//49 208//48 
f 207//48 208//48 206//47 
f 205//47 206//47 204//46 
f 203//46 204//46 202//45 
f 201//45 202//45 200//44 
f 199//44 200//44 198//42 
f 229//59 230//59 231//59 
f 229//59 232//59 233//59 
f 229//59 234//59 230//59 
f 229//59 235//59 232//59 
f 229//59 236//59 237//59 
f 233//59 234//59 229//59 
f 237//59 238//59 229//59 
f 231//59 239//59 229//59 
f 239//59 236//59 229//59 
f 237//59 240//59 238//59 
f 241//60 242//60 243//60 
f 243//60 244//60 241//60 
f 242//60 238//60 243//60 
f 244//60 184//60 241//60 
f 245//61 246//61 247//62 
f 248//62 247//62 249//63 
f 250//63 249//63 251//64 
f 252//64 251//64 229//65 
f 242//66 241//66 183//65 
f 183//65 229//65 242//66 
f 229//65 183//65 252//64 
f 251//64 252//64 250//63 
f 249//63 250//63 248//62 
f 247//62 248//62 245//61 
f 253//67 254//67 255//67 
f 256//67 255//67 257//67 
f 258//67 259//67 260//67 
f 261//67 262//67 259//67 
f 257//67 260//67 256//67 
f 259//67 258//67 261//67 
f 260//67 257//67 258//67 
f 263//67 264//67 254//67 
f 254//67 253//67 263//67 
f 255//67 256//67 253//67 
f 262//68 261//68 244//68 
f 244//68 265//68 262//68 
f 266//69 267//69 268//69 
f 267//69 269//69 270//69 
f 271//69 270//69 269//69 
f 272//69 271//69 273//69 
f 270//69 268//69 267//69 
f 273//69 274//69 272//69 
f 275//69 272//69 274//69 
f 269//69 273//69 271//69 
f 268//69 276//69 266//69 
f 274//69 277//69 275//69 
f 276//70 278//70 243//70 
f 243//70 266//70 276//70 
f 279//71 280//71 281//71 
f 228//71 227//71 281//71 
f 281//71 280//71 228//71 
f 282//71 283//71 280//71 
f 280//71 279//71 282//71 
f 281//71 284//71 279//71 
f 285//72 286//72 287//72 
f 246//72 245//72 287//72 
f 287//72 286//72 246//72 
f 288//72 289//72 286//72 
f 286//72 285//72 288//72 
f 287//72 290//72 285//72 
f 291//73 292//73 293//73 
f 285//73 294//73 295//73 
f 296//73 297//73 298//73 
f 293//73 299//73 291//73 
f 291//73 296//73 300//73 
f 301//73 302//73 303//73 
f 301//73 304//73 305//73 
f 285//73 306//73 294//73 
f 285//73 307//73 308//73 
f 285//73 309//73 310//73 
f 296//73 291//73 297//73 
f 300//73 292//73 291//73 
f 311//73 312//73 313//73 
f 311//73 285//73 314//73 
f 315//73 316//73 317//73 
f 315//73 318//73 319//73 
f 315//73 320//73 321//73 
f 320//73 315//73 322//73 
f 301//73 323//73 302//73 
f 305//73 324//73 301//73 
f 295//73 325//73 285//73 
f 308//73 326//73 285//73 
f 285//73 327//73 328//73 
f 285//73 329//73 330//73 
f 285//73 311//73 309//73 
f 299//73 331//73 291//73 
f 314//73 312//73 311//73 
f 319//73 316//73 315//73 
f 322//73 332//73 320//73 
f 301//73 333//73 334//73 
f 324//73 323//73 301//73 
f 301//73 335//73 336//73 
f 326//73 306//73 285//73 
f 328//73 337//73 285//73 
f 310//73 329//73 285//73 
f 313//73 296//73 311//73 
f 338//73 339//73 340//73 
f 338//73 341//73 342//73 
f 321//73 318//73 315//73 
f 303//73 333//73 301//73 
f 301//73 343//73 335//73 
f 301//73 338//73 344//73 
f 337//73 307//73 285//73 
f 298//73 311//73 296//73 
f 338//73 345//73 339//73 
f 338//73 301//73 341//73 
f 334//73 315//73 301//73 
f 344//73 343//73 301//73 
f 330//73 327//73 285//73 
f 342//73 345//73 338//73 
f 336//73 304//73 301//73 
f 325//73 346//73 285//73 
f 282//73 279//73 288//73 
f 317//73 301//73 315//73 
f 288//73 285//73 282//73 
f 288//73 279//73 338//73 
f 340//73 288//73 338//73 
f 346//73 282//73 285//73 
f 289//72 288//72 340//74 
f 347//74 340//74 339//75 
f 348//75 339//75 345//76 
f 349//76 345//76 342//77 
f 350//77 342//77 341//78 
f 351//78 341//78 301//79 
f 352//79 301//79 317//80 
f 353//80 317//80 316//81 
f 354//81 316//81 319//82 
f 355//82 319//82 318//83 
f 356//83 318//83 321//84 
f 357//84 321//84 320//85 
f 358//85 320//85 332//86 
f 359//86 332//86 322//87 
f 360//87 322//87 315//88 
f 361//88 315//88 334//89 
f 362//89 334//89 333//90 
f 363//90 333//90 303//91 
f 364//91 303//91 302//92 
f 365//92 302//92 323//93 
f 366//93 323//93 324//94 
f 367//94 324//94 305//95 
f 368//95 305//95 304//96 
f 369//96 304//96 336//97 
f 370//97 336//97 335//98 
f 371//98 335//98 343//99 
f 372//99 343//99 344//100 
f 373//100 344//100 338//101 
f 374//101 338//101 279//102 
f 279//102 284//102 374//101 
f 338//101 374//101 373//100 
f 344//100 373//100 372//99 
f 343//99 372//99 371//98 
f 335//98 371//98 370//97 
f 336//97 370//97 369//96 
f 304//96 369//96 368//95 
f 305//95 368//95 367//94 
f 324//94 367//94 366//93 
f 323//93 366//93 365//92 
f 302//92 365//92 364//91 
f 303//91 364//91 363//90 
f 333//90 363//90 362//89 
f 334//89 362//89 361//88 
f 315//88 361//88 360//87 
f 322//87 360//87 359//86 
f 332//86 359//86 358//85 
f 320//85 358//85 357//84 
f 321//84 357//84 356//83 
f 318//83 356//83 355//82 
f 319//82 355//82 354//81 
f 316//81 354//81 353//80 
f 317//80 353//80 352//79 
f 301//79 352//79 351//78 
f 341//78 351//78 350//77 
f 342//77 350//77 349//76 
f 345//76 349//76 348//75 
f 339//75 348//75 347//74 
f 340//74 347//74 289//72 
f 283//102 282//102 346//103 
f 375//103 346//103 325//104 
f 376//104 325//104 295//105 
f 377//105 295//105 294//106 
f 378//106 294//106 306//107 
f 379//107 306//107 326//108 
f 380//108 326//108 308//109 
f 381//109 308//109 307//110 
f 382//110 307//110 337//111 
f 383//111 337//111 328//112 
f 384//112 328//112 327//113 
f 385//113 327//113 330//114 
f 386//114 330//114 329//115 
f 387//115 329//115 310//116 
f 388//116 310//116 309//117 
f 389//117 309//117 311//118 
f 390//118 311//118 298//119 
f 391//119 298//119 297//120 
f 392//120 297//120 291//121 
f 393//121 291//121 331//122 
f 394//122 331//122 299//123 
f 395//123 299//123 293//124 
f 396//124 293//124 292//125 
f 397//125 292//125 300//126 
f 398//126 300//126 296//127 
f 399//127 296//127 313//128 
f 400//128 313//128 312//129 
f 401//129 312//129 314//130 
f 402//130 314//130 285//131 
f 285//131 290//131 402//130 
f 314//130 402//130 401//129 
f 312//129 401//129 400//128 
f 313//128 400//128 399//127 
f 296//127 399//127 398//126 
f 300//126 398//126 397//125 
f 292//125 397//125 396//124 
f 293//124 396//124 395//123 
f 299//123 395//123 394//122 
f 331//122 394//122 393//121 
f 291//121 393//121 392//120 
f 297//120 392//120 391//119 
f 298//119 391//119 390//118 
f 311//118 390//118 389//117 
f 309//117 389//117 388//116 
f 310//116 388//116 387//115 
f 329//115 387//115 386//114 
f 330//114 386//114 385//113 
f 327//113 385//113 384//112 
f 328//112 384//112 383//111 
f 337//111 383//111 382//110 
f 307//110 382//110 381//109 
f 308//109 381//109 380//108 
f 326//108 380//108 379//107 
f 306//107 379//107 378//106 
f 294//106 378//106 377//105 
f 295//105 377//105 376//104 
f 325//104 376//104 375//103 
f 346//103 375//103 283//102 
f 364//132 365//132 403//132 
f 365//132 366//132 404//132 
f 286//132 289//132 405//132 
f 347//132 406//132 405//132 
f 353//132 407//132 408//132 
f 353//132 354//132 409//132 
f 358//132 359//132 410//132 
f 359//132 360//132 411//132 
f 404//132 403//132 365//132 
f 366//132 367//132 412//132 
f 405//132 289//132 347//132 
f 347//132 348//132 413//132 
f 409//132 407//132 353//132 
f 354//132 355//132 414//132 
f 355//132 356//132 415//132 
f 356//132 357//132 416//132 
f 411//132 410//132 359//132 
f 360//132 361//132 417//132 
f 361//132 362//132 418//132 
f 362//132 363//132 419//132 
f 363//132 364//132 420//132 
f 412//132 404//132 366//132 
f 413//132 406//132 347//132 
f 348//132 349//132 421//132 
f 414//132 409//132 354//132 
f 416//132 415//132 356//132 
f 357//132 358//132 422//132 
f 417//132 411//132 360//132 
f 419//132 418//132 362//132 
f 403//132 420//132 364//132 
f 367//132 368//132 423//132 
f 368//132 369//132 424//132 
f 421//132 413//132 348//132 
f 349//132 350//132 425//132 
f 350//132 351//132 426//132 
f 351//132 352//132 408//132 
f 415//132 414//132 355//132 
f 410//132 422//132 358//132 
f 420//132 419//132 363//132 
f 424//132 423//132 368//132 
f 371//132 372//132 427//132 
f 372//132 373//132 428//132 
f 425//132 421//132 349//132 
f 408//132 426//132 351//132 
f 422//132 416//132 357//132 
f 423//132 412//132 367//132 
f 369//132 370//132 429//132 
f 370//132 371//132 430//132 
f 428//132 427//132 372//132 
f 373//132 374//132 431//132 
f 426//132 425//132 350//132 
f 418//132 417//132 361//132 
f 430//132 429//132 370//132 
f 431//132 428//132 373//132 
f 408//132 352//132 353//132 
f 427//132 430//132 371//132 
f 284//132 432//132 431//132 
f 432//132 284//132 281//132 
f 429//132 424//132 369//132 
f 281//132 433//132 432//132 
f 431//132 374//132 284//132 
f 405//132 434//132 286//132 
f 246//133 207//133 205//133 
f 246//133 201//133 199//133 
f 205//133 203//133 246//133 
f 246//133 213//133 211//133 
f 203//133 201//133 246//133 
f 211//133 209//133 246//133 
f 434//133 221//133 219//133 
f 246//133 197//133 196//133 
f 209//133 207//133 246//133 
f 434//133 223//133 221//133 
f 199//133 197//133 246//133 
f 434//133 225//133 223//133 
f 225//133 434//133 435//133 
f 229//133 185//133 166//133 
f 249//133 247//133 195//133 
f 196//133 247//133 246//133 
f 435//133 227//133 225//133 
f 229//133 189//133 185//133 
f 251//133 191//133 189//133 
f 251//133 249//133 193//133 
f 196//133 195//133 247//133 
f 219//133 217//133 434//133 
f 213//133 246//133 434//133 
f 189//133 229//133 251//133 
f 195//133 193//133 249//133 
f 217//133 215//133 434//133 
f 436//133 435//133 434//133 
f 246//133 286//133 434//133 
f 193//133 191//133 251//133 
f 227//133 437//133 433//133 
f 438//133 439//133 433//133 
f 434//133 440//133 436//133 
f 166//133 235//133 229//133 
f 433//133 437//133 438//133 
f 434//133 215//133 213//133 
f 435//133 437//133 227//133 
f 433//133 281//133 227//133 
f 441//134 442//134 443//135 
f 444//136 445//136 442//134 
f 446//137 447//137 445//136 
f 448//138 449//138 447//137 
f 450//139 451//139 449//138 
f 436//140 440//140 451//139 
f 439//140 438//140 452//139 
f 453//139 452//139 454//141 
f 455//141 454//141 456//142 
f 457//142 456//142 458//143 
f 459//143 458//143 460//144 
f 461//144 460//144 462//145 
f 443//135 463//146 464//147 
f 465//146 466//147 464//147 
f 467//148 462//145 466//147 
f 466//147 465//146 467//148 
f 464//147 463//146 465//146 
f 464//147 468//148 443//135 
f 462//145 467//148 461//144 
f 460//144 461//144 459//143 
f 458//143 459//143 457//142 
f 456//142 457//142 455//141 
f 454//141 455//141 453//139 
f 452//139 453//139 439//140 
f 451//139 450//139 436//140 
f 449//138 448//138 450//139 
f 447//137 446//137 448//138 
f 445//136 444//136 446//137 
f 442//134 441//134 444//136 
f 443//135 468//148 441//134 
f 469//149 470//149 471//149 
f 470//149 469//149 472//149 
f 472//149 473//149 470//149 
f 474//149 475//149 476//149 
f 477//149 478//149 479//149 
f 475//149 474//149 480//149 
f 476//149 469//149 474//149 
f 481//149 477//149 482//149 
f 477//149 483//149 478//149 
f 477//149 484//149 485//149 
f 471//149 474//149 469//149 
f 481//149 486//149 487//149 
f 482//149 488//149 481//149 
f 477//149 489//149 483//149 
f 477//149 490//149 484//149 
f 481//149 491//149 475//149 
f 481//149 492//149 493//149 
f 481//149 494//149 495//149 
f 488//149 486//149 481//149 
f 485//149 489//149 477//149 
f 477//149 481//149 496//149 
f 493//149 491//149 481//149 
f 487//149 494//149 481//149 
f 496//149 490//149 477//149 
f 495//149 492//149 481//149 
f 480//149 481//149 475//149 
f 435//149 497//149 498//149 
f 498//149 497//149 477//149 
f 479//149 498//149 477//149 
f 498//149 437//149 435//149 
f 402//149 290//149 499//149 
f 287//149 500//149 499//149 
f 402//149 501//149 502//149 
f 499//149 290//149 287//149 
f 399//149 503//149 504//149 
f 400//149 505//149 503//149 
f 401//149 502//149 505//149 
f 499//149 501//149 402//149 
f 390//149 506//149 507//149 
f 391//149 508//149 506//149 
f 393//149 509//149 510//149 
f 394//149 511//149 509//149 
f 395//149 512//149 511//149 
f 396//149 513//149 512//149 
f 397//149 514//149 513//149 
f 398//149 504//149 514//149 
f 503//149 399//149 400//149 
f 502//149 401//149 402//149 
f 383//149 515//149 516//149 
f 384//149 517//149 515//149 
f 389//149 507//149 518//149 
f 506//149 390//149 391//149 
f 509//149 393//149 394//149 
f 512//149 395//149 396//149 
f 514//149 397//149 398//149 
f 505//149 400//149 401//149 
f 376//149 519//149 520//149 
f 377//149 521//149 519//149 
f 378//149 522//149 521//149 
f 379//149 523//149 522//149 
f 380//149 524//149 523//149 
f 381//149 525//149 524//149 
f 382//149 516//149 525//149 
f 515//149 383//149 384//149 
f 385//149 526//149 517//149 
f 386//149 527//149 526//149 
f 387//149 528//149 527//149 
f 387//149 388//149 518//149 
f 507//149 389//149 390//149 
f 392//149 510//149 508//149 
f 511//149 394//149 395//149 
f 504//149 398//149 399//149 
f 519//149 376//149 377//149 
f 522//149 378//149 379//149 
f 524//149 380//149 381//149 
f 516//149 382//149 383//149 
f 526//149 385//149 386//149 
f 518//149 528//149 387//149 
f 508//149 391//149 392//149 
f 513//149 396//149 397//149 
f 521//149 377//149 378//149 
f 525//149 381//149 382//149 
f 527//149 386//149 387//149 
f 510//149 392//149 393//149 
f 280//149 283//149 529//149 
f 283//149 375//149 520//149 
f 523//149 379//149 380//149 
f 518//149 388//149 389//149 
f 520//149 529//149 283//149 
f 517//149 384//149 385//149 
f 520//149 375//149 376//149 
f 529//149 530//149 280//149 
f 248//150 192//150 194//150 
f 252//150 188//150 190//150 
f 252//150 183//150 187//150 
f 183//150 169//150 102//150 
f 198//150 218//150 220//150 
f 214//150 208//150 210//150 
f 214//150 204//150 206//150 
f 194//150 530//150 245//150 
f 250//150 190//150 192//150 
f 187//150 188//150 252//150 
f 102//150 186//150 183//150 
f 220//150 222//150 198//150 
f 204//150 214//150 216//150 
f 206//150 208//150 214//150 
f 218//150 198//150 200//150 
f 192//150 248//150 250//150 
f 186//150 187//150 183//150 
f 245//150 531//150 500//150 
f 245//150 530//150 532//150 
f 222//150 224//150 198//150 
f 210//150 212//150 214//150 
f 200//150 202//150 218//150 
f 190//150 250//150 252//150 
f 532//150 531//150 245//150 
f 224//150 226//150 198//150 
f 202//150 204//150 218//150 
f 500//150 287//150 245//150 
f 533//150 534//150 500//150 
f 530//150 198//150 228//150 
f 216//150 218//150 204//150 
f 500//150 531//150 533//150 
f 535//150 532//150 530//150 
f 226//150 228//150 198//150 
f 530//150 536//150 535//150 
f 530//150 194//150 198//150 
f 228//150 280//150 530//150 
f 194//150 245//150 248//150 
f 537//151 538//151 534//150 
f 539//152 540//152 538//151 
f 541//153 542//153 540//152 
f 543//154 544//154 542//153 
f 545//155 546//155 544//154 
f 547//156 548//156 546//155 
f 549//156 550//157 551//158 
f 550//157 552//157 553//158 
f 553//158 551//158 550//157 
f 548//156 547//156 553//158 
f 553//158 552//157 548//156 
f 549//156 554//159 555//160 
f 556//160 555//160 557//161 
f 558//161 557//161 559//162 
f 560//162 559//162 561//163 
f 562//163 561//163 563//164 
f 564//164 563//164 535//165 
f 535//165 536//165 564//164 
f 563//164 564//164 562//163 
f 561//163 562//163 560//162 
f 559//162 560//162 558//161 
f 557//161 558//161 556//160 
f 555//160 556//160 549//156 
f 551//158 554//159 549//156 
f 546//155 545//155 547//156 
f 544//154 543//154 545//155 
f 542//153 541//153 543//154 
f 540//152 539//152 541//153 
f 538//151 537//151 539//152 
f 534//150 533//165 537//151 
f 565//166 566//166 567//166 
f 568//166 569//166 570//166 
f 571//166 568//166 572//166 
f 570//166 565//166 568//166 
f 568//166 571//166 573//166 
f 574//166 575//166 576//166 
f 572//166 577//166 571//166 
f 573//166 569//166 568//166 
f 578//166 579//166 580//166 
f 578//166 581//166 582//166 
f 574//166 583//166 584//166 
f 574//166 585//166 586//166 
f 576//166 587//166 574//166 
f 567//166 568//166 565//166 
f 582//166 579//166 578//166 
f 574//166 588//166 583//166 
f 574//166 589//166 590//166 
f 574//166 591//166 592//166 
f 587//166 585//166 574//166 
f 581//166 578//166 593//166 
f 580//166 571//166 578//166 
f 590//166 588//166 574//166 
f 586//166 591//166 574//166 
f 577//166 578//166 571//166 
f 592//166 589//166 574//166 
f 584//166 581//166 574//166 
f 593//166 574//166 581//166 
f 594//166 531//166 532//166 
f 532//166 575//166 594//166 
f 574//166 594//166 575//166 
