# https://github.com/mikedh/trimesh
v 0.00388277 0.02368380 0.01287500
v 0.00129933 0.02396480 0.01287500
v 0.00642068 0.02312520 0.01287500
v -0.00388277 0.02368380 0.01287500
v -0.00642068 0.02312520 0.01287500
v -0.00129933 0.02396480 0.01287500
v -0.00888332 0.02229540 0.01287500
v 0.01346850 0.01986450 0.01287500
v 0.01124180 0.02120430 0.01287500
v -0.02274370 0.00766324 0.01287500
v -0.02343890 0.00515929 0.01287500
v -0.02385930 0.00259486 0.01287500
v -0.02400000 0.00000000 0.01287500
v -0.02178180 -0.01007730 0.01287500
v -0.02056460 -0.01237330 0.01287500
v -0.01124180 -0.02120430 0.01287500
v -0.00888332 -0.02229540 0.01287500
v 0.02400000 0.00000000 0.01287500
v 0.02385930 0.00259486 0.01287500
v 0.02343890 0.00515929 0.01287500
v 0.02274370 0.00766324 0.01287500
v 0.02178180 0.01007730 0.01287500
v 0.02056460 0.01237330 0.01287500
v 0.01910620 0.01452420 0.01287500
v 0.01742390 0.01650480 0.01287500
v 0.01553730 0.01829190 0.01287500
v 0.00888332 0.02229540 0.01287500
v -0.01124180 0.02120430 0.01287500
v -0.01742390 0.01650480 0.01287500
v -0.01910620 0.01452420 0.01287500
v -0.02056460 0.01237330 0.01287500
v -0.02178180 0.01007730 0.01287500
v -0.02385930 -0.00259486 0.01287500
v -0.02343890 -0.00515929 0.01287500
v -0.01910620 -0.01452420 0.01287500
v -0.01742390 -0.01650480 0.01287500
v -0.01553730 -0.01829190 0.01287500
v -0.01346850 -0.01986450 0.01287500
v -0.00642068 -0.02312520 0.01287500
v -0.01346850 0.01986450 0.01287500
v -0.01553730 0.01829190 0.01287500
v -0.02274370 -0.00766324 0.01287500
v -0.00388277 -0.02368380 0.01287500
v -0.00129933 -0.02396480 0.01287500
v 0.00642068 -0.02312520 0.01287500
v 0.00888332 -0.02229540 0.01287500
v 0.01124180 -0.02120430 0.01287500
v 0.01346850 -0.01986450 0.01287500
v 0.01553730 -0.01829190 0.01287500
v 0.01742390 -0.01650480 0.01287500
v 0.02343890 -0.00515929 0.01287500
v 0.02385930 -0.00259486 0.01287500
v 0.00129933 -0.02396480 0.01287500
v 0.00388277 -0.02368380 0.01287500
v 0.01910620 -0.01452420 0.01287500
v 0.02056460 -0.01237330 0.01287500
v 0.02178180 -0.01007730 0.01287500
v 0.02274370 -0.00766324 0.01287500
v -0.02400000 0.00000000 0.01107500
v -0.02343890 0.00515929 0.01107500
v -0.02365000 0.00387160 0.01107500
v -0.02274370 0.00766324 0.01107500
v -0.02178180 0.01007730 0.01107500
v -0.02056460 0.01237330 0.01107500
v -0.01910620 0.01452420 0.01107500
v -0.01742390 0.01650480 0.01107500
v -0.01385000 0.01957450 0.01107500
v -0.01346850 0.01986450 0.01107500
v -0.01124180 0.02120430 0.01107500
v -0.00888332 0.02229540 0.01107500
v -0.00642068 0.02312520 0.01107500
v -0.00388277 0.02368380 0.01107500
v -0.00129933 0.02396480 0.01107500
v 0.00129933 0.02396480 0.01107500
v 0.00388277 0.02368380 0.01107500
v 0.00642068 0.02312520 0.01107500
v 0.00888332 0.02229540 0.01107500
v 0.01124180 0.02120430 0.01107500
v 0.01553730 0.01829190 0.01107500
v 0.01385000 0.01957450 0.01107500
v 0.01742390 0.01650480 0.01107500
v 0.01910620 0.01452420 0.01107500
v 0.02056460 0.01237330 0.01107500
v 0.02178180 0.01007730 0.01107500
v 0.02274370 0.00766324 0.01107500
v 0.02365000 0.00387160 0.01107500
v 0.02385930 0.00259486 0.01107500
v 0.02400000 0.00000000 0.01107500
v 0.02343890 -0.00515929 0.01107500
v 0.02365000 -0.00387160 0.01107500
v 0.02274370 -0.00766324 0.01107500
v 0.02178180 -0.01007730 0.01107500
v 0.02056460 -0.01237330 0.01107500
v 0.01910620 -0.01452420 0.01107500
v 0.01742390 -0.01650480 0.01107500
v 0.01385000 -0.01957450 0.01107500
v 0.01346850 -0.01986450 0.01107500
v 0.01124180 -0.02120430 0.01107500
v 0.00888332 -0.02229540 0.01107500
v 0.00642068 -0.02312520 0.01107500
v 0.00388277 -0.02368380 0.01107500
v 0.00129933 -0.02396480 0.01107500
v -0.00129933 -0.02396480 0.01107500
v -0.00388277 -0.02368380 0.01107500
v -0.00642068 -0.02312520 0.01107500
v -0.00888332 -0.02229540 0.01107500
v -0.01124180 -0.02120430 0.01107500
v -0.01553730 -0.01829190 0.01107500
v -0.01385000 -0.01957450 0.01107500
v -0.01742390 -0.01650480 0.01107500
v -0.01910620 -0.01452420 0.01107500
v -0.02056460 -0.01237330 0.01107500
v -0.02178180 -0.01007730 0.01107500
v -0.02274370 -0.00766324 0.01107500
v -0.02365000 -0.00387160 0.01107500
v -0.02385930 -0.00259486 0.01107500
v -0.02343890 -0.00515929 0.01107500
v -0.01346850 -0.01986450 0.01107500
v 0.01553730 -0.01829190 0.01107500
v 0.02385930 -0.00259486 0.01107500
v 0.02343890 0.00515929 0.01107500
v 0.01346850 0.01986450 0.01107500
v -0.01553730 0.01829190 0.01107500
v -0.02385930 0.00259486 0.01107500
f 59 13 12
f 11 60 61
f 61 12 11
f 60 11 10
f 62 10 32
f 63 32 31
f 64 31 30
f 65 30 29
f 66 29 41
f 41 40 67
f 40 68 67
f 68 40 28
f 38 118 107
f 109 118 38
f 36 110 108
f 35 111 110
f 15 112 111
f 14 113 112
f 42 114 113
f 34 117 114
f 115 117 34
f 13 59 116
f 116 33 13
f 33 116 115
f 34 33 115
f 114 42 34
f 113 14 42
f 112 15 14
f 111 35 15
f 110 36 35
f 108 37 36
f 109 38 37
f 37 108 109
f 107 16 38
f 106 17 16
f 105 39 17
f 104 43 39
f 103 44 43
f 102 53 44
f 101 54 53
f 100 45 54
f 99 46 45
f 98 47 46
f 97 48 47
f 48 97 96
f 49 48 96
f 95 50 49
f 94 55 50
f 93 56 55
f 92 57 56
f 91 58 57
f 89 51 58
f 90 52 51
f 51 89 90
f 88 18 52
f 87 19 18
f 19 87 86
f 20 19 86
f 85 21 20
f 84 22 21
f 83 23 22
f 82 24 23
f 81 25 24
f 79 26 25
f 80 8 26
f 26 79 80
f 78 9 8
f 77 27 9
f 76 3 27
f 75 1 3
f 74 2 1
f 73 6 2
f 72 4 6
f 71 5 4
f 70 7 5
f 69 28 7
f 1 75 74
f 2 74 73
f 6 73 72
f 4 72 71
f 5 71 70
f 7 70 69
f 28 69 68
f 67 123 41
f 41 123 66
f 29 66 65
f 30 65 64
f 31 64 63
f 32 63 62
f 10 62 60
f 61 124 12
f 12 124 59
f 58 91 89
f 90 120 52
f 52 120 88
f 18 88 87
f 86 121 20
f 20 121 85
f 21 85 84
f 22 84 83
f 23 83 82
f 24 82 81
f 25 81 79
f 80 122 8
f 8 122 78
f 9 78 77
f 27 77 76
f 3 76 75
f 57 92 91
f 56 93 92
f 55 94 93
f 50 95 94
f 49 119 95
f 96 119 49
f 47 98 97
f 46 99 98
f 45 100 99
f 54 101 100
f 53 102 101
f 44 103 102
f 43 104 103
f 39 105 104
f 17 106 105
f 16 107 106
f 12 13 59
f 61 60 11
f 11 12 61
f 10 11 60
f 32 10 62
f 31 32 63
f 30 31 64
f 29 30 65
f 41 29 66
f 67 40 41
f 67 68 40
f 28 40 68
f 107 118 38
f 38 118 109
f 108 110 36
f 110 111 35
f 111 112 15
f 112 113 14
f 113 114 42
f 114 117 34
f 34 117 115
f 116 59 13
f 13 33 116
f 115 116 33
f 115 33 34
f 34 42 114
f 42 14 113
f 14 15 112
f 15 35 111
f 35 36 110
f 36 37 108
f 37 38 109
f 109 108 37
f 38 16 107
f 16 17 106
f 17 39 105
f 39 43 104
f 43 44 103
f 44 53 102
f 53 54 101
f 54 45 100
f 45 46 99
f 46 47 98
f 47 48 97
f 96 97 48
f 96 48 49
f 49 50 95
f 50 55 94
f 55 56 93
f 56 57 92
f 57 58 91
f 58 51 89
f 51 52 90
f 90 89 51
f 52 18 88
f 18 19 87
f 86 87 19
f 86 19 20
f 20 21 85
f 21 22 84
f 22 23 83
f 23 24 82
f 24 25 81
f 25 26 79
f 26 8 80
f 80 79 26
f 8 9 78
f 9 27 77
f 27 3 76
f 3 1 75
f 1 2 74
f 2 6 73
f 6 4 72
f 4 5 71
f 5 7 70
f 7 28 69
f 74 75 1
f 73 74 2
f 72 73 6
f 71 72 4
f 70 71 5
f 69 70 7
f 68 69 28
f 41 123 67
f 66 123 41
f 65 66 29
f 64 65 30
f 63 64 31
f 62 63 32
f 60 62 10
f 12 124 61
f 59 124 12
f 89 91 58
f 52 120 90
f 88 120 52
f 87 88 18
f 20 121 86
f 85 121 20
f 84 85 21
f 83 84 22
f 82 83 23
f 81 82 24
f 79 81 25
f 8 122 80
f 78 122 8
f 77 78 9
f 76 77 27
f 75 76 3
f 91 92 57
f 92 93 56
f 93 94 55
f 94 95 50
f 95 119 49
f 49 119 96
f 97 98 47
f 98 99 46
f 99 100 45
f 100 101 54
f 101 102 53
f 102 103 44
f 103 104 43
f 104 105 39
f 105 106 17
f 106 107 16

