# https://github.com/mikedh/trimesh
v 0.00700000 -0.06150000 0.03605000
v -0.00700000 -0.06150000 0.03605000
v -0.01099410 -0.06150000 0.04026660
v -0.01094730 -0.06150000 0.04069710
v -0.01085420 -0.06150000 0.04112010
v -0.01071590 -0.06150000 0.04153060
v -0.01053400 -0.06150000 0.04192360
v -0.01031080 -0.06150000 0.04229470
v -0.01004860 -0.06150000 0.04263950
v -0.00975080 -0.06150000 0.04295400
v -0.00942070 -0.06150000 0.04323440
v -0.00906222 -0.06150000 0.04347740
v -0.00867956 -0.06150000 0.04368030
v -0.00827721 -0.06150000 0.04384060
v -0.00785988 -0.06150000 0.04395650
v -0.00743248 -0.06150000 0.04402660
v -0.00700000 -0.06150000 0.04405000
v -0.01099410 -0.06150000 0.03983340
v -0.01094730 -0.06150000 0.03940290
v -0.01085420 -0.06150000 0.03897990
v -0.01071590 -0.06150000 0.03856940
v -0.01053400 -0.06150000 0.03817640
v -0.01031080 -0.06150000 0.03780530
v -0.01004860 -0.06150000 0.03746050
v -0.00975080 -0.06150000 0.03714600
v -0.00942070 -0.06150000 0.03686560
v -0.00906222 -0.06150000 0.03662260
v -0.00867956 -0.06150000 0.03641970
v -0.00827721 -0.06150000 0.03625940
v -0.00785988 -0.06150000 0.03614350
v -0.00743248 -0.06150000 0.03607340
v 0.00700000 -0.06150000 0.04405000
v 0.00743248 -0.06150000 0.04402660
v 0.00785988 -0.06150000 0.04395650
v 0.00827721 -0.06150000 0.04384060
v 0.00867956 -0.06150000 0.04368030
v 0.00906222 -0.06150000 0.04347740
v 0.00942070 -0.06150000 0.04323440
v 0.00975080 -0.06150000 0.04295400
v 0.01004860 -0.06150000 0.04263950
v 0.01031080 -0.06150000 0.04229470
v 0.01053400 -0.06150000 0.04192360
v 0.01071590 -0.06150000 0.04153060
v 0.01085420 -0.06150000 0.04112010
v 0.01094730 -0.06150000 0.04069710
v 0.01099410 -0.06150000 0.04026660
v 0.00743248 -0.06150000 0.03607340
v 0.00785988 -0.06150000 0.03614350
v 0.00827721 -0.06150000 0.03625940
v 0.00867956 -0.06150000 0.03641970
v 0.00906222 -0.06150000 0.03662260
v 0.00942070 -0.06150000 0.03686560
v 0.00975080 -0.06150000 0.03714600
v 0.01004860 -0.06150000 0.03746050
v 0.01031080 -0.06150000 0.03780530
v 0.01053400 -0.06150000 0.03817640
v 0.01071590 -0.06150000 0.03856940
v 0.01085420 -0.06150000 0.03897990
v 0.01094730 -0.06150000 0.03940290
v 0.01099410 -0.06150000 0.03983340
v 0.00700000 -0.06350000 0.03805000
v -0.00700000 -0.06350000 0.03805000
v 0.00700000 -0.06350000 0.04205000
v 0.00721624 -0.06350000 0.04203830
v 0.00742994 -0.06350000 0.04200320
v 0.00763860 -0.06350000 0.04194530
v 0.00783978 -0.06350000 0.04186520
v 0.00803111 -0.06350000 0.04176370
v 0.00821035 -0.06350000 0.04164220
v 0.00837540 -0.06350000 0.04150200
v 0.00852432 -0.06350000 0.04134480
v 0.00865538 -0.06350000 0.04117240
v 0.00876702 -0.06350000 0.04098680
v 0.00885795 -0.06350000 0.04079030
v 0.00892710 -0.06350000 0.04058510
v 0.00897365 -0.06350000 0.04037360
v 0.00899707 -0.06350000 0.04015830
v 0.00899707 -0.06350000 0.03994170
v 0.00897365 -0.06350000 0.03972640
v 0.00892710 -0.06350000 0.03951490
v 0.00885795 -0.06350000 0.03930970
v 0.00876702 -0.06350000 0.03911320
v 0.00865538 -0.06350000 0.03892760
v 0.00852432 -0.06350000 0.03875520
v 0.00837540 -0.06350000 0.03859800
v 0.00821035 -0.06350000 0.03845780
v 0.00803111 -0.06350000 0.03833630
v 0.00783978 -0.06350000 0.03823480
v 0.00763860 -0.06350000 0.03815470
v 0.00742994 -0.06350000 0.03809680
v 0.00721624 -0.06350000 0.03806170
v -0.00721624 -0.06350000 0.03806170
v -0.00742994 -0.06350000 0.03809680
v -0.00763860 -0.06350000 0.03815470
v -0.00783978 -0.06350000 0.03823480
v -0.00803111 -0.06350000 0.03833630
v -0.00821035 -0.06350000 0.03845780
v -0.00837540 -0.06350000 0.03859800
v -0.00852432 -0.06350000 0.03875520
v -0.00865538 -0.06350000 0.03892760
v -0.00876702 -0.06350000 0.03911320
v -0.00885795 -0.06350000 0.03930970
v -0.00892710 -0.06350000 0.03951490
v -0.00897365 -0.06350000 0.03972640
v -0.00899707 -0.06350000 0.03994170
v -0.00899707 -0.06350000 0.04015830
v -0.00897365 -0.06350000 0.04037360
v -0.00892710 -0.06350000 0.04058510
v -0.00885795 -0.06350000 0.04079030
v -0.00876702 -0.06350000 0.04098680
v -0.00865538 -0.06350000 0.04117240
v -0.00852432 -0.06350000 0.04134480
v -0.00837540 -0.06350000 0.04150200
v -0.00821035 -0.06350000 0.04164220
v -0.00803111 -0.06350000 0.04176370
v -0.00783978 -0.06350000 0.04186520
v -0.00763860 -0.06350000 0.04194530
v -0.00742994 -0.06350000 0.04200320
v -0.00721624 -0.06350000 0.04203830
v -0.00700000 -0.06350000 0.04205000
f 44 75 76
f 43 74 75
f 42 73 74
f 49 89 90
f 48 90 91
f 33 64 65
f 59 79 80
f 60 78 79
f 46 77 78
f 45 76 77
f 77 46 45
f 78 60 46
f 79 59 60
f 41 72 73
f 40 71 72
f 39 70 71
f 38 69 70
f 37 68 69
f 36 67 68
f 35 66 67
f 34 65 66
f 88 50 51
f 89 49 50
f 90 48 49
f 91 47 48
f 61 1 47
f 30 93 94
f 31 92 93
f 2 62 92
f 50 88 89
f 51 87 88
f 52 86 87
f 53 85 86
f 61 62 2
f 32 63 64
f 2 1 61
f 47 91 61
f 58 80 81
f 55 83 84
f 56 82 83
f 57 81 82
f 54 84 85
f 72 41 40
f 67 36 35
f 66 35 34
f 65 34 33
f 64 33 32
f 117 14 13
f 116 13 12
f 115 12 11
f 29 94 95
f 28 95 96
f 27 96 97
f 26 97 98
f 25 98 99
f 87 51 52
f 86 52 53
f 85 53 54
f 84 54 55
f 83 55 56
f 82 56 57
f 81 57 58
f 80 58 59
f 4 107 108
f 5 108 109
f 6 109 110
f 76 45 44
f 75 44 43
f 74 43 42
f 73 42 41
f 107 4 3
f 108 5 4
f 109 6 5
f 98 25 26
f 102 21 22
f 105 18 19
f 104 19 20
f 103 20 21
f 32 17 120
f 93 30 31
f 92 31 2
f 106 3 18
f 120 63 32
f 23 100 101
f 24 99 100
f 110 7 6
f 111 8 7
f 112 9 8
f 113 10 9
f 114 11 10
f 118 15 14
f 16 119 120
f 120 17 16
f 119 16 15
f 14 117 118
f 13 116 117
f 12 115 116
f 68 37 36
f 69 38 37
f 70 39 38
f 71 40 39
f 11 114 115
f 10 113 114
f 9 112 113
f 8 111 112
f 7 110 111
f 99 24 25
f 100 23 24
f 101 22 23
f 3 106 107
f 18 105 106
f 19 104 105
f 20 103 104
f 21 102 103
f 22 101 102
f 97 26 27
f 96 27 28
f 95 28 29
f 94 29 30
f 15 118 119
f 76 75 44
f 75 74 43
f 74 73 42
f 90 89 49
f 91 90 48
f 65 64 33
f 80 79 59
f 79 78 60
f 78 77 46
f 77 76 45
f 45 46 77
f 46 60 78
f 60 59 79
f 73 72 41
f 72 71 40
f 71 70 39
f 70 69 38
f 69 68 37
f 68 67 36
f 67 66 35
f 66 65 34
f 51 50 88
f 50 49 89
f 49 48 90
f 48 47 91
f 47 1 61
f 94 93 30
f 93 92 31
f 92 62 2
f 89 88 50
f 88 87 51
f 87 86 52
f 86 85 53
f 2 62 61
f 64 63 32
f 61 1 2
f 61 91 47
f 81 80 58
f 84 83 55
f 83 82 56
f 82 81 57
f 85 84 54
f 40 41 72
f 35 36 67
f 34 35 66
f 33 34 65
f 32 33 64
f 13 14 117
f 12 13 116
f 11 12 115
f 95 94 29
f 96 95 28
f 97 96 27
f 98 97 26
f 99 98 25
f 52 51 87
f 53 52 86
f 54 53 85
f 55 54 84
f 56 55 83
f 57 56 82
f 58 57 81
f 59 58 80
f 108 107 4
f 109 108 5
f 110 109 6
f 44 45 76
f 43 44 75
f 42 43 74
f 41 42 73
f 3 4 107
f 4 5 108
f 5 6 109
f 26 25 98
f 22 21 102
f 19 18 105
f 20 19 104
f 21 20 103
f 120 17 32
f 31 30 93
f 2 31 92
f 18 3 106
f 32 63 120
f 101 100 23
f 100 99 24
f 6 7 110
f 7 8 111
f 8 9 112
f 9 10 113
f 10 11 114
f 14 15 118
f 120 119 16
f 16 17 120
f 15 16 119
f 118 117 14
f 117 116 13
f 116 115 12
f 36 37 68
f 37 38 69
f 38 39 70
f 39 40 71
f 115 114 11
f 114 113 10
f 113 112 9
f 112 111 8
f 111 110 7
f 25 24 99
f 24 23 100
f 23 22 101
f 107 106 3
f 106 105 18
f 105 104 19
f 104 103 20
f 103 102 21
f 102 101 22
f 27 26 97
f 28 27 96
f 29 28 95
f 30 29 94
f 119 118 15

