# https://github.com/mikedh/trimesh
v -0.00100000 -0.03850000 0.01107500
v -0.00100000 -0.04750000 0.01107500
v -0.00100000 -0.03850000 0.01407500
v -0.00100000 -0.03851640 0.01438860
v -0.00100000 -0.03856560 0.01469870
v -0.00100000 -0.03864680 0.01500210
v -0.00100000 -0.03875940 0.01529520
v -0.00100000 -0.03890190 0.01557500
v -0.00100000 -0.03907290 0.01583840
v -0.00100000 -0.03927060 0.01608240
v -0.00100000 -0.03949260 0.01630440
v -0.00100000 -0.03973660 0.01650210
v -0.00100000 -0.04000000 0.01667310
v -0.00100000 -0.04027980 0.01681560
v -0.00100000 -0.04057290 0.01692820
v -0.00100000 -0.04087630 0.01700940
v -0.00100000 -0.04118640 0.01705860
v -0.00100000 -0.04150000 0.01707500
v -0.00100000 -0.04450000 0.01707500
v -0.00100000 -0.04650740 0.01784560
v -0.00100000 -0.04626340 0.01764790
v -0.00100000 -0.04692710 0.01831160
v -0.00100000 -0.04672940 0.01806760
v -0.00100000 -0.04481360 0.01709140
v -0.00100000 -0.04542710 0.01722180
v -0.00100000 -0.04512370 0.01714060
v -0.00100000 -0.04600000 0.01747690
v -0.00100000 -0.04572020 0.01733440
v -0.00100000 -0.04724060 0.01885480
v -0.00100000 -0.04709810 0.01857500
v -0.00100000 -0.04743440 0.01945130
v -0.00100000 -0.04735320 0.01914790
v -0.00100000 -0.04750000 0.02007500
v -0.00100000 -0.04748360 0.01976140
f 19 18 1
f 1 2 19
f 4 3 18
f 5 4 18
f 9 8 18
f 11 10 18
f 7 6 18
f 12 11 18
f 18 10 9
f 18 8 7
f 18 6 5
f 14 13 16
f 17 16 13
f 18 13 12
f 13 18 17
f 16 15 14
f 26 24 2
f 21 27 2
f 28 25 2
f 2 29 30
f 2 31 32
f 2 33 34
f 30 22 2
f 34 31 2
f 32 29 2
f 3 1 18
f 2 20 21
f 2 22 23
f 2 24 19
f 2 25 26
f 2 27 28
f 23 20 2
f 1 18 19
f 19 2 1
f 18 3 4
f 18 4 5
f 18 8 9
f 18 10 11
f 18 6 7
f 18 11 12
f 9 10 18
f 7 8 18
f 5 6 18
f 16 13 14
f 13 16 17
f 12 13 18
f 17 18 13
f 14 15 16
f 2 24 26
f 2 27 21
f 2 25 28
f 30 29 2
f 32 31 2
f 34 33 2
f 2 22 30
f 2 31 34
f 2 29 32
f 18 1 3
f 21 20 2
f 23 22 2
f 19 24 2
f 26 25 2
f 28 27 2
f 2 20 23

