# https://github.com/mikedh/trimesh
v 0.01814810 0.02726860 0.00952500
v 0.02330000 0.03000000 0.00952500
v 0.02328070 0.03035680 0.00952500
v 0.02328070 0.02964320 0.00952500
v 0.02312730 0.03105370 0.00952500
v 0.02322280 0.03070940 0.00952500
v 0.02017870 0.02670480 0.00952500
v 0.01760420 0.02773060 0.00952500
v 0.01786360 0.02748490 0.00952500
v 0.02299500 0.03138560 0.00952500
v 0.01877850 0.02693440 0.00952500
v 0.01737290 0.02800290 0.00952500
v 0.02322280 0.02929060 0.00952500
v 0.02299500 0.02861440 0.00952500
v 0.02312730 0.02894630 0.00952500
v 0.01845430 0.02708440 0.00952500
v 0.01717240 0.02829870 0.00952500
v 0.01671930 0.02964320 0.00952500
v 0.01677720 0.02929060 0.00952500
v 0.01700500 0.03138560 0.00952500
v 0.01687270 0.03105370 0.00952500
v 0.01845430 0.03291560 0.00952500
v 0.01814810 0.03273140 0.00952500
v 0.01946610 0.03325650 0.00952500
v 0.01911720 0.03317970 0.00952500
v 0.02053390 0.03325650 0.00952500
v 0.02017870 0.03329520 0.00952500
v 0.02088280 0.03317970 0.00952500
v 0.02262710 0.03199710 0.00952500
v 0.02282760 0.03170130 0.00952500
v 0.02282760 0.02829870 0.00952500
v 0.01677720 0.03070940 0.00952500
v 0.01671930 0.03035680 0.00952500
v 0.01717240 0.03170130 0.00952500
v 0.01877850 0.03306560 0.00952500
v 0.01982130 0.03329520 0.00952500
v 0.02122150 0.03306560 0.00952500
v 0.02154570 0.03291560 0.00952500
v 0.02185190 0.03273140 0.00952500
v 0.02262710 0.02800290 0.00952500
v 0.02053390 0.02674350 0.00952500
v 0.02088280 0.02682030 0.00952500
v 0.01760420 0.03226940 0.00952500
v 0.01737290 0.03199710 0.00952500
v 0.02239580 0.02773060 0.00952500
v 0.02122150 0.02693440 0.00952500
v 0.02154570 0.02708440 0.00952500
v 0.01687270 0.02894630 0.00952500
v 0.01786360 0.03251510 0.00952500
v 0.02213640 0.03251510 0.00952500
v 0.02239580 0.03226940 0.00952500
v 0.02185190 0.02726860 0.00952500
v 0.02213640 0.02748490 0.00952500
v 0.01911720 0.02682030 0.00952500
v 0.01700500 0.02861440 0.00952500
v 0.01670000 0.03000000 0.00952500
v 0.01982130 0.02670480 0.00952500
v 0.01946610 0.02674350 0.00952500
v 0.01670000 0.03000000 0.01107500
v 0.01671930 0.02964320 0.01107500
v 0.01677720 0.02929060 0.01107500
v 0.01687270 0.02894630 0.01107500
v 0.01700500 0.02861440 0.01107500
v 0.01717240 0.02829870 0.01107500
v 0.01737290 0.02800290 0.01107500
v 0.01760420 0.02773060 0.01107500
v 0.01786360 0.02748490 0.01107500
v 0.01814810 0.02726860 0.01107500
v 0.01845430 0.02708440 0.01107500
v 0.01877850 0.02693440 0.01107500
v 0.01911720 0.02682030 0.01107500
v 0.01946610 0.02674350 0.01107500
v 0.01982130 0.02670480 0.01107500
v 0.02017870 0.02670480 0.01107500
v 0.02053390 0.02674350 0.01107500
v 0.02088280 0.02682030 0.01107500
v 0.02122150 0.02693440 0.01107500
v 0.02154570 0.02708440 0.01107500
v 0.02185190 0.02726860 0.01107500
v 0.02213640 0.02748490 0.01107500
v 0.02239580 0.02773060 0.01107500
v 0.02262710 0.02800290 0.01107500
v 0.02282760 0.02829870 0.01107500
v 0.02299500 0.02861440 0.01107500
v 0.02312730 0.02894630 0.01107500
v 0.02322280 0.02929060 0.01107500
v 0.02328070 0.02964320 0.01107500
v 0.02330000 0.03000000 0.01107500
v 0.02328070 0.03035680 0.01107500
v 0.02322280 0.03070940 0.01107500
v 0.02312730 0.03105370 0.01107500
v 0.02299500 0.03138560 0.01107500
v 0.02282760 0.03170130 0.01107500
v 0.02262710 0.03199710 0.01107500
v 0.02239580 0.03226940 0.01107500
v 0.02213640 0.03251510 0.01107500
v 0.02185190 0.03273140 0.01107500
v 0.02154570 0.03291560 0.01107500
v 0.02122150 0.03306560 0.01107500
v 0.02088280 0.03317970 0.01107500
v 0.02053390 0.03325650 0.01107500
v 0.02017870 0.03329520 0.01107500
v 0.01982130 0.03329520 0.01107500
v 0.01946610 0.03325650 0.01107500
v 0.01911720 0.03317970 0.01107500
v 0.01877850 0.03306560 0.01107500
v 0.01845430 0.03291560 0.01107500
v 0.01814810 0.03273140 0.01107500
v 0.01786360 0.03251510 0.01107500
v 0.01760420 0.03226940 0.01107500
v 0.01737290 0.03199710 0.01107500
v 0.01717240 0.03170130 0.01107500
v 0.01700500 0.03138560 0.01107500
v 0.01687270 0.03105370 0.01107500
v 0.01677720 0.03070940 0.01107500
v 0.01671930 0.03035680 0.01107500
f 13 15 85
f 47 46 77
f 46 42 76
f 42 41 75
f 7 57 73
f 41 7 74
f 57 58 72
f 58 54 71
f 1 9 67
f 54 11 70
f 27 26 101
f 16 1 68
f 8 12 65
f 9 8 66
f 12 17 64
f 17 55 63
f 2 4 87
f 55 48 62
f 29 30 93
f 30 10 92
f 10 5 91
f 5 6 90
f 6 3 89
f 3 2 88
f 14 31 83
f 4 13 86
f 116 59 56
f 15 14 84
f 40 45 81
f 31 40 82
f 45 53 80
f 53 52 79
f 50 51 95
f 52 47 78
f 43 49 109
f 49 23 108
f 23 22 107
f 22 35 106
f 35 25 105
f 25 24 104
f 24 36 103
f 36 27 102
f 100 101 26
f 26 28 100
f 28 37 99
f 37 38 98
f 38 39 97
f 39 50 96
f 114 115 32
f 51 29 94
f 108 109 49
f 109 110 43
f 110 111 44
f 111 112 34
f 112 113 20
f 113 114 21
f 33 32 115
f 115 116 33
f 84 85 15
f 56 33 116
f 21 20 113
f 32 21 114
f 20 34 112
f 34 44 111
f 75 76 42
f 44 43 110
f 92 93 30
f 93 94 29
f 94 95 51
f 95 96 50
f 96 97 39
f 97 98 38
f 98 99 37
f 99 100 28
f 68 69 16
f 101 102 27
f 102 103 36
f 103 104 24
f 104 105 25
f 105 106 35
f 106 107 22
f 107 108 23
f 76 77 46
f 77 78 47
f 78 79 52
f 79 80 53
f 80 81 45
f 81 82 40
f 82 83 31
f 83 84 14
f 85 86 13
f 86 87 4
f 88 89 3
f 87 88 2
f 89 90 6
f 90 91 5
f 66 67 9
f 91 92 10
f 60 61 19
f 61 62 48
f 62 63 55
f 63 64 17
f 64 65 12
f 65 66 8
f 72 73 57
f 67 68 1
f 69 70 11
f 70 71 54
f 73 74 7
f 71 72 58
f 74 75 41
f 59 60 18
f 18 56 59
f 19 18 60
f 48 19 61
f 11 16 69
f 85 15 13
f 77 46 47
f 76 42 46
f 75 41 42
f 73 57 7
f 74 7 41
f 72 58 57
f 71 54 58
f 67 9 1
f 70 11 54
f 101 26 27
f 68 1 16
f 65 12 8
f 66 8 9
f 64 17 12
f 63 55 17
f 87 4 2
f 62 48 55
f 93 30 29
f 92 10 30
f 91 5 10
f 90 6 5
f 89 3 6
f 88 2 3
f 83 31 14
f 86 13 4
f 56 59 116
f 84 14 15
f 81 45 40
f 82 40 31
f 80 53 45
f 79 52 53
f 95 51 50
f 78 47 52
f 109 49 43
f 108 23 49
f 107 22 23
f 106 35 22
f 105 25 35
f 104 24 25
f 103 36 24
f 102 27 36
f 26 101 100
f 100 28 26
f 99 37 28
f 98 38 37
f 97 39 38
f 96 50 39
f 32 115 114
f 94 29 51
f 49 109 108
f 43 110 109
f 44 111 110
f 34 112 111
f 20 113 112
f 21 114 113
f 115 32 33
f 33 116 115
f 15 85 84
f 116 33 56
f 113 20 21
f 114 21 32
f 112 34 20
f 111 44 34
f 42 76 75
f 110 43 44
f 30 93 92
f 29 94 93
f 51 95 94
f 50 96 95
f 39 97 96
f 38 98 97
f 37 99 98
f 28 100 99
f 16 69 68
f 27 102 101
f 36 103 102
f 24 104 103
f 25 105 104
f 35 106 105
f 22 107 106
f 23 108 107
f 46 77 76
f 47 78 77
f 52 79 78
f 53 80 79
f 45 81 80
f 40 82 81
f 31 83 82
f 14 84 83
f 13 86 85
f 4 87 86
f 3 89 88
f 2 88 87
f 6 90 89
f 5 91 90
f 9 67 66
f 10 92 91
f 19 61 60
f 48 62 61
f 55 63 62
f 17 64 63
f 12 65 64
f 8 66 65
f 57 73 72
f 1 68 67
f 11 70 69
f 54 71 70
f 7 74 73
f 58 72 71
f 41 75 74
f 18 60 59
f 59 56 18
f 60 18 19
f 61 19 48
f 69 16 11

