# https://github.com/mikedh/trimesh
v -0.02400000 0.00000000 0.01107500
v -0.02343890 0.00515929 0.01107500
v -0.02365000 0.00387160 0.01107500
v -0.02274370 0.00766324 0.01107500
v -0.02178180 0.01007730 0.01107500
v -0.02056460 0.01237330 0.01107500
v -0.01910620 0.01452420 0.01107500
v -0.01742390 0.01650480 0.01107500
v -0.01385000 0.01957450 0.01107500
v -0.01346850 0.01986450 0.01107500
v -0.01124180 0.02120430 0.01107500
v -0.00888332 0.02229540 0.01107500
v -0.00642068 0.02312520 0.01107500
v -0.00388277 0.02368380 0.01107500
v -0.00129933 0.02396480 0.01107500
v 0.00129933 0.02396480 0.01107500
v 0.00388277 0.02368380 0.01107500
v 0.00642068 0.02312520 0.01107500
v 0.00888332 0.02229540 0.01107500
v 0.01124180 0.02120430 0.01107500
v 0.01553730 0.01829190 0.01107500
v 0.01385000 0.01957450 0.01107500
v 0.01742390 0.01650480 0.01107500
v 0.01910620 0.01452420 0.01107500
v 0.02056460 0.01237330 0.01107500
v 0.02178180 0.01007730 0.01107500
v 0.02274370 0.00766324 0.01107500
v 0.02365000 0.00387160 0.01107500
v 0.02385930 0.00259486 0.01107500
v 0.02400000 0.00000000 0.01107500
v 0.02343890 -0.00515929 0.01107500
v 0.02365000 -0.00387160 0.01107500
v 0.02274370 -0.00766324 0.01107500
v 0.02178180 -0.01007730 0.01107500
v 0.02056460 -0.01237330 0.01107500
v 0.01910620 -0.01452420 0.01107500
v 0.01742390 -0.01650480 0.01107500
v 0.01385000 -0.01957450 0.01107500
v 0.01346850 -0.01986450 0.01107500
v 0.01124180 -0.02120430 0.01107500
v 0.00888332 -0.02229540 0.01107500
v 0.00642068 -0.02312520 0.01107500
v 0.00388277 -0.02368380 0.01107500
v 0.00129933 -0.02396480 0.01107500
v -0.00129933 -0.02396480 0.01107500
v -0.00388277 -0.02368380 0.01107500
v -0.00642068 -0.02312520 0.01107500
v -0.00888332 -0.02229540 0.01107500
v -0.01124180 -0.02120430 0.01107500
v -0.01553730 -0.01829190 0.01107500
v -0.01385000 -0.01957450 0.01107500
v -0.01742390 -0.01650480 0.01107500
v -0.01910620 -0.01452420 0.01107500
v -0.02056460 -0.01237330 0.01107500
v -0.02178180 -0.01007730 0.01107500
v -0.02274370 -0.00766324 0.01107500
v -0.02365000 -0.00387160 0.01107500
v -0.02385930 -0.00259486 0.01107500
v -0.02343890 -0.00515929 0.01107500
v -0.01346850 -0.01986450 0.01107500
v 0.01553730 -0.01829190 0.01107500
v 0.02385930 -0.00259486 0.01107500
v 0.02343890 0.00515929 0.01107500
v 0.01346850 0.01986450 0.01107500
v -0.01553730 0.01829190 0.01107500
v -0.02385930 0.00259486 0.01107500
v 0.00900000 -0.05750000 0.01107500
v 0.00962717 -0.05746710 0.01107500
v 0.01024750 -0.05736890 0.01107500
v 0.01085410 -0.05720630 0.01107500
v 0.01144040 -0.05698130 0.01107500
v 0.01230200 -0.05650000 0.01107500
v 0.01252670 -0.05635410 0.01107500
v 0.01301480 -0.05595890 0.01107500
v 0.01385410 -0.05502670 0.01107500
v 0.01385000 -0.05503180 0.01107500
v 0.01419620 -0.05450000 0.01107500
v 0.01448130 -0.05394040 0.01107500
v 0.01470630 -0.05335410 0.01107500
v 0.01486890 -0.05274750 0.01107500
v 0.01496710 -0.05212720 0.01107500
v 0.01500000 -0.05150000 0.01107500
v 0.01345890 -0.05551480 0.01107500
v 0.01200000 -0.05669620 0.01107500
v -0.00900000 -0.05750000 0.01107500
v -0.00962717 -0.05746710 0.01107500
v -0.01024750 -0.05736890 0.01107500
v -0.01085410 -0.05720630 0.01107500
v -0.01144040 -0.05698130 0.01107500
v -0.01200000 -0.05669620 0.01107500
v -0.01230200 -0.05650000 0.01107500
v -0.01252670 -0.05635410 0.01107500
v -0.01301480 -0.05595890 0.01107500
v -0.01345890 -0.05551480 0.01107500
v -0.01385000 -0.05503180 0.01107500
v -0.01385410 -0.05502670 0.01107500
v -0.01419620 -0.05450000 0.01107500
v -0.01448130 -0.05394040 0.01107500
v -0.01470630 -0.05335410 0.01107500
v -0.01486890 -0.05274750 0.01107500
v -0.01496710 -0.05212720 0.01107500
v -0.01500000 -0.05150000 0.01107500
v -0.02750000 0.02950000 0.01107500
v -0.02745620 0.03033620 0.01107500
v -0.02732520 0.03116330 0.01107500
v -0.02710850 0.03197210 0.01107500
v -0.02680840 0.03275390 0.01107500
v -0.02642820 0.03350000 0.01107500
v -0.02597210 0.03420230 0.01107500
v -0.02544520 0.03485300 0.01107500
v -0.02485300 0.03544520 0.01107500
v -0.02420230 0.03597210 0.01107500
v -0.02365000 0.03633080 0.01107500
v -0.02350000 0.03642820 0.01107500
v -0.02275390 0.03680840 0.01107500
v -0.02197210 0.03710850 0.01107500
v -0.02116330 0.03732520 0.01107500
v -0.02033620 0.03745620 0.01107500
v -0.01950000 0.03750000 0.01107500
v -0.01385000 0.03750000 0.01107500
v 0.01385000 0.03750000 0.01107500
v 0.01950000 0.03750000 0.01107500
v 0.02033620 0.03745620 0.01107500
v 0.02116330 0.03732520 0.01107500
v 0.02197210 0.03710850 0.01107500
v 0.02275390 0.03680840 0.01107500
v 0.02350000 0.03642820 0.01107500
v 0.02365000 0.03633080 0.01107500
v 0.02420230 0.03597210 0.01107500
v 0.02485300 0.03544520 0.01107500
v 0.02544520 0.03485300 0.01107500
v 0.02597210 0.03420230 0.01107500
v 0.02642820 0.03350000 0.01107500
v 0.02680840 0.03275390 0.01107500
v 0.02710850 0.03197210 0.01107500
v 0.02732520 0.03116330 0.01107500
v 0.02745620 0.03033620 0.01107500
v 0.02750000 0.02950000 0.01107500
v 0.02750000 0.02535000 0.01107500
v 0.02750000 -0.02535000 0.01107500
v 0.02750000 -0.02950000 0.01107500
v 0.02745620 -0.03033620 0.01107500
v 0.02732520 -0.03116330 0.01107500
v 0.02710850 -0.03197210 0.01107500
v 0.02680840 -0.03275390 0.01107500
v 0.02642820 -0.03350000 0.01107500
v 0.02597210 -0.03420230 0.01107500
v 0.02544520 -0.03485300 0.01107500
v 0.02485300 -0.03544520 0.01107500
v 0.02429140 -0.03590000 0.01107500
v 0.02420230 -0.03597210 0.01107500
v 0.02365000 -0.03633080 0.01107500
v 0.02350000 -0.03642820 0.01107500
v 0.02275390 -0.03680840 0.01107500
v 0.02197210 -0.03710850 0.01107500
v 0.02116330 -0.03732520 0.01107500
v 0.02033620 -0.03745620 0.01107500
v 0.01950000 -0.03750000 0.01107500
v 0.01500000 -0.03750000 0.01107500
v -0.01500000 -0.03750000 0.01107500
v -0.01950000 -0.03750000 0.01107500
v -0.02033620 -0.03745620 0.01107500
v -0.02116330 -0.03732520 0.01107500
v -0.02197210 -0.03710850 0.01107500
v -0.02275390 -0.03680840 0.01107500
v -0.02350000 -0.03642820 0.01107500
v -0.02365000 -0.03633080 0.01107500
v -0.02429140 -0.03590000 0.01107500
v -0.02420230 -0.03597210 0.01107500
v -0.02485300 -0.03544520 0.01107500
v -0.02544520 -0.03485300 0.01107500
v -0.02597210 -0.03420230 0.01107500
v -0.02642820 -0.03350000 0.01107500
v -0.02680840 -0.03275390 0.01107500
v -0.02710850 -0.03197210 0.01107500
v -0.02732520 -0.03116330 0.01107500
v -0.02745620 -0.03033620 0.01107500
v -0.02750000 -0.02950000 0.01107500
v -0.02330000 -0.03000000 0.01107500
v -0.02328070 -0.03035680 0.01107500
v -0.02322280 -0.03070940 0.01107500
v -0.02312730 -0.03105370 0.01107500
v -0.02299500 -0.03138560 0.01107500
v -0.02282760 -0.03170130 0.01107500
v -0.02262710 -0.03199710 0.01107500
v -0.02239580 -0.03226940 0.01107500
v -0.02213640 -0.03251510 0.01107500
v -0.02185190 -0.03273140 0.01107500
v -0.02154570 -0.03291560 0.01107500
v -0.02122150 -0.03306560 0.01107500
v -0.02088280 -0.03317970 0.01107500
v -0.02053390 -0.03325650 0.01107500
v -0.02017870 -0.03329520 0.01107500
v -0.01982130 -0.03329520 0.01107500
v -0.01946610 -0.03325650 0.01107500
v -0.01911720 -0.03317970 0.01107500
v -0.01877850 -0.03306560 0.01107500
v -0.01845430 -0.03291560 0.01107500
v -0.01814810 -0.03273140 0.01107500
v -0.01786360 -0.03251510 0.01107500
v -0.01760420 -0.03226940 0.01107500
v -0.01737290 -0.03199710 0.01107500
v -0.01717240 -0.03170130 0.01107500
v -0.01700500 -0.03138560 0.01107500
v -0.01687270 -0.03105370 0.01107500
v -0.01677720 -0.03070940 0.01107500
v -0.01671930 -0.03035680 0.01107500
v -0.01670000 -0.03000000 0.01107500
v -0.01671930 -0.02964320 0.01107500
v -0.01677720 -0.02929060 0.01107500
v -0.01687270 -0.02894630 0.01107500
v -0.01700500 -0.02861440 0.01107500
v -0.01717240 -0.02829870 0.01107500
v -0.01737290 -0.02800290 0.01107500
v -0.01760420 -0.02773060 0.01107500
v -0.01786360 -0.02748490 0.01107500
v -0.01814810 -0.02726860 0.01107500
v -0.01845430 -0.02708440 0.01107500
v -0.01877850 -0.02693440 0.01107500
v -0.01911720 -0.02682030 0.01107500
v -0.01946610 -0.02674350 0.01107500
v -0.01982130 -0.02670480 0.01107500
v -0.02017870 -0.02670480 0.01107500
v -0.02053390 -0.02674350 0.01107500
v -0.02088280 -0.02682030 0.01107500
v -0.02122150 -0.02693440 0.01107500
v -0.02154570 -0.02708440 0.01107500
v -0.02185190 -0.02726860 0.01107500
v -0.02213640 -0.02748490 0.01107500
v -0.02239580 -0.02773060 0.01107500
v -0.02262710 -0.02800290 0.01107500
v -0.02282760 -0.02829870 0.01107500
v -0.02299500 -0.02861440 0.01107500
v -0.02312730 -0.02894630 0.01107500
v -0.02322280 -0.02929060 0.01107500
v -0.02328070 -0.02964320 0.01107500
v 0.01670000 -0.03000000 0.01107500
v 0.01671930 -0.03035680 0.01107500
v 0.01677720 -0.03070940 0.01107500
v 0.01687270 -0.03105370 0.01107500
v 0.01700500 -0.03138560 0.01107500
v 0.01717240 -0.03170130 0.01107500
v 0.01737290 -0.03199710 0.01107500
v 0.01760420 -0.03226940 0.01107500
v 0.01786360 -0.03251510 0.01107500
v 0.01814810 -0.03273140 0.01107500
v 0.01845430 -0.03291560 0.01107500
v 0.01877850 -0.03306560 0.01107500
v 0.01911720 -0.03317970 0.01107500
v 0.01946610 -0.03325650 0.01107500
v 0.01982130 -0.03329520 0.01107500
v 0.02017870 -0.03329520 0.01107500
v 0.02053390 -0.03325650 0.01107500
v 0.02088280 -0.03317970 0.01107500
v 0.02122150 -0.03306560 0.01107500
v 0.02154570 -0.03291560 0.01107500
v 0.02185190 -0.03273140 0.01107500
v 0.02213640 -0.03251510 0.01107500
v 0.02239580 -0.03226940 0.01107500
v 0.02262710 -0.03199710 0.01107500
v 0.02282760 -0.03170130 0.01107500
v 0.02299500 -0.03138560 0.01107500
v 0.02312730 -0.03105370 0.01107500
v 0.02322280 -0.03070940 0.01107500
v 0.02328070 -0.03035680 0.01107500
v 0.02330000 -0.03000000 0.01107500
v 0.02328070 -0.02964320 0.01107500
v 0.02322280 -0.02929060 0.01107500
v 0.02312730 -0.02894630 0.01107500
v 0.02299500 -0.02861440 0.01107500
v 0.02282760 -0.02829870 0.01107500
v 0.02262710 -0.02800290 0.01107500
v 0.02239580 -0.02773060 0.01107500
v 0.02213640 -0.02748490 0.01107500
v 0.02185190 -0.02726860 0.01107500
v 0.02154570 -0.02708440 0.01107500
v 0.02122150 -0.02693440 0.01107500
v 0.02088280 -0.02682030 0.01107500
v 0.02053390 -0.02674350 0.01107500
v 0.02017870 -0.02670480 0.01107500
v 0.01982130 -0.02670480 0.01107500
v 0.01946610 -0.02674350 0.01107500
v 0.01911720 -0.02682030 0.01107500
v 0.01877850 -0.02693440 0.01107500
v 0.01845430 -0.02708440 0.01107500
v 0.01814810 -0.02726860 0.01107500
v 0.01786360 -0.02748490 0.01107500
v 0.01760420 -0.02773060 0.01107500
v 0.01737290 -0.02800290 0.01107500
v 0.01717240 -0.02829870 0.01107500
v 0.01700500 -0.02861440 0.01107500
v 0.01687270 -0.02894630 0.01107500
v 0.01677720 -0.02929060 0.01107500
v 0.01671930 -0.02964320 0.01107500
v -0.02330000 0.03000000 0.01107500
v -0.02328070 0.02964320 0.01107500
v -0.02322280 0.02929060 0.01107500
v -0.02312730 0.02894630 0.01107500
v -0.02299500 0.02861440 0.01107500
v -0.02282760 0.02829870 0.01107500
v -0.02262710 0.02800290 0.01107500
v -0.02239580 0.02773060 0.01107500
v -0.02213640 0.02748490 0.01107500
v -0.02185190 0.02726860 0.01107500
v -0.02154570 0.02708440 0.01107500
v -0.02122150 0.02693440 0.01107500
v -0.02088280 0.02682030 0.01107500
v -0.02053390 0.02674350 0.01107500
v -0.02017870 0.02670480 0.01107500
v -0.01982130 0.02670480 0.01107500
v -0.01946610 0.02674350 0.01107500
v -0.01911720 0.02682030 0.01107500
v -0.01877850 0.02693440 0.01107500
v -0.01845430 0.02708440 0.01107500
v -0.01814810 0.02726860 0.01107500
v -0.01786360 0.02748490 0.01107500
v -0.01760420 0.02773060 0.01107500
v -0.01737290 0.02800290 0.01107500
v -0.01717240 0.02829870 0.01107500
v -0.01700500 0.02861440 0.01107500
v -0.01687270 0.02894630 0.01107500
v -0.01677720 0.02929060 0.01107500
v -0.01671930 0.02964320 0.01107500
v -0.01670000 0.03000000 0.01107500
v -0.01671930 0.03035680 0.01107500
v -0.01677720 0.03070940 0.01107500
v -0.01687270 0.03105370 0.01107500
v -0.01700500 0.03138560 0.01107500
v -0.01717240 0.03170130 0.01107500
v -0.01737290 0.03199710 0.01107500
v -0.01760420 0.03226940 0.01107500
v -0.01786360 0.03251510 0.01107500
v -0.01814810 0.03273140 0.01107500
v -0.01845430 0.03291560 0.01107500
v -0.01877850 0.03306560 0.01107500
v -0.01911720 0.03317970 0.01107500
v -0.01946610 0.03325650 0.01107500
v -0.01982130 0.03329520 0.01107500
v -0.02017870 0.03329520 0.01107500
v -0.02053390 0.03325650 0.01107500
v -0.02088280 0.03317970 0.01107500
v -0.02122150 0.03306560 0.01107500
v -0.02154570 0.03291560 0.01107500
v -0.02185190 0.03273140 0.01107500
v -0.02213640 0.03251510 0.01107500
v -0.02239580 0.03226940 0.01107500
v -0.02262710 0.03199710 0.01107500
v -0.02282760 0.03170130 0.01107500
v -0.02299500 0.03138560 0.01107500
v -0.02312730 0.03105370 0.01107500
v -0.02322280 0.03070940 0.01107500
v -0.02328070 0.03035680 0.01107500
v 0.01670000 0.03000000 0.01107500
v 0.01671930 0.02964320 0.01107500
v 0.01677720 0.02929060 0.01107500
v 0.01687270 0.02894630 0.01107500
v 0.01700500 0.02861440 0.01107500
v 0.01717240 0.02829870 0.01107500
v 0.01737290 0.02800290 0.01107500
v 0.01760420 0.02773060 0.01107500
v 0.01786360 0.02748490 0.01107500
v 0.01814810 0.02726860 0.01107500
v 0.01845430 0.02708440 0.01107500
v 0.01877850 0.02693440 0.01107500
v 0.01911720 0.02682030 0.01107500
v 0.01946610 0.02674350 0.01107500
v 0.01982130 0.02670480 0.01107500
v 0.02017870 0.02670480 0.01107500
v 0.02053390 0.02674350 0.01107500
v 0.02088280 0.02682030 0.01107500
v 0.02122150 0.02693440 0.01107500
v 0.02154570 0.02708440 0.01107500
v 0.02185190 0.02726860 0.01107500
v 0.02213640 0.02748490 0.01107500
v 0.02239580 0.02773060 0.01107500
v 0.02262710 0.02800290 0.01107500
v 0.02282760 0.02829870 0.01107500
v 0.02299500 0.02861440 0.01107500
v 0.02312730 0.02894630 0.01107500
v 0.02322280 0.02929060 0.01107500
v 0.02328070 0.02964320 0.01107500
v 0.02330000 0.03000000 0.01107500
v 0.02328070 0.03035680 0.01107500
v 0.02322280 0.03070940 0.01107500
v 0.02312730 0.03105370 0.01107500
v 0.02299500 0.03138560 0.01107500
v 0.02282760 0.03170130 0.01107500
v 0.02262710 0.03199710 0.01107500
v 0.02239580 0.03226940 0.01107500
v 0.02213640 0.03251510 0.01107500
v 0.02185190 0.03273140 0.01107500
v 0.02154570 0.03291560 0.01107500
v 0.02122150 0.03306560 0.01107500
v 0.02088280 0.03317970 0.01107500
v 0.02053390 0.03325650 0.01107500
v 0.02017870 0.03329520 0.01107500
v 0.01982130 0.03329520 0.01107500
v 0.01946610 0.03325650 0.01107500
v 0.01911720 0.03317970 0.01107500
v 0.01877850 0.03306560 0.01107500
v 0.01845430 0.03291560 0.01107500
v 0.01814810 0.03273140 0.01107500
v 0.01786360 0.03251510 0.01107500
v 0.01760420 0.03226940 0.01107500
v 0.01737290 0.03199710 0.01107500
v 0.01717240 0.03170130 0.01107500
v 0.01700500 0.03138560 0.01107500
v 0.01687270 0.03105370 0.01107500
v 0.01677720 0.03070940 0.01107500
v 0.01671930 0.03035680 0.01107500
v -0.02800000 0.02950000 0.01107500
v -0.02800000 -0.02950000 0.01107500
v -0.02800000 0.02535000 0.01107500
v -0.02800000 -0.02535000 0.01107500
v 0.01031080 -0.05374470 0.01107500
v 0.01004860 -0.05408950 0.01107500
v 0.00975080 -0.05440400 0.01107500
v 0.01053400 -0.05337360 0.01107500
v 0.01071590 -0.05298060 0.01107500
v 0.01085420 -0.05042990 0.01107500
v 0.01094730 -0.05085290 0.01107500
v -0.01099410 -0.05171660 0.01107500
v -0.01099410 -0.05128340 0.01107500
v 0.00700000 -0.05550000 0.01107500
v 0.01085420 -0.05257010 0.01107500
v 0.01071590 -0.05001940 0.01107500
v -0.01094730 -0.05085290 0.01107500
v -0.01094730 -0.05214710 0.01107500
v -0.01053400 -0.05337360 0.01107500
v -0.01071590 -0.05298060 0.01107500
v -0.01031080 -0.05374470 0.01107500
v -0.01004860 -0.05408950 0.01107500
v -0.00700000 -0.05550000 0.01107500
v 0.00867956 -0.05513030 0.01107500
v 0.00827721 -0.05529060 0.01107500
v 0.00942070 -0.05468440 0.01107500
v 0.00906222 -0.05492740 0.01107500
v 0.01053400 -0.04962640 0.01107500
v 0.00975080 -0.04859600 0.01107500
v 0.01004860 -0.04891050 0.01107500
v 0.00906222 -0.04807260 0.01107500
v 0.00942070 -0.04831560 0.01107500
v -0.00942070 -0.05468440 0.01107500
v -0.00975080 -0.05440400 0.01107500
v -0.00827721 -0.05529060 0.01107500
v -0.00867956 -0.05513030 0.01107500
v -0.00743248 -0.05547660 0.01107500
v -0.00785988 -0.05540650 0.01107500
v 0.00743248 -0.05547660 0.01107500
v 0.00785988 -0.05540650 0.01107500
v 0.01099410 -0.05171660 0.01107500
v 0.01094730 -0.05214710 0.01107500
v 0.01031080 -0.04925530 0.01107500
v 0.00785988 -0.04759350 0.01107500
v 0.00827721 -0.04770940 0.01107500
v -0.00827721 -0.04770940 0.01107500
v -0.00785988 -0.04759350 0.01107500
v -0.01085420 -0.05042990 0.01107500
v -0.01071590 -0.05001940 0.01107500
v -0.01085420 -0.05257010 0.01107500
v -0.00906222 -0.05492740 0.01107500
v 0.00743248 -0.04752340 0.01107500
v -0.00867956 -0.04786970 0.01107500
v -0.00942070 -0.04831560 0.01107500
v -0.00906222 -0.04807260 0.01107500
v -0.01004860 -0.04891050 0.01107500
v -0.00975080 -0.04859600 0.01107500
v -0.01053400 -0.04962640 0.01107500
v -0.01031080 -0.04925530 0.01107500
v 0.01099410 -0.05128340 0.01107500
v 0.00867956 -0.04786970 0.01107500
v 0.00100000 -0.03850000 0.01107500
v 0.00100000 -0.04750000 0.01107500
v 0.00700000 -0.04750000 0.01107500
v -0.00100000 -0.03850000 0.01107500
v -0.00700000 -0.04750000 0.01107500
v -0.00743248 -0.04752340 0.01107500
v -0.00100000 -0.04750000 0.01107500
v -0.02365000 -0.03590000 0.01107500
v -0.01385000 -0.03590000 0.01107500
v -0.01385000 -0.02535000 0.01107500
v -0.02365000 -0.02535000 0.01107500
v 0.01385000 -0.03590000 0.01107500
v 0.01385000 -0.02535000 0.01107500
v 0.02365000 -0.03590000 0.01107500
v 0.02365000 -0.02535000 0.01107500
v -0.01385000 0.02535000 0.01107500
v 0.01385000 0.02535000 0.01107500
v -0.02365000 0.02535000 0.01107500
v 0.02365000 0.02535000 0.01107500
f 479 193 192
f 479 188 187
f 480 197 196
f 480 195 194
f 481 218 217
f 214 213 481
f 480 202 201
f 480 200 199
f 190 189 479
f 482 231 230
f 482 226 225
f 215 214 481
f 194 479 480
f 187 186 479
f 196 195 480
f 480 206 205
f 479 189 188
f 479 186 185
f 479 191 190
f 479 180 179
f 482 235 234
f 482 233 232
f 224 223 482
f 222 221 481
f 213 212 481
f 479 192 191
f 481 212 211
f 480 203 202
f 199 198 480
f 482 232 231
f 482 229 228
f 482 227 226
f 237 294 484
f 484 293 292
f 484 282 281
f 483 485 251
f 483 248 247
f 237 484 483
f 483 238 237
f 481 480 483
f 179 482 479
f 207 206 480
f 228 227 482
f 208 207 480
f 182 181 479
f 236 235 482
f 481 220 219
f 480 481 208
f 486 268 267
f 257 256 485
f 485 255 254
f 250 249 483
f 483 241 240
f 483 239 238
f 292 291 484
f 484 287 286
f 484 285 284
f 484 283 282
f 486 276 275
f 486 270 269
f 485 258 257
f 485 254 253
f 481 210 209
f 483 249 248
f 274 273 486
f 269 268 486
f 256 255 485
f 485 252 251
f 483 246 245
f 483 244 243
f 483 242 241
f 294 293 484
f 484 290 289
f 484 288 287
f 284 283 484
f 486 280 279
f 486 278 277
f 275 274 486
f 219 218 481
f 486 271 270
f 277 276 486
f 266 265 485
f 263 262 485
f 485 261 260
f 247 246 483
f 291 290 484
f 281 280 486
f 272 271 486
f 485 486 266
f 485 264 263
f 253 252 485
f 245 244 483
f 240 239 483
f 289 288 484
f 251 250 483
f 279 278 486
f 481 46 47
f 36 37 486
f 31 33 486
f 486 37 61
f 486 32 31
f 486 33 34
f 486 61 38
f 486 34 35
f 486 35 36
f 120 487 488
f 259 258 485
f 262 261 485
f 286 285 484
f 265 264 485
f 486 273 272
f 243 242 483
f 53 54 482
f 482 52 53
f 482 54 55
f 482 55 56
f 49 60 481
f 40 41 484
f 484 38 39
f 44 45 481
f 484 39 40
f 42 43 484
f 47 48 481
f 484 41 42
f 484 43 44
f 481 45 46
f 281 486 484
f 481 484 44
f 489 8 65
f 489 3 2
f 489 5 6
f 489 65 9
f 489 2 4
f 489 6 7
f 1 66 413
f 57 58 414
f 413 66 3
f 414 482 57
f 414 58 1
f 413 414 1
f 50 52 482
f 51 50 482
f 260 259 485
f 482 481 51
f 490 488 22
f 487 9 10
f 12 13 487
f 487 10 11
f 16 17 488
f 487 11 12
f 487 13 14
f 18 19 488
f 487 14 15
f 488 17 18
f 20 64 488
f 15 16 488
f 488 19 20
f 488 487 15
f 481 48 49
f 4 5 489
f 482 176 175
f 482 174 173
f 482 170 168
f 30 62 140
f 29 30 139
f 140 62 32
f 28 29 139
f 140 139 30
f 139 490 28
f 27 63 490
f 25 26 490
f 23 24 490
f 490 26 27
f 21 23 490
f 56 59 482
f 22 21 490
f 163 162 479
f 100 99 95
f 479 165 164
f 95 101 100
f 99 98 97
f 479 164 163
f 99 97 96
f 479 168 169
f 178 482 414
f 414 412 178
f 175 174 482
f 482 178 177
f 172 171 482
f 482 177 176
f 7 8 489
f 482 171 170
f 90 89 88
f 91 85 67
f 72 67 68
f 88 91 90
f 91 88 87
f 69 70 72
f 72 68 69
f 72 70 71
f 161 160 480
f 162 161 479
f 102 95 480
f 166 165 479
f 480 479 161
f 480 160 102
f 490 24 25
f 479 167 166
f 480 95 427
f 483 426 420
f 76 425 419
f 72 73 416
f 91 72 424
f 95 422 423
f 483 420 421
f 76 419 418
f 74 83 415
f 418 415 83
f 73 74 415
f 416 417 72
f 415 416 73
f 86 85 91
f 173 172 482
f 67 72 91
f 91 443 444
f 431 94 93
f 94 431 429
f 423 427 95
f 483 441 442
f 483 439 440
f 483 438 426
f 83 76 418
f 72 436 437
f 72 434 435
f 424 433 91
f 432 92 91
f 431 93 92
f 429 95 94
f 95 102 101
f 95 428 422
f 450 449 72
f 448 445 91
f 91 461 443
f 92 432 431
f 95 460 428
f 480 458 459
f 480 456 457
f 483 454 455
f 442 439 483
f 483 453 438
f 76 451 452
f 417 436 72
f 435 450 72
f 72 449 424
f 87 86 91
f 91 445 446
f 469 466 480
f 465 463 480
f 472 473 474
f 455 471 483
f 421 76 483
f 76 470 451
f 433 447 91
f 91 444 432
f 427 458 480
f 480 468 469
f 480 466 467
f 480 464 465
f 480 463 456
f 483 462 454
f 95 429 430
f 452 425 76
f 485 156 155
f 485 154 153
f 476 478 475
f 457 477 480
f 475 472 483
f 459 468 480
f 480 477 476
f 483 480 475
f 474 462 483
f 446 461 91
f 467 464 480
f 475 480 476
f 474 483 472
f 471 441 483
f 91 447 448
f 430 460 95
f 486 146 145
f 486 145 144
f 485 152 151
f 82 159 483
f 81 82 76
f 158 485 483
f 77 78 79
f 483 76 82
f 483 159 158
f 157 156 485
f 75 77 79
f 76 79 80
f 485 158 157
f 155 154 485
f 440 453 483
f 76 80 81
f 137 136 490
f 133 132 490
f 490 138 137
f 134 133 490
f 131 130 490
f 490 135 134
f 490 132 131
f 490 130 129
f 142 141 486
f 149 148 486
f 150 149 486
f 144 143 486
f 486 485 150
f 147 146 486
f 437 434 72
f 486 148 147
f 122 399 398
f 124 123 396
f 125 124 395
f 128 386 385
f 128 383 382
f 363 362 488
f 360 359 488
f 488 357 356
f 410 121 488
f 121 409 408
f 488 364 363
f 488 361 360
f 488 354 353
f 488 353 410
f 79 76 75
f 136 135 490
f 488 366 365
f 359 358 488
f 410 409 121
f 121 402 401
f 400 399 122
f 396 395 124
f 125 394 393
f 126 393 392
f 392 391 128
f 128 387 386
f 128 384 383
f 362 361 488
f 488 358 357
f 488 355 354
f 486 143 142
f 122 121 400
f 128 391 390
f 388 387 128
f 490 380 379
f 490 373 372
f 490 371 370
f 367 366 488
f 356 355 488
f 121 406 405
f 401 400 121
f 123 122 397
f 395 394 125
f 392 127 126
f 128 389 388
f 385 384 128
f 490 139 138
f 488 490 367
f 365 364 488
f 128 127 392
f 381 380 490
f 490 377 376
f 369 368 490
f 405 404 121
f 397 396 123
f 390 389 128
f 490 382 381
f 379 378 490
f 372 371 490
f 490 368 367
f 407 406 121
f 121 404 403
f 408 407 121
f 393 126 125
f 118 339 338
f 119 338 337
f 120 333 332
f 115 114 343
f 340 117 116
f 119 337 336
f 342 341 116
f 117 340 339
f 119 336 335
f 116 115 342
f 116 341 340
f 374 373 490
f 376 375 490
f 403 402 121
f 490 370 369
f 490 375 374
f 338 119 118
f 332 331 120
f 487 318 317
f 487 315 314
f 312 311 487
f 489 309 308
f 113 346 345
f 343 114 113
f 339 118 117
f 335 120 119
f 120 334 333
f 120 331 330
f 487 313 312
f 487 311 310
f 398 397 122
f 343 342 115
f 316 315 487
f 489 306 305
f 302 301 489
f 113 344 343
f 317 316 487
f 310 489 487
f 489 305 304
f 489 303 302
f 489 301 300
f 347 346 113
f 335 334 120
f 487 319 318
f 314 313 487
f 489 310 309
f 378 377 490
f 345 344 113
f 489 297 296
f 113 489 295
f 350 349 113
f 120 326 325
f 487 322 321
f 300 299 489
f 113 351 350
f 329 328 120
f 487 120 325
f 307 306 489
f 489 299 298
f 113 349 348
f 120 328 327
f 487 320 319
f 489 308 307
f 330 329 120
f 489 113 112
f 489 109 108
f 489 112 111
f 105 104 489
f 489 111 110
f 107 106 489
f 489 108 107
f 489 106 105
f 296 295 489
f 323 322 487
f 352 351 113
f 487 324 323
f 298 297 489
f 295 352 113
f 113 348 347
f 321 320 487
f 32 486 140
f 168 479 482
f 169 167 479
f 96 95 99
f 71 84 72
f 421 470 76
f 153 152 485
f 151 150 485
f 141 140 486
f 129 128 490
f 382 490 128
f 325 324 487
f 103 411 413
f 104 103 489
f 304 303 489
f 413 489 103
f 480 204 203
f 185 184 479
f 479 183 182
f 230 229 482
f 225 224 482
f 481 482 222
f 481 221 220
f 217 216 481
f 488 121 120
f 38 484 486
f 60 51 481
f 59 57 482
f 3 489 413
f 9 487 489
f 327 326 120
f 63 28 490
f 201 200 480
f 479 181 180
f 482 179 236
f 234 233 482
f 223 222 482
f 211 210 481
f 205 204 480
f 184 183 479
f 110 109 489
f 209 208 481
f 483 484 481
f 267 266 486
f 64 22 488
f 481 216 215
f 480 198 197
f 479 194 193
f 192 193 479
f 187 188 479
f 196 197 480
f 194 195 480
f 217 218 481
f 481 213 214
f 201 202 480
f 199 200 480
f 479 189 190
f 230 231 482
f 225 226 482
f 481 214 215
f 480 479 194
f 479 186 187
f 480 195 196
f 205 206 480
f 188 189 479
f 185 186 479
f 190 191 479
f 179 180 479
f 234 235 482
f 232 233 482
f 482 223 224
f 481 221 222
f 481 212 213
f 191 192 479
f 211 212 481
f 202 203 480
f 480 198 199
f 231 232 482
f 228 229 482
f 226 227 482
f 484 294 237
f 292 293 484
f 281 282 484
f 251 485 483
f 247 248 483
f 483 484 237
f 237 238 483
f 483 480 481
f 479 482 179
f 480 206 207
f 482 227 228
f 480 207 208
f 479 181 182
f 482 235 236
f 219 220 481
f 208 481 480
f 267 268 486
f 485 256 257
f 254 255 485
f 483 249 250
f 240 241 483
f 238 239 483
f 484 291 292
f 286 287 484
f 284 285 484
f 282 283 484
f 275 276 486
f 269 270 486
f 257 258 485
f 253 254 485
f 209 210 481
f 248 249 483
f 486 273 274
f 486 268 269
f 485 255 256
f 251 252 485
f 245 246 483
f 243 244 483
f 241 242 483
f 484 293 294
f 289 290 484
f 287 288 484
f 484 283 284
f 279 280 486
f 277 278 486
f 486 274 275
f 481 218 219
f 270 271 486
f 486 276 277
f 485 265 266
f 485 262 263
f 260 261 485
f 483 246 247
f 484 290 291
f 486 280 281
f 486 271 272
f 266 486 485
f 263 264 485
f 485 252 253
f 483 244 245
f 483 239 240
f 484 288 289
f 483 250 251
f 486 278 279
f 47 46 481
f 486 37 36
f 486 33 31
f 61 37 486
f 31 32 486
f 34 33 486
f 38 61 486
f 35 34 486
f 36 35 486
f 488 487 120
f 485 258 259
f 485 261 262
f 484 285 286
f 485 264 265
f 272 273 486
f 483 242 243
f 482 54 53
f 53 52 482
f 55 54 482
f 56 55 482
f 481 60 49
f 484 41 40
f 39 38 484
f 481 45 44
f 40 39 484
f 484 43 42
f 481 48 47
f 42 41 484
f 44 43 484
f 46 45 481
f 484 486 281
f 44 484 481
f 65 8 489
f 2 3 489
f 6 5 489
f 9 65 489
f 4 2 489
f 7 6 489
f 413 66 1
f 414 58 57
f 3 66 413
f 57 482 414
f 1 58 414
f 1 414 413
f 482 52 50
f 482 50 51
f 485 259 260
f 51 481 482
f 22 488 490
f 10 9 487
f 487 13 12
f 11 10 487
f 488 17 16
f 12 11 487
f 14 13 487
f 488 19 18
f 15 14 487
f 18 17 488
f 488 64 20
f 488 16 15
f 20 19 488
f 15 487 488
f 49 48 481
f 489 5 4
f 175 176 482
f 173 174 482
f 168 170 482
f 140 62 30
f 139 30 29
f 32 62 140
f 139 29 28
f 30 139 140
f 28 490 139
f 490 63 27
f 490 26 25
f 490 24 23
f 27 26 490
f 490 23 21
f 482 59 56
f 490 21 22
f 479 162 163
f 95 99 100
f 164 165 479
f 100 101 95
f 97 98 99
f 163 164 479
f 96 97 99
f 169 168 479
f 414 482 178
f 178 412 414
f 482 174 175
f 177 178 482
f 482 171 172
f 176 177 482
f 489 8 7
f 170 171 482
f 88 89 90
f 67 85 91
f 68 67 72
f 90 91 88
f 87 88 91
f 72 70 69
f 69 68 72
f 71 70 72
f 480 160 161
f 479 161 162
f 480 95 102
f 479 165 166
f 161 479 480
f 102 160 480
f 25 24 490
f 166 167 479
f 427 95 480
f 420 426 483
f 419 425 76
f 416 73 72
f 424 72 91
f 423 422 95
f 421 420 483
f 418 419 76
f 415 83 74
f 83 415 418
f 415 74 73
f 72 417 416
f 73 416 415
f 91 85 86
f 482 172 173
f 91 72 67
f 444 443 91
f 93 94 431
f 429 431 94
f 95 427 423
f 442 441 483
f 440 439 483
f 426 438 483
f 418 76 83
f 437 436 72
f 435 434 72
f 91 433 424
f 91 92 432
f 92 93 431
f 94 95 429
f 101 102 95
f 422 428 95
f 72 449 450
f 91 445 448
f 443 461 91
f 431 432 92
f 428 460 95
f 459 458 480
f 457 456 480
f 455 454 483
f 483 439 442
f 438 453 483
f 452 451 76
f 72 436 417
f 72 450 435
f 424 449 72
f 91 86 87
f 446 445 91
f 480 466 469
f 480 463 465
f 474 473 472
f 483 471 455
f 483 76 421
f 451 470 76
f 91 447 433
f 432 444 91
f 480 458 427
f 469 468 480
f 467 466 480
f 465 464 480
f 456 463 480
f 454 462 483
f 430 429 95
f 76 425 452
f 155 156 485
f 153 154 485
f 475 478 476
f 480 477 457
f 483 472 475
f 480 468 459
f 476 477 480
f 475 480 483
f 483 462 474
f 91 461 446
f 480 464 467
f 476 480 475
f 472 483 474
f 483 441 471
f 448 447 91
f 95 460 430
f 145 146 486
f 144 145 486
f 151 152 485
f 483 159 82
f 76 82 81
f 483 485 158
f 79 78 77
f 82 76 483
f 158 159 483
f 485 156 157
f 79 77 75
f 80 79 76
f 157 158 485
f 485 154 155
f 483 453 440
f 81 80 76
f 490 136 137
f 490 132 133
f 137 138 490
f 490 133 134
f 490 130 131
f 134 135 490
f 131 132 490
f 129 130 490
f 486 141 142
f 486 148 149
f 486 149 150
f 486 143 144
f 150 485 486
f 486 146 147
f 72 434 437
f 147 148 486
f 398 399 122
f 396 123 124
f 395 124 125
f 385 386 128
f 382 383 128
f 488 362 363
f 488 359 360
f 356 357 488
f 488 121 410
f 408 409 121
f 363 364 488
f 360 361 488
f 353 354 488
f 410 353 488
f 75 76 79
f 490 135 136
f 365 366 488
f 488 358 359
f 121 409 410
f 401 402 121
f 122 399 400
f 124 395 396
f 393 394 125
f 392 393 126
f 128 391 392
f 386 387 128
f 383 384 128
f 488 361 362
f 357 358 488
f 354 355 488
f 142 143 486
f 400 121 122
f 390 391 128
f 128 387 388
f 379 380 490
f 372 373 490
f 370 371 490
f 488 366 367
f 488 355 356
f 405 406 121
f 121 400 401
f 397 122 123
f 125 394 395
f 126 127 392
f 388 389 128
f 128 384 385
f 138 139 490
f 367 490 488
f 488 364 365
f 392 127 128
f 490 380 381
f 376 377 490
f 490 368 369
f 121 404 405
f 123 396 397
f 128 389 390
f 381 382 490
f 490 378 379
f 490 371 372
f 367 368 490
f 121 406 407
f 403 404 121
f 121 407 408
f 125 126 393
f 338 339 118
f 337 338 119
f 332 333 120
f 343 114 115
f 116 117 340
f 336 337 119
f 116 341 342
f 339 340 117
f 335 336 119
f 342 115 116
f 340 341 116
f 490 373 374
f 490 375 376
f 121 402 403
f 369 370 490
f 374 375 490
f 118 119 338
f 120 331 332
f 317 318 487
f 314 315 487
f 487 311 312
f 308 309 489
f 345 346 113
f 113 114 343
f 117 118 339
f 119 120 335
f 333 334 120
f 330 331 120
f 312 313 487
f 310 311 487
f 122 397 398
f 115 342 343
f 487 315 316
f 305 306 489
f 489 301 302
f 343 344 113
f 487 316 317
f 487 489 310
f 304 305 489
f 302 303 489
f 300 301 489
f 113 346 347
f 120 334 335
f 318 319 487
f 487 313 314
f 309 310 489
f 490 377 378
f 113 344 345
f 296 297 489
f 295 489 113
f 113 349 350
f 325 326 120
f 321 322 487
f 489 299 300
f 350 351 113
f 120 328 329
f 325 120 487
f 489 306 307
f 298 299 489
f 348 349 113
f 327 328 120
f 319 320 487
f 307 308 489
f 120 329 330
f 112 113 489
f 108 109 489
f 111 112 489
f 489 104 105
f 110 111 489
f 489 106 107
f 107 108 489
f 105 106 489
f 489 295 296
f 487 322 323
f 113 351 352
f 323 324 487
f 489 297 298
f 113 352 295
f 347 348 113
f 487 320 321
f 140 486 32
f 482 479 168
f 479 167 169
f 99 95 96
f 72 84 71
f 76 470 421
f 485 152 153
f 485 150 151
f 486 140 141
f 490 128 129
f 128 490 382
f 487 324 325
f 413 411 103
f 489 103 104
f 489 303 304
f 103 489 413
f 203 204 480
f 479 184 185
f 182 183 479
f 482 229 230
f 482 224 225
f 222 482 481
f 220 221 481
f 481 216 217
f 120 121 488
f 486 484 38
f 481 51 60
f 482 57 59
f 413 489 3
f 489 487 9
f 120 326 327
f 490 28 63
f 480 200 201
f 180 181 479
f 236 179 482
f 482 233 234
f 482 222 223
f 481 210 211
f 480 204 205
f 479 183 184
f 489 109 110
f 481 208 209
f 481 484 483
f 486 266 267
f 488 22 64
f 215 216 481
f 197 198 480
f 193 194 479

