# https://github.com/mikedh/trimesh
v -0.01381850 -0.00150285 0.00952500
v -0.01390000 0.00000000 0.00952500
v -0.01357500 -0.00298809 0.00952500
v -0.01317240 -0.00443829 0.00952500
v -0.01261530 -0.00583646 0.00952500
v -0.01191030 -0.00716620 0.00952500
v -0.01106570 -0.00841192 0.00952500
v -0.01009130 -0.00955902 0.00952500
v -0.00899867 -0.01059410 0.00952500
v -0.00780050 -0.01150490 0.00952500
v -0.00651088 -0.01228080 0.00952500
v -0.00514492 -0.01291280 0.00952500
v -0.00371864 -0.01339330 0.00952500
v -0.00224877 -0.01371690 0.00952500
v -0.00075253 -0.01387960 0.00952500
v 0.00075253 -0.01387960 0.00952500
v 0.00224877 -0.01371690 0.00952500
v 0.00371864 -0.01339330 0.00952500
v 0.00514492 -0.01291280 0.00952500
v 0.00651088 -0.01228080 0.00952500
v 0.00780050 -0.01150490 0.00952500
v 0.00899867 -0.01059410 0.00952500
v 0.01009130 -0.00955902 0.00952500
v 0.01106570 -0.00841192 0.00952500
v 0.01191030 -0.00716620 0.00952500
v 0.01261530 -0.00583646 0.00952500
v 0.01317240 -0.00443829 0.00952500
v 0.01357500 -0.00298809 0.00952500
v 0.01381850 -0.00150285 0.00952500
v 0.01390000 0.00000000 0.00952500
v 0.01381850 0.00150285 0.00952500
v 0.01357500 0.00298809 0.00952500
v 0.01317240 0.00443829 0.00952500
v 0.01261530 0.00583646 0.00952500
v 0.01191030 0.00716620 0.00952500
v 0.01106570 0.00841192 0.00952500
v 0.01009130 0.00955902 0.00952500
v 0.00899867 0.01059410 0.00952500
v 0.00780050 0.01150490 0.00952500
v 0.00651088 0.01228080 0.00952500
v 0.00514492 0.01291280 0.00952500
v 0.00371864 0.01339330 0.00952500
v 0.00224877 0.01371690 0.00952500
v 0.00075253 0.01387960 0.00952500
v -0.00075253 0.01387960 0.00952500
v -0.00224877 0.01371690 0.00952500
v -0.00371864 0.01339330 0.00952500
v -0.00514492 0.01291280 0.00952500
v -0.00651088 0.01228080 0.00952500
v -0.00780050 0.01150490 0.00952500
v -0.00899867 0.01059410 0.00952500
v -0.01009130 0.00955902 0.00952500
v -0.01106570 0.00841192 0.00952500
v -0.01191030 0.00716620 0.00952500
v -0.01261530 0.00583646 0.00952500
v -0.01317240 0.00443829 0.00952500
v -0.01357500 0.00298809 0.00952500
v -0.01381850 0.00150285 0.00952500
v -0.01530000 -0.03750000 0.00952500
v -0.01950000 -0.03750000 0.00952500
v -0.01911720 -0.03317970 0.00952500
v -0.01982130 -0.03329520 0.00952500
v -0.01946610 -0.03325650 0.00952500
v -0.02197210 -0.03710850 0.00952500
v -0.02275390 -0.03680840 0.00952500
v -0.02122150 -0.03306560 0.00952500
v -0.02350000 -0.03642820 0.00952500
v -0.02154570 -0.03291560 0.00952500
v -0.02033620 -0.03745620 0.00952500
v -0.02017870 -0.03329520 0.00952500
v -0.02116330 -0.03732520 0.00952500
v -0.02053390 -0.03325650 0.00952500
v -0.02088280 -0.03317970 0.00952500
v -0.02420230 -0.03597210 0.00952500
v -0.02185190 -0.03273140 0.00952500
v -0.02485300 -0.03544520 0.00952500
v -0.02213640 -0.03251510 0.00952500
v -0.02544520 -0.03485300 0.00952500
v -0.02239580 -0.03226940 0.00952500
v -0.01671930 -0.02964320 0.00952500
v -0.01677720 -0.02929060 0.00952500
v -0.01687270 -0.03105370 0.00952500
v -0.01677720 -0.03070940 0.00952500
v -0.03000000 -0.02030000 0.00952500
v -0.02088280 -0.02682030 0.00952500
v -0.02122150 -0.02693440 0.00952500
v -0.01911720 -0.02682030 0.00952500
v -0.01946610 -0.02674350 0.00952500
v -0.01737290 -0.02800290 0.00952500
v -0.01760420 -0.02773060 0.00952500
v -0.01687270 -0.02894630 0.00952500
v -0.01700500 -0.03138560 0.00952500
v -0.01786360 -0.03251510 0.00952500
v -0.01760420 -0.03226940 0.00952500
v -0.01877850 -0.03306560 0.00952500
v -0.01845430 -0.03291560 0.00952500
v -0.02053390 -0.02674350 0.00952500
v -0.02017870 -0.02670480 0.00952500
v -0.01877850 -0.02693440 0.00952500
v -0.01717240 -0.02829870 0.00952500
v -0.01700500 -0.02861440 0.00952500
v -0.01670000 -0.03000000 0.00952500
v -0.01717240 -0.03170130 0.00952500
v -0.01737290 -0.03199710 0.00952500
v -0.01814810 -0.03273140 0.00952500
v -0.02680840 -0.03275390 0.00952500
v -0.02710850 -0.03197210 0.00952500
v -0.02312730 -0.03105370 0.00952500
v -0.01845430 -0.02708440 0.00952500
v -0.01786360 -0.02748490 0.00952500
v -0.01814810 -0.02726860 0.00952500
v -0.01671930 -0.03035680 0.00952500
v -0.02597210 -0.03420230 0.00952500
v -0.02262710 -0.03199710 0.00952500
v -0.02642820 -0.03350000 0.00952500
v -0.02282760 -0.03170130 0.00952500
v -0.02299500 -0.03138560 0.00952500
v -0.02322280 -0.03070940 0.00952500
v -0.02185190 -0.02726860 0.00952500
v -0.02213640 -0.02748490 0.00952500
v -0.01982130 -0.02670480 0.00952500
v -0.02299500 -0.02861440 0.00952500
v -0.02312730 -0.02894630 0.00952500
v -0.02154570 -0.02708440 0.00952500
v -0.02745620 -0.03033620 0.00952500
v -0.02330000 -0.03000000 0.00952500
v -0.02328070 -0.03035680 0.00952500
v -0.02282760 -0.02829870 0.00952500
v -0.02239580 -0.02773060 0.00952500
v -0.02262710 -0.02800290 0.00952500
v -0.02732520 -0.03116330 0.00952500
v -0.02322280 -0.02929060 0.00952500
v -0.02328070 -0.02964320 0.00952500
v -0.02750000 -0.02950000 0.00952500
v -0.02275390 0.03680840 0.00952500
v -0.02122150 0.03306560 0.00952500
v -0.02154570 0.03291560 0.00952500
v -0.02197210 0.03710850 0.00952500
v -0.02088280 0.03317970 0.00952500
v -0.02350000 0.03642820 0.00952500
v -0.02185190 0.03273140 0.00952500
v -0.02116330 0.03732520 0.00952500
v -0.02053390 0.03325650 0.00952500
v -0.02033620 0.03745620 0.00952500
v -0.02017870 0.03329520 0.00952500
v -0.01530000 0.03750000 0.00952500
v -0.01814810 0.03273140 0.00952500
v -0.01845430 0.03291560 0.00952500
v -0.01737290 0.03199710 0.00952500
v -0.01760420 0.03226940 0.00952500
v -0.01671930 0.03035680 0.00952500
v -0.01677720 0.03070940 0.00952500
v -0.01950000 0.03750000 0.00952500
v -0.01982130 0.03329520 0.00952500
v -0.01911720 0.03317970 0.00952500
v -0.01946610 0.03325650 0.00952500
v -0.01877850 0.03306560 0.00952500
v -0.01786360 0.03251510 0.00952500
v -0.01717240 0.03170130 0.00952500
v -0.01687270 0.03105370 0.00952500
v -0.01982130 0.02670480 0.00952500
v -0.01946610 0.02674350 0.00952500
v -0.02088280 0.02682030 0.00952500
v -0.02053390 0.02674350 0.00952500
v -0.02154570 0.02708440 0.00952500
v -0.02122150 0.02693440 0.00952500
v -0.02239580 0.02773060 0.00952500
v -0.02213640 0.02748490 0.00952500
v -0.01700500 0.03138560 0.00952500
v -0.01814810 0.02726860 0.00952500
v -0.01786360 0.02748490 0.00952500
v -0.01911720 0.02682030 0.00952500
v -0.02017870 0.02670480 0.00952500
v -0.02185190 0.02726860 0.00952500
v -0.01671930 0.02964320 0.00952500
v -0.01687270 0.02894630 0.00952500
v -0.01677720 0.02929060 0.00952500
v -0.01717240 0.02829870 0.00952500
v -0.01700500 0.02861440 0.00952500
v -0.01760420 0.02773060 0.00952500
v -0.02750000 0.02950000 0.00952500
v -0.02282760 0.02829870 0.00952500
v -0.02322280 0.02929060 0.00952500
v -0.02312730 0.02894630 0.00952500
v -0.02680840 0.03275390 0.00952500
v -0.02299500 0.03138560 0.00952500
v -0.02312730 0.03105370 0.00952500
v -0.01670000 0.03000000 0.00952500
v -0.01737290 0.02800290 0.00952500
v -0.01877850 0.02693440 0.00952500
v -0.01845430 0.02708440 0.00952500
v -0.02262710 0.02800290 0.00952500
v -0.02299500 0.02861440 0.00952500
v -0.02745620 0.03033620 0.00952500
v -0.02732520 0.03116330 0.00952500
v -0.02328070 0.03035680 0.00952500
v -0.02710850 0.03197210 0.00952500
v -0.02642820 0.03350000 0.00952500
v -0.02282760 0.03170130 0.00952500
v -0.02597210 0.03420230 0.00952500
v -0.02262710 0.03199710 0.00952500
v -0.02544520 0.03485300 0.00952500
v -0.02239580 0.03226940 0.00952500
v -0.02485300 0.03544520 0.00952500
v -0.02213640 0.03251510 0.00952500
v -0.02420230 0.03597210 0.00952500
v -0.02330000 0.03000000 0.00952500
v -0.02322280 0.03070940 0.00952500
v -0.02328070 0.02964320 0.00952500
v -0.03000000 0.02950000 0.00952500
v 0.02750000 -0.02030000 0.00952500
v 0.01814810 0.02726860 0.00952500
v 0.02745620 0.03033620 0.00952500
v 0.02330000 0.03000000 0.00952500
v 0.02328070 0.03035680 0.00952500
v 0.02750000 0.02950000 0.00952500
v 0.02328070 0.02964320 0.00952500
v 0.02680840 0.03275390 0.00952500
v 0.02710850 0.03197210 0.00952500
v 0.02312730 0.03105370 0.00952500
v 0.02732520 0.03116330 0.00952500
v 0.02322280 0.03070940 0.00952500
v 0.02017870 0.02670480 0.00952500
v 0.01760420 0.02773060 0.00952500
v 0.01786360 0.02748490 0.00952500
v 0.02642820 0.03350000 0.00952500
v 0.02299500 0.03138560 0.00952500
v 0.01877850 0.02693440 0.00952500
v 0.01737290 0.02800290 0.00952500
v 0.02322280 0.02929060 0.00952500
v 0.02299500 0.02861440 0.00952500
v 0.02312730 0.02894630 0.00952500
v 0.01845430 0.02708440 0.00952500
v 0.01717240 0.02829870 0.00952500
v 0.01671930 0.02964320 0.00952500
v 0.01677720 0.02929060 0.00952500
v 0.01700500 0.03138560 0.00952500
v 0.01687270 0.03105370 0.00952500
v 0.01950000 0.03750000 0.00952500
v 0.01845430 0.03291560 0.00952500
v 0.01814810 0.03273140 0.00952500
v 0.01946610 0.03325650 0.00952500
v 0.01911720 0.03317970 0.00952500
v 0.02116330 0.03732520 0.00952500
v 0.02053390 0.03325650 0.00952500
v 0.02017870 0.03329520 0.00952500
v 0.02197210 0.03710850 0.00952500
v 0.02088280 0.03317970 0.00952500
v 0.02544520 0.03485300 0.00952500
v 0.02597210 0.03420230 0.00952500
v 0.02262710 0.03199710 0.00952500
v 0.02282760 0.03170130 0.00952500
v 0.02282760 0.02829870 0.00952500
v 0.01677720 0.03070940 0.00952500
v 0.01671930 0.03035680 0.00952500
v 0.01717240 0.03170130 0.00952500
v 0.01877850 0.03306560 0.00952500
v 0.01982130 0.03329520 0.00952500
v 0.02275390 0.03680840 0.00952500
v 0.02122150 0.03306560 0.00952500
v 0.02350000 0.03642820 0.00952500
v 0.02154570 0.03291560 0.00952500
v 0.02420230 0.03597210 0.00952500
v 0.02185190 0.03273140 0.00952500
v 0.02262710 0.02800290 0.00952500
v 0.02053390 0.02674350 0.00952500
v 0.02088280 0.02682030 0.00952500
v 0.01760420 0.03226940 0.00952500
v 0.01737290 0.03199710 0.00952500
v 0.02033620 0.03745620 0.00952500
v 0.02239580 0.02773060 0.00952500
v 0.02122150 0.02693440 0.00952500
v 0.02154570 0.02708440 0.00952500
v 0.01687270 0.02894630 0.00952500
v 0.01786360 0.03251510 0.00952500
v 0.02485300 0.03544520 0.00952500
v 0.02213640 0.03251510 0.00952500
v 0.02239580 0.03226940 0.00952500
v 0.02185190 0.02726860 0.00952500
v 0.02213640 0.02748490 0.00952500
v 0.01911720 0.02682030 0.00952500
v 0.01700500 0.02861440 0.00952500
v 0.01670000 0.03000000 0.00952500
v 0.01982130 0.02670480 0.00952500
v 0.01946610 0.02674350 0.00952500
v 0.01385410 -0.05502670 0.00952500
v 0.01500000 -0.05150000 0.00952500
v 0.01496710 -0.05212720 0.00952500
v 0.01345890 -0.05551480 0.00952500
v 0.01470630 -0.05335410 0.00952500
v 0.01448130 -0.05394040 0.00952500
v 0.01419620 -0.05450000 0.00952500
v 0.01486890 -0.05274750 0.00952500
v 0.02750000 -0.02950000 0.00952500
v 0.02745620 -0.03033620 0.00952500
v 0.02330000 -0.03000000 0.00952500
v 0.02732520 -0.03116330 0.00952500
v 0.02328070 -0.03035680 0.00952500
v -0.01252670 -0.05635410 0.00952500
v -0.01419620 -0.05450000 0.00952500
v -0.01448130 -0.05394040 0.00952500
v 0.01252670 -0.05635410 0.00952500
v 0.01200000 -0.05669620 0.00952500
v 0.01301480 -0.05595890 0.00952500
v 0.02420230 -0.03597210 0.00952500
v 0.02185190 -0.03273140 0.00952500
v 0.02213640 -0.03251510 0.00952500
v 0.02350000 -0.03642820 0.00952500
v 0.02154570 -0.03291560 0.00952500
v 0.02197210 -0.03710850 0.00952500
v 0.02088280 -0.03317970 0.00952500
v 0.02122150 -0.03306560 0.00952500
v 0.02116330 -0.03732520 0.00952500
v 0.02053390 -0.03325650 0.00952500
v -0.01486890 -0.05274750 0.00952500
v -0.01496710 -0.05212720 0.00952500
v -0.01385410 -0.05502670 0.00952500
v -0.01301480 -0.05595890 0.00952500
v -0.01500000 -0.05150000 0.00952500
v -0.01144040 -0.05698130 0.00952500
v -0.01200000 -0.05669620 0.00952500
v 0.01144040 -0.05698130 0.00952500
v 0.01911720 -0.02682030 0.00952500
v 0.01877850 -0.02693440 0.00952500
v 0.01946610 -0.02674350 0.00952500
v 0.02299500 -0.02861440 0.00952500
v 0.02322280 -0.02929060 0.00952500
v 0.02312730 -0.02894630 0.00952500
v 0.02328070 -0.02964320 0.00952500
v 0.02710850 -0.03197210 0.00952500
v 0.02322280 -0.03070940 0.00952500
v 0.02680840 -0.03275390 0.00952500
v 0.02299500 -0.03138560 0.00952500
v 0.02312730 -0.03105370 0.00952500
v 0.02275390 -0.03680840 0.00952500
v 0.02033620 -0.03745620 0.00952500
v 0.02017870 -0.03329520 0.00952500
v -0.01470630 -0.05335410 0.00952500
v -0.01345890 -0.05551480 0.00952500
v -0.01085410 -0.05720630 0.00952500
v -0.00962717 -0.05746710 0.00952500
v -0.01024750 -0.05736890 0.00952500
v 0.01085410 -0.05720630 0.00952500
v 0.01024750 -0.05736890 0.00952500
v 0.01671930 -0.02964320 0.00952500
v 0.01670000 -0.03000000 0.00952500
v 0.01700500 -0.02861440 0.00952500
v 0.01687270 -0.02894630 0.00952500
v 0.01845430 -0.02708440 0.00952500
v 0.01814810 -0.02726860 0.00952500
v 0.02213640 -0.02748490 0.00952500
v 0.02185190 -0.02726860 0.00952500
v 0.02642820 -0.03350000 0.00952500
v 0.02282760 -0.03170130 0.00952500
v 0.01500000 -0.03750000 0.00952500
v 0.01877850 -0.03306560 0.00952500
v 0.01911720 -0.03317970 0.00952500
v 0.01814810 -0.03273140 0.00952500
v 0.01845430 -0.03291560 0.00952500
v 0.01677720 -0.02929060 0.00952500
v 0.01717240 -0.02829870 0.00952500
v 0.01760420 -0.02773060 0.00952500
v 0.01737290 -0.02800290 0.00952500
v 0.01786360 -0.02748490 0.00952500
v 0.01982130 -0.02670480 0.00952500
v 0.02088280 -0.02682030 0.00952500
v 0.02053390 -0.02674350 0.00952500
v 0.02154570 -0.02708440 0.00952500
v 0.02122150 -0.02693440 0.00952500
v 0.02239580 -0.02773060 0.00952500
v 0.02282760 -0.02829870 0.00952500
v 0.02262710 -0.02800290 0.00952500
v 0.02597210 -0.03420230 0.00952500
v 0.02262710 -0.03199710 0.00952500
v 0.02544520 -0.03485300 0.00952500
v 0.02239580 -0.03226940 0.00952500
v 0.01950000 -0.03750000 0.00952500
v 0.01982130 -0.03329520 0.00952500
v 0.01946610 -0.03325650 0.00952500
v 0.00900000 -0.05750000 0.00952500
v 0.00962717 -0.05746710 0.00952500
v 0.02017870 -0.02670480 0.00952500
v 0.02485300 -0.03544520 0.00952500
v 0.01760420 -0.03226940 0.00952500
v 0.01786360 -0.03251510 0.00952500
v 0.01717240 -0.03170130 0.00952500
v 0.01737290 -0.03199710 0.00952500
v 0.01677720 -0.03070940 0.00952500
v 0.01687270 -0.03105370 0.00952500
v -0.00900000 -0.05750000 0.00952500
v 0.01700500 -0.03138560 0.00952500
v 0.01671930 -0.03035680 0.00952500
v -0.01500000 -0.03750000 0.00952500
v -0.03000000 -0.02950000 0.00952500
v -0.01530000 -0.02030000 0.00952500
f 49 50 234
f 298 296 295
f 293 290 286
f 289 304 287
f 287 302 303
f 299 300 301
f 295 297 298
f 294 295 296
f 288 293 286
f 290 291 292
f 287 286 289
f 286 287 288
f 273 279 211
f 305 306 307
f 277 264 263
f 2 395 146
f 285 284 28
f 251 278 249
f 241 146 239
f 54 55 146
f 282 234 50
f 281 285 28
f 28 284 223
f 280 271 211
f 278 277 276
f 246 270 244
f 211 294 326
f 319 341 342
f 319 340 320
f 318 339 317
f 299 338 315
f 313 336 337
f 314 311 310
f 335 312 309
f 306 305 308
f 332 333 334
f 297 330 331
f 296 329 294
f 294 327 328
f 275 268 146
f 211 325 323
f 395 323 324
f 292 286 290
f 303 322 287
f 319 320 321
f 317 299 318
f 299 317 300
f 299 315 316
f 310 313 314
f 310 311 312
f 308 309 306
f 234 47 48
f 227 252 226
f 264 262 261
f 260 248 247
f 270 246 258
f 243 257 239
f 146 268 269
f 238 254 146
f 50 51 146
f 146 53 54
f 146 55 56
f 46 47 234
f 40 41 225
f 211 271 265
f 395 1 3
f 8 9 395
f 211 266 267
f 216 211 265
f 232 230 216
f 252 251 250
f 261 263 264
f 259 261 262
f 247 259 260
f 245 244 247
f 239 258 242
f 258 239 270
f 146 283 235
f 57 58 146
f 274 282 50
f 38 39 212
f 28 228 281
f 395 2 1
f 267 272 211
f 211 279 280
f 265 253 216
f 276 249 278
f 263 276 277
f 262 260 259
f 287 343 344
f 146 241 275
f 269 256 146
f 52 53 146
f 56 57 146
f 146 58 2
f 50 236 274
f 44 45 229
f 48 49 234
f 4 5 395
f 211 223 266
f 211 272 273
f 324 349 395
f 255 283 146
f 393 59 346
f 316 319 299
f 346 59 395
f 307 383 305
f 393 346 355
f 391 386 355
f 352 368 211
f 319 393 355
f 392 388 355
f 385 358 355
f 354 353 373
f 196 207 194
f 355 287 319
f 380 390 319
f 355 346 392
f 389 391 355
f 387 384 355
f 379 378 377
f 376 375 383
f 326 371 211
f 367 382 211
f 363 361 395
f 381 380 287
f 319 390 341
f 84 119 120
f 395 109 99
f 59 92 82
f 59 93 94
f 116 114 113
f 64 73 72
f 97 84 395
f 59 60 61
f 69 70 62
f 105 93 59
f 102 80 395
f 111 109 395
f 395 121 98
f 355 388 389
f 107 118 108
f 115 106 117
f 113 115 116
f 78 113 114
f 61 95 59
f 104 103 59
f 59 112 102
f 101 100 395
f 395 110 111
f 64 65 66
f 134 394 84
f 337 314 313
f 211 368 369
f 211 366 367
f 211 365 325
f 350 364 395
f 395 362 363
f 395 361 347
f 395 360 345
f 322 343 287
f 342 340 319
f 301 338 299
f 355 358 359
f 355 356 357
f 211 370 351
f 309 308 335
f 353 354 333
f 334 330 332
f 331 298 297
f 328 326 294
f 211 351 352
f 323 395 211
f 71 72 70
f 395 347 348
f 395 345 346
f 304 302 287
f 344 381 287
f 355 386 387
f 355 384 385
f 357 377 355
f 378 337 336
f 383 307 376
f 374 373 375
f 334 331 330
f 372 370 211
f 369 366 211
f 211 382 365
f 364 362 395
f 348 360 395
f 395 349 350
f 319 287 380
f 321 299 319
f 359 356 355
f 377 357 379
f 336 377 378
f 312 335 310
f 375 376 374
f 373 374 354
f 333 332 353
f 329 327 294
f 211 371 372
f 146 149 150
f 84 167 168
f 84 165 166
f 84 163 164
f 395 161 162
f 152 160 146
f 146 159 149
f 146 158 147
f 146 157 155
f 153 155 156
f 144 153 154
f 145 143 142
f 146 151 152
f 154 145 144
f 146 147 148
f 142 144 145
f 143 139 138
f 138 142 143
f 137 140 135
f 136 135 138
f 140 137 141
f 138 139 136
f 135 136 137
f 133 126 84
f 120 129 84
f 84 126 134
f 395 176 177
f 395 190 191
f 180 189 395
f 179 176 395
f 175 188 146
f 148 157 146
f 185 186 187
f 181 183 184
f 84 181 182
f 174 165 84
f 173 161 395
f 171 180 395
f 395 178 179
f 118 107 131
f 146 395 175
f 169 159 146
f 156 154 153
f 168 174 84
f 166 163 84
f 395 84 173
f 162 172 395
f 395 170 171
f 160 169 146
f 150 158 146
f 155 153 146
f 395 87 88
f 91 101 395
f 395 100 89
f 395 99 87
f 395 98 97
f 84 97 85
f 77 75 74
f 70 69 71
f 59 95 96
f 63 61 60
f 65 67 68
f 81 91 395
f 395 89 90
f 395 59 102
f 84 85 86
f 79 77 76
f 75 68 67
f 72 71 64
f 62 60 69
f 59 82 83
f 395 80 81
f 76 78 79
f 74 76 77
f 67 74 75
f 68 66 65
f 117 116 115
f 123 132 84
f 125 134 126
f 90 110 395
f 130 128 84
f 84 132 133
f 127 131 125
f 131 127 118
f 114 79 78
f 86 124 84
f 84 129 130
f 84 128 122
f 125 126 127
f 146 256 237
f 83 112 59
f 88 121 395
f 84 124 119
f 84 122 123
f 108 117 106
f 60 62 63
f 106 107 108
f 66 73 64
f 96 105 59
f 94 104 59
f 59 103 92
f 36 37 212
f 29 212 233
f 31 32 212
f 395 5 6
f 395 7 8
f 14 15 395
f 26 27 211
f 216 231 232
f 216 230 217
f 220 227 218
f 42 229 224
f 228 28 29
f 30 31 212
f 40 225 212
f 10 11 395
f 395 15 16
f 24 25 211
f 211 27 28
f 215 221 213
f 219 222 220
f 226 218 227
f 224 225 41
f 212 29 30
f 33 34 212
f 212 37 38
f 395 9 10
f 222 219 221
f 239 257 240
f 146 254 255
f 236 50 146
f 146 51 52
f 45 46 234
f 42 43 229
f 212 39 40
f 29 233 228
f 395 3 4
f 6 7 395
f 22 23 211
f 216 253 231
f 182 192 84
f 250 226 252
f 249 250 251
f 247 248 245
f 244 245 246
f 239 242 243
f 239 240 241
f 146 237 238
f 146 235 236
f 234 229 45
f 41 42 224
f 229 43 44
f 172 190 395
f 141 206 140
f 199 198 200
f 208 196 195
f 181 207 209
f 192 167 84
f 177 175 395
f 205 204 206
f 201 200 202
f 186 185 198
f 195 197 208
f 207 181 194
f 193 182 181
f 17 18 211
f 189 178 395
f 188 151 146
f 206 141 205
f 204 205 203
f 202 203 201
f 200 201 199
f 198 199 186
f 187 197 185
f 194 195 196
f 184 193 181
f 164 173 84
f 16 17 211
f 191 170 395
f 203 202 204
f 84 210 181
f 211 21 22
f 211 19 20
f 20 21 211
f 211 395 16
f 212 35 36
f 213 214 215
f 216 217 214
f 211 18 19
f 187 208 197
f 395 13 14
f 395 11 12
f 212 34 35
f 212 32 33
f 218 219 220
f 221 215 222
f 214 213 216
f 223 211 28
f 211 25 26
f 211 23 24
f 12 13 395
f 209 183 181
f 234 50 49
f 295 296 298
f 286 290 293
f 287 304 289
f 303 302 287
f 301 300 299
f 298 297 295
f 296 295 294
f 286 293 288
f 292 291 290
f 289 286 287
f 288 287 286
f 211 279 273
f 307 306 305
f 263 264 277
f 146 395 2
f 28 284 285
f 249 278 251
f 239 146 241
f 146 55 54
f 50 234 282
f 28 285 281
f 223 284 28
f 211 271 280
f 276 277 278
f 244 270 246
f 326 294 211
f 342 341 319
f 320 340 319
f 317 339 318
f 315 338 299
f 337 336 313
f 310 311 314
f 309 312 335
f 308 305 306
f 334 333 332
f 331 330 297
f 294 329 296
f 328 327 294
f 146 268 275
f 323 325 211
f 324 323 395
f 290 286 292
f 287 322 303
f 321 320 319
f 318 299 317
f 300 317 299
f 316 315 299
f 314 313 310
f 312 311 310
f 306 309 308
f 48 47 234
f 226 252 227
f 261 262 264
f 247 248 260
f 258 246 270
f 239 257 243
f 269 268 146
f 146 254 238
f 146 51 50
f 54 53 146
f 56 55 146
f 234 47 46
f 225 41 40
f 265 271 211
f 3 1 395
f 395 9 8
f 267 266 211
f 265 211 216
f 216 230 232
f 250 251 252
f 264 263 261
f 262 261 259
f 260 259 247
f 247 244 245
f 242 258 239
f 270 239 258
f 235 283 146
f 146 58 57
f 50 282 274
f 212 39 38
f 281 228 28
f 1 2 395
f 211 272 267
f 280 279 211
f 216 253 265
f 278 249 276
f 277 276 263
f 259 260 262
f 344 343 287
f 275 241 146
f 146 256 269
f 146 53 52
f 146 57 56
f 2 58 146
f 274 236 50
f 229 45 44
f 234 49 48
f 395 5 4
f 266 223 211
f 273 272 211
f 395 349 324
f 146 283 255
f 346 59 393
f 299 319 316
f 395 59 346
f 305 383 307
f 355 346 393
f 355 386 391
f 211 368 352
f 355 393 319
f 355 388 392
f 355 358 385
f 373 353 354
f 194 207 196
f 319 287 355
f 319 390 380
f 392 346 355
f 355 391 389
f 355 384 387
f 377 378 379
f 383 375 376
f 211 371 326
f 211 382 367
f 395 361 363
f 287 380 381
f 341 390 319
f 120 119 84
f 99 109 395
f 82 92 59
f 94 93 59
f 113 114 116
f 72 73 64
f 395 84 97
f 61 60 59
f 62 70 69
f 59 93 105
f 395 80 102
f 395 109 111
f 98 121 395
f 389 388 355
f 108 118 107
f 117 106 115
f 116 115 113
f 114 113 78
f 59 95 61
f 59 103 104
f 102 112 59
f 395 100 101
f 111 110 395
f 66 65 64
f 84 394 134
f 313 314 337
f 369 368 211
f 367 366 211
f 325 365 211
f 395 364 350
f 363 362 395
f 347 361 395
f 345 360 395
f 287 343 322
f 319 340 342
f 299 338 301
f 359 358 355
f 357 356 355
f 351 370 211
f 335 308 309
f 333 354 353
f 332 330 334
f 297 298 331
f 294 326 328
f 352 351 211
f 211 395 323
f 70 72 71
f 348 347 395
f 346 345 395
f 287 302 304
f 287 381 344
f 387 386 355
f 385 384 355
f 355 377 357
f 336 337 378
f 376 307 383
f 375 373 374
f 330 331 334
f 211 370 372
f 211 366 369
f 365 382 211
f 395 362 364
f 395 360 348
f 350 349 395
f 380 287 319
f 319 299 321
f 355 356 359
f 379 357 377
f 378 377 336
f 310 335 312
f 374 376 375
f 354 374 373
f 353 332 333
f 294 327 329
f 372 371 211
f 150 149 146
f 168 167 84
f 166 165 84
f 164 163 84
f 162 161 395
f 146 160 152
f 149 159 146
f 147 158 146
f 155 157 146
f 156 155 153
f 154 153 144
f 142 143 145
f 152 151 146
f 144 145 154
f 148 147 146
f 145 144 142
f 138 139 143
f 143 142 138
f 135 140 137
f 138 135 136
f 141 137 140
f 136 139 138
f 137 136 135
f 84 126 133
f 84 129 120
f 134 126 84
f 177 176 395
f 191 190 395
f 395 189 180
f 395 176 179
f 146 188 175
f 146 157 148
f 187 186 185
f 184 183 181
f 182 181 84
f 84 165 174
f 395 161 173
f 395 180 171
f 179 178 395
f 131 107 118
f 175 395 146
f 146 159 169
f 153 154 156
f 84 174 168
f 84 163 166
f 173 84 395
f 395 172 162
f 171 170 395
f 146 169 160
f 146 158 150
f 146 153 155
f 88 87 395
f 395 101 91
f 89 100 395
f 87 99 395
f 97 98 395
f 85 97 84
f 74 75 77
f 71 69 70
f 96 95 59
f 60 61 63
f 68 67 65
f 395 91 81
f 90 89 395
f 102 59 395
f 86 85 84
f 76 77 79
f 67 68 75
f 64 71 72
f 69 60 62
f 83 82 59
f 81 80 395
f 79 78 76
f 77 76 74
f 75 74 67
f 65 66 68
f 115 116 117
f 84 132 123
f 126 134 125
f 395 110 90
f 84 128 130
f 133 132 84
f 125 131 127
f 118 127 131
f 78 79 114
f 84 124 86
f 130 129 84
f 122 128 84
f 127 126 125
f 237 256 146
f 59 112 83
f 395 121 88
f 119 124 84
f 123 122 84
f 106 117 108
f 63 62 60
f 108 107 106
f 64 73 66
f 59 105 96
f 59 104 94
f 92 103 59
f 212 37 36
f 233 212 29
f 212 32 31
f 6 5 395
f 8 7 395
f 395 15 14
f 211 27 26
f 232 231 216
f 217 230 216
f 218 227 220
f 224 229 42
f 29 28 228
f 212 31 30
f 212 225 40
f 395 11 10
f 16 15 395
f 211 25 24
f 28 27 211
f 213 221 215
f 220 222 219
f 227 218 226
f 41 225 224
f 30 29 212
f 212 34 33
f 38 37 212
f 10 9 395
f 221 219 222
f 240 257 239
f 255 254 146
f 146 50 236
f 52 51 146
f 234 46 45
f 229 43 42
f 40 39 212
f 228 233 29
f 4 3 395
f 395 7 6
f 211 23 22
f 231 253 216
f 84 192 182
f 252 226 250
f 251 250 249
f 245 248 247
f 246 245 244
f 243 242 239
f 241 240 239
f 238 237 146
f 236 235 146
f 45 229 234
f 224 42 41
f 44 43 229
f 395 190 172
f 140 206 141
f 200 198 199
f 195 196 208
f 209 207 181
f 84 167 192
f 395 175 177
f 206 204 205
f 202 200 201
f 198 185 186
f 208 197 195
f 194 181 207
f 181 182 193
f 211 18 17
f 395 178 189
f 146 151 188
f 205 141 206
f 203 205 204
f 201 203 202
f 199 201 200
f 186 199 198
f 185 197 187
f 196 195 194
f 181 193 184
f 84 173 164
f 211 17 16
f 395 170 191
f 204 202 203
f 181 210 84
f 22 21 211
f 20 19 211
f 211 21 20
f 16 395 211
f 36 35 212
f 215 214 213
f 214 217 216
f 19 18 211
f 197 208 187
f 14 13 395
f 12 11 395
f 35 34 212
f 33 32 212
f 220 219 218
f 222 215 221
f 216 213 214
f 28 211 223
f 26 25 211
f 24 23 211
f 395 13 12
f 181 183 209

