# https://github.com/mikedh/trimesh
v -0.02122150 0.03306560 0.00952500
v -0.02154570 0.03291560 0.00952500
v -0.02088280 0.03317970 0.00952500
v -0.02185190 0.03273140 0.00952500
v -0.02053390 0.03325650 0.00952500
v -0.02017870 0.03329520 0.00952500
v -0.01814810 0.03273140 0.00952500
v -0.01845430 0.03291560 0.00952500
v -0.01737290 0.03199710 0.00952500
v -0.01760420 0.03226940 0.00952500
v -0.01671930 0.03035680 0.00952500
v -0.01677720 0.03070940 0.00952500
v -0.01982130 0.03329520 0.00952500
v -0.01911720 0.03317970 0.00952500
v -0.01946610 0.03325650 0.00952500
v -0.01877850 0.03306560 0.00952500
v -0.01786360 0.03251510 0.00952500
v -0.01717240 0.03170130 0.00952500
v -0.01687270 0.03105370 0.00952500
v -0.01982130 0.02670480 0.00952500
v -0.01946610 0.02674350 0.00952500
v -0.02088280 0.02682030 0.00952500
v -0.02053390 0.02674350 0.00952500
v -0.02154570 0.02708440 0.00952500
v -0.02122150 0.02693440 0.00952500
v -0.02239580 0.02773060 0.00952500
v -0.02213640 0.02748490 0.00952500
v -0.01700500 0.03138560 0.00952500
v -0.01814810 0.02726860 0.00952500
v -0.01786360 0.02748490 0.00952500
v -0.01911720 0.02682030 0.00952500
v -0.02017870 0.02670480 0.00952500
v -0.02185190 0.02726860 0.00952500
v -0.01671930 0.02964320 0.00952500
v -0.01687270 0.02894630 0.00952500
v -0.01677720 0.02929060 0.00952500
v -0.01717240 0.02829870 0.00952500
v -0.01700500 0.02861440 0.00952500
v -0.01760420 0.02773060 0.00952500
v -0.02282760 0.02829870 0.00952500
v -0.02322280 0.02929060 0.00952500
v -0.02312730 0.02894630 0.00952500
v -0.02299500 0.03138560 0.00952500
v -0.02312730 0.03105370 0.00952500
v -0.01670000 0.03000000 0.00952500
v -0.01737290 0.02800290 0.00952500
v -0.01877850 0.02693440 0.00952500
v -0.01845430 0.02708440 0.00952500
v -0.02262710 0.02800290 0.00952500
v -0.02299500 0.02861440 0.00952500
v -0.02328070 0.03035680 0.00952500
v -0.02282760 0.03170130 0.00952500
v -0.02262710 0.03199710 0.00952500
v -0.02239580 0.03226940 0.00952500
v -0.02213640 0.03251510 0.00952500
v -0.02330000 0.03000000 0.00952500
v -0.02322280 0.03070940 0.00952500
v -0.02328070 0.02964320 0.00952500
v -0.02330000 0.03000000 0.01107500
v -0.02328070 0.02964320 0.01107500
v -0.02322280 0.02929060 0.01107500
v -0.02312730 0.02894630 0.01107500
v -0.02299500 0.02861440 0.01107500
v -0.02282760 0.02829870 0.01107500
v -0.02262710 0.02800290 0.01107500
v -0.02239580 0.02773060 0.01107500
v -0.02213640 0.02748490 0.01107500
v -0.02185190 0.02726860 0.01107500
v -0.02154570 0.02708440 0.01107500
v -0.02122150 0.02693440 0.01107500
v -0.02088280 0.02682030 0.01107500
v -0.02053390 0.02674350 0.01107500
v -0.02017870 0.02670480 0.01107500
v -0.01982130 0.02670480 0.01107500
v -0.01946610 0.02674350 0.01107500
v -0.01911720 0.02682030 0.01107500
v -0.01877850 0.02693440 0.01107500
v -0.01845430 0.02708440 0.01107500
v -0.01814810 0.02726860 0.01107500
v -0.01786360 0.02748490 0.01107500
v -0.01760420 0.02773060 0.01107500
v -0.01737290 0.02800290 0.01107500
v -0.01717240 0.02829870 0.01107500
v -0.01700500 0.02861440 0.01107500
v -0.01687270 0.02894630 0.01107500
v -0.01677720 0.02929060 0.01107500
v -0.01671930 0.02964320 0.01107500
v -0.01670000 0.03000000 0.01107500
v -0.01671930 0.03035680 0.01107500
v -0.01677720 0.03070940 0.01107500
v -0.01687270 0.03105370 0.01107500
v -0.01700500 0.03138560 0.01107500
v -0.01717240 0.03170130 0.01107500
v -0.01737290 0.03199710 0.01107500
v -0.01760420 0.03226940 0.01107500
v -0.01786360 0.03251510 0.01107500
v -0.01814810 0.03273140 0.01107500
v -0.01845430 0.03291560 0.01107500
v -0.01877850 0.03306560 0.01107500
v -0.01911720 0.03317970 0.01107500
v -0.01946610 0.03325650 0.01107500
v -0.01982130 0.03329520 0.01107500
v -0.02017870 0.03329520 0.01107500
v -0.02053390 0.03325650 0.01107500
v -0.02088280 0.03317970 0.01107500
v -0.02122150 0.03306560 0.01107500
v -0.02154570 0.03291560 0.01107500
v -0.02185190 0.03273140 0.01107500
v -0.02213640 0.03251510 0.01107500
v -0.02239580 0.03226940 0.01107500
v -0.02262710 0.03199710 0.01107500
v -0.02282760 0.03170130 0.01107500
v -0.02299500 0.03138560 0.01107500
v -0.02312730 0.03105370 0.01107500
v -0.02322280 0.03070940 0.01107500
v -0.02328070 0.03035680 0.01107500
f 12 11 89
f 2 1 106
f 4 2 107
f 55 4 108
f 54 55 109
f 53 54 110
f 52 53 111
f 43 52 112
f 44 43 113
f 37 46 82
f 38 37 83
f 35 38 84
f 36 35 85
f 34 36 86
f 45 34 87
f 11 45 88
f 112 113 43
f 111 112 52
f 110 111 53
f 109 110 54
f 108 109 55
f 107 108 4
f 106 107 2
f 105 106 1
f 104 105 3
f 16 8 98
f 14 16 99
f 15 14 100
f 13 15 101
f 6 13 102
f 5 6 103
f 3 5 104
f 96 97 7
f 95 96 17
f 94 95 10
f 93 94 9
f 92 93 18
f 91 92 28
f 90 91 19
f 89 90 12
f 88 89 11
f 57 44 114
f 51 57 115
f 56 51 116
f 116 59 56
f 115 116 51
f 114 115 57
f 113 114 44
f 80 81 39
f 79 80 30
f 78 79 29
f 77 78 48
f 76 77 47
f 75 76 31
f 74 75 21
f 73 74 20
f 72 73 32
f 103 104 5
f 102 103 6
f 101 102 13
f 100 101 15
f 99 100 14
f 98 99 16
f 97 98 8
f 64 65 49
f 63 64 40
f 62 63 50
f 61 62 42
f 60 61 41
f 59 60 58
f 87 88 45
f 86 87 34
f 85 86 36
f 84 85 35
f 83 84 38
f 82 83 37
f 81 82 46
f 20 32 73
f 71 72 23
f 70 71 22
f 69 70 25
f 68 69 24
f 67 68 33
f 66 67 27
f 65 66 26
f 19 12 90
f 28 19 91
f 18 28 92
f 9 18 93
f 10 9 94
f 17 10 95
f 7 17 96
f 8 7 97
f 27 26 66
f 33 27 67
f 24 33 68
f 25 24 69
f 22 25 70
f 23 22 71
f 32 23 72
f 1 3 105
f 21 20 74
f 31 21 75
f 47 31 76
f 48 47 77
f 29 48 78
f 30 29 79
f 39 30 80
f 46 39 81
f 58 56 59
f 41 58 60
f 42 41 61
f 50 42 62
f 40 50 63
f 49 40 64
f 26 49 65
f 89 11 12
f 106 1 2
f 107 2 4
f 108 4 55
f 109 55 54
f 110 54 53
f 111 53 52
f 112 52 43
f 113 43 44
f 82 46 37
f 83 37 38
f 84 38 35
f 85 35 36
f 86 36 34
f 87 34 45
f 88 45 11
f 43 113 112
f 52 112 111
f 53 111 110
f 54 110 109
f 55 109 108
f 4 108 107
f 2 107 106
f 1 106 105
f 3 105 104
f 98 8 16
f 99 16 14
f 100 14 15
f 101 15 13
f 102 13 6
f 103 6 5
f 104 5 3
f 7 97 96
f 17 96 95
f 10 95 94
f 9 94 93
f 18 93 92
f 28 92 91
f 19 91 90
f 12 90 89
f 11 89 88
f 114 44 57
f 115 57 51
f 116 51 56
f 56 59 116
f 51 116 115
f 57 115 114
f 44 114 113
f 39 81 80
f 30 80 79
f 29 79 78
f 48 78 77
f 47 77 76
f 31 76 75
f 21 75 74
f 20 74 73
f 32 73 72
f 5 104 103
f 6 103 102
f 13 102 101
f 15 101 100
f 14 100 99
f 16 99 98
f 8 98 97
f 49 65 64
f 40 64 63
f 50 63 62
f 42 62 61
f 41 61 60
f 58 60 59
f 45 88 87
f 34 87 86
f 36 86 85
f 35 85 84
f 38 84 83
f 37 83 82
f 46 82 81
f 73 32 20
f 23 72 71
f 22 71 70
f 25 70 69
f 24 69 68
f 33 68 67
f 27 67 66
f 26 66 65
f 90 12 19
f 91 19 28
f 92 28 18
f 93 18 9
f 94 9 10
f 95 10 17
f 96 17 7
f 97 7 8
f 66 26 27
f 67 27 33
f 68 33 24
f 69 24 25
f 70 25 22
f 71 22 23
f 72 23 32
f 105 3 1
f 74 20 21
f 75 21 31
f 76 31 47
f 77 47 48
f 78 48 29
f 79 29 30
f 80 30 39
f 81 39 46
f 59 56 58
f 60 58 41
f 61 41 42
f 62 42 50
f 63 50 40
f 64 40 49
f 65 49 26

