# https://github.com/mikedh/trimesh
v -0.02275390 0.03680840 0.00952500
v -0.02197210 0.03710850 0.00952500
v -0.02350000 0.03642820 0.00952500
v -0.02116330 0.03732520 0.00952500
v -0.02033620 0.03745620 0.00952500
v -0.01530000 0.03750000 0.00952500
v -0.01950000 0.03750000 0.00952500
v -0.02750000 0.02950000 0.00952500
v -0.02680840 0.03275390 0.00952500
v -0.02745620 0.03033620 0.00952500
v -0.02732520 0.03116330 0.00952500
v -0.02710850 0.03197210 0.00952500
v -0.02642820 0.03350000 0.00952500
v -0.02597210 0.03420230 0.00952500
v -0.02544520 0.03485300 0.00952500
v -0.02485300 0.03544520 0.00952500
v -0.02420230 0.03597210 0.00952500
v 0.02750000 -0.02030000 0.00952500
v 0.02745620 0.03033620 0.00952500
v 0.02750000 0.02950000 0.00952500
v 0.02680840 0.03275390 0.00952500
v 0.02710850 0.03197210 0.00952500
v 0.02732520 0.03116330 0.00952500
v 0.02642820 0.03350000 0.00952500
v 0.01950000 0.03750000 0.00952500
v 0.02116330 0.03732520 0.00952500
v 0.02197210 0.03710850 0.00952500
v 0.02544520 0.03485300 0.00952500
v 0.02597210 0.03420230 0.00952500
v 0.02275390 0.03680840 0.00952500
v 0.02350000 0.03642820 0.00952500
v 0.02420230 0.03597210 0.00952500
v 0.02033620 0.03745620 0.00952500
v 0.02485300 0.03544520 0.00952500
v 0.02750000 -0.02950000 0.00952500
v 0.02745620 -0.03033620 0.00952500
v 0.02732520 -0.03116330 0.00952500
v 0.02420230 -0.03597210 0.00952500
v 0.02350000 -0.03642820 0.00952500
v 0.02197210 -0.03710850 0.00952500
v 0.02116330 -0.03732520 0.00952500
v 0.02710850 -0.03197210 0.00952500
v 0.02680840 -0.03275390 0.00952500
v 0.02275390 -0.03680840 0.00952500
v 0.02033620 -0.03745620 0.00952500
v 0.02642820 -0.03350000 0.00952500
v 0.01500000 -0.03750000 0.00952500
v 0.02597210 -0.03420230 0.00952500
v 0.02544520 -0.03485300 0.00952500
v 0.01950000 -0.03750000 0.00952500
v 0.02485300 -0.03544520 0.00952500
v -0.02750000 0.02950000 0.01107500
v -0.02745620 0.03033620 0.01107500
v -0.02732520 0.03116330 0.01107500
v -0.02710850 0.03197210 0.01107500
v -0.02680840 0.03275390 0.01107500
v -0.02642820 0.03350000 0.01107500
v -0.02597210 0.03420230 0.01107500
v -0.02544520 0.03485300 0.01107500
v -0.02485300 0.03544520 0.01107500
v -0.02420230 0.03597210 0.01107500
v -0.02365000 0.03633080 0.01107500
v -0.02350000 0.03642820 0.01107500
v -0.02275390 0.03680840 0.01107500
v -0.02197210 0.03710850 0.01107500
v -0.02116330 0.03732520 0.01107500
v -0.02033620 0.03745620 0.01107500
v -0.01950000 0.03750000 0.01107500
v -0.01385000 0.03750000 0.01107500
v 0.01385000 0.03750000 0.01107500
v 0.01950000 0.03750000 0.01107500
v 0.02033620 0.03745620 0.01107500
v 0.02116330 0.03732520 0.01107500
v 0.02197210 0.03710850 0.01107500
v 0.02275390 0.03680840 0.01107500
v 0.02350000 0.03642820 0.01107500
v 0.02365000 0.03633080 0.01107500
v 0.02420230 0.03597210 0.01107500
v 0.02485300 0.03544520 0.01107500
v 0.02544520 0.03485300 0.01107500
v 0.02597210 0.03420230 0.01107500
v 0.02642820 0.03350000 0.01107500
v 0.02680840 0.03275390 0.01107500
v 0.02710850 0.03197210 0.01107500
v 0.02732520 0.03116330 0.01107500
v 0.02745620 0.03033620 0.01107500
v 0.02750000 0.02950000 0.01107500
v 0.02750000 0.02535000 0.01107500
v 0.02750000 -0.02535000 0.01107500
v 0.02750000 -0.02950000 0.01107500
v 0.02745620 -0.03033620 0.01107500
v 0.02732520 -0.03116330 0.01107500
v 0.02710850 -0.03197210 0.01107500
v 0.02680840 -0.03275390 0.01107500
v 0.02642820 -0.03350000 0.01107500
v 0.02597210 -0.03420230 0.01107500
v 0.02544520 -0.03485300 0.01107500
v 0.02485300 -0.03544520 0.01107500
v 0.02429140 -0.03590000 0.01107500
v 0.02420230 -0.03597210 0.01107500
v 0.02365000 -0.03633080 0.01107500
v 0.02350000 -0.03642820 0.01107500
v 0.02275390 -0.03680840 0.01107500
v 0.02197210 -0.03710850 0.01107500
v 0.02116330 -0.03732520 0.01107500
v 0.02033620 -0.03745620 0.01107500
v 0.01950000 -0.03750000 0.01107500
v 0.01500000 -0.03750000 0.01107500
f 103 44 39
f 50 107 108
f 101 102 39
f 99 100 38
f 98 51 49
f 59 15 14
f 96 48 46
f 95 46 43
f 94 43 42
f 93 42 37
f 92 37 36
f 91 36 35
f 51 98 99
f 104 40 44
f 105 41 40
f 106 45 41
f 107 50 45
f 45 106 107
f 41 105 106
f 40 104 105
f 44 103 104
f 39 102 103
f 101 39 38
f 38 100 101
f 99 38 51
f 97 49 48
f 1 64 65
f 8 52 53
f 10 53 54
f 11 54 55
f 12 55 56
f 9 56 57
f 13 57 58
f 14 58 59
f 15 59 60
f 16 60 61
f 17 61 62
f 62 3 17
f 3 63 64
f 108 47 50
f 2 65 66
f 4 66 67
f 5 67 68
f 68 7 5
f 67 5 4
f 66 4 2
f 65 2 1
f 64 1 3
f 62 63 3
f 61 17 16
f 60 16 15
f 26 73 74
f 19 86 87
f 23 85 86
f 22 84 85
f 21 83 84
f 24 82 83
f 29 81 82
f 28 80 81
f 34 79 80
f 32 78 79
f 31 76 77
f 32 31 77
f 30 75 76
f 27 74 75
f 48 96 97
f 33 72 73
f 25 71 72
f 70 71 25
f 6 7 68
f 68 69 6
f 70 25 6
f 6 69 70
f 53 10 8
f 54 11 10
f 55 12 11
f 56 9 12
f 57 13 9
f 58 14 13
f 88 89 18
f 83 21 24
f 82 24 29
f 81 29 28
f 80 28 34
f 79 34 32
f 77 78 32
f 76 31 30
f 75 30 27
f 74 27 26
f 73 26 33
f 72 33 25
f 86 19 23
f 89 35 18
f 18 20 88
f 20 87 88
f 89 90 35
f 35 90 91
f 36 91 92
f 37 92 93
f 42 93 94
f 43 94 95
f 46 95 96
f 49 97 98
f 87 20 19
f 85 23 22
f 84 22 21
f 39 44 103
f 108 107 50
f 39 102 101
f 38 100 99
f 49 51 98
f 14 15 59
f 46 48 96
f 43 46 95
f 42 43 94
f 37 42 93
f 36 37 92
f 35 36 91
f 99 98 51
f 44 40 104
f 40 41 105
f 41 45 106
f 45 50 107
f 107 106 45
f 106 105 41
f 105 104 40
f 104 103 44
f 103 102 39
f 38 39 101
f 101 100 38
f 51 38 99
f 48 49 97
f 65 64 1
f 53 52 8
f 54 53 10
f 55 54 11
f 56 55 12
f 57 56 9
f 58 57 13
f 59 58 14
f 60 59 15
f 61 60 16
f 62 61 17
f 17 3 62
f 64 63 3
f 50 47 108
f 66 65 2
f 67 66 4
f 68 67 5
f 5 7 68
f 4 5 67
f 2 4 66
f 1 2 65
f 3 1 64
f 3 63 62
f 16 17 61
f 15 16 60
f 74 73 26
f 87 86 19
f 86 85 23
f 85 84 22
f 84 83 21
f 83 82 24
f 82 81 29
f 81 80 28
f 80 79 34
f 79 78 32
f 77 76 31
f 77 31 32
f 76 75 30
f 75 74 27
f 97 96 48
f 73 72 33
f 72 71 25
f 25 71 70
f 68 7 6
f 6 69 68
f 6 25 70
f 70 69 6
f 8 10 53
f 10 11 54
f 11 12 55
f 12 9 56
f 9 13 57
f 13 14 58
f 18 89 88
f 24 21 83
f 29 24 82
f 28 29 81
f 34 28 80
f 32 34 79
f 32 78 77
f 30 31 76
f 27 30 75
f 26 27 74
f 33 26 73
f 25 33 72
f 23 19 86
f 18 35 89
f 88 20 18
f 88 87 20
f 35 90 89
f 91 90 35
f 92 91 36
f 93 92 37
f 94 93 42
f 95 94 43
f 96 95 46
f 98 97 49
f 19 20 87
f 22 23 85
f 21 22 84

