# https://github.com/mikedh/trimesh
v -0.01911720 -0.03317970 0.00952500
v -0.01982130 -0.03329520 0.00952500
v -0.01946610 -0.03325650 0.00952500
v -0.02122150 -0.03306560 0.00952500
v -0.02154570 -0.03291560 0.00952500
v -0.02017870 -0.03329520 0.00952500
v -0.02053390 -0.03325650 0.00952500
v -0.02088280 -0.03317970 0.00952500
v -0.02185190 -0.03273140 0.00952500
v -0.02213640 -0.03251510 0.00952500
v -0.02239580 -0.03226940 0.00952500
v -0.01671930 -0.02964320 0.00952500
v -0.01677720 -0.02929060 0.00952500
v -0.01687270 -0.03105370 0.00952500
v -0.01677720 -0.03070940 0.00952500
v -0.02088280 -0.02682030 0.00952500
v -0.02122150 -0.02693440 0.00952500
v -0.01911720 -0.02682030 0.00952500
v -0.01946610 -0.02674350 0.00952500
v -0.01737290 -0.02800290 0.00952500
v -0.01760420 -0.02773060 0.00952500
v -0.01687270 -0.02894630 0.00952500
v -0.01700500 -0.03138560 0.00952500
v -0.01786360 -0.03251510 0.00952500
v -0.01760420 -0.03226940 0.00952500
v -0.01877850 -0.03306560 0.00952500
v -0.01845430 -0.03291560 0.00952500
v -0.02053390 -0.02674350 0.00952500
v -0.02017870 -0.02670480 0.00952500
v -0.01877850 -0.02693440 0.00952500
v -0.01717240 -0.02829870 0.00952500
v -0.01700500 -0.02861440 0.00952500
v -0.01670000 -0.03000000 0.00952500
v -0.01717240 -0.03170130 0.00952500
v -0.01737290 -0.03199710 0.00952500
v -0.01814810 -0.03273140 0.00952500
v -0.02312730 -0.03105370 0.00952500
v -0.01845430 -0.02708440 0.00952500
v -0.01786360 -0.02748490 0.00952500
v -0.01814810 -0.02726860 0.00952500
v -0.01671930 -0.03035680 0.00952500
v -0.02262710 -0.03199710 0.00952500
v -0.02282760 -0.03170130 0.00952500
v -0.02299500 -0.03138560 0.00952500
v -0.02322280 -0.03070940 0.00952500
v -0.02185190 -0.02726860 0.00952500
v -0.02213640 -0.02748490 0.00952500
v -0.01982130 -0.02670480 0.00952500
v -0.02299500 -0.02861440 0.00952500
v -0.02312730 -0.02894630 0.00952500
v -0.02154570 -0.02708440 0.00952500
v -0.02330000 -0.03000000 0.00952500
v -0.02328070 -0.03035680 0.00952500
v -0.02282760 -0.02829870 0.00952500
v -0.02239580 -0.02773060 0.00952500
v -0.02262710 -0.02800290 0.00952500
v -0.02322280 -0.02929060 0.00952500
v -0.02328070 -0.02964320 0.00952500
v -0.02330000 -0.03000000 0.01107500
v -0.02328070 -0.03035680 0.01107500
v -0.02322280 -0.03070940 0.01107500
v -0.02312730 -0.03105370 0.01107500
v -0.02299500 -0.03138560 0.01107500
v -0.02282760 -0.03170130 0.01107500
v -0.02262710 -0.03199710 0.01107500
v -0.02239580 -0.03226940 0.01107500
v -0.02213640 -0.03251510 0.01107500
v -0.02185190 -0.03273140 0.01107500
v -0.02154570 -0.03291560 0.01107500
v -0.02122150 -0.03306560 0.01107500
v -0.02088280 -0.03317970 0.01107500
v -0.02053390 -0.03325650 0.01107500
v -0.02017870 -0.03329520 0.01107500
v -0.01982130 -0.03329520 0.01107500
v -0.01946610 -0.03325650 0.01107500
v -0.01911720 -0.03317970 0.01107500
v -0.01877850 -0.03306560 0.01107500
v -0.01845430 -0.03291560 0.01107500
v -0.01814810 -0.03273140 0.01107500
v -0.01786360 -0.03251510 0.01107500
v -0.01760420 -0.03226940 0.01107500
v -0.01737290 -0.03199710 0.01107500
v -0.01717240 -0.03170130 0.01107500
v -0.01700500 -0.03138560 0.01107500
v -0.01687270 -0.03105370 0.01107500
v -0.01677720 -0.03070940 0.01107500
v -0.01671930 -0.03035680 0.01107500
v -0.01670000 -0.03000000 0.01107500
v -0.01671930 -0.02964320 0.01107500
v -0.01677720 -0.02929060 0.01107500
v -0.01687270 -0.02894630 0.01107500
v -0.01700500 -0.02861440 0.01107500
v -0.01717240 -0.02829870 0.01107500
v -0.01737290 -0.02800290 0.01107500
v -0.01760420 -0.02773060 0.01107500
v -0.01786360 -0.02748490 0.01107500
v -0.01814810 -0.02726860 0.01107500
v -0.01845430 -0.02708440 0.01107500
v -0.01877850 -0.02693440 0.01107500
v -0.01911720 -0.02682030 0.01107500
v -0.01946610 -0.02674350 0.01107500
v -0.01982130 -0.02670480 0.01107500
v -0.02017870 -0.02670480 0.01107500
v -0.02053390 -0.02674350 0.01107500
v -0.02088280 -0.02682030 0.01107500
v -0.02122150 -0.02693440 0.01107500
v -0.02154570 -0.02708440 0.01107500
v -0.02185190 -0.02726860 0.01107500
v -0.02213640 -0.02748490 0.01107500
v -0.02239580 -0.02773060 0.01107500
v -0.02262710 -0.02800290 0.01107500
v -0.02282760 -0.02829870 0.01107500
v -0.02299500 -0.02861440 0.01107500
v -0.02312730 -0.02894630 0.01107500
v -0.02322280 -0.02929060 0.01107500
v -0.02328070 -0.02964320 0.01107500
f 13 12 89
f 12 33 88
f 33 41 87
f 41 15 86
f 15 14 85
f 14 23 84
f 23 34 83
f 34 35 82
f 35 25 81
f 49 54 112
f 54 56 111
f 56 55 110
f 55 47 109
f 47 46 108
f 46 51 107
f 51 17 106
f 96 97 40
f 97 98 38
f 98 99 30
f 99 100 18
f 100 101 19
f 101 102 48
f 102 103 29
f 103 104 28
f 104 105 16
f 105 106 17
f 106 107 51
f 107 108 46
f 108 109 47
f 109 110 55
f 110 111 56
f 111 112 54
f 80 81 25
f 81 82 35
f 82 83 34
f 83 84 23
f 84 85 14
f 85 86 15
f 86 87 41
f 87 88 33
f 88 89 12
f 89 90 13
f 90 91 22
f 91 92 32
f 92 93 31
f 93 94 20
f 94 95 21
f 95 96 39
f 64 65 42
f 65 66 11
f 66 67 10
f 67 68 9
f 68 69 5
f 69 70 4
f 70 71 8
f 71 72 7
f 72 73 6
f 73 74 2
f 74 75 3
f 75 76 1
f 76 77 26
f 77 78 27
f 78 79 36
f 79 80 24
f 60 61 45
f 61 62 37
f 62 63 44
f 63 64 43
f 59 60 53
f 36 27 78
f 24 36 79
f 25 24 80
f 112 113 49
f 57 50 114
f 58 57 115
f 52 58 116
f 116 59 52
f 115 116 58
f 114 115 57
f 113 114 50
f 32 22 91
f 31 32 92
f 6 7 72
f 7 8 71
f 8 4 70
f 4 5 69
f 5 9 68
f 50 49 113
f 9 10 67
f 45 53 60
f 37 45 61
f 44 37 62
f 43 44 63
f 42 43 64
f 11 42 65
f 10 11 66
f 53 52 59
f 22 13 90
f 1 3 75
f 26 1 76
f 27 26 77
f 30 38 98
f 20 31 93
f 21 20 94
f 16 28 104
f 28 29 103
f 48 19 101
f 29 48 102
f 3 2 74
f 17 16 105
f 39 21 95
f 40 39 96
f 38 40 97
f 2 6 73
f 19 18 100
f 18 30 99
f 89 12 13
f 88 33 12
f 87 41 33
f 86 15 41
f 85 14 15
f 84 23 14
f 83 34 23
f 82 35 34
f 81 25 35
f 112 54 49
f 111 56 54
f 110 55 56
f 109 47 55
f 108 46 47
f 107 51 46
f 106 17 51
f 40 97 96
f 38 98 97
f 30 99 98
f 18 100 99
f 19 101 100
f 48 102 101
f 29 103 102
f 28 104 103
f 16 105 104
f 17 106 105
f 51 107 106
f 46 108 107
f 47 109 108
f 55 110 109
f 56 111 110
f 54 112 111
f 25 81 80
f 35 82 81
f 34 83 82
f 23 84 83
f 14 85 84
f 15 86 85
f 41 87 86
f 33 88 87
f 12 89 88
f 13 90 89
f 22 91 90
f 32 92 91
f 31 93 92
f 20 94 93
f 21 95 94
f 39 96 95
f 42 65 64
f 11 66 65
f 10 67 66
f 9 68 67
f 5 69 68
f 4 70 69
f 8 71 70
f 7 72 71
f 6 73 72
f 2 74 73
f 3 75 74
f 1 76 75
f 26 77 76
f 27 78 77
f 36 79 78
f 24 80 79
f 45 61 60
f 37 62 61
f 44 63 62
f 43 64 63
f 53 60 59
f 78 27 36
f 79 36 24
f 80 24 25
f 49 113 112
f 114 50 57
f 115 57 58
f 116 58 52
f 52 59 116
f 58 116 115
f 57 115 114
f 50 114 113
f 91 22 32
f 92 32 31
f 72 7 6
f 71 8 7
f 70 4 8
f 69 5 4
f 68 9 5
f 113 49 50
f 67 10 9
f 60 53 45
f 61 45 37
f 62 37 44
f 63 44 43
f 64 43 42
f 65 42 11
f 66 11 10
f 59 52 53
f 90 13 22
f 75 3 1
f 76 1 26
f 77 26 27
f 98 38 30
f 93 31 20
f 94 20 21
f 104 28 16
f 103 29 28
f 101 19 48
f 102 48 29
f 74 2 3
f 105 16 17
f 95 21 39
f 96 39 40
f 97 40 38
f 73 6 2
f 100 18 19
f 99 30 18

