# https://github.com/mikedh/trimesh
v 0.00388277 0.02368380 0.01287500
v 0.00326800 0.01993390 0.01287500
v 0.00540407 0.01946370 0.01287500
v 0.00129933 0.02396480 0.01287500
v 0.00109361 0.02017040 0.01287500
v 0.00642068 0.02312520 0.01287500
v 0.00747679 0.01876530 0.01287500
v -0.00388277 0.02368380 0.01287500
v -0.00326800 0.01993390 0.01287500
v -0.00109361 0.02017040 0.01287500
v -0.00642068 0.02312520 0.01287500
v -0.00540407 0.01946370 0.01287500
v -0.00129933 0.02396480 0.01287500
v -0.00888332 0.02229540 0.01287500
v -0.00747679 0.01876530 0.01287500
v 0.01346850 0.01986450 0.01287500
v 0.01133600 0.01671930 0.01287500
v 0.01307720 0.01539570 0.01287500
v 0.01124180 0.02120430 0.01287500
v 0.00946185 0.01784690 0.01287500
v -0.02274370 0.00766324 0.01287500
v -0.01914260 0.00644989 0.01287500
v -0.01833300 0.00848176 0.01287500
v -0.02343890 0.00515929 0.01287500
v -0.01972770 0.00434240 0.01287500
v -0.02385930 0.00259486 0.01287500
v -0.02008160 0.00218400 0.01287500
v -0.02400000 0.00000000 0.01287500
v -0.02020000 0.00000000 0.01287500
v -0.02178180 -0.01007730 0.01287500
v -0.01833300 -0.00848176 0.01287500
v -0.01914260 -0.00644989 0.01287500
v -0.02056460 -0.01237330 0.01287500
v -0.01730850 -0.01041420 0.01287500
v -0.01124180 -0.02120430 0.01287500
v -0.00946185 -0.01784690 0.01287500
v -0.01133600 -0.01671930 0.01287500
v -0.00888332 -0.02229540 0.01287500
v -0.00747679 -0.01876530 0.01287500
v 0.02400000 0.00000000 0.01287500
v 0.02385930 0.00259486 0.01287500
v 0.02008160 0.00218400 0.01287500
v 0.02343890 0.00515929 0.01287500
v 0.01972770 0.00434240 0.01287500
v 0.02274370 0.00766324 0.01287500
v 0.01914260 0.00644989 0.01287500
v 0.02178180 0.01007730 0.01287500
v 0.01833300 0.00848176 0.01287500
v 0.02056460 0.01237330 0.01287500
v 0.01730850 0.01041420 0.01287500
v 0.01910620 0.01452420 0.01287500
v 0.01608110 0.01222450 0.01287500
v 0.01742390 0.01650480 0.01287500
v 0.01466510 0.01389150 0.01287500
v 0.01553730 0.01829190 0.01287500
v 0.00888332 0.02229540 0.01287500
v -0.01124180 0.02120430 0.01287500
v -0.00946185 0.01784690 0.01287500
v -0.01742390 0.01650480 0.01287500
v -0.01466510 0.01389150 0.01287500
v -0.01307720 0.01539570 0.01287500
v -0.01910620 0.01452420 0.01287500
v -0.01608110 0.01222450 0.01287500
v -0.02056460 0.01237330 0.01287500
v -0.01730850 0.01041420 0.01287500
v -0.02178180 0.01007730 0.01287500
v -0.02385930 -0.00259486 0.01287500
v -0.02008160 -0.00218400 0.01287500
v -0.02343890 -0.00515929 0.01287500
v -0.01972770 -0.00434240 0.01287500
v -0.01910620 -0.01452420 0.01287500
v -0.01608110 -0.01222450 0.01287500
v -0.01742390 -0.01650480 0.01287500
v -0.01553730 -0.01829190 0.01287500
v -0.01307720 -0.01539570 0.01287500
v -0.01346850 -0.01986450 0.01287500
v -0.00642068 -0.02312520 0.01287500
v -0.00540407 -0.01946370 0.01287500
v -0.01346850 0.01986450 0.01287500
v -0.01133600 0.01671930 0.01287500
v -0.01553730 0.01829190 0.01287500
v -0.02274370 -0.00766324 0.01287500
v -0.01466510 -0.01389150 0.01287500
v -0.00388277 -0.02368380 0.01287500
v -0.00326800 -0.01993390 0.01287500
v -0.00129933 -0.02396480 0.01287500
v -0.00109361 -0.02017040 0.01287500
v 0.00642068 -0.02312520 0.01287500
v 0.00540407 -0.01946370 0.01287500
v 0.00326800 -0.01993390 0.01287500
v 0.00888332 -0.02229540 0.01287500
v 0.00747679 -0.01876530 0.01287500
v 0.01124180 -0.02120430 0.01287500
v 0.00946185 -0.01784690 0.01287500
v 0.01346850 -0.01986450 0.01287500
v 0.01133600 -0.01671930 0.01287500
v 0.01553730 -0.01829190 0.01287500
v 0.01307720 -0.01539570 0.01287500
v 0.01742390 -0.01650480 0.01287500
v 0.01466510 -0.01389150 0.01287500
v 0.02343890 -0.00515929 0.01287500
v 0.01972770 -0.00434240 0.01287500
v 0.01914260 -0.00644989 0.01287500
v 0.02385930 -0.00259486 0.01287500
v 0.02008160 -0.00218400 0.01287500
v 0.00129933 -0.02396480 0.01287500
v 0.00109361 -0.02017040 0.01287500
v 0.00388277 -0.02368380 0.01287500
v 0.01910620 -0.01452420 0.01287500
v 0.01608110 -0.01222450 0.01287500
v 0.02056460 -0.01237330 0.01287500
v 0.01730850 -0.01041420 0.01287500
v 0.02178180 -0.01007730 0.01287500
v 0.01833300 -0.00848176 0.01287500
v 0.02274370 -0.00766324 0.01287500
v 0.02020000 0.00000000 0.01287500
f 1 2 3
f 1 4 5
f 59 60 61
f 18 54 53
f 7 20 19
f 58 15 14
f 79 80 58
f 79 81 61
f 63 60 59
f 23 65 64
f 25 24 26
f 70 68 67
f 88 89 90
f 88 91 92
f 93 94 92
f 95 96 94
f 97 98 96
f 97 99 100
f 101 102 103
f 101 104 105
f 48 47 49
f 58 57 79
f 23 66 21
f 83 72 71
f 85 84 86
f 86 106 107
f 108 90 107
f 92 89 88
f 94 93 95
f 100 98 97
f 99 109 110
f 109 111 112
f 113 114 112
f 113 115 103
f 105 102 101
f 104 40 116
f 18 55 16
f 70 69 82
f 107 87 86
f 90 108 88
f 96 95 97
f 112 110 109
f 103 114 113
f 116 105 104
f 61 81 59
f 107 106 108
f 110 100 99
f 103 115 101
f 37 76 35
f 112 111 113
f 92 91 93
f 42 116 40
f 39 36 35
f 74 76 37
f 73 74 75
f 33 71 72
f 34 31 30
f 67 69 70
f 67 68 29
f 29 27 26
f 22 21 24
f 64 66 23
f 64 65 63
f 59 62 63
f 6 3 7
f 5 2 1
f 8 9 10
f 8 11 12
f 40 41 42
f 41 43 44
f 43 45 46
f 45 47 48
f 49 50 48
f 49 51 52
f 51 53 54
f 53 55 18
f 20 17 16
f 19 56 7
f 10 13 8
f 14 57 58
f 82 32 70
f 72 34 33
f 71 73 83
f 37 75 74
f 78 39 38
f 77 84 85
f 46 44 43
f 54 52 51
f 7 56 6
f 61 80 79
f 63 62 64
f 29 28 67
f 32 82 30
f 75 83 73
f 85 78 77
f 86 87 85
f 3 6 1
f 4 13 10
f 12 9 8
f 11 14 15
f 16 17 18
f 16 19 20
f 10 5 4
f 15 12 11
f 21 22 23
f 24 25 22
f 26 27 25
f 26 28 29
f 30 31 32
f 30 33 34
f 35 36 37
f 35 38 39
f 52 50 49
f 48 46 45
f 44 42 41
f 38 77 78
f 3 2 1
f 5 4 1
f 61 60 59
f 53 54 18
f 19 20 7
f 14 15 58
f 58 80 79
f 61 81 79
f 59 60 63
f 64 65 23
f 26 24 25
f 67 68 70
f 90 89 88
f 92 91 88
f 92 94 93
f 94 96 95
f 96 98 97
f 100 99 97
f 103 102 101
f 105 104 101
f 49 47 48
f 79 57 58
f 21 66 23
f 71 72 83
f 86 84 85
f 107 106 86
f 107 90 108
f 88 89 92
f 95 93 94
f 97 98 100
f 110 109 99
f 112 111 109
f 112 114 113
f 103 115 113
f 101 102 105
f 116 40 104
f 16 55 18
f 82 69 70
f 86 87 107
f 88 108 90
f 97 95 96
f 109 110 112
f 113 114 103
f 104 105 116
f 59 81 61
f 108 106 107
f 99 100 110
f 101 115 103
f 35 76 37
f 113 111 112
f 93 91 92
f 40 116 42
f 35 36 39
f 37 76 74
f 75 74 73
f 72 71 33
f 30 31 34
f 70 69 67
f 29 68 67
f 26 27 29
f 24 21 22
f 23 66 64
f 63 65 64
f 63 62 59
f 7 3 6
f 1 2 5
f 10 9 8
f 12 11 8
f 42 41 40
f 44 43 41
f 46 45 43
f 48 47 45
f 48 50 49
f 52 51 49
f 54 53 51
f 18 55 53
f 16 17 20
f 7 56 19
f 8 13 10
f 58 57 14
f 70 32 82
f 33 34 72
f 83 73 71
f 74 75 37
f 38 39 78
f 85 84 77
f 43 44 46
f 51 52 54
f 6 56 7
f 79 80 61
f 64 62 63
f 67 28 29
f 30 82 32
f 73 83 75
f 77 78 85
f 85 87 86
f 1 6 3
f 10 13 4
f 8 9 12
f 15 14 11
f 18 17 16
f 20 19 16
f 4 5 10
f 11 12 15
f 23 22 21
f 22 25 24
f 25 27 26
f 29 28 26
f 32 31 30
f 34 33 30
f 37 36 35
f 39 38 35
f 49 50 52
f 45 46 48
f 41 42 44
f 78 77 38

