# https://github.com/mikedh/trimesh
v -0.00700000 -0.04150000 0.03605000
v 0.00700000 -0.04150000 0.03605000
v -0.01099410 -0.04150000 0.04026660
v -0.01094730 -0.04150000 0.04069710
v -0.01085420 -0.04150000 0.04112010
v -0.01071590 -0.04150000 0.04153060
v -0.01053400 -0.04150000 0.04192360
v -0.01031080 -0.04150000 0.04229470
v -0.01004860 -0.04150000 0.04263950
v -0.00975080 -0.04150000 0.04295400
v -0.00942070 -0.04150000 0.04323440
v -0.00906222 -0.04150000 0.04347740
v -0.00867956 -0.04150000 0.04368030
v -0.00827721 -0.04150000 0.04384060
v -0.00785988 -0.04150000 0.04395650
v -0.00743248 -0.04150000 0.04402660
v -0.00743248 -0.04150000 0.03607340
v -0.00785988 -0.04150000 0.03614350
v -0.00827721 -0.04150000 0.03625940
v -0.00867956 -0.04150000 0.03641970
v -0.00906222 -0.04150000 0.03662260
v -0.00942070 -0.04150000 0.03686560
v -0.00975080 -0.04150000 0.03714600
v -0.01004860 -0.04150000 0.03746050
v -0.01031080 -0.04150000 0.03780530
v -0.01053400 -0.04150000 0.03817640
v -0.01071590 -0.04150000 0.03856940
v -0.01085420 -0.04150000 0.03897990
v -0.01094730 -0.04150000 0.03940290
v -0.01099410 -0.04150000 0.03983340
v -0.00700000 -0.04150000 0.04405000
v 0.00700000 -0.04150000 0.04405000
v 0.00743248 -0.04150000 0.04402660
v 0.00785988 -0.04150000 0.04395650
v 0.00827721 -0.04150000 0.04384060
v 0.00867956 -0.04150000 0.04368030
v 0.00906222 -0.04150000 0.04347740
v 0.00942070 -0.04150000 0.04323440
v 0.00975080 -0.04150000 0.04295400
v 0.01004860 -0.04150000 0.04263950
v 0.01031080 -0.04150000 0.04229470
v 0.01053400 -0.04150000 0.04192360
v 0.01071590 -0.04150000 0.04153060
v 0.01085420 -0.04150000 0.04112010
v 0.01094730 -0.04150000 0.04069710
v 0.01099410 -0.04150000 0.04026660
v 0.01099410 -0.04150000 0.03983340
v 0.01094730 -0.04150000 0.03940290
v 0.01085420 -0.04150000 0.03897990
v 0.01071590 -0.04150000 0.03856940
v 0.01053400 -0.04150000 0.03817640
v 0.01031080 -0.04150000 0.03780530
v 0.01004860 -0.04150000 0.03746050
v 0.00975080 -0.04150000 0.03714600
v 0.00942070 -0.04150000 0.03686560
v 0.00906222 -0.04150000 0.03662260
v 0.00867956 -0.04150000 0.03641970
v 0.00827721 -0.04150000 0.03625940
v 0.00785988 -0.04150000 0.03614350
v 0.00743248 -0.04150000 0.03607340
v -0.00700000 -0.03950000 0.03805000
v 0.00700000 -0.03950000 0.03805000
v -0.00700000 -0.03950000 0.04205000
v -0.00721624 -0.03950000 0.04203830
v -0.00742994 -0.03950000 0.04200320
v -0.00763860 -0.03950000 0.04194530
v -0.00783978 -0.03950000 0.04186520
v -0.00803111 -0.03950000 0.04176370
v -0.00821035 -0.03950000 0.04164220
v -0.00837540 -0.03950000 0.04150200
v -0.00852432 -0.03950000 0.04134480
v -0.00865538 -0.03950000 0.04117240
v -0.00876702 -0.03950000 0.04098680
v -0.00885795 -0.03950000 0.04079030
v -0.00892710 -0.03950000 0.04058510
v -0.00897365 -0.03950000 0.04037360
v -0.00899707 -0.03950000 0.04015830
v -0.00899707 -0.03950000 0.03994170
v -0.00897365 -0.03950000 0.03972640
v -0.00892710 -0.03950000 0.03951490
v -0.00885795 -0.03950000 0.03930970
v -0.00876702 -0.03950000 0.03911320
v -0.00865538 -0.03950000 0.03892760
v -0.00852432 -0.03950000 0.03875520
v -0.00837540 -0.03950000 0.03859800
v -0.00821035 -0.03950000 0.03845780
v -0.00803111 -0.03950000 0.03833630
v -0.00783978 -0.03950000 0.03823480
v -0.00763860 -0.03950000 0.03815470
v -0.00742994 -0.03950000 0.03809680
v -0.00721624 -0.03950000 0.03806170
v 0.00721624 -0.03950000 0.03806170
v 0.00742994 -0.03950000 0.03809680
v 0.00763860 -0.03950000 0.03815470
v 0.00783978 -0.03950000 0.03823480
v 0.00803111 -0.03950000 0.03833630
v 0.00821035 -0.03950000 0.03845780
v 0.00837540 -0.03950000 0.03859800
v 0.00852432 -0.03950000 0.03875520
v 0.00865538 -0.03950000 0.03892760
v 0.00876702 -0.03950000 0.03911320
v 0.00885795 -0.03950000 0.03930970
v 0.00892710 -0.03950000 0.03951490
v 0.00897365 -0.03950000 0.03972640
v 0.00899707 -0.03950000 0.03994170
v 0.00899707 -0.03950000 0.04015830
v 0.00897365 -0.03950000 0.04037360
v 0.00892710 -0.03950000 0.04058510
v 0.00885795 -0.03950000 0.04079030
v 0.00876702 -0.03950000 0.04098680
v 0.00865538 -0.03950000 0.04117240
v 0.00852432 -0.03950000 0.04134480
v 0.00837540 -0.03950000 0.04150200
v 0.00821035 -0.03950000 0.04164220
v 0.00803111 -0.03950000 0.04176370
v 0.00783978 -0.03950000 0.04186520
v 0.00763860 -0.03950000 0.04194530
v 0.00742994 -0.03950000 0.04200320
v 0.00721624 -0.03950000 0.04203830
v 0.00700000 -0.03950000 0.04205000
f 14 66 67
f 5 75 76
f 4 76 77
f 3 77 78
f 30 78 79
f 29 79 80
f 28 80 81
f 27 81 82
f 26 82 83
f 17 91 61
f 61 1 17
f 91 17 18
f 120 63 31
f 31 32 120
f 107 45 46
f 106 46 47
f 105 47 48
f 104 48 49
f 103 49 50
f 102 50 51
f 101 51 52
f 100 52 53
f 90 18 19
f 89 19 20
f 88 20 21
f 87 21 22
f 86 22 23
f 13 67 68
f 12 68 69
f 11 69 70
f 10 70 71
f 9 71 72
f 8 72 73
f 7 73 74
f 6 74 75
f 77 3 4
f 76 4 5
f 75 5 6
f 74 6 7
f 73 7 8
f 72 8 9
f 71 9 10
f 70 10 11
f 25 83 84
f 24 84 85
f 23 85 86
f 22 86 87
f 21 87 88
f 20 88 89
f 19 89 90
f 18 90 91
f 59 93 94
f 58 94 95
f 57 95 96
f 56 96 97
f 55 97 98
f 54 98 99
f 53 99 100
f 52 100 101
f 85 23 24
f 84 24 25
f 83 25 26
f 82 26 27
f 81 27 28
f 80 28 29
f 79 29 30
f 78 30 3
f 43 109 110
f 42 110 111
f 41 111 112
f 40 112 113
f 39 113 114
f 38 114 115
f 37 115 116
f 36 116 117
f 69 11 12
f 68 12 13
f 67 13 14
f 66 14 15
f 65 15 16
f 64 16 31
f 2 62 92
f 60 92 93
f 115 37 38
f 114 38 39
f 113 39 40
f 112 40 41
f 111 41 42
f 110 42 43
f 109 43 44
f 108 44 45
f 51 101 102
f 50 102 103
f 49 103 104
f 48 104 105
f 47 105 106
f 46 106 107
f 45 107 108
f 44 108 109
f 99 53 54
f 98 54 55
f 97 55 56
f 96 56 57
f 95 57 58
f 94 58 59
f 93 59 60
f 92 60 2
f 35 117 118
f 34 118 119
f 33 119 120
f 120 32 33
f 119 33 34
f 118 34 35
f 117 35 36
f 116 36 37
f 61 62 2
f 2 1 61
f 31 63 64
f 16 64 65
f 15 65 66
f 67 66 14
f 76 75 5
f 77 76 4
f 78 77 3
f 79 78 30
f 80 79 29
f 81 80 28
f 82 81 27
f 83 82 26
f 61 91 17
f 17 1 61
f 18 17 91
f 31 63 120
f 120 32 31
f 46 45 107
f 47 46 106
f 48 47 105
f 49 48 104
f 50 49 103
f 51 50 102
f 52 51 101
f 53 52 100
f 19 18 90
f 20 19 89
f 21 20 88
f 22 21 87
f 23 22 86
f 68 67 13
f 69 68 12
f 70 69 11
f 71 70 10
f 72 71 9
f 73 72 8
f 74 73 7
f 75 74 6
f 4 3 77
f 5 4 76
f 6 5 75
f 7 6 74
f 8 7 73
f 9 8 72
f 10 9 71
f 11 10 70
f 84 83 25
f 85 84 24
f 86 85 23
f 87 86 22
f 88 87 21
f 89 88 20
f 90 89 19
f 91 90 18
f 94 93 59
f 95 94 58
f 96 95 57
f 97 96 56
f 98 97 55
f 99 98 54
f 100 99 53
f 101 100 52
f 24 23 85
f 25 24 84
f 26 25 83
f 27 26 82
f 28 27 81
f 29 28 80
f 30 29 79
f 3 30 78
f 110 109 43
f 111 110 42
f 112 111 41
f 113 112 40
f 114 113 39
f 115 114 38
f 116 115 37
f 117 116 36
f 12 11 69
f 13 12 68
f 14 13 67
f 15 14 66
f 16 15 65
f 31 16 64
f 92 62 2
f 93 92 60
f 38 37 115
f 39 38 114
f 40 39 113
f 41 40 112
f 42 41 111
f 43 42 110
f 44 43 109
f 45 44 108
f 102 101 51
f 103 102 50
f 104 103 49
f 105 104 48
f 106 105 47
f 107 106 46
f 108 107 45
f 109 108 44
f 54 53 99
f 55 54 98
f 56 55 97
f 57 56 96
f 58 57 95
f 59 58 94
f 60 59 93
f 2 60 92
f 118 117 35
f 119 118 34
f 120 119 33
f 33 32 120
f 34 33 119
f 35 34 118
f 36 35 117
f 37 36 116
f 2 62 61
f 61 1 2
f 64 63 31
f 65 64 16
f 66 65 15

