# https://github.com/mikedh/trimesh
v 0.01191030 0.00716620 0.01107500
v 0.01106570 0.00841192 0.01107500
v 0.01317240 0.00443829 0.01107500
v 0.01357500 0.00298809 0.01107500
v 0.01261530 0.00583646 0.01107500
v 0.01009130 0.00955902 0.01107500
v -0.00514492 -0.01291280 0.01107500
v -0.00651088 -0.01228080 0.01107500
v -0.00371864 -0.01339330 0.01107500
v 0.00224877 -0.01371690 0.01107500
v 0.00371864 -0.01339330 0.01107500
v -0.01191030 -0.00716620 0.01107500
v -0.01261530 -0.00583646 0.01107500
v -0.01106570 -0.00841192 0.01107500
v -0.00780050 -0.01150490 0.01107500
v -0.00224877 -0.01371690 0.01107500
v -0.00075253 -0.01387960 0.01107500
v 0.00075253 -0.01387960 0.01107500
v 0.00899867 0.01059410 0.01107500
v 0.00780050 0.01150490 0.01107500
v 0.00651088 0.01228080 0.01107500
v -0.01317240 -0.00443829 0.01107500
v 0.00514492 -0.01291280 0.01107500
v 0.01381850 0.00150285 0.01107500
v 0.00371864 0.01339330 0.01107500
v 0.00514492 0.01291280 0.01107500
v 0.00224877 0.01371690 0.01107500
v -0.01381850 -0.00150285 0.01107500
v -0.01390000 0.00000000 0.01107500
v -0.01357500 -0.00298809 0.01107500
v -0.01009130 -0.00955902 0.01107500
v -0.00899867 -0.01059410 0.01107500
v 0.00651088 -0.01228080 0.01107500
v 0.00780050 -0.01150490 0.01107500
v 0.00075253 0.01387960 0.01107500
v -0.00075253 0.01387960 0.01107500
v -0.00224877 0.01371690 0.01107500
v -0.00371864 0.01339330 0.01107500
v -0.00514492 0.01291280 0.01107500
v -0.00651088 0.01228080 0.01107500
v 0.00899867 -0.01059410 0.01107500
v 0.01009130 -0.00955902 0.01107500
v 0.01106570 -0.00841192 0.01107500
v 0.01191030 -0.00716620 0.01107500
v 0.01261530 -0.00583646 0.01107500
v 0.01317240 -0.00443829 0.01107500
v -0.00780050 0.01150490 0.01107500
v -0.01261530 0.00583646 0.01107500
v -0.01191030 0.00716620 0.01107500
v -0.01317240 0.00443829 0.01107500
v -0.01381850 0.00150285 0.01107500
v -0.01357500 0.00298809 0.01107500
v 0.01357500 -0.00298809 0.01107500
v 0.01381850 -0.00150285 0.01107500
v -0.00899867 0.01059410 0.01107500
v -0.01009130 0.00955902 0.01107500
v -0.01106570 0.00841192 0.01107500
v 0.01390000 0.00000000 0.01107500
v -0.01381850 -0.00150285 0.00952500
v -0.01390000 0.00000000 0.00952500
v -0.01357500 -0.00298809 0.00952500
v -0.01317240 -0.00443829 0.00952500
v -0.01261530 -0.00583646 0.00952500
v -0.01191030 -0.00716620 0.00952500
v -0.01106570 -0.00841192 0.00952500
v -0.01009130 -0.00955902 0.00952500
v -0.00899867 -0.01059410 0.00952500
v -0.00780050 -0.01150490 0.00952500
v -0.00651088 -0.01228080 0.00952500
v -0.00514492 -0.01291280 0.00952500
v -0.00371864 -0.01339330 0.00952500
v -0.00224877 -0.01371690 0.00952500
v -0.00075253 -0.01387960 0.00952500
v 0.00075253 -0.01387960 0.00952500
v 0.00224877 -0.01371690 0.00952500
v 0.00371864 -0.01339330 0.00952500
v 0.00514492 -0.01291280 0.00952500
v 0.00651088 -0.01228080 0.00952500
v 0.00780050 -0.01150490 0.00952500
v 0.00899867 -0.01059410 0.00952500
v 0.01009130 -0.00955902 0.00952500
v 0.01106570 -0.00841192 0.00952500
v 0.01191030 -0.00716620 0.00952500
v 0.01261530 -0.00583646 0.00952500
v 0.01317240 -0.00443829 0.00952500
v 0.01357500 -0.00298809 0.00952500
v 0.01381850 -0.00150285 0.00952500
v 0.01390000 0.00000000 0.00952500
v 0.01381850 0.00150285 0.00952500
v 0.01357500 0.00298809 0.00952500
v 0.01317240 0.00443829 0.00952500
v 0.01261530 0.00583646 0.00952500
v 0.01191030 0.00716620 0.00952500
v 0.01106570 0.00841192 0.00952500
v 0.01009130 0.00955902 0.00952500
v 0.00899867 0.01059410 0.00952500
v 0.00780050 0.01150490 0.00952500
v 0.00651088 0.01228080 0.00952500
v 0.00514492 0.01291280 0.00952500
v 0.00371864 0.01339330 0.00952500
v 0.00224877 0.01371690 0.00952500
v 0.00075253 0.01387960 0.00952500
v -0.00075253 0.01387960 0.00952500
v -0.00224877 0.01371690 0.00952500
v -0.00371864 0.01339330 0.00952500
v -0.00514492 0.01291280 0.00952500
v -0.00651088 0.01228080 0.00952500
v -0.00780050 0.01150490 0.00952500
v -0.00899867 0.01059410 0.00952500
v -0.01009130 0.00955902 0.00952500
v -0.01106570 0.00841192 0.00952500
v -0.01191030 0.00716620 0.00952500
v -0.01261530 0.00583646 0.00952500
v -0.01317240 0.00443829 0.00952500
v -0.01357500 0.00298809 0.00952500
v -0.01381850 0.00150285 0.00952500
f 59 60 29
f 61 59 28
f 62 61 30
f 63 62 22
f 75 74 18
f 74 73 17
f 73 72 16
f 72 71 9
f 68 67 32
f 69 68 15
f 70 69 8
f 71 70 7
f 83 82 43
f 82 81 42
f 81 80 41
f 80 79 34
f 111 110 56
f 110 109 55
f 109 108 47
f 108 107 40
f 107 106 39
f 106 105 38
f 105 104 37
f 104 103 36
f 103 102 35
f 102 101 27
f 101 100 25
f 100 99 26
f 67 66 31
f 66 65 14
f 65 64 12
f 64 63 13
f 95 94 2
f 94 93 1
f 93 92 5
f 92 91 3
f 91 90 4
f 90 89 24
f 89 88 58
f 88 87 54
f 87 86 53
f 86 85 46
f 85 84 45
f 84 83 44
f 76 75 10
f 77 76 11
f 78 77 23
f 79 78 33
f 116 115 52
f 60 116 51
f 51 29 60
f 52 51 116
f 56 57 111
f 55 56 110
f 47 55 109
f 40 47 108
f 50 52 115
f 48 50 114
f 49 48 113
f 57 49 112
f 35 36 103
f 27 35 102
f 25 27 101
f 26 25 100
f 21 26 99
f 20 21 98
f 19 20 97
f 6 19 96
f 2 6 95
f 1 2 94
f 5 1 93
f 3 5 92
f 96 95 6
f 97 96 19
f 98 97 20
f 99 98 21
f 54 58 88
f 58 24 89
f 24 4 90
f 4 3 91
f 29 28 59
f 28 30 61
f 30 22 62
f 22 13 63
f 13 12 64
f 12 14 65
f 14 31 66
f 31 32 67
f 32 15 68
f 15 8 69
f 8 7 70
f 7 9 71
f 36 37 104
f 37 38 105
f 38 39 106
f 39 40 107
f 10 11 76
f 11 23 77
f 23 33 78
f 33 34 79
f 34 41 80
f 41 42 81
f 42 43 82
f 43 44 83
f 44 45 84
f 45 46 85
f 46 53 86
f 53 54 87
f 115 114 50
f 114 113 48
f 113 112 49
f 112 111 57
f 9 16 72
f 16 17 73
f 17 18 74
f 18 10 75
f 29 60 59
f 28 59 61
f 30 61 62
f 22 62 63
f 18 74 75
f 17 73 74
f 16 72 73
f 9 71 72
f 32 67 68
f 15 68 69
f 8 69 70
f 7 70 71
f 43 82 83
f 42 81 82
f 41 80 81
f 34 79 80
f 56 110 111
f 55 109 110
f 47 108 109
f 40 107 108
f 39 106 107
f 38 105 106
f 37 104 105
f 36 103 104
f 35 102 103
f 27 101 102
f 25 100 101
f 26 99 100
f 31 66 67
f 14 65 66
f 12 64 65
f 13 63 64
f 2 94 95
f 1 93 94
f 5 92 93
f 3 91 92
f 4 90 91
f 24 89 90
f 58 88 89
f 54 87 88
f 53 86 87
f 46 85 86
f 45 84 85
f 44 83 84
f 10 75 76
f 11 76 77
f 23 77 78
f 33 78 79
f 52 115 116
f 51 116 60
f 60 29 51
f 116 51 52
f 111 57 56
f 110 56 55
f 109 55 47
f 108 47 40
f 115 52 50
f 114 50 48
f 113 48 49
f 112 49 57
f 103 36 35
f 102 35 27
f 101 27 25
f 100 25 26
f 99 26 21
f 98 21 20
f 97 20 19
f 96 19 6
f 95 6 2
f 94 2 1
f 93 1 5
f 92 5 3
f 6 95 96
f 19 96 97
f 20 97 98
f 21 98 99
f 88 58 54
f 89 24 58
f 90 4 24
f 91 3 4
f 59 28 29
f 61 30 28
f 62 22 30
f 63 13 22
f 64 12 13
f 65 14 12
f 66 31 14
f 67 32 31
f 68 15 32
f 69 8 15
f 70 7 8
f 71 9 7
f 104 37 36
f 105 38 37
f 106 39 38
f 107 40 39
f 76 11 10
f 77 23 11
f 78 33 23
f 79 34 33
f 80 41 34
f 81 42 41
f 82 43 42
f 83 44 43
f 84 45 44
f 85 46 45
f 86 53 46
f 87 54 53
f 50 114 115
f 48 113 114
f 49 112 113
f 57 111 112
f 72 16 9
f 73 17 16
f 74 18 17
f 75 10 18

