# https://github.com/mikedh/trimesh
v -0.02008160 -0.00218400 0.01107500
v -0.02020000 0.00000000 0.01107500
v -0.01972770 -0.00434240 0.01107500
v -0.01914260 -0.00644989 0.01107500
v -0.01833300 -0.00848176 0.01107500
v -0.01730850 -0.01041420 0.01107500
v -0.01608110 -0.01222450 0.01107500
v -0.01466510 -0.01389150 0.01107500
v -0.01307720 -0.01539570 0.01107500
v -0.01133600 -0.01671930 0.01107500
v -0.00946185 -0.01784690 0.01107500
v -0.00747679 -0.01876530 0.01107500
v -0.00540407 -0.01946370 0.01107500
v -0.00326800 -0.01993390 0.01107500
v -0.00109361 -0.02017040 0.01107500
v 0.00109361 -0.02017040 0.01107500
v 0.00326800 -0.01993390 0.01107500
v 0.00540407 -0.01946370 0.01107500
v 0.00747679 -0.01876530 0.01107500
v 0.00946185 -0.01784690 0.01107500
v 0.01133600 -0.01671930 0.01107500
v 0.01307720 -0.01539570 0.01107500
v 0.01466510 -0.01389150 0.01107500
v 0.01608110 -0.01222450 0.01107500
v 0.01730850 -0.01041420 0.01107500
v 0.01833300 -0.00848176 0.01107500
v 0.01914260 -0.00644989 0.01107500
v 0.01972770 -0.00434240 0.01107500
v 0.02008160 -0.00218400 0.01107500
v 0.02020000 0.00000000 0.01107500
v 0.02008160 0.00218400 0.01107500
v 0.01972770 0.00434240 0.01107500
v 0.01914260 0.00644989 0.01107500
v 0.01833300 0.00848176 0.01107500
v 0.01730850 0.01041420 0.01107500
v 0.01608110 0.01222450 0.01107500
v 0.01466510 0.01389150 0.01107500
v 0.01307720 0.01539570 0.01107500
v 0.01133600 0.01671930 0.01107500
v 0.00946185 0.01784690 0.01107500
v 0.00747679 0.01876530 0.01107500
v 0.00540407 0.01946370 0.01107500
v 0.00326800 0.01993390 0.01107500
v 0.00109361 0.02017040 0.01107500
v -0.00109361 0.02017040 0.01107500
v -0.00326800 0.01993390 0.01107500
v -0.00540407 0.01946370 0.01107500
v -0.00747679 0.01876530 0.01107500
v -0.00946185 0.01784690 0.01107500
v -0.01133600 0.01671930 0.01107500
v -0.01307720 0.01539570 0.01107500
v -0.01466510 0.01389150 0.01107500
v -0.01608110 0.01222450 0.01107500
v -0.01730850 0.01041420 0.01107500
v -0.01833300 0.00848176 0.01107500
v -0.01914260 0.00644989 0.01107500
v -0.01972770 0.00434240 0.01107500
v -0.02008160 0.00218400 0.01107500
v 0.01191030 0.00716620 0.01107500
v 0.01106570 0.00841192 0.01107500
v 0.01317240 0.00443829 0.01107500
v 0.01357500 0.00298809 0.01107500
v 0.01261530 0.00583646 0.01107500
v 0.01009130 0.00955902 0.01107500
v -0.00514492 -0.01291280 0.01107500
v -0.00651088 -0.01228080 0.01107500
v -0.00371864 -0.01339330 0.01107500
v 0.00224877 -0.01371690 0.01107500
v 0.00371864 -0.01339330 0.01107500
v -0.01191030 -0.00716620 0.01107500
v -0.01261530 -0.00583646 0.01107500
v -0.01106570 -0.00841192 0.01107500
v -0.00780050 -0.01150490 0.01107500
v -0.00224877 -0.01371690 0.01107500
v -0.00075253 -0.01387960 0.01107500
v 0.00075253 -0.01387960 0.01107500
v 0.00899867 0.01059410 0.01107500
v 0.00780050 0.01150490 0.01107500
v 0.00651088 0.01228080 0.01107500
v -0.01317240 -0.00443829 0.01107500
v 0.00514492 -0.01291280 0.01107500
v 0.01381850 0.00150285 0.01107500
v 0.00371864 0.01339330 0.01107500
v 0.00514492 0.01291280 0.01107500
v 0.00224877 0.01371690 0.01107500
v -0.01381850 -0.00150285 0.01107500
v -0.01390000 0.00000000 0.01107500
v -0.01357500 -0.00298809 0.01107500
v -0.01009130 -0.00955902 0.01107500
v -0.00899867 -0.01059410 0.01107500
v 0.00651088 -0.01228080 0.01107500
v 0.00780050 -0.01150490 0.01107500
v 0.00075253 0.01387960 0.01107500
v -0.00075253 0.01387960 0.01107500
v -0.00224877 0.01371690 0.01107500
v -0.00371864 0.01339330 0.01107500
v -0.00514492 0.01291280 0.01107500
v -0.00651088 0.01228080 0.01107500
v 0.00899867 -0.01059410 0.01107500
v 0.01009130 -0.00955902 0.01107500
v 0.01106570 -0.00841192 0.01107500
v 0.01191030 -0.00716620 0.01107500
v 0.01261530 -0.00583646 0.01107500
v 0.01317240 -0.00443829 0.01107500
v -0.00780050 0.01150490 0.01107500
v -0.01261530 0.00583646 0.01107500
v -0.01191030 0.00716620 0.01107500
v -0.01317240 0.00443829 0.01107500
v -0.01381850 0.00150285 0.01107500
v -0.01357500 0.00298809 0.01107500
v 0.01357500 -0.00298809 0.01107500
v 0.01381850 -0.00150285 0.01107500
v -0.00899867 0.01059410 0.01107500
v -0.01009130 0.00955902 0.01107500
v -0.01106570 0.00841192 0.01107500
v 0.01390000 0.00000000 0.01107500
f 20 91 81
f 20 21 92
f 62 82 31
f 77 38 39
f 41 84 79
f 85 83 42
f 44 93 85
f 45 94 93
f 46 95 94
f 46 47 96
f 48 97 96
f 48 49 98
f 5 71 80
f 70 6 7
f 66 11 12
f 75 74 14
f 76 75 15
f 92 91 20
f 22 99 92
f 22 23 100
f 24 101 100
f 24 25 102
f 25 26 103
f 26 27 104
f 62 32 33
f 84 41 42
f 93 44 45
f 96 95 46
f 9 90 89
f 9 10 73
f 67 13 14
f 69 18 19
f 58 109 110
f 58 2 87
f 80 88 3
f 89 8 9
f 81 19 20
f 100 99 22
f 102 101 24
f 104 103 26
f 28 111 104
f 28 29 112
f 79 40 41
f 94 45 46
f 88 86 1
f 3 4 80
f 72 7 8
f 73 90 9
f 54 107 115
f 108 106 55
f 57 110 108
f 87 109 58
f 80 4 5
f 92 21 22
f 103 102 25
f 112 111 28
f 85 43 44
f 113 105 50
f 115 114 52
f 107 54 55
f 98 97 48
f 49 50 105
f 55 106 107
f 55 56 108
f 96 47 48
f 115 53 54
f 87 2 1
f 116 112 29
f 113 51 52
f 100 23 24
f 108 56 57
f 82 116 30
f 52 53 115
f 52 114 113
f 50 51 113
f 105 98 49
f 29 30 116
f 104 27 28
f 73 10 11
f 110 57 58
f 67 65 12
f 11 66 73
f 7 72 70
f 6 70 71
f 68 17 18
f 15 16 76
f 14 15 75
f 14 74 67
f 59 63 34
f 37 38 77
f 39 78 77
f 39 40 79
f 68 76 16
f 19 81 69
f 30 31 82
f 31 32 62
f 60 59 35
f 36 37 64
f 12 65 66
f 12 13 67
f 77 64 37
f 79 78 39
f 42 83 84
f 42 43 85
f 1 86 87
f 1 3 88
f 71 5 6
f 8 89 72
f 16 17 68
f 18 69 68
f 63 61 33
f 64 60 36
f 33 34 63
f 33 61 62
f 35 36 60
f 34 35 59
f 81 91 20
f 92 21 20
f 31 82 62
f 39 38 77
f 79 84 41
f 42 83 85
f 85 93 44
f 93 94 45
f 94 95 46
f 96 47 46
f 96 97 48
f 98 49 48
f 80 71 5
f 7 6 70
f 12 11 66
f 14 74 75
f 15 75 76
f 20 91 92
f 92 99 22
f 100 23 22
f 100 101 24
f 102 25 24
f 103 26 25
f 104 27 26
f 33 32 62
f 42 41 84
f 45 44 93
f 46 95 96
f 89 90 9
f 73 10 9
f 14 13 67
f 19 18 69
f 110 109 58
f 87 2 58
f 3 88 80
f 9 8 89
f 20 19 81
f 22 99 100
f 24 101 102
f 26 103 104
f 104 111 28
f 112 29 28
f 41 40 79
f 46 45 94
f 1 86 88
f 80 4 3
f 8 7 72
f 9 90 73
f 115 107 54
f 55 106 108
f 108 110 57
f 58 109 87
f 5 4 80
f 22 21 92
f 25 102 103
f 28 111 112
f 44 43 85
f 50 105 113
f 52 114 115
f 55 54 107
f 48 97 98
f 105 50 49
f 107 106 55
f 108 56 55
f 48 47 96
f 54 53 115
f 1 2 87
f 29 112 116
f 52 51 113
f 24 23 100
f 57 56 108
f 30 116 82
f 115 53 52
f 113 114 52
f 113 51 50
f 49 98 105
f 116 30 29
f 28 27 104
f 11 10 73
f 58 57 110
f 12 65 67
f 73 66 11
f 70 72 7
f 71 70 6
f 18 17 68
f 76 16 15
f 75 15 14
f 67 74 14
f 34 63 59
f 77 38 37
f 77 78 39
f 79 40 39
f 16 76 68
f 69 81 19
f 82 31 30
f 62 32 31
f 35 59 60
f 64 37 36
f 66 65 12
f 67 13 12
f 37 64 77
f 39 78 79
f 84 83 42
f 85 43 42
f 87 86 1
f 88 3 1
f 6 5 71
f 72 89 8
f 68 17 16
f 68 69 18
f 33 61 63
f 36 60 64
f 63 34 33
f 62 61 33
f 60 36 35
f 59 35 34

