# https://github.com/mikedh/trimesh
v -0.00700000 -0.03950000 0.03805000
v 0.00700000 -0.03950000 0.03805000
v -0.00700000 -0.03950000 0.04205000
v -0.00721624 -0.03950000 0.04203830
v -0.00742994 -0.03950000 0.04200320
v -0.00763860 -0.03950000 0.04194530
v -0.00783978 -0.03950000 0.04186520
v -0.00803111 -0.03950000 0.04176370
v -0.00821035 -0.03950000 0.04164220
v -0.00837540 -0.03950000 0.04150200
v -0.00852432 -0.03950000 0.04134480
v -0.00865538 -0.03950000 0.04117240
v -0.00876702 -0.03950000 0.04098680
v -0.00885795 -0.03950000 0.04079030
v -0.00892710 -0.03950000 0.04058510
v -0.00897365 -0.03950000 0.04037360
v -0.00899707 -0.03950000 0.04015830
v -0.00899707 -0.03950000 0.03994170
v -0.00897365 -0.03950000 0.03972640
v -0.00892710 -0.03950000 0.03951490
v -0.00885795 -0.03950000 0.03930970
v -0.00876702 -0.03950000 0.03911320
v -0.00865538 -0.03950000 0.03892760
v -0.00852432 -0.03950000 0.03875520
v -0.00837540 -0.03950000 0.03859800
v -0.00821035 -0.03950000 0.03845780
v -0.00803111 -0.03950000 0.03833630
v -0.00783978 -0.03950000 0.03823480
v -0.00763860 -0.03950000 0.03815470
v -0.00742994 -0.03950000 0.03809680
v -0.00721624 -0.03950000 0.03806170
v 0.00721624 -0.03950000 0.03806170
v 0.00742994 -0.03950000 0.03809680
v 0.00763860 -0.03950000 0.03815470
v 0.00783978 -0.03950000 0.03823480
v 0.00803111 -0.03950000 0.03833630
v 0.00821035 -0.03950000 0.03845780
v 0.00837540 -0.03950000 0.03859800
v 0.00852432 -0.03950000 0.03875520
v 0.00865538 -0.03950000 0.03892760
v 0.00876702 -0.03950000 0.03911320
v 0.00885795 -0.03950000 0.03930970
v 0.00892710 -0.03950000 0.03951490
v 0.00897365 -0.03950000 0.03972640
v 0.00899707 -0.03950000 0.03994170
v 0.00899707 -0.03950000 0.04015830
v 0.00897365 -0.03950000 0.04037360
v 0.00892710 -0.03950000 0.04058510
v 0.00885795 -0.03950000 0.04079030
v 0.00876702 -0.03950000 0.04098680
v 0.00865538 -0.03950000 0.04117240
v 0.00852432 -0.03950000 0.04134480
v 0.00837540 -0.03950000 0.04150200
v 0.00821035 -0.03950000 0.04164220
v 0.00803111 -0.03950000 0.04176370
v 0.00783978 -0.03950000 0.04186520
v 0.00763860 -0.03950000 0.04194530
v 0.00742994 -0.03950000 0.04200320
v 0.00721624 -0.03950000 0.04203830
v 0.00700000 -0.03950000 0.04205000
f 13 12 24
f 23 22 14
f 41 50 49
f 14 21 20
f 14 18 17
f 14 24 23
f 52 39 38
f 51 50 39
f 36 55 54
f 2 1 3
f 9 8 27
f 4 3 1
f 11 27 26
f 60 33 32
f 40 39 50
f 54 53 36
f 36 57 56
f 43 46 45
f 43 48 47
f 48 43 42
f 47 46 43
f 17 16 15
f 45 44 43
f 58 57 36
f 1 5 4
f 27 11 10
f 50 41 40
f 49 48 41
f 14 19 18
f 14 22 21
f 52 38 37
f 36 60 59
f 24 14 13
f 39 52 51
f 42 41 48
f 20 19 14
f 56 55 36
f 59 58 36
f 27 10 9
f 15 14 17
f 60 36 35
f 60 34 33
f 8 1 31
f 30 29 8
f 7 6 1
f 3 60 2
f 37 36 52
f 1 6 5
f 32 2 60
f 28 27 8
f 1 8 7
f 12 11 24
f 26 25 11
f 8 29 28
f 31 30 8
f 35 34 60
f 25 24 11
f 53 52 36
f 24 12 13
f 14 22 23
f 49 50 41
f 20 21 14
f 17 18 14
f 23 24 14
f 38 39 52
f 39 50 51
f 54 55 36
f 3 1 2
f 27 8 9
f 1 3 4
f 26 27 11
f 32 33 60
f 50 39 40
f 36 53 54
f 56 57 36
f 45 46 43
f 47 48 43
f 42 43 48
f 43 46 47
f 15 16 17
f 43 44 45
f 36 57 58
f 4 5 1
f 10 11 27
f 40 41 50
f 41 48 49
f 18 19 14
f 21 22 14
f 37 38 52
f 59 60 36
f 13 14 24
f 51 52 39
f 48 41 42
f 14 19 20
f 36 55 56
f 36 58 59
f 9 10 27
f 17 14 15
f 35 36 60
f 33 34 60
f 31 1 8
f 8 29 30
f 1 6 7
f 2 60 3
f 52 36 37
f 5 6 1
f 60 2 32
f 8 27 28
f 7 8 1
f 24 11 12
f 11 25 26
f 28 29 8
f 8 30 31
f 60 34 35
f 11 24 25
f 36 52 53

