# https://github.com/mikedh/trimesh
v 0.00100000 -0.03850000 0.01107500
v 0.00100000 -0.04750000 0.01107500
v 0.00100000 -0.03850000 0.01407500
v 0.00100000 -0.03851640 0.01438860
v 0.00100000 -0.03856560 0.01469870
v 0.00100000 -0.03864680 0.01500210
v 0.00100000 -0.03875940 0.01529520
v 0.00100000 -0.03890190 0.01557500
v 0.00100000 -0.03907290 0.01583840
v 0.00100000 -0.03927060 0.01608240
v 0.00100000 -0.03949260 0.01630440
v 0.00100000 -0.03973660 0.01650210
v 0.00100000 -0.04000000 0.01667310
v 0.00100000 -0.04027980 0.01681560
v 0.00100000 -0.04057290 0.01692820
v 0.00100000 -0.04087630 0.01700940
v 0.00100000 -0.04118640 0.01705860
v 0.00100000 -0.04150000 0.01707500
v 0.00100000 -0.04650740 0.01784560
v 0.00100000 -0.04672940 0.01806760
v 0.00100000 -0.04600000 0.01747690
v 0.00100000 -0.04626340 0.01764790
v 0.00100000 -0.04542710 0.01722180
v 0.00100000 -0.04572020 0.01733440
v 0.00100000 -0.04481360 0.01709140
v 0.00100000 -0.04512370 0.01714060
v 0.00100000 -0.04450000 0.01707500
v 0.00100000 -0.04743440 0.01945130
v 0.00100000 -0.04748360 0.01976140
v 0.00100000 -0.04724060 0.01885480
v 0.00100000 -0.04735320 0.01914790
v 0.00100000 -0.04692710 0.01831160
v 0.00100000 -0.04709810 0.01857500
v 0.00100000 -0.04750000 0.02007500
f 2 21 22
f 17 18 13
f 22 19 2
f 2 23 24
f 2 25 26
f 18 27 2
f 24 21 2
f 27 25 2
f 2 28 29
f 2 30 31
f 2 32 33
f 26 23 2
f 31 28 2
f 20 32 2
f 33 30 2
f 29 34 2
f 14 15 16
f 18 11 12
f 12 13 18
f 18 10 11
f 18 8 9
f 18 6 7
f 18 4 5
f 9 10 18
f 16 13 14
f 13 16 17
f 5 6 18
f 7 8 18
f 18 3 4
f 2 1 18
f 18 1 3
f 2 19 20
f 22 21 2
f 13 18 17
f 2 19 22
f 24 23 2
f 26 25 2
f 2 27 18
f 2 21 24
f 2 25 27
f 29 28 2
f 31 30 2
f 33 32 2
f 2 23 26
f 2 28 31
f 2 32 20
f 2 30 33
f 2 34 29
f 16 15 14
f 12 11 18
f 18 13 12
f 11 10 18
f 9 8 18
f 7 6 18
f 5 4 18
f 18 10 9
f 14 13 16
f 17 16 13
f 18 6 5
f 18 8 7
f 4 3 18
f 18 1 2
f 3 1 18
f 20 19 2

