# https://github.com/mikedh/trimesh
v -0.00700000 -0.04750000 0.03605000
v 0.00700000 -0.04750000 0.03605000
v 0.01099410 -0.05171660 0.03983340
v 0.01094730 -0.05214710 0.03940290
v 0.01085420 -0.05257010 0.03897990
v 0.01071590 -0.05298060 0.03856940
v 0.01053400 -0.05337360 0.03817640
v 0.01031080 -0.05374470 0.03780530
v 0.01004860 -0.05408950 0.03746050
v 0.00975080 -0.05440400 0.03714600
v 0.00942070 -0.05468440 0.03686560
v 0.00924475 -0.05481080 0.03673920
v 0.00906222 -0.05492740 0.03662260
v 0.00887363 -0.05503400 0.03651600
v 0.00867956 -0.05513030 0.03641970
v 0.00848055 -0.05521590 0.03633410
v 0.00827721 -0.05529060 0.03625940
v 0.00807011 -0.05535420 0.03619580
v 0.00785988 -0.05540650 0.03614350
v 0.00764713 -0.05544730 0.03610270
v 0.00743248 -0.05547660 0.03607340
v 0.00721656 -0.05549410 0.03605590
v 0.00700000 -0.05550000 0.03605000
v 0.00721656 -0.04750590 0.03605590
v 0.00743248 -0.04752340 0.03607340
v 0.00764713 -0.04755270 0.03610270
v 0.00785988 -0.04759350 0.03614350
v 0.00807011 -0.04764580 0.03619580
v 0.00827721 -0.04770940 0.03625940
v 0.00848055 -0.04778410 0.03633410
v 0.00867956 -0.04786970 0.03641970
v 0.00887363 -0.04796600 0.03651600
v 0.00906222 -0.04807260 0.03662260
v 0.00924475 -0.04818920 0.03673920
v 0.00942070 -0.04831560 0.03686560
v 0.00975080 -0.04859600 0.03714600
v 0.01004860 -0.04891050 0.03746050
v 0.01031080 -0.04925530 0.03780530
v 0.01053400 -0.04962640 0.03817640
v 0.01071590 -0.05001940 0.03856940
v 0.01085420 -0.05042990 0.03897990
v 0.01094730 -0.05085290 0.03940290
v 0.01099410 -0.05128340 0.03983340
v 0.01100000 -0.05150000 0.04005000
v -0.00700000 -0.05550000 0.03605000
v -0.00721656 -0.05549410 0.03605590
v -0.00743248 -0.05547660 0.03607340
v -0.00764713 -0.05544730 0.03610270
v -0.00785988 -0.05540650 0.03614350
v -0.00807011 -0.05535420 0.03619580
v -0.00827721 -0.05529060 0.03625940
v -0.00848055 -0.05521590 0.03633410
v -0.00867956 -0.05513030 0.03641970
v -0.00887363 -0.05503400 0.03651600
v -0.00906222 -0.05492740 0.03662260
v -0.00924475 -0.05481080 0.03673920
v -0.00942070 -0.05468440 0.03686560
v -0.00975080 -0.05440400 0.03714600
v -0.01004860 -0.05408950 0.03746050
v -0.01031080 -0.05374470 0.03780530
v -0.01053400 -0.05337360 0.03817640
v -0.01071590 -0.05298060 0.03856940
v -0.01085420 -0.05257010 0.03897990
v -0.01094730 -0.05214710 0.03940290
v -0.01099410 -0.05171660 0.03983340
v -0.01099410 -0.05128340 0.03983340
v -0.01100000 -0.05150000 0.04005000
v -0.01094730 -0.05085290 0.03940290
v -0.01085420 -0.05042990 0.03897990
v -0.01071590 -0.05001940 0.03856940
v -0.01053400 -0.04962640 0.03817640
v -0.01031080 -0.04925530 0.03780530
v -0.01004860 -0.04891050 0.03746050
v -0.00975080 -0.04859600 0.03714600
v -0.00942070 -0.04831560 0.03686560
v -0.00924475 -0.04818920 0.03673920
v -0.00906222 -0.04807260 0.03662260
v -0.00887363 -0.04796600 0.03651600
v -0.00867956 -0.04786970 0.03641970
v -0.00848055 -0.04778410 0.03633410
v -0.00827721 -0.04770940 0.03625940
v -0.00807011 -0.04764580 0.03619580
v -0.00785988 -0.04759350 0.03614350
v -0.00764713 -0.04755270 0.03610270
v -0.00743248 -0.04752340 0.03607340
v -0.00721656 -0.04750590 0.03605590
v -0.00700000 -0.04150000 0.03605000
v 0.00700000 -0.04150000 0.03605000
v 0.00700000 -0.06150000 0.03605000
v -0.00700000 -0.06150000 0.03605000
v -0.01099410 -0.04150000 0.04026660
v -0.01099410 -0.06150000 0.04026660
v -0.01094730 -0.06150000 0.04069710
v -0.01094730 -0.04150000 0.04069710
v -0.01085420 -0.06150000 0.04112010
v -0.01085420 -0.04150000 0.04112010
v -0.01071590 -0.06150000 0.04153060
v -0.01071590 -0.04150000 0.04153060
v -0.01053400 -0.06150000 0.04192360
v -0.01053400 -0.04150000 0.04192360
v -0.01031080 -0.06150000 0.04229470
v -0.01031080 -0.04150000 0.04229470
v -0.01004860 -0.06150000 0.04263950
v -0.01004860 -0.04150000 0.04263950
v -0.00975080 -0.06150000 0.04295400
v -0.00975080 -0.04150000 0.04295400
v -0.00942070 -0.06150000 0.04323440
v -0.00942070 -0.04150000 0.04323440
v -0.00906222 -0.06150000 0.04347740
v -0.00906222 -0.04150000 0.04347740
v -0.00867956 -0.06150000 0.04368030
v -0.00867956 -0.04150000 0.04368030
v -0.00827721 -0.06150000 0.04384060
v -0.00827721 -0.04150000 0.04384060
v -0.00785988 -0.06150000 0.04395650
v -0.00785988 -0.04150000 0.04395650
v -0.00743248 -0.06150000 0.04402660
v -0.00743248 -0.04150000 0.04402660
v -0.00700000 -0.06150000 0.04405000
v -0.00743248 -0.04150000 0.03607340
v -0.00785988 -0.04150000 0.03614350
v -0.00827721 -0.04150000 0.03625940
v -0.00867956 -0.04150000 0.03641970
v -0.00906222 -0.04150000 0.03662260
v -0.00942070 -0.04150000 0.03686560
v -0.00975080 -0.04150000 0.03714600
v -0.01004860 -0.04150000 0.03746050
v -0.01031080 -0.04150000 0.03780530
v -0.01053400 -0.04150000 0.03817640
v -0.01071590 -0.04150000 0.03856940
v -0.01085420 -0.04150000 0.03897990
v -0.01094730 -0.04150000 0.03940290
v -0.01099410 -0.04150000 0.03983340
v -0.01099410 -0.06150000 0.03983340
v -0.01094730 -0.06150000 0.03940290
v -0.01085420 -0.06150000 0.03897990
v -0.01071590 -0.06150000 0.03856940
v -0.01053400 -0.06150000 0.03817640
v -0.01031080 -0.06150000 0.03780530
v -0.01004860 -0.06150000 0.03746050
v -0.00975080 -0.06150000 0.03714600
v -0.00942070 -0.06150000 0.03686560
v -0.00906222 -0.06150000 0.03662260
v -0.00867956 -0.06150000 0.03641970
v -0.00827721 -0.06150000 0.03625940
v -0.00785988 -0.06150000 0.03614350
v -0.00743248 -0.06150000 0.03607340
v -0.00700000 -0.04150000 0.04405000
v 0.00700000 -0.04150000 0.04405000
v 0.00700000 -0.06150000 0.04405000
v 0.00743248 -0.06150000 0.04402660
v 0.00743248 -0.04150000 0.04402660
v 0.00785988 -0.06150000 0.04395650
v 0.00785988 -0.04150000 0.04395650
v 0.00827721 -0.06150000 0.04384060
v 0.00827721 -0.04150000 0.04384060
v 0.00867956 -0.06150000 0.04368030
v 0.00867956 -0.04150000 0.04368030
v 0.00906222 -0.06150000 0.04347740
v 0.00906222 -0.04150000 0.04347740
v 0.00942070 -0.06150000 0.04323440
v 0.00942070 -0.04150000 0.04323440
v 0.00975080 -0.06150000 0.04295400
v 0.00975080 -0.04150000 0.04295400
v 0.01004860 -0.06150000 0.04263950
v 0.01004860 -0.04150000 0.04263950
v 0.01031080 -0.06150000 0.04229470
v 0.01031080 -0.04150000 0.04229470
v 0.01053400 -0.06150000 0.04192360
v 0.01053400 -0.04150000 0.04192360
v 0.01071590 -0.06150000 0.04153060
v 0.01071590 -0.04150000 0.04153060
v 0.01085420 -0.06150000 0.04112010
v 0.01085420 -0.04150000 0.04112010
v 0.01094730 -0.06150000 0.04069710
v 0.01094730 -0.04150000 0.04069710
v 0.01099410 -0.06150000 0.04026660
v 0.00743248 -0.06150000 0.03607340
v 0.00785988 -0.06150000 0.03614350
v 0.00827721 -0.06150000 0.03625940
v 0.00867956 -0.06150000 0.03641970
v 0.00906222 -0.06150000 0.03662260
v 0.00942070 -0.06150000 0.03686560
v 0.00975080 -0.06150000 0.03714600
v 0.01004860 -0.06150000 0.03746050
v 0.01031080 -0.06150000 0.03780530
v 0.01053400 -0.06150000 0.03817640
v 0.01071590 -0.06150000 0.03856940
v 0.01085420 -0.06150000 0.03897990
v 0.01094730 -0.06150000 0.03940290
v 0.01099410 -0.06150000 0.03983340
v 0.01099410 -0.04150000 0.04026660
v 0.01099410 -0.04150000 0.03983340
v 0.01094730 -0.04150000 0.03940290
v 0.01085420 -0.04150000 0.03897990
v 0.01071590 -0.04150000 0.03856940
v 0.01053400 -0.04150000 0.03817640
v 0.01031080 -0.04150000 0.03780530
v 0.01004860 -0.04150000 0.03746050
v 0.00975080 -0.04150000 0.03714600
v 0.00942070 -0.04150000 0.03686560
v 0.00906222 -0.04150000 0.03662260
v 0.00867956 -0.04150000 0.03641970
v 0.00827721 -0.04150000 0.03625940
v 0.00785988 -0.04150000 0.03614350
v 0.00743248 -0.04150000 0.03607340
f 169 170 168
f 167 168 166
f 165 166 164
f 163 164 162
f 161 162 160
f 159 160 158
f 126 125 75
f 127 126 74
f 128 127 73
f 129 128 72
f 130 129 71
f 131 130 70
f 91 92 93
f 94 93 95
f 96 95 97
f 98 97 99
f 100 99 101
f 102 101 103
f 104 103 105
f 106 105 107
f 108 107 109
f 110 109 111
f 138 61 60
f 139 60 59
f 140 59 58
f 141 58 57
f 142 56 55
f 142 57 56
f 121 120 85
f 85 84 121
f 122 121 83
f 83 82 122
f 123 122 81
f 81 80 123
f 124 123 79
f 79 78 124
f 125 124 77
f 77 76 125
f 45 90 147
f 47 147 146
f 49 146 145
f 51 145 144
f 53 144 143
f 55 143 142
f 132 131 69
f 133 132 68
f 92 67 65
f 92 91 67
f 91 133 66
f 66 67 91
f 134 65 64
f 135 64 63
f 136 63 62
f 137 62 61
f 69 68 132
f 70 69 131
f 71 70 130
f 72 71 129
f 73 72 128
f 74 73 127
f 143 54 53
f 143 55 54
f 144 52 51
f 144 53 52
f 145 50 49
f 145 51 50
f 146 48 47
f 146 49 48
f 147 46 45
f 147 47 46
f 113 114 112
f 111 112 110
f 109 110 108
f 107 108 106
f 105 106 104
f 103 104 102
f 57 142 141
f 58 141 140
f 59 140 139
f 60 139 138
f 61 138 137
f 62 137 136
f 63 136 135
f 64 135 134
f 65 134 92
f 68 66 133
f 160 159 161
f 162 161 163
f 164 163 165
f 166 165 167
f 168 167 169
f 170 169 171
f 75 74 126
f 76 75 125
f 78 77 124
f 80 79 123
f 82 81 122
f 84 83 121
f 86 85 120
f 119 148 118
f 117 118 116
f 115 116 114
f 17 16 181
f 182 181 15
f 15 14 182
f 183 182 13
f 13 12 183
f 184 183 11
f 101 102 100
f 99 100 98
f 97 98 96
f 95 96 94
f 93 94 91
f 149 150 151
f 152 151 153
f 154 153 155
f 156 155 157
f 158 157 159
f 44 192 177
f 193 43 42
f 194 42 41
f 195 41 40
f 196 40 39
f 197 39 38
f 172 171 173
f 174 173 175
f 176 175 177
f 178 89 23
f 23 22 178
f 179 178 21
f 21 20 179
f 180 179 19
f 19 18 180
f 181 180 17
f 204 29 28
f 205 26 25
f 205 27 26
f 206 24 2
f 206 25 24
f 2 88 206
f 185 184 10
f 186 185 9
f 187 186 8
f 188 187 7
f 189 188 6
f 190 189 5
f 191 190 4
f 192 44 43
f 177 191 3
f 3 44 177
f 40 196 195
f 41 195 194
f 42 194 193
f 43 193 192
f 4 3 191
f 5 4 190
f 198 38 37
f 199 37 36
f 200 36 35
f 201 34 33
f 201 35 34
f 202 32 31
f 202 33 32
f 203 30 29
f 203 31 30
f 204 28 27
f 20 19 179
f 22 21 178
f 177 192 176
f 175 176 174
f 173 174 172
f 171 172 170
f 25 206 205
f 27 205 204
f 29 204 203
f 31 203 202
f 33 202 201
f 35 201 200
f 36 200 199
f 37 199 198
f 38 198 197
f 39 197 196
f 157 158 156
f 155 156 154
f 149 148 119
f 119 150 149
f 153 154 152
f 151 152 149
f 6 5 189
f 7 6 188
f 8 7 187
f 9 8 186
f 10 9 185
f 11 10 184
f 12 11 183
f 14 13 182
f 16 15 181
f 18 17 180
f 112 111 113
f 114 113 115
f 116 115 117
f 118 117 119
f 120 87 1
f 1 86 120
f 2 1 87
f 87 88 2
f 45 23 89
f 89 90 45
f 168 170 169
f 166 168 167
f 164 166 165
f 162 164 163
f 160 162 161
f 158 160 159
f 75 125 126
f 74 126 127
f 73 127 128
f 72 128 129
f 71 129 130
f 70 130 131
f 93 92 91
f 95 93 94
f 97 95 96
f 99 97 98
f 101 99 100
f 103 101 102
f 105 103 104
f 107 105 106
f 109 107 108
f 111 109 110
f 60 61 138
f 59 60 139
f 58 59 140
f 57 58 141
f 55 56 142
f 56 57 142
f 85 120 121
f 121 84 85
f 83 121 122
f 122 82 83
f 81 122 123
f 123 80 81
f 79 123 124
f 124 78 79
f 77 124 125
f 125 76 77
f 147 90 45
f 146 147 47
f 145 146 49
f 144 145 51
f 143 144 53
f 142 143 55
f 69 131 132
f 68 132 133
f 65 67 92
f 67 91 92
f 66 133 91
f 91 67 66
f 64 65 134
f 63 64 135
f 62 63 136
f 61 62 137
f 132 68 69
f 131 69 70
f 130 70 71
f 129 71 72
f 128 72 73
f 127 73 74
f 53 54 143
f 54 55 143
f 51 52 144
f 52 53 144
f 49 50 145
f 50 51 145
f 47 48 146
f 48 49 146
f 45 46 147
f 46 47 147
f 112 114 113
f 110 112 111
f 108 110 109
f 106 108 107
f 104 106 105
f 102 104 103
f 141 142 57
f 140 141 58
f 139 140 59
f 138 139 60
f 137 138 61
f 136 137 62
f 135 136 63
f 134 135 64
f 92 134 65
f 133 66 68
f 161 159 160
f 163 161 162
f 165 163 164
f 167 165 166
f 169 167 168
f 171 169 170
f 126 74 75
f 125 75 76
f 124 77 78
f 123 79 80
f 122 81 82
f 121 83 84
f 120 85 86
f 118 148 119
f 116 118 117
f 114 116 115
f 181 16 17
f 15 181 182
f 182 14 15
f 13 182 183
f 183 12 13
f 11 183 184
f 100 102 101
f 98 100 99
f 96 98 97
f 94 96 95
f 91 94 93
f 151 150 149
f 153 151 152
f 155 153 154
f 157 155 156
f 159 157 158
f 177 192 44
f 42 43 193
f 41 42 194
f 40 41 195
f 39 40 196
f 38 39 197
f 173 171 172
f 175 173 174
f 177 175 176
f 23 89 178
f 178 22 23
f 21 178 179
f 179 20 21
f 19 179 180
f 180 18 19
f 17 180 181
f 28 29 204
f 25 26 205
f 26 27 205
f 2 24 206
f 24 25 206
f 206 88 2
f 10 184 185
f 9 185 186
f 8 186 187
f 7 187 188
f 6 188 189
f 5 189 190
f 4 190 191
f 43 44 192
f 3 191 177
f 177 44 3
f 195 196 40
f 194 195 41
f 193 194 42
f 192 193 43
f 191 3 4
f 190 4 5
f 37 38 198
f 36 37 199
f 35 36 200
f 33 34 201
f 34 35 201
f 31 32 202
f 32 33 202
f 29 30 203
f 30 31 203
f 27 28 204
f 179 19 20
f 178 21 22
f 176 192 177
f 174 176 175
f 172 174 173
f 170 172 171
f 205 206 25
f 204 205 27
f 203 204 29
f 202 203 31
f 201 202 33
f 200 201 35
f 199 200 36
f 198 199 37
f 197 198 38
f 196 197 39
f 156 158 157
f 154 156 155
f 119 148 149
f 149 150 119
f 152 154 153
f 149 152 151
f 189 5 6
f 188 6 7
f 187 7 8
f 186 8 9
f 185 9 10
f 184 10 11
f 183 11 12
f 182 13 14
f 181 15 16
f 180 17 18
f 113 111 112
f 115 113 114
f 117 115 116
f 119 117 118
f 1 87 120
f 120 86 1
f 87 1 2
f 2 88 87
f 89 23 45
f 45 90 89

