# https://github.com/mikedh/trimesh
v -0.01530000 -0.03750000 0.00952500
v -0.01950000 -0.03750000 0.00952500
v -0.02197210 -0.03710850 0.00952500
v -0.02275390 -0.03680840 0.00952500
v -0.02350000 -0.03642820 0.00952500
v -0.02033620 -0.03745620 0.00952500
v -0.02116330 -0.03732520 0.00952500
v -0.02420230 -0.03597210 0.00952500
v -0.02485300 -0.03544520 0.00952500
v -0.02544520 -0.03485300 0.00952500
v -0.02680840 -0.03275390 0.00952500
v -0.02710850 -0.03197210 0.00952500
v -0.02597210 -0.03420230 0.00952500
v -0.02642820 -0.03350000 0.00952500
v -0.02745620 -0.03033620 0.00952500
v -0.02732520 -0.03116330 0.00952500
v -0.02750000 -0.02950000 0.00952500
v -0.01500000 -0.03750000 0.00952500
v -0.01500000 -0.03750000 0.01107500
v -0.01950000 -0.03750000 0.01107500
v -0.02033620 -0.03745620 0.01107500
v -0.02116330 -0.03732520 0.01107500
v -0.02197210 -0.03710850 0.01107500
v -0.02275390 -0.03680840 0.01107500
v -0.02350000 -0.03642820 0.01107500
v -0.02365000 -0.03633080 0.01107500
v -0.02429140 -0.03590000 0.01107500
v -0.02420230 -0.03597210 0.01107500
v -0.02485300 -0.03544520 0.01107500
v -0.02544520 -0.03485300 0.01107500
v -0.02597210 -0.03420230 0.01107500
v -0.02642820 -0.03350000 0.01107500
v -0.02680840 -0.03275390 0.01107500
v -0.02710850 -0.03197210 0.01107500
v -0.02732520 -0.03116330 0.01107500
v -0.02745620 -0.03033620 0.01107500
v -0.02750000 -0.02950000 0.01107500
f 13 31 32
f 14 32 33
f 10 30 31
f 9 29 30
f 8 28 27
f 9 8 27
f 5 25 26
f 8 5 26
f 4 24 25
f 3 23 24
f 7 22 23
f 6 21 22
f 2 20 21
f 1 18 19
f 1 19 20
f 20 2 1
f 25 5 4
f 36 15 16
f 35 16 12
f 34 12 11
f 33 11 14
f 32 14 13
f 31 13 10
f 30 10 9
f 27 29 9
f 26 28 8
f 37 17 15
f 24 4 3
f 23 3 7
f 22 7 6
f 21 6 2
f 15 36 37
f 16 35 36
f 12 34 35
f 11 33 34
f 32 31 13
f 33 32 14
f 31 30 10
f 30 29 9
f 27 28 8
f 27 8 9
f 26 25 5
f 26 5 8
f 25 24 4
f 24 23 3
f 23 22 7
f 22 21 6
f 21 20 2
f 19 18 1
f 20 19 1
f 1 2 20
f 4 5 25
f 16 15 36
f 12 16 35
f 11 12 34
f 14 11 33
f 13 14 32
f 10 13 31
f 9 10 30
f 9 29 27
f 8 28 26
f 15 17 37
f 3 4 24
f 7 3 23
f 6 7 22
f 2 6 21
f 37 36 15
f 36 35 16
f 35 34 12
f 34 33 11

