# https://github.com/mikedh/trimesh
v -0.02800000 0.02950000 0.01107500
v -0.02800000 0.02950000 0.01307500
v -0.02800000 -0.02950000 0.01107500
v -0.02800000 -0.02950000 0.01307500
v -0.02800000 0.02535000 0.01107500
v -0.02800000 0.02811800 0.01497710
v -0.02800000 0.02791580 0.01503130
v -0.02800000 0.02883830 0.01456130
v -0.02800000 0.02867560 0.01469300
v -0.02800000 0.02831350 0.01490210
v -0.02800000 0.02850000 0.01480710
v -0.02800000 0.02923210 0.01407500
v -0.02800000 0.02911800 0.01425060
v -0.02800000 -0.02535000 0.01107500
v -0.02800000 -0.02940210 0.01369300
v -0.02800000 -0.02945630 0.01349080
v -0.02800000 0.02770910 0.01506400
v -0.02800000 0.02932710 0.01388850
v -0.02800000 -0.02948900 0.01328410
v -0.02800000 -0.02850000 0.01480710
v -0.02800000 -0.02867560 0.01469300
v -0.02800000 -0.02791580 0.01503130
v -0.02800000 -0.02811800 0.01497710
v -0.02800000 0.02898630 0.01441330
v -0.02800000 0.02940210 0.01369300
v -0.02800000 0.02948900 0.01328410
v -0.02800000 0.02945630 0.01349080
v -0.02800000 -0.02932710 0.01388850
v -0.02800000 -0.02911800 0.01425060
v -0.02800000 -0.02923210 0.01407500
v -0.02800000 -0.02831350 0.01490210
v -0.02800000 -0.02770910 0.01506400
v -0.02800000 -0.02883830 0.01456130
v -0.02800000 -0.02898630 0.01441330
v -0.02800000 -0.02750000 0.01507500
v -0.02800000 0.02750000 0.01507500
f 5 26 27
f 5 12 13
f 11 10 5
f 9 11 5
f 5 10 6
f 5 8 9
f 5 6 7
f 14 5 36
f 14 15 16
f 14 20 21
f 5 24 8
f 5 25 18
f 23 31 14
f 5 1 2
f 5 18 12
f 16 19 14
f 14 22 23
f 36 35 14
f 14 35 32
f 17 36 5
f 7 17 5
f 34 29 14
f 14 31 20
f 14 32 22
f 13 24 5
f 5 2 26
f 30 28 14
f 14 33 34
f 14 28 15
f 14 29 30
f 4 3 14
f 19 4 14
f 21 33 14
f 27 25 5
f 27 26 5
f 13 12 5
f 5 10 11
f 5 11 9
f 6 10 5
f 9 8 5
f 7 6 5
f 36 5 14
f 16 15 14
f 21 20 14
f 8 24 5
f 18 25 5
f 14 31 23
f 2 1 5
f 12 18 5
f 14 19 16
f 23 22 14
f 14 35 36
f 32 35 14
f 5 36 17
f 5 17 7
f 14 29 34
f 20 31 14
f 22 32 14
f 5 24 13
f 26 2 5
f 14 28 30
f 34 33 14
f 15 28 14
f 30 29 14
f 14 3 4
f 14 4 19
f 14 33 21
f 5 25 27

