# https://github.com/mikedh/trimesh
v 0.00700000 -0.06350000 0.03805000
v -0.00700000 -0.06350000 0.03805000
v 0.00700000 -0.06350000 0.04205000
v 0.00721624 -0.06350000 0.04203830
v 0.00742994 -0.06350000 0.04200320
v 0.00763860 -0.06350000 0.04194530
v 0.00783978 -0.06350000 0.04186520
v 0.00803111 -0.06350000 0.04176370
v 0.00821035 -0.06350000 0.04164220
v 0.00837540 -0.06350000 0.04150200
v 0.00852432 -0.06350000 0.04134480
v 0.00865538 -0.06350000 0.04117240
v 0.00876702 -0.06350000 0.04098680
v 0.00885795 -0.06350000 0.04079030
v 0.00892710 -0.06350000 0.04058510
v 0.00897365 -0.06350000 0.04037360
v 0.00899707 -0.06350000 0.04015830
v 0.00899707 -0.06350000 0.03994170
v 0.00897365 -0.06350000 0.03972640
v 0.00892710 -0.06350000 0.03951490
v 0.00885795 -0.06350000 0.03930970
v 0.00876702 -0.06350000 0.03911320
v 0.00865538 -0.06350000 0.03892760
v 0.00852432 -0.06350000 0.03875520
v 0.00837540 -0.06350000 0.03859800
v 0.00821035 -0.06350000 0.03845780
v 0.00803111 -0.06350000 0.03833630
v 0.00783978 -0.06350000 0.03823480
v 0.00763860 -0.06350000 0.03815470
v 0.00742994 -0.06350000 0.03809680
v 0.00721624 -0.06350000 0.03806170
v -0.00721624 -0.06350000 0.03806170
v -0.00742994 -0.06350000 0.03809680
v -0.00763860 -0.06350000 0.03815470
v -0.00783978 -0.06350000 0.03823480
v -0.00803111 -0.06350000 0.03833630
v -0.00821035 -0.06350000 0.03845780
v -0.00837540 -0.06350000 0.03859800
v -0.00852432 -0.06350000 0.03875520
v -0.00865538 -0.06350000 0.03892760
v -0.00876702 -0.06350000 0.03911320
v -0.00885795 -0.06350000 0.03930970
v -0.00892710 -0.06350000 0.03951490
v -0.00897365 -0.06350000 0.03972640
v -0.00899707 -0.06350000 0.03994170
v -0.00899707 -0.06350000 0.04015830
v -0.00897365 -0.06350000 0.04037360
v -0.00892710 -0.06350000 0.04058510
v -0.00885795 -0.06350000 0.04079030
v -0.00876702 -0.06350000 0.04098680
v -0.00865538 -0.06350000 0.04117240
v -0.00852432 -0.06350000 0.04134480
v -0.00837540 -0.06350000 0.04150200
v -0.00821035 -0.06350000 0.04164220
v -0.00803111 -0.06350000 0.04176370
v -0.00783978 -0.06350000 0.04186520
v -0.00763860 -0.06350000 0.04194530
v -0.00742994 -0.06350000 0.04200320
v -0.00721624 -0.06350000 0.04203830
v -0.00700000 -0.06350000 0.04205000
f 39 59 58
f 39 54 53
f 56 55 39
f 30 11 10
f 20 19 11
f 26 25 11
f 40 39 46
f 30 5 4
f 60 33 32
f 34 33 60
f 13 12 11
f 24 23 11
f 11 22 21
f 17 16 11
f 29 28 11
f 60 35 34
f 43 42 46
f 48 47 39
f 39 52 51
f 39 60 59
f 55 54 39
f 30 8 7
f 10 9 30
f 53 52 39
f 23 22 11
f 38 37 60
f 27 26 11
f 46 42 41
f 11 30 29
f 45 44 43
f 11 18 17
f 11 19 18
f 15 14 11
f 30 7 6
f 11 16 15
f 11 14 13
f 39 57 56
f 39 49 48
f 60 39 38
f 50 49 39
f 58 57 39
f 30 9 8
f 46 41 40
f 43 46 45
f 60 37 36
f 47 46 39
f 60 36 35
f 28 27 11
f 11 25 24
f 11 21 20
f 31 30 3
f 2 1 3
f 3 1 31
f 6 5 30
f 3 60 2
f 4 3 30
f 32 2 60
f 51 50 39
f 58 59 39
f 53 54 39
f 39 55 56
f 10 11 30
f 11 19 20
f 11 25 26
f 46 39 40
f 4 5 30
f 32 33 60
f 60 33 34
f 11 12 13
f 11 23 24
f 21 22 11
f 11 16 17
f 11 28 29
f 34 35 60
f 46 42 43
f 39 47 48
f 51 52 39
f 59 60 39
f 39 54 55
f 7 8 30
f 30 9 10
f 39 52 53
f 11 22 23
f 60 37 38
f 11 26 27
f 41 42 46
f 29 30 11
f 43 44 45
f 17 18 11
f 18 19 11
f 11 14 15
f 6 7 30
f 15 16 11
f 13 14 11
f 56 57 39
f 48 49 39
f 38 39 60
f 39 49 50
f 39 57 58
f 8 9 30
f 40 41 46
f 45 46 43
f 36 37 60
f 39 46 47
f 35 36 60
f 11 27 28
f 24 25 11
f 20 21 11
f 3 30 31
f 3 1 2
f 31 1 3
f 30 5 6
f 2 60 3
f 30 3 4
f 60 2 32
f 39 50 51

