# https://github.com/mikedh/trimesh
v 0.01031080 -0.05374470 0.01107500
v 0.01004860 -0.05408950 0.01107500
v 0.00975080 -0.05440400 0.01107500
v 0.01053400 -0.05337360 0.01107500
v 0.01071590 -0.05298060 0.01107500
v 0.01085420 -0.05042990 0.01107500
v 0.01094730 -0.05085290 0.01107500
v -0.01099410 -0.05171660 0.01107500
v -0.01099410 -0.05128340 0.01107500
v 0.00700000 -0.05550000 0.01107500
v 0.01085420 -0.05257010 0.01107500
v 0.01071590 -0.05001940 0.01107500
v -0.01094730 -0.05085290 0.01107500
v -0.01094730 -0.05214710 0.01107500
v -0.01053400 -0.05337360 0.01107500
v -0.01071590 -0.05298060 0.01107500
v -0.01031080 -0.05374470 0.01107500
v -0.01004860 -0.05408950 0.01107500
v -0.00700000 -0.05550000 0.01107500
v 0.00867956 -0.05513030 0.01107500
v 0.00827721 -0.05529060 0.01107500
v 0.00942070 -0.05468440 0.01107500
v 0.00906222 -0.05492740 0.01107500
v 0.01053400 -0.04962640 0.01107500
v 0.00975080 -0.04859600 0.01107500
v 0.01004860 -0.04891050 0.01107500
v 0.00906222 -0.04807260 0.01107500
v 0.00942070 -0.04831560 0.01107500
v -0.00942070 -0.05468440 0.01107500
v -0.00975080 -0.05440400 0.01107500
v -0.00827721 -0.05529060 0.01107500
v -0.00867956 -0.05513030 0.01107500
v -0.00743248 -0.05547660 0.01107500
v -0.00785988 -0.05540650 0.01107500
v 0.00743248 -0.05547660 0.01107500
v 0.00785988 -0.05540650 0.01107500
v 0.01099410 -0.05171660 0.01107500
v 0.01094730 -0.05214710 0.01107500
v 0.01031080 -0.04925530 0.01107500
v 0.00785988 -0.04759350 0.01107500
v 0.00827721 -0.04770940 0.01107500
v -0.00827721 -0.04770940 0.01107500
v -0.00785988 -0.04759350 0.01107500
v -0.01085420 -0.05042990 0.01107500
v -0.01071590 -0.05001940 0.01107500
v -0.01085420 -0.05257010 0.01107500
v -0.00906222 -0.05492740 0.01107500
v 0.00743248 -0.04752340 0.01107500
v -0.00867956 -0.04786970 0.01107500
v -0.00942070 -0.04831560 0.01107500
v -0.00906222 -0.04807260 0.01107500
v -0.01004860 -0.04891050 0.01107500
v -0.00975080 -0.04859600 0.01107500
v -0.01053400 -0.04962640 0.01107500
v -0.01031080 -0.04925530 0.01107500
v 0.01099410 -0.05128340 0.01107500
v 0.00867956 -0.04786970 0.01107500
v 0.00100000 -0.03850000 0.01107500
v 0.00100000 -0.04750000 0.01107500
v 0.00700000 -0.04750000 0.01107500
v -0.00100000 -0.03850000 0.01107500
v -0.00700000 -0.04750000 0.01107500
v -0.00743248 -0.04752340 0.01107500
v -0.00100000 -0.04750000 0.01107500
v -0.00100000 -0.03850000 0.01407500
v 0.00100000 -0.03850000 0.01407500
v -0.00100000 -0.03851640 0.01438860
v 0.00100000 -0.03851640 0.01438860
v -0.00100000 -0.03856560 0.01469870
v 0.00100000 -0.03856560 0.01469870
v -0.00100000 -0.03864680 0.01500210
v 0.00100000 -0.03864680 0.01500210
v -0.00100000 -0.03875940 0.01529520
v 0.00100000 -0.03875940 0.01529520
v -0.00100000 -0.03890190 0.01557500
v 0.00100000 -0.03890190 0.01557500
v -0.00100000 -0.03907290 0.01583840
v 0.00100000 -0.03907290 0.01583840
v -0.00100000 -0.03927060 0.01608240
v 0.00100000 -0.03927060 0.01608240
v -0.00100000 -0.03949260 0.01630440
v 0.00100000 -0.03949260 0.01630440
v -0.00100000 -0.03973660 0.01650210
v 0.00100000 -0.03973660 0.01650210
v -0.00100000 -0.04000000 0.01667310
v 0.00100000 -0.04000000 0.01667310
v -0.00100000 -0.04027980 0.01681560
v 0.00100000 -0.04027980 0.01681560
v -0.00100000 -0.04057290 0.01692820
v 0.00100000 -0.04057290 0.01692820
v -0.00100000 -0.04087630 0.01700940
v 0.00100000 -0.04087630 0.01700940
v -0.00100000 -0.04118640 0.01705860
v 0.00100000 -0.04118640 0.01705860
v -0.00100000 -0.04150000 0.01707500
v 0.00100000 -0.04150000 0.01707500
v 0.00100000 -0.04650740 0.01784560
v 0.00100000 -0.04672940 0.01806760
v 0.00100000 -0.04600000 0.01747690
v 0.00100000 -0.04626340 0.01764790
v 0.00100000 -0.04542710 0.01722180
v 0.00100000 -0.04572020 0.01733440
v 0.00100000 -0.04481360 0.01709140
v 0.00100000 -0.04512370 0.01714060
v 0.00100000 -0.04450000 0.01707500
v 0.00100000 -0.04743440 0.01945130
v 0.00100000 -0.04748360 0.01976140
v 0.00100000 -0.04724060 0.01885480
v 0.00100000 -0.04735320 0.01914790
v 0.00100000 -0.04692710 0.01831160
v 0.00100000 -0.04709810 0.01857500
v 0.00100000 -0.04750000 0.02007500
v -0.00100000 -0.04450000 0.01707500
v -0.00100000 -0.04650740 0.01784560
v -0.00100000 -0.04626340 0.01764790
v -0.00100000 -0.04692710 0.01831160
v -0.00100000 -0.04672940 0.01806760
v -0.00100000 -0.04481360 0.01709140
v -0.00100000 -0.04542710 0.01722180
v -0.00100000 -0.04512370 0.01714060
v -0.00100000 -0.04600000 0.01747690
v -0.00100000 -0.04572020 0.01733440
v -0.00100000 -0.04724060 0.01885480
v -0.00100000 -0.04709810 0.01857500
v -0.00100000 -0.04743440 0.01945130
v -0.00100000 -0.04735320 0.01914790
v -0.00100000 -0.04750000 0.02007500
v -0.00100000 -0.04748360 0.01976140
v -0.00700000 -0.04750000 0.03605000
v 0.00700000 -0.04750000 0.03605000
v 0.01099410 -0.05171660 0.03983340
v 0.01094730 -0.05214710 0.03940290
v 0.01085420 -0.05257010 0.03897990
v 0.01071590 -0.05298060 0.03856940
v 0.01053400 -0.05337360 0.03817640
v 0.01031080 -0.05374470 0.03780530
v 0.01004860 -0.05408950 0.03746050
v 0.00975080 -0.05440400 0.03714600
v 0.00942070 -0.05468440 0.03686560
v 0.00924475 -0.05481080 0.03673920
v 0.00906222 -0.05492740 0.03662260
v 0.00887363 -0.05503400 0.03651600
v 0.00867956 -0.05513030 0.03641970
v 0.00848055 -0.05521590 0.03633410
v 0.00827721 -0.05529060 0.03625940
v 0.00807011 -0.05535420 0.03619580
v 0.00785988 -0.05540650 0.03614350
v 0.00764713 -0.05544730 0.03610270
v 0.00743248 -0.05547660 0.03607340
v 0.00721656 -0.05549410 0.03605590
v 0.00700000 -0.05550000 0.03605000
v 0.00721656 -0.04750590 0.03605590
v 0.00743248 -0.04752340 0.03607340
v 0.00764713 -0.04755270 0.03610270
v 0.00785988 -0.04759350 0.03614350
v 0.00807011 -0.04764580 0.03619580
v 0.00827721 -0.04770940 0.03625940
v 0.00848055 -0.04778410 0.03633410
v 0.00867956 -0.04786970 0.03641970
v 0.00887363 -0.04796600 0.03651600
v 0.00906222 -0.04807260 0.03662260
v 0.00924475 -0.04818920 0.03673920
v 0.00942070 -0.04831560 0.03686560
v 0.00975080 -0.04859600 0.03714600
v 0.01004860 -0.04891050 0.03746050
v 0.01031080 -0.04925530 0.03780530
v 0.01053400 -0.04962640 0.03817640
v 0.01071590 -0.05001940 0.03856940
v 0.01085420 -0.05042990 0.03897990
v 0.01094730 -0.05085290 0.03940290
v 0.01099410 -0.05128340 0.03983340
v 0.01100000 -0.05150000 0.04005000
v -0.00700000 -0.05550000 0.03605000
v -0.00721656 -0.05549410 0.03605590
v -0.00743248 -0.05547660 0.03607340
v -0.00764713 -0.05544730 0.03610270
v -0.00785988 -0.05540650 0.03614350
v -0.00807011 -0.05535420 0.03619580
v -0.00827721 -0.05529060 0.03625940
v -0.00848055 -0.05521590 0.03633410
v -0.00867956 -0.05513030 0.03641970
v -0.00887363 -0.05503400 0.03651600
v -0.00906222 -0.05492740 0.03662260
v -0.00924475 -0.05481080 0.03673920
v -0.00942070 -0.05468440 0.03686560
v -0.00975080 -0.05440400 0.03714600
v -0.01004860 -0.05408950 0.03746050
v -0.01031080 -0.05374470 0.03780530
v -0.01053400 -0.05337360 0.03817640
v -0.01071590 -0.05298060 0.03856940
v -0.01085420 -0.05257010 0.03897990
v -0.01094730 -0.05214710 0.03940290
v -0.01099410 -0.05171660 0.03983340
v -0.01099410 -0.05128340 0.03983340
v -0.01100000 -0.05150000 0.04005000
v -0.01094730 -0.05085290 0.03940290
v -0.01085420 -0.05042990 0.03897990
v -0.01071590 -0.05001940 0.03856940
v -0.01053400 -0.04962640 0.03817640
v -0.01031080 -0.04925530 0.03780530
v -0.01004860 -0.04891050 0.03746050
v -0.00975080 -0.04859600 0.03714600
v -0.00942070 -0.04831560 0.03686560
v -0.00924475 -0.04818920 0.03673920
v -0.00906222 -0.04807260 0.03662260
v -0.00887363 -0.04796600 0.03651600
v -0.00867956 -0.04786970 0.03641970
v -0.00848055 -0.04778410 0.03633410
v -0.00827721 -0.04770940 0.03625940
v -0.00807011 -0.04764580 0.03619580
v -0.00785988 -0.04759350 0.03614350
v -0.00764713 -0.04755270 0.03610270
v -0.00743248 -0.04752340 0.03607340
v -0.00721656 -0.04750590 0.03605590
f 12 24 167
f 160 161 27
f 149 35 36
f 151 10 35
f 152 153 48
f 154 155 40
f 156 157 41
f 158 159 57
f 86 85 87
f 84 83 85
f 82 81 83
f 80 79 81
f 78 77 79
f 76 75 77
f 72 71 73
f 70 69 71
f 68 67 69
f 66 65 67
f 65 66 58
f 58 61 65
f 73 74 72
f 75 76 74
f 77 78 76
f 79 80 78
f 81 82 80
f 83 84 82
f 87 88 86
f 89 90 88
f 91 92 90
f 93 94 92
f 95 96 94
f 94 93 95
f 92 91 93
f 90 89 91
f 88 87 89
f 209 42 49
f 173 19 10
f 10 151 173
f 174 175 33
f 176 177 34
f 178 179 31
f 74 73 75
f 182 183 47
f 184 185 29
f 185 186 30
f 186 187 18
f 187 188 17
f 188 189 15
f 67 68 66
f 69 70 68
f 71 72 70
f 53 202 203
f 189 190 16
f 190 191 46
f 191 192 14
f 192 193 8
f 194 9 8
f 85 86 84
f 197 44 13
f 198 45 44
f 199 54 45
f 200 55 54
f 201 52 55
f 202 53 52
f 203 50 53
f 205 51 50
f 207 49 51
f 18 30 186
f 211 43 42
f 213 63 43
f 129 62 63
f 63 213 214
f 63 214 129
f 180 181 32
f 43 212 213
f 42 209 210
f 42 210 211
f 49 207 208
f 49 208 209
f 51 205 206
f 51 206 207
f 50 203 204
f 50 204 205
f 103 105 113
f 52 201 202
f 55 200 201
f 54 199 200
f 45 198 199
f 44 197 198
f 196 13 9
f 9 194 196
f 193 195 194
f 8 193 194
f 8 14 192
f 14 46 191
f 46 16 190
f 16 15 189
f 15 17 188
f 17 18 187
f 175 176 34
f 34 33 175
f 173 174 33
f 33 19 173
f 132 38 37
f 133 11 38
f 43 211 212
f 111 110 116
f 110 98 117
f 98 97 114
f 97 100 115
f 100 99 121
f 99 102 122
f 102 101 119
f 101 104 120
f 104 103 118
f 125 128 107
f 128 127 112
f 112 107 128
f 107 106 125
f 106 109 126
f 109 108 123
f 13 196 197
f 30 29 185
f 183 184 29
f 29 47 183
f 181 182 47
f 47 32 181
f 179 180 32
f 32 31 179
f 177 178 31
f 31 34 177
f 129 130 112
f 113 105 96
f 96 95 113
f 113 118 103
f 118 120 104
f 120 119 101
f 134 5 11
f 122 121 99
f 121 115 100
f 115 114 97
f 114 117 98
f 117 116 110
f 116 124 111
f 124 123 108
f 123 126 109
f 126 125 106
f 23 142 143
f 22 139 140
f 22 140 141
f 3 138 139
f 2 137 138
f 1 136 137
f 108 111 124
f 5 134 135
f 11 133 134
f 38 132 133
f 37 131 132
f 127 64 62
f 112 127 129
f 112 130 60
f 62 129 127
f 60 59 112
f 57 41 157
f 155 156 41
f 41 40 155
f 153 154 40
f 40 48 153
f 130 152 48
f 119 122 102
f 35 149 150
f 35 150 151
f 36 147 148
f 36 148 149
f 21 145 146
f 21 146 147
f 20 143 144
f 20 144 145
f 23 141 142
f 131 37 56
f 171 172 131
f 56 171 131
f 56 7 170
f 7 6 169
f 6 12 168
f 4 135 136
f 24 39 166
f 39 26 165
f 26 25 164
f 25 28 163
f 161 162 28
f 28 27 161
f 159 160 27
f 27 57 159
f 157 158 57
f 48 60 130
f 162 163 28
f 163 164 25
f 164 165 26
f 165 166 39
f 166 167 24
f 167 168 12
f 168 169 6
f 169 170 7
f 170 171 56
f 135 4 5
f 136 1 4
f 137 2 1
f 138 3 2
f 139 22 3
f 141 23 22
f 143 20 23
f 145 21 20
f 147 36 21
f 167 24 12
f 27 161 160
f 36 35 149
f 35 10 151
f 48 153 152
f 40 155 154
f 41 157 156
f 57 159 158
f 87 85 86
f 85 83 84
f 83 81 82
f 81 79 80
f 79 77 78
f 77 75 76
f 73 71 72
f 71 69 70
f 69 67 68
f 67 65 66
f 58 66 65
f 65 61 58
f 72 74 73
f 74 76 75
f 76 78 77
f 78 80 79
f 80 82 81
f 82 84 83
f 86 88 87
f 88 90 89
f 90 92 91
f 92 94 93
f 94 96 95
f 95 93 94
f 93 91 92
f 91 89 90
f 89 87 88
f 49 42 209
f 10 19 173
f 173 151 10
f 33 175 174
f 34 177 176
f 31 179 178
f 75 73 74
f 47 183 182
f 29 185 184
f 30 186 185
f 18 187 186
f 17 188 187
f 15 189 188
f 66 68 67
f 68 70 69
f 70 72 71
f 203 202 53
f 16 190 189
f 46 191 190
f 14 192 191
f 8 193 192
f 8 9 194
f 84 86 85
f 13 44 197
f 44 45 198
f 45 54 199
f 54 55 200
f 55 52 201
f 52 53 202
f 53 50 203
f 50 51 205
f 51 49 207
f 186 30 18
f 42 43 211
f 43 63 213
f 63 62 129
f 214 213 63
f 129 214 63
f 32 181 180
f 213 212 43
f 210 209 42
f 211 210 42
f 208 207 49
f 209 208 49
f 206 205 51
f 207 206 51
f 204 203 50
f 205 204 50
f 113 105 103
f 202 201 52
f 201 200 55
f 200 199 54
f 199 198 45
f 198 197 44
f 9 13 196
f 196 194 9
f 194 195 193
f 194 193 8
f 192 14 8
f 191 46 14
f 190 16 46
f 189 15 16
f 188 17 15
f 187 18 17
f 34 176 175
f 175 33 34
f 33 174 173
f 173 19 33
f 37 38 132
f 38 11 133
f 212 211 43
f 116 110 111
f 117 98 110
f 114 97 98
f 115 100 97
f 121 99 100
f 122 102 99
f 119 101 102
f 120 104 101
f 118 103 104
f 107 128 125
f 112 127 128
f 128 107 112
f 125 106 107
f 126 109 106
f 123 108 109
f 197 196 13
f 185 29 30
f 29 184 183
f 183 47 29
f 47 182 181
f 181 32 47
f 32 180 179
f 179 31 32
f 31 178 177
f 177 34 31
f 112 130 129
f 96 105 113
f 113 95 96
f 103 118 113
f 104 120 118
f 101 119 120
f 11 5 134
f 99 121 122
f 100 115 121
f 97 114 115
f 98 117 114
f 110 116 117
f 111 124 116
f 108 123 124
f 109 126 123
f 106 125 126
f 143 142 23
f 140 139 22
f 141 140 22
f 139 138 3
f 138 137 2
f 137 136 1
f 124 111 108
f 135 134 5
f 134 133 11
f 133 132 38
f 132 131 37
f 62 64 127
f 129 127 112
f 60 130 112
f 127 129 62
f 112 59 60
f 157 41 57
f 41 156 155
f 155 40 41
f 40 154 153
f 153 48 40
f 48 152 130
f 102 122 119
f 150 149 35
f 151 150 35
f 148 147 36
f 149 148 36
f 146 145 21
f 147 146 21
f 144 143 20
f 145 144 20
f 142 141 23
f 56 37 131
f 131 172 171
f 131 171 56
f 170 7 56
f 169 6 7
f 168 12 6
f 136 135 4
f 166 39 24
f 165 26 39
f 164 25 26
f 163 28 25
f 28 162 161
f 161 27 28
f 27 160 159
f 159 57 27
f 57 158 157
f 130 60 48
f 28 163 162
f 25 164 163
f 26 165 164
f 39 166 165
f 24 167 166
f 12 168 167
f 6 169 168
f 7 170 169
f 56 171 170
f 5 4 135
f 4 1 136
f 1 2 137
f 2 3 138
f 3 22 139
f 22 23 141
f 23 20 143
f 20 21 145
f 21 36 147

