# https://github.com/mikedh/trimesh
v 0.01385410 -0.05502670 0.00952500
v 0.01500000 -0.05150000 0.00952500
v 0.01496710 -0.05212720 0.00952500
v 0.01345890 -0.05551480 0.00952500
v 0.01470630 -0.05335410 0.00952500
v 0.01448130 -0.05394040 0.00952500
v 0.01419620 -0.05450000 0.00952500
v 0.01486890 -0.05274750 0.00952500
v -0.01252670 -0.05635410 0.00952500
v -0.01419620 -0.05450000 0.00952500
v -0.01448130 -0.05394040 0.00952500
v 0.01252670 -0.05635410 0.00952500
v 0.01200000 -0.05669620 0.00952500
v 0.01301480 -0.05595890 0.00952500
v -0.01486890 -0.05274750 0.00952500
v -0.01496710 -0.05212720 0.00952500
v -0.01385410 -0.05502670 0.00952500
v -0.01301480 -0.05595890 0.00952500
v -0.01500000 -0.05150000 0.00952500
v -0.01144040 -0.05698130 0.00952500
v -0.01200000 -0.05669620 0.00952500
v 0.01144040 -0.05698130 0.00952500
v -0.01470630 -0.05335410 0.00952500
v -0.01345890 -0.05551480 0.00952500
v -0.01085410 -0.05720630 0.00952500
v -0.00962717 -0.05746710 0.00952500
v -0.01024750 -0.05736890 0.00952500
v 0.01085410 -0.05720630 0.00952500
v 0.01024750 -0.05736890 0.00952500
v 0.01500000 -0.03750000 0.00952500
v 0.00900000 -0.05750000 0.00952500
v 0.00962717 -0.05746710 0.00952500
v -0.00900000 -0.05750000 0.00952500
v -0.01500000 -0.03750000 0.00952500
v 0.00900000 -0.05750000 0.01107500
v 0.00962717 -0.05746710 0.01107500
v 0.01024750 -0.05736890 0.01107500
v 0.01085410 -0.05720630 0.01107500
v 0.01144040 -0.05698130 0.01107500
v 0.01230200 -0.05650000 0.01107500
v 0.01252670 -0.05635410 0.01107500
v 0.01301480 -0.05595890 0.01107500
v 0.01385410 -0.05502670 0.01107500
v 0.01385000 -0.05503180 0.01107500
v 0.01419620 -0.05450000 0.01107500
v 0.01448130 -0.05394040 0.01107500
v 0.01470630 -0.05335410 0.01107500
v 0.01486890 -0.05274750 0.01107500
v 0.01496710 -0.05212720 0.01107500
v 0.01500000 -0.05150000 0.01107500
v 0.01345890 -0.05551480 0.01107500
v 0.01200000 -0.05669620 0.01107500
v -0.00900000 -0.05750000 0.01107500
v -0.00962717 -0.05746710 0.01107500
v -0.01024750 -0.05736890 0.01107500
v -0.01085410 -0.05720630 0.01107500
v -0.01144040 -0.05698130 0.01107500
v -0.01200000 -0.05669620 0.01107500
v -0.01230200 -0.05650000 0.01107500
v -0.01252670 -0.05635410 0.01107500
v -0.01301480 -0.05595890 0.01107500
v -0.01345890 -0.05551480 0.01107500
v -0.01385000 -0.05503180 0.01107500
v -0.01385410 -0.05502670 0.01107500
v -0.01419620 -0.05450000 0.01107500
v -0.01448130 -0.05394040 0.01107500
v -0.01470630 -0.05335410 0.01107500
v -0.01486890 -0.05274750 0.01107500
v -0.01496710 -0.05212720 0.01107500
v -0.01500000 -0.05150000 0.01107500
v 0.01500000 -0.03750000 0.01107500
v -0.01500000 -0.03750000 0.01107500
f 2 50 49
f 59 60 9
f 3 49 48
f 8 48 47
f 5 47 46
f 6 46 45
f 19 70 72
f 72 34 19
f 53 33 31
f 31 35 53
f 50 2 30
f 30 71 50
f 54 26 33
f 55 27 26
f 56 25 27
f 57 20 25
f 58 21 20
f 44 51 4
f 42 14 4
f 35 31 32
f 36 32 29
f 37 29 28
f 38 28 22
f 39 22 13
f 13 12 40
f 12 41 40
f 41 12 14
f 49 3 2
f 1 43 44
f 44 4 1
f 43 1 7
f 45 7 6
f 46 6 5
f 47 5 8
f 48 8 3
f 21 58 59
f 68 15 23
f 69 16 15
f 70 19 16
f 16 69 70
f 15 68 69
f 23 67 68
f 11 66 67
f 10 65 66
f 17 64 65
f 63 17 24
f 24 62 63
f 18 61 62
f 9 60 61
f 59 9 21
f 62 24 18
f 20 57 58
f 25 56 57
f 27 55 56
f 26 54 55
f 33 53 54
f 32 36 35
f 29 37 36
f 28 38 37
f 22 39 38
f 13 52 39
f 40 52 13
f 14 42 41
f 4 51 42
f 7 45 43
f 61 18 9
f 63 64 17
f 65 10 17
f 66 11 10
f 67 23 11
f 49 50 2
f 9 60 59
f 48 49 3
f 47 48 8
f 46 47 5
f 45 46 6
f 72 70 19
f 19 34 72
f 31 33 53
f 53 35 31
f 30 2 50
f 50 71 30
f 33 26 54
f 26 27 55
f 27 25 56
f 25 20 57
f 20 21 58
f 4 51 44
f 4 14 42
f 32 31 35
f 29 32 36
f 28 29 37
f 22 28 38
f 13 22 39
f 40 12 13
f 40 41 12
f 14 12 41
f 2 3 49
f 44 43 1
f 1 4 44
f 7 1 43
f 6 7 45
f 5 6 46
f 8 5 47
f 3 8 48
f 59 58 21
f 23 15 68
f 15 16 69
f 16 19 70
f 70 69 16
f 69 68 15
f 68 67 23
f 67 66 11
f 66 65 10
f 65 64 17
f 24 17 63
f 63 62 24
f 62 61 18
f 61 60 9
f 21 9 59
f 18 24 62
f 58 57 20
f 57 56 25
f 56 55 27
f 55 54 26
f 54 53 33
f 35 36 32
f 36 37 29
f 37 38 28
f 38 39 22
f 39 52 13
f 13 52 40
f 41 42 14
f 42 51 4
f 43 45 7
f 9 18 61
f 17 64 63
f 17 10 65
f 10 11 66
f 11 23 67

