# https://github.com/mikedh/trimesh
v 0.02330000 -0.03000000 0.00952500
v 0.02328070 -0.03035680 0.00952500
v 0.02185190 -0.03273140 0.00952500
v 0.02213640 -0.03251510 0.00952500
v 0.02154570 -0.03291560 0.00952500
v 0.02088280 -0.03317970 0.00952500
v 0.02122150 -0.03306560 0.00952500
v 0.02053390 -0.03325650 0.00952500
v 0.01911720 -0.02682030 0.00952500
v 0.01877850 -0.02693440 0.00952500
v 0.01946610 -0.02674350 0.00952500
v 0.02299500 -0.02861440 0.00952500
v 0.02322280 -0.02929060 0.00952500
v 0.02312730 -0.02894630 0.00952500
v 0.02328070 -0.02964320 0.00952500
v 0.02322280 -0.03070940 0.00952500
v 0.02299500 -0.03138560 0.00952500
v 0.02312730 -0.03105370 0.00952500
v 0.02017870 -0.03329520 0.00952500
v 0.01671930 -0.02964320 0.00952500
v 0.01670000 -0.03000000 0.00952500
v 0.01700500 -0.02861440 0.00952500
v 0.01687270 -0.02894630 0.00952500
v 0.01845430 -0.02708440 0.00952500
v 0.01814810 -0.02726860 0.00952500
v 0.02213640 -0.02748490 0.00952500
v 0.02185190 -0.02726860 0.00952500
v 0.02282760 -0.03170130 0.00952500
v 0.01877850 -0.03306560 0.00952500
v 0.01911720 -0.03317970 0.00952500
v 0.01814810 -0.03273140 0.00952500
v 0.01845430 -0.03291560 0.00952500
v 0.01677720 -0.02929060 0.00952500
v 0.01717240 -0.02829870 0.00952500
v 0.01760420 -0.02773060 0.00952500
v 0.01737290 -0.02800290 0.00952500
v 0.01786360 -0.02748490 0.00952500
v 0.01982130 -0.02670480 0.00952500
v 0.02088280 -0.02682030 0.00952500
v 0.02053390 -0.02674350 0.00952500
v 0.02154570 -0.02708440 0.00952500
v 0.02122150 -0.02693440 0.00952500
v 0.02239580 -0.02773060 0.00952500
v 0.02282760 -0.02829870 0.00952500
v 0.02262710 -0.02800290 0.00952500
v 0.02262710 -0.03199710 0.00952500
v 0.02239580 -0.03226940 0.00952500
v 0.01982130 -0.03329520 0.00952500
v 0.01946610 -0.03325650 0.00952500
v 0.02017870 -0.02670480 0.00952500
v 0.01760420 -0.03226940 0.00952500
v 0.01786360 -0.03251510 0.00952500
v 0.01717240 -0.03170130 0.00952500
v 0.01737290 -0.03199710 0.00952500
v 0.01677720 -0.03070940 0.00952500
v 0.01687270 -0.03105370 0.00952500
v 0.01700500 -0.03138560 0.00952500
v 0.01671930 -0.03035680 0.00952500
v 0.01670000 -0.03000000 0.01107500
v 0.01671930 -0.03035680 0.01107500
v 0.01677720 -0.03070940 0.01107500
v 0.01687270 -0.03105370 0.01107500
v 0.01700500 -0.03138560 0.01107500
v 0.01717240 -0.03170130 0.01107500
v 0.01737290 -0.03199710 0.01107500
v 0.01760420 -0.03226940 0.01107500
v 0.01786360 -0.03251510 0.01107500
v 0.01814810 -0.03273140 0.01107500
v 0.01845430 -0.03291560 0.01107500
v 0.01877850 -0.03306560 0.01107500
v 0.01911720 -0.03317970 0.01107500
v 0.01946610 -0.03325650 0.01107500
v 0.01982130 -0.03329520 0.01107500
v 0.02017870 -0.03329520 0.01107500
v 0.02053390 -0.03325650 0.01107500
v 0.02088280 -0.03317970 0.01107500
v 0.02122150 -0.03306560 0.01107500
v 0.02154570 -0.03291560 0.01107500
v 0.02185190 -0.03273140 0.01107500
v 0.02213640 -0.03251510 0.01107500
v 0.02239580 -0.03226940 0.01107500
v 0.02262710 -0.03199710 0.01107500
v 0.02282760 -0.03170130 0.01107500
v 0.02299500 -0.03138560 0.01107500
v 0.02312730 -0.03105370 0.01107500
v 0.02322280 -0.03070940 0.01107500
v 0.02328070 -0.03035680 0.01107500
v 0.02330000 -0.03000000 0.01107500
v 0.02328070 -0.02964320 0.01107500
v 0.02322280 -0.02929060 0.01107500
v 0.02312730 -0.02894630 0.01107500
v 0.02299500 -0.02861440 0.01107500
v 0.02282760 -0.02829870 0.01107500
v 0.02262710 -0.02800290 0.01107500
v 0.02239580 -0.02773060 0.01107500
v 0.02213640 -0.02748490 0.01107500
v 0.02185190 -0.02726860 0.01107500
v 0.02154570 -0.02708440 0.01107500
v 0.02122150 -0.02693440 0.01107500
v 0.02088280 -0.02682030 0.01107500
v 0.02053390 -0.02674350 0.01107500
v 0.02017870 -0.02670480 0.01107500
v 0.01982130 -0.02670480 0.01107500
v 0.01946610 -0.02674350 0.01107500
v 0.01911720 -0.02682030 0.01107500
v 0.01877850 -0.02693440 0.01107500
v 0.01845430 -0.02708440 0.01107500
v 0.01814810 -0.02726860 0.01107500
v 0.01786360 -0.02748490 0.01107500
v 0.01760420 -0.02773060 0.01107500
v 0.01737290 -0.02800290 0.01107500
v 0.01717240 -0.02829870 0.01107500
v 0.01700500 -0.02861440 0.01107500
v 0.01687270 -0.02894630 0.01107500
v 0.01677720 -0.02929060 0.01107500
v 0.01671930 -0.02964320 0.01107500
f 16 18 85
f 29 32 69
f 31 52 67
f 32 31 68
f 57 56 62
f 53 57 63
f 54 53 64
f 51 54 65
f 52 51 66
f 58 21 59
f 56 55 61
f 55 58 60
f 38 50 102
f 11 38 103
f 9 11 104
f 10 9 105
f 24 10 106
f 25 24 107
f 37 25 108
f 35 37 109
f 36 35 110
f 34 36 111
f 22 34 112
f 23 22 113
f 33 23 114
f 20 33 115
f 21 20 116
f 116 59 21
f 2 16 86
f 1 2 87
f 15 1 88
f 13 15 89
f 14 13 90
f 12 14 91
f 44 12 92
f 45 44 93
f 43 45 94
f 26 43 95
f 27 26 96
f 41 27 97
f 42 41 98
f 39 42 99
f 40 39 100
f 50 40 101
f 30 29 70
f 49 30 71
f 48 49 72
f 19 48 73
f 8 19 74
f 6 8 75
f 7 6 76
f 5 7 77
f 3 5 78
f 4 3 79
f 47 4 80
f 46 47 81
f 28 46 82
f 17 28 83
f 18 17 84
f 100 101 40
f 84 85 18
f 85 86 16
f 102 103 38
f 103 104 11
f 104 105 9
f 105 106 10
f 106 107 24
f 107 108 25
f 108 109 37
f 109 110 35
f 110 111 36
f 111 112 34
f 112 113 22
f 113 114 23
f 114 115 33
f 101 102 50
f 59 60 58
f 60 61 55
f 70 71 30
f 71 72 49
f 72 73 48
f 73 74 19
f 74 75 8
f 75 76 6
f 76 77 7
f 77 78 5
f 78 79 3
f 79 80 4
f 80 81 47
f 81 82 46
f 82 83 28
f 83 84 17
f 69 70 29
f 68 69 32
f 86 87 2
f 87 88 1
f 88 89 15
f 89 90 13
f 90 91 14
f 91 92 12
f 92 93 44
f 93 94 45
f 94 95 43
f 95 96 26
f 96 97 27
f 97 98 41
f 98 99 42
f 99 100 39
f 115 116 20
f 63 64 53
f 65 66 51
f 67 68 31
f 61 62 56
f 62 63 57
f 64 65 54
f 66 67 52
f 85 18 16
f 69 32 29
f 67 52 31
f 68 31 32
f 62 56 57
f 63 57 53
f 64 53 54
f 65 54 51
f 66 51 52
f 59 21 58
f 61 55 56
f 60 58 55
f 102 50 38
f 103 38 11
f 104 11 9
f 105 9 10
f 106 10 24
f 107 24 25
f 108 25 37
f 109 37 35
f 110 35 36
f 111 36 34
f 112 34 22
f 113 22 23
f 114 23 33
f 115 33 20
f 116 20 21
f 21 59 116
f 86 16 2
f 87 2 1
f 88 1 15
f 89 15 13
f 90 13 14
f 91 14 12
f 92 12 44
f 93 44 45
f 94 45 43
f 95 43 26
f 96 26 27
f 97 27 41
f 98 41 42
f 99 42 39
f 100 39 40
f 101 40 50
f 70 29 30
f 71 30 49
f 72 49 48
f 73 48 19
f 74 19 8
f 75 8 6
f 76 6 7
f 77 7 5
f 78 5 3
f 79 3 4
f 80 4 47
f 81 47 46
f 82 46 28
f 83 28 17
f 84 17 18
f 40 101 100
f 18 85 84
f 16 86 85
f 38 103 102
f 11 104 103
f 9 105 104
f 10 106 105
f 24 107 106
f 25 108 107
f 37 109 108
f 35 110 109
f 36 111 110
f 34 112 111
f 22 113 112
f 23 114 113
f 33 115 114
f 50 102 101
f 58 60 59
f 55 61 60
f 30 71 70
f 49 72 71
f 48 73 72
f 19 74 73
f 8 75 74
f 6 76 75
f 7 77 76
f 5 78 77
f 3 79 78
f 4 80 79
f 47 81 80
f 46 82 81
f 28 83 82
f 17 84 83
f 29 70 69
f 32 69 68
f 2 87 86
f 1 88 87
f 15 89 88
f 13 90 89
f 14 91 90
f 12 92 91
f 44 93 92
f 45 94 93
f 43 95 94
f 26 96 95
f 27 97 96
f 41 98 97
f 42 99 98
f 39 100 99
f 20 116 115
f 53 64 63
f 51 66 65
f 31 68 67
f 56 62 61
f 57 63 62
f 54 65 64
f 52 67 66

