# https://github.com/mikedh/trimesh
v 0.00326800 0.01993390 0.01287500
v 0.00540407 0.01946370 0.01287500
v 0.00109361 0.02017040 0.01287500
v 0.00747679 0.01876530 0.01287500
v -0.00326800 0.01993390 0.01287500
v -0.00109361 0.02017040 0.01287500
v -0.00540407 0.01946370 0.01287500
v -0.00747679 0.01876530 0.01287500
v 0.01133600 0.01671930 0.01287500
v 0.01307720 0.01539570 0.01287500
v 0.00946185 0.01784690 0.01287500
v -0.01914260 0.00644989 0.01287500
v -0.01833300 0.00848176 0.01287500
v -0.01972770 0.00434240 0.01287500
v -0.02008160 0.00218400 0.01287500
v -0.02020000 0.00000000 0.01287500
v -0.01833300 -0.00848176 0.01287500
v -0.01914260 -0.00644989 0.01287500
v -0.01730850 -0.01041420 0.01287500
v -0.00946185 -0.01784690 0.01287500
v -0.01133600 -0.01671930 0.01287500
v -0.00747679 -0.01876530 0.01287500
v 0.02008160 0.00218400 0.01287500
v 0.01972770 0.00434240 0.01287500
v 0.01914260 0.00644989 0.01287500
v 0.01833300 0.00848176 0.01287500
v 0.01730850 0.01041420 0.01287500
v 0.01608110 0.01222450 0.01287500
v 0.01466510 0.01389150 0.01287500
v -0.00946185 0.01784690 0.01287500
v -0.01466510 0.01389150 0.01287500
v -0.01307720 0.01539570 0.01287500
v -0.01608110 0.01222450 0.01287500
v -0.01730850 0.01041420 0.01287500
v -0.02008160 -0.00218400 0.01287500
v -0.01972770 -0.00434240 0.01287500
v -0.01608110 -0.01222450 0.01287500
v -0.01307720 -0.01539570 0.01287500
v -0.00540407 -0.01946370 0.01287500
v -0.01133600 0.01671930 0.01287500
v -0.01466510 -0.01389150 0.01287500
v -0.00326800 -0.01993390 0.01287500
v -0.00109361 -0.02017040 0.01287500
v 0.00540407 -0.01946370 0.01287500
v 0.00326800 -0.01993390 0.01287500
v 0.00747679 -0.01876530 0.01287500
v 0.00946185 -0.01784690 0.01287500
v 0.01133600 -0.01671930 0.01287500
v 0.01307720 -0.01539570 0.01287500
v 0.01466510 -0.01389150 0.01287500
v 0.01972770 -0.00434240 0.01287500
v 0.01914260 -0.00644989 0.01287500
v 0.02008160 -0.00218400 0.01287500
v 0.00109361 -0.02017040 0.01287500
v 0.01608110 -0.01222450 0.01287500
v 0.01730850 -0.01041420 0.01287500
v 0.01833300 -0.00848176 0.01287500
v 0.02020000 0.00000000 0.01287500
v -0.02008160 -0.00218400 0.01107500
v -0.02020000 0.00000000 0.01107500
v -0.01972770 -0.00434240 0.01107500
v -0.01914260 -0.00644989 0.01107500
v -0.01833300 -0.00848176 0.01107500
v -0.01730850 -0.01041420 0.01107500
v -0.01608110 -0.01222450 0.01107500
v -0.01466510 -0.01389150 0.01107500
v -0.01307720 -0.01539570 0.01107500
v -0.01133600 -0.01671930 0.01107500
v -0.00946185 -0.01784690 0.01107500
v -0.00747679 -0.01876530 0.01107500
v -0.00540407 -0.01946370 0.01107500
v -0.00326800 -0.01993390 0.01107500
v -0.00109361 -0.02017040 0.01107500
v 0.00109361 -0.02017040 0.01107500
v 0.00326800 -0.01993390 0.01107500
v 0.00540407 -0.01946370 0.01107500
v 0.00747679 -0.01876530 0.01107500
v 0.00946185 -0.01784690 0.01107500
v 0.01133600 -0.01671930 0.01107500
v 0.01307720 -0.01539570 0.01107500
v 0.01466510 -0.01389150 0.01107500
v 0.01608110 -0.01222450 0.01107500
v 0.01730850 -0.01041420 0.01107500
v 0.01833300 -0.00848176 0.01107500
v 0.01914260 -0.00644989 0.01107500
v 0.01972770 -0.00434240 0.01107500
v 0.02008160 -0.00218400 0.01107500
v 0.02020000 0.00000000 0.01107500
v 0.02008160 0.00218400 0.01107500
v 0.01972770 0.00434240 0.01107500
v 0.01914260 0.00644989 0.01107500
v 0.01833300 0.00848176 0.01107500
v 0.01730850 0.01041420 0.01107500
v 0.01608110 0.01222450 0.01107500
v 0.01466510 0.01389150 0.01107500
v 0.01307720 0.01539570 0.01107500
v 0.01133600 0.01671930 0.01107500
v 0.00946185 0.01784690 0.01107500
v 0.00747679 0.01876530 0.01107500
v 0.00540407 0.01946370 0.01107500
v 0.00326800 0.01993390 0.01107500
v 0.00109361 0.02017040 0.01107500
v -0.00109361 0.02017040 0.01107500
v -0.00326800 0.01993390 0.01107500
v -0.00540407 0.01946370 0.01107500
v -0.00747679 0.01876530 0.01107500
v -0.00946185 0.01784690 0.01107500
v -0.01133600 0.01671930 0.01107500
v -0.01307720 0.01539570 0.01107500
v -0.01466510 0.01389150 0.01107500
v -0.01608110 0.01222450 0.01107500
v -0.01730850 0.01041420 0.01107500
v -0.01833300 0.00848176 0.01107500
v -0.01914260 0.00644989 0.01107500
v -0.01972770 0.00434240 0.01107500
v -0.02008160 0.00218400 0.01107500
f 14 15 116
f 15 16 60
f 60 116 15
f 116 115 14
f 115 114 12
f 114 113 13
f 113 112 34
f 112 111 33
f 111 110 31
f 110 109 32
f 109 108 40
f 108 107 30
f 33 34 112
f 34 13 113
f 13 12 114
f 12 14 115
f 56 57 84
f 57 52 85
f 52 51 86
f 51 53 87
f 53 58 88
f 58 23 89
f 23 24 90
f 24 25 91
f 25 26 92
f 26 27 93
f 27 28 94
f 28 29 95
f 29 10 96
f 10 9 97
f 9 11 98
f 11 4 99
f 38 21 68
f 21 20 69
f 20 22 70
f 22 39 71
f 39 42 72
f 42 43 73
f 43 54 74
f 54 45 75
f 45 44 76
f 44 46 77
f 46 47 78
f 47 48 79
f 48 49 80
f 49 50 81
f 50 55 82
f 55 56 83
f 16 35 59
f 35 36 61
f 36 18 62
f 18 17 63
f 91 90 24
f 90 89 23
f 89 88 58
f 88 87 53
f 87 86 51
f 86 85 52
f 85 84 57
f 84 83 56
f 83 82 55
f 82 81 50
f 81 80 49
f 80 79 48
f 79 78 47
f 78 77 46
f 77 76 44
f 76 75 45
f 17 19 64
f 19 37 65
f 37 41 66
f 41 38 67
f 103 102 3
f 102 101 1
f 101 100 2
f 100 99 4
f 99 98 11
f 98 97 9
f 97 96 10
f 96 95 29
f 95 94 28
f 94 93 27
f 93 92 26
f 92 91 25
f 107 106 8
f 106 105 7
f 105 104 5
f 104 103 6
f 4 2 100
f 2 1 101
f 1 3 102
f 3 6 103
f 6 5 104
f 5 7 105
f 7 8 106
f 8 30 107
f 30 40 108
f 40 32 109
f 32 31 110
f 31 33 111
f 75 74 54
f 74 73 43
f 73 72 42
f 72 71 39
f 71 70 22
f 70 69 20
f 69 68 21
f 68 67 38
f 67 66 41
f 66 65 37
f 65 64 19
f 64 63 17
f 63 62 18
f 62 61 36
f 61 59 35
f 59 60 16
f 116 15 14
f 60 16 15
f 15 116 60
f 14 115 116
f 12 114 115
f 13 113 114
f 34 112 113
f 33 111 112
f 31 110 111
f 32 109 110
f 40 108 109
f 30 107 108
f 112 34 33
f 113 13 34
f 114 12 13
f 115 14 12
f 84 57 56
f 85 52 57
f 86 51 52
f 87 53 51
f 88 58 53
f 89 23 58
f 90 24 23
f 91 25 24
f 92 26 25
f 93 27 26
f 94 28 27
f 95 29 28
f 96 10 29
f 97 9 10
f 98 11 9
f 99 4 11
f 68 21 38
f 69 20 21
f 70 22 20
f 71 39 22
f 72 42 39
f 73 43 42
f 74 54 43
f 75 45 54
f 76 44 45
f 77 46 44
f 78 47 46
f 79 48 47
f 80 49 48
f 81 50 49
f 82 55 50
f 83 56 55
f 59 35 16
f 61 36 35
f 62 18 36
f 63 17 18
f 24 90 91
f 23 89 90
f 58 88 89
f 53 87 88
f 51 86 87
f 52 85 86
f 57 84 85
f 56 83 84
f 55 82 83
f 50 81 82
f 49 80 81
f 48 79 80
f 47 78 79
f 46 77 78
f 44 76 77
f 45 75 76
f 64 19 17
f 65 37 19
f 66 41 37
f 67 38 41
f 3 102 103
f 1 101 102
f 2 100 101
f 4 99 100
f 11 98 99
f 9 97 98
f 10 96 97
f 29 95 96
f 28 94 95
f 27 93 94
f 26 92 93
f 25 91 92
f 8 106 107
f 7 105 106
f 5 104 105
f 6 103 104
f 100 2 4
f 101 1 2
f 102 3 1
f 103 6 3
f 104 5 6
f 105 7 5
f 106 8 7
f 107 30 8
f 108 40 30
f 109 32 40
f 110 31 32
f 111 33 31
f 54 74 75
f 43 73 74
f 42 72 73
f 39 71 72
f 22 70 71
f 20 69 70
f 21 68 69
f 38 67 68
f 41 66 67
f 37 65 66
f 19 64 65
f 17 63 64
f 18 62 63
f 36 61 62
f 35 59 61
f 16 60 59

