# https://github.com/mikedh/trimesh
v -0.02750000 -0.02950000 0.00952500
v -0.02750000 0.02950000 0.00952500
v -0.03000000 0.02950000 0.00952500
v -0.03000000 -0.02950000 0.00952500
v -0.02750000 0.02950000 0.01107500
v -0.02750000 -0.02950000 0.01107500
v -0.02800000 0.02950000 0.01107500
v -0.03000000 0.02950000 0.01307500
v -0.02800000 0.02950000 0.01307500
v -0.03000000 -0.02950000 0.01307500
v -0.02800000 -0.02950000 0.01107500
v -0.02800000 -0.02950000 0.01307500
v -0.02800000 0.02811800 0.01497710
v -0.02800000 0.02791580 0.01503130
v -0.02800000 0.02883830 0.01456130
v -0.02800000 0.02867560 0.01469300
v -0.02800000 0.02831350 0.01490210
v -0.02800000 0.02850000 0.01480710
v -0.02800000 0.02923210 0.01407500
v -0.02800000 0.02911800 0.01425060
v -0.02800000 -0.02940210 0.01369300
v -0.02800000 -0.02945630 0.01349080
v -0.02800000 0.02770910 0.01506400
v -0.02800000 0.02932710 0.01388850
v -0.02800000 -0.02948900 0.01328410
v -0.02800000 -0.02850000 0.01480710
v -0.02800000 -0.02867560 0.01469300
v -0.02800000 -0.02791580 0.01503130
v -0.02800000 -0.02811800 0.01497710
v -0.02800000 0.02898630 0.01441330
v -0.02800000 0.02940210 0.01369300
v -0.02800000 0.02948900 0.01328410
v -0.02800000 0.02945630 0.01349080
v -0.02800000 -0.02932710 0.01388850
v -0.02800000 -0.02911800 0.01425060
v -0.02800000 -0.02923210 0.01407500
v -0.02800000 -0.02831350 0.01490210
v -0.02800000 -0.02770910 0.01506400
v -0.02800000 -0.02883830 0.01456130
v -0.02800000 -0.02898630 0.01441330
v -0.02800000 -0.02750000 0.01507500
v -0.02800000 0.02750000 0.01507500
v -0.03000000 0.02770910 0.01506400
v -0.03000000 0.02850000 0.01480710
v -0.03000000 0.02867560 0.01469300
v -0.03000000 0.02831350 0.01490210
v -0.03000000 0.02791580 0.01503130
v -0.03000000 -0.02811800 0.01497710
v -0.03000000 -0.02791580 0.01503130
v -0.03000000 -0.02883830 0.01456130
v -0.03000000 -0.02867560 0.01469300
v -0.03000000 0.02750000 0.01507500
v -0.03000000 0.02898630 0.01441330
v -0.03000000 0.02911800 0.01425060
v -0.03000000 0.02811800 0.01497710
v -0.03000000 -0.02831350 0.01490210
v -0.03000000 -0.02850000 0.01480710
v -0.03000000 -0.02948900 0.01328410
v -0.03000000 -0.02945630 0.01349080
v -0.03000000 0.02923210 0.01407500
v -0.03000000 0.02883830 0.01456130
v -0.03000000 0.02940210 0.01369300
v -0.03000000 0.02945630 0.01349080
v -0.03000000 0.02932710 0.01388850
v -0.03000000 -0.02770910 0.01506400
v -0.03000000 -0.02911800 0.01425060
v -0.03000000 -0.02898630 0.01441330
v -0.03000000 -0.02932710 0.01388850
v -0.03000000 -0.02923210 0.01407500
v -0.03000000 -0.02940210 0.01369300
v -0.03000000 0.02948900 0.01328410
v -0.03000000 -0.02750000 0.01507500
f 11 4 1
f 10 4 11
f 8 9 7
f 71 32 9
f 58 25 22
f 59 22 21
f 2 3 7
f 7 3 8
f 1 6 11
f 7 5 2
f 11 12 10
f 61 15 30
f 54 20 19
f 63 33 32
f 62 31 33
f 67 40 39
f 34 68 70
f 53 30 20
f 35 66 69
f 36 69 68
f 9 8 71
f 72 41 42
f 42 52 72
f 20 54 53
f 21 70 59
f 70 21 34
f 10 12 25
f 56 37 29
f 43 23 14
f 47 14 13
f 55 13 17
f 46 17 18
f 17 46 55
f 13 55 47
f 23 43 52
f 52 42 23
f 44 18 16
f 45 16 15
f 26 57 51
f 27 51 50
f 18 44 46
f 16 45 44
f 64 24 31
f 60 19 24
f 69 36 35
f 68 34 36
f 66 35 40
f 41 72 65
f 57 26 37
f 14 47 43
f 50 39 27
f 51 27 26
f 28 49 48
f 32 71 63
f 33 63 62
f 31 62 64
f 24 64 60
f 19 60 54
f 22 59 58
f 25 58 10
f 49 28 38
f 48 29 28
f 65 38 41
f 29 48 56
f 40 67 66
f 39 50 67
f 15 61 45
f 30 53 61
f 37 56 57
f 38 65 49
f 1 4 11
f 11 4 10
f 7 9 8
f 9 32 71
f 22 25 58
f 21 22 59
f 7 3 2
f 8 3 7
f 11 6 1
f 2 5 7
f 10 12 11
f 30 15 61
f 19 20 54
f 32 33 63
f 33 31 62
f 39 40 67
f 70 68 34
f 20 30 53
f 69 66 35
f 68 69 36
f 71 8 9
f 42 41 72
f 72 52 42
f 53 54 20
f 59 70 21
f 34 21 70
f 25 12 10
f 29 37 56
f 14 23 43
f 13 14 47
f 17 13 55
f 18 17 46
f 55 46 17
f 47 55 13
f 52 43 23
f 23 42 52
f 16 18 44
f 15 16 45
f 51 57 26
f 50 51 27
f 46 44 18
f 44 45 16
f 31 24 64
f 24 19 60
f 35 36 69
f 36 34 68
f 40 35 66
f 65 72 41
f 37 26 57
f 43 47 14
f 27 39 50
f 26 27 51
f 48 49 28
f 63 71 32
f 62 63 33
f 64 62 31
f 60 64 24
f 54 60 19
f 58 59 22
f 10 58 25
f 38 28 49
f 28 29 48
f 41 38 65
f 56 48 29
f 66 67 40
f 67 50 39
f 45 61 15
f 61 53 30
f 57 56 37
f 49 65 38

