# https://github.com/mikedh/trimesh
v -0.03000000 -0.02030000 0.00952500
v -0.03000000 0.02950000 0.00952500
v -0.03000000 -0.02950000 0.00952500
v -0.03000000 0.02950000 0.01307500
v -0.03000000 -0.02950000 0.01307500
v -0.03000000 0.02770910 0.01506400
v -0.03000000 0.02850000 0.01480710
v -0.03000000 0.02867560 0.01469300
v -0.03000000 0.02831350 0.01490210
v -0.03000000 0.02791580 0.01503130
v -0.03000000 -0.02811800 0.01497710
v -0.03000000 -0.02791580 0.01503130
v -0.03000000 -0.02883830 0.01456130
v -0.03000000 -0.02867560 0.01469300
v -0.03000000 0.02750000 0.01507500
v -0.03000000 0.02898630 0.01441330
v -0.03000000 0.02911800 0.01425060
v -0.03000000 0.02811800 0.01497710
v -0.03000000 -0.02831350 0.01490210
v -0.03000000 -0.02850000 0.01480710
v -0.03000000 -0.02948900 0.01328410
v -0.03000000 -0.02945630 0.01349080
v -0.03000000 0.02923210 0.01407500
v -0.03000000 0.02883830 0.01456130
v -0.03000000 0.02940210 0.01369300
v -0.03000000 0.02945630 0.01349080
v -0.03000000 0.02932710 0.01388850
v -0.03000000 -0.02770910 0.01506400
v -0.03000000 -0.02911800 0.01425060
v -0.03000000 -0.02898630 0.01441330
v -0.03000000 -0.02932710 0.01388850
v -0.03000000 -0.02923210 0.01407500
v -0.03000000 -0.02940210 0.01369300
v -0.03000000 0.02948900 0.01328410
v -0.03000000 -0.02750000 0.01507500
f 9 6 10
f 6 9 7
f 15 2 1
f 1 11 12
f 30 13 1
f 33 31 1
f 27 25 15
f 32 29 1
f 34 4 15
f 1 3 5
f 1 35 15
f 4 2 15
f 15 16 17
f 28 35 1
f 10 18 9
f 24 15 6
f 17 23 15
f 1 21 22
f 14 20 1
f 1 19 11
f 1 31 32
f 8 24 6
f 12 28 1
f 1 29 30
f 22 33 1
f 1 5 21
f 15 25 26
f 23 27 15
f 1 13 14
f 20 19 1
f 6 7 8
f 24 16 15
f 26 34 15
f 10 6 9
f 7 9 6
f 1 2 15
f 12 11 1
f 1 13 30
f 1 31 33
f 15 25 27
f 1 29 32
f 15 4 34
f 5 3 1
f 15 35 1
f 15 2 4
f 17 16 15
f 1 35 28
f 9 18 10
f 6 15 24
f 15 23 17
f 22 21 1
f 1 20 14
f 11 19 1
f 32 31 1
f 6 24 8
f 1 28 12
f 30 29 1
f 1 33 22
f 21 5 1
f 26 25 15
f 15 27 23
f 14 13 1
f 1 19 20
f 8 7 6
f 15 16 24
f 15 34 26

